<svg width="490" height="436" viewBox="0 0 490 436" fill="none" xmlns="http://www.w3.org/2000/svg">
<g clip-path="url(#clip0_5888_1530)">
<path d="M241.112 396.451C241.112 396.451 163.659 396.042 160.26 398.674C156.868 401.305 127.821 430.415 128.878 433.67C129.934 436.925 238.065 436.688 239.797 433.483C241.529 430.278 242.787 396.48 241.112 396.444V396.451Z" fill="#555555"/>
<path d="M162.481 399.254C162.481 399.254 130.638 428.852 132.852 429.97C135.058 431.089 234.832 430.701 236.527 429.655C238.216 428.608 239.416 398.035 238.31 397.476C237.203 396.917 164.198 397.125 162.488 399.254H162.481Z" fill="white"/>
<path d="M202.975 427.274C201.883 426.722 197.815 426.593 196.515 426.995C194.265 427.073 192.016 427.109 189.767 427.109C190.428 425.726 191.003 423.969 189.12 423.532C186.202 422.843 182.767 423.13 179.842 423.596C178.506 423.811 177.047 424.062 175.933 424.872C175.61 425.109 175.308 425.374 175.071 425.697C174.697 426.199 174.625 426.887 174.173 427.296C173.619 427.805 172.548 427.561 171.78 427.554C170.881 427.539 169.976 427.532 169.078 427.518C167.274 427.496 165.477 427.468 163.673 427.482C163.623 427.482 163.587 427.496 163.544 427.511C162.711 427.496 161.949 427.547 161.525 427.74C160.274 428.314 159.57 433.089 160.792 433.706C160.792 433.706 202.199 435.039 202.838 433.856C203.478 432.673 204.189 427.898 202.961 427.281L202.975 427.274ZM167.683 429.64C167.683 429.361 167.561 428.959 167.425 428.601C168.97 428.651 170.515 428.694 172.06 428.737C172.879 428.758 173.914 428.973 174.704 428.68C175.416 428.421 175.445 427.948 175.639 427.332C176.494 424.629 180.726 424.557 183.148 424.428C184.499 424.356 185.857 424.378 187.201 424.492C187.812 424.542 188.926 424.492 189.127 425.302C189.256 425.812 188.473 426.966 188.25 427.389C188.049 427.776 188.272 428.292 188.768 428.292C191.06 428.314 193.353 428.278 195.638 428.206C195.523 428.694 195.516 429.203 195.508 429.533C195.494 430.128 167.669 430.235 167.676 429.633L167.683 429.64Z" fill="black"/>
<path d="M232.518 422.85C226.215 422.793 219.899 422.987 213.596 422.958C212.202 422.958 212.202 425.102 213.596 425.123C219.891 425.202 226.222 425.36 232.518 425.123C233.976 425.066 233.991 422.865 232.518 422.85Z" fill="#F2F2F2"/>
<path d="M231.964 417.523C228.788 417.287 225.511 417.559 222.32 417.616C218.972 417.674 215.623 417.731 212.274 417.788C205.713 417.903 199.145 418.025 192.584 418.161C191.254 418.19 191.254 420.233 192.584 420.219C199.145 420.147 205.713 420.076 212.274 419.982C215.486 419.939 218.706 419.896 221.918 419.846C225.238 419.803 228.659 419.982 231.964 419.631C233.308 419.488 233.337 417.624 231.964 417.523Z" fill="#F2F2F2"/>
<path d="M232.956 412.167C227.767 411.952 222.371 412.784 217.204 413.185C215.86 413.286 215.831 415.372 217.204 415.301C222.486 415.021 228.026 415.136 233.236 414.239C234.451 414.031 234.091 412.217 232.956 412.167Z" fill="#F2F2F2"/>
<path d="M212.604 413.099C206.985 412.856 201.329 412.978 195.702 412.949C190.068 412.92 184.434 412.82 178.8 412.906C177.507 412.927 177.507 414.87 178.8 414.906C184.427 415.078 190.068 415.078 195.702 415.136C201.329 415.193 206.978 415.408 212.604 415.258C213.999 415.222 213.991 413.164 212.604 413.099Z" fill="#F2F2F2"/>
<path d="M231.749 407.105C222.579 406.797 213.338 407.098 204.189 407.686C202.831 407.772 202.81 409.873 204.189 409.816C213.381 409.407 222.55 409.357 231.749 409.342C233.193 409.342 233.186 407.156 231.749 407.113V407.105Z" fill="#F2F2F2"/>
<path d="M233.279 401.613C211.153 401.499 189.019 401.369 166.886 401.635C165.563 401.649 165.563 403.678 166.886 403.685C189.019 403.736 211.146 403.7 233.279 403.958C234.796 403.972 234.796 401.62 233.279 401.613Z" fill="#F2F2F2"/>
<path d="M212.324 397.856C212.324 397.856 181.265 408.79 174.101 410.074C171.672 410.504 169.02 410.905 166.555 410.475C164.881 410.181 165.42 409.113 166.455 408.26C167.705 407.227 169.149 406.417 170.687 405.872C173.461 404.89 176.379 404.273 179.253 403.549C183.658 402.438 188.064 401.326 192.469 400.208C196.867 399.097 201.257 397.978 205.648 396.86C208.034 396.25 210.427 395.669 212.799 395.01C216.349 394.02 219.36 395.189 212.317 397.863L212.324 397.856Z" fill="#F376BE"/>
<path d="M164.184 409.493C164.73 409.328 165.276 409.185 165.822 409.034C166.605 408.819 167.051 409.945 166.261 410.196C165.722 410.368 165.183 410.54 164.636 410.697C163.817 410.934 163.357 409.737 164.177 409.486L164.184 409.493Z" fill="#842A2E"/>
<path d="M199.971 397.168C203.076 397.096 205.49 396.602 208.149 395.017C210.262 393.755 212.13 393.777 214.509 394.214C215.307 394.357 215.077 395.512 214.279 395.404C212.619 395.182 211.024 395.038 209.5 395.849C208.551 396.351 207.711 397.017 206.719 397.455C204.649 398.373 202.328 398.502 200.086 398.559C199.166 398.58 199.037 397.197 199.964 397.175L199.971 397.168Z" fill="#D70C80"/>
<path d="M190.27 400.817C191.089 400.531 191.951 401.19 192.296 401.879C192.749 402.768 192.447 403.664 191.894 404.438C191.606 404.84 190.895 404.395 191.146 403.972C191.419 403.513 191.556 402.904 191.29 402.402C191.053 401.957 190.629 401.922 190.219 401.721C189.831 401.542 189.853 400.961 190.263 400.817H190.27Z" fill="#D70C80"/>
<path d="M430.34 384.836L69.4045 388.306C69.4045 388.306 10.9158 338.655 21.9754 270.82C33.035 202.979 71.1292 185.413 53.1062 146.997C35.0831 108.58 10.0966 51.7735 98.5663 8.05163C187.036 -35.6774 348.417 113.485 393.475 103.676C438.532 93.8679 490.137 130.649 481.535 202.162C472.933 273.681 436.477 296.151 440.573 322.307C444.669 348.463 449.994 371.758 430.333 384.836H430.34Z" fill="#E6E6E6"/>
<path d="M393.475 103.676C348.417 113.485 187.036 -35.6774 98.5662 8.05163C90.0578 12.2603 82.5984 16.5838 76.0805 21.0004C75.326 91.509 73.7666 283.081 72.7605 283.081C71.5317 283.081 58.8336 283.49 58.0144 286.35C57.1951 289.211 58.0144 297.793 60.0624 298.611C61.8734 299.335 368.201 302.612 443.943 302.798C452.804 282.056 475.06 256.007 481.542 202.169C490.144 130.649 438.532 93.875 393.482 103.683L393.475 103.676Z" fill="#DDDDDD"/>
<path d="M481.542 202.162C490.144 130.642 438.532 93.8679 393.482 103.676C348.424 113.485 187.043 -35.6774 98.5735 8.05163C97.0213 8.81881 95.4978 9.59316 94.0174 10.3675C93.4353 36.8817 88.1032 282.306 91.2004 283.081C94.1683 283.819 396.78 283.353 454.105 283.26C464.209 264.963 476.914 240.671 481.542 202.162Z" fill="#E6E6E6"/>
<path d="M396.342 188.675C388.969 188.675 281.564 284.465 281.564 284.465C281.564 284.465 442.628 286.343 445.215 285.296C447.802 284.249 403.715 188.675 396.342 188.675ZM420.919 270.813C419.69 272.039 323.847 269.996 323.847 269.996C323.847 269.996 389.795 213.189 392.663 214.824C395.53 216.458 422.155 269.587 420.926 270.813H420.919Z" fill="#DDDDDD"/>
<path d="M197.722 27.7544C171.607 27.7544 145.492 27.905 119.378 27.9838C115.21 27.9982 115.202 34.4367 119.378 34.4511C145.492 34.5299 171.607 34.6805 197.722 34.6805C202.185 34.6805 202.192 27.7544 197.722 27.7544Z" fill="#DDDDDD"/>
<path d="M151.033 42.969C139.966 42.7109 128.806 43.5856 117.797 44.6395C113.837 45.0196 113.729 51.1928 117.797 50.906C128.871 50.1173 139.945 49.9524 151.033 49.4936C155.223 49.3215 155.258 43.0693 151.033 42.969Z" fill="#DDDDDD"/>
<path d="M240.056 43.5282C216.32 43.4063 192.576 43.6931 168.833 43.8006C164.701 43.8221 164.694 50.189 168.833 50.2105C192.569 50.318 216.313 50.6048 240.056 50.4829C244.54 50.4614 244.547 43.5497 240.056 43.5282Z" fill="#DDDDDD"/>
<path d="M184.664 62.8724C163.436 62.7147 142.194 62.8868 120.959 63.1592C116.848 63.2094 116.841 69.4831 120.959 69.5404C142.187 69.8129 163.429 69.985 184.664 69.8272C189.149 69.7914 189.156 62.9083 184.664 62.8724Z" fill="#DDDDDD"/>
<path d="M238.834 135.31C248.112 132.055 257.389 128.563 266.092 123.967C272.279 134.155 280.694 143.225 291.574 148.151C305.616 154.504 322.302 158.304 337.537 154.346C338.629 154.059 339.707 153.729 340.771 153.356C340.9 153.579 341.066 153.801 341.267 154.016C350.084 163.437 350.709 175.655 350.242 187.743C349.61 187.707 348.978 187.7 348.352 187.707C345.133 187.757 344.17 191.299 345.931 193.536C347.476 195.501 348.805 197.652 349.991 199.846C350.824 201.395 352.98 201.882 354.461 201.015C355.488 200.412 355.998 199.408 356.034 198.355C356.185 198.018 356.293 197.659 356.365 197.279C358.614 196.985 360.684 194.332 359.196 191.988C358.621 191.077 357.917 190.353 357.12 189.779C358.104 175.97 356.789 160.72 346.922 150.603C356.789 145.19 364.284 135.776 365.707 124.311C365.944 122.375 363.875 120.705 362.092 120.705C359.951 120.705 358.701 122.368 358.478 124.311C357.256 134.822 348.252 143.326 338.644 146.76C325.428 151.478 310.819 148.517 298.099 143.663C291.854 141.282 286.199 137.963 281.52 133.159C276.921 128.434 273.098 122.884 269.836 117.17C266.58 111.463 264.029 105.354 262.894 98.8582C261.701 92.011 262.664 85.0992 264.64 78.5029C266.674 71.7202 269.44 64.9232 273.105 58.8431C274.593 56.3838 276.332 53.9819 278.373 51.917C276.49 50.8702 274.593 49.8234 272.689 48.7766C267.062 54.8638 263.44 63.0948 260.515 70.6949C257.641 78.1731 255.564 86.1675 255.894 94.2336C256.196 101.669 258.388 108.817 261.557 115.514C262.031 116.525 262.534 117.529 263.052 118.525C246.351 125.573 229.305 131.316 212.001 136.758C194.74 142.186 177.478 147.843 161.295 156.009C153.972 159.709 146.922 163.903 140.419 168.879C138.903 167.244 135.597 167.259 134.749 170.062C133.858 173.016 132.593 175.734 130.94 178.343C129.223 181.061 132.047 183.678 134.727 183.262C137.58 182.817 140.433 182.373 143.293 181.928C145.076 181.649 146.211 179.318 145.694 177.712C145.341 176.623 144.925 175.583 144.436 174.594C157.393 165.488 171.514 158.483 186.375 152.89C203.643 146.394 221.429 141.411 238.834 135.303V135.31Z" fill="#DDDDDD"/>
<path d="M301.383 73.1182C293.464 73.1397 285.559 73.2472 277.64 73.3906C273.486 73.4695 273.486 79.7503 277.64 79.8292C285.552 79.9726 293.464 80.0801 301.383 80.1016C305.889 80.116 305.896 73.1038 301.383 73.1182Z" fill="#DDDDDD"/>
<path d="M330.66 88.8848C321.505 88.5836 312.313 88.8203 303.151 88.7055C293.988 88.598 284.819 88.2897 275.649 88.3327C271.51 88.3542 271.603 94.3841 275.649 94.6852C284.79 95.3592 293.988 95.5169 303.151 95.689C312.299 95.8611 321.512 96.2052 330.66 95.8396C335.137 95.6603 335.158 89.0354 330.66 88.8848Z" fill="#DDDDDD"/>
<path d="M304.157 106.702C297.165 106.652 290.173 106.716 283.188 106.946C279.041 107.082 279.034 113.248 283.188 113.384C290.173 113.614 297.172 113.678 304.157 113.628C308.62 113.599 308.627 106.731 304.157 106.702Z" fill="#DDDDDD"/>
<path d="M360.339 106.781C346.089 106.982 331.867 107.663 317.602 107.627C313.276 107.62 313.291 114.202 317.602 114.323C331.774 114.725 346.204 114.876 360.339 113.621C364.658 113.234 364.823 106.716 360.339 106.781Z" fill="#DDDDDD"/>
<path d="M325.522 126.434C319.967 126.591 314.426 126.412 308.907 125.81C305.249 125.408 304.351 131.768 308.03 132.27C313.844 133.066 319.658 133.51 325.522 133.381C329.999 133.281 330.013 126.297 325.522 126.426V126.434Z" fill="#DDDDDD"/>
<path d="M135.992 193.536C127.167 194.261 118.343 194.849 109.482 195.013C105.35 195.092 105.343 201.344 109.482 201.423C118.321 201.581 127.189 201.359 135.992 200.463C137.853 200.276 139.463 199.007 139.463 196.999C139.463 195.243 137.868 193.386 135.992 193.536Z" fill="#DDDDDD"/>
<path d="M163.702 209.776C154.597 209.791 145.492 209.934 136.387 209.848C127.29 209.762 118.192 209.317 109.087 209.238C104.94 209.203 105.099 215.175 109.087 215.562C118.142 216.437 127.297 216.609 136.387 216.767C145.5 216.925 154.597 216.932 163.702 216.473C167.992 216.258 168.05 209.769 163.702 209.776Z" fill="#DDDDDD"/>
<path d="M429.585 116.216C419.173 117.02 408.76 117.034 398.34 117.557C394.488 117.751 394.682 122.942 398.34 123.394C408.63 124.663 419.288 124.161 429.585 123.178C431.461 122.999 433.071 121.709 433.071 119.701C433.071 117.93 431.475 116.08 429.585 116.224V116.216Z" fill="#DDDDDD"/>
<path d="M410.19 141.332C423.376 141.655 436.57 141.505 449.757 141.476C457.137 141.462 464.518 141.469 471.905 141.454C470.554 138.923 469.088 136.514 467.529 134.22C461.607 134.263 455.686 134.313 449.764 134.349C436.578 134.428 423.376 134.385 410.197 134.815C405.993 134.951 405.979 141.232 410.197 141.34L410.19 141.332Z" fill="#DDDDDD"/>
<path d="M477.733 155.192C469.728 154.676 461.722 154.217 453.717 153.808C449.333 153.579 449.419 160.211 453.717 160.562C462.398 161.272 471.086 161.932 479.774 162.512C479.185 160.003 478.502 157.558 477.733 155.192Z" fill="#DDDDDD"/>
<path d="M302.174 163.996C296.094 164.011 290.043 163.717 283.978 163.423C282.275 163.337 280.823 164.928 280.823 166.57C280.823 168.456 282.282 169.488 283.978 169.718C290 170.528 296.101 170.808 302.174 170.865C306.6 170.908 306.608 163.982 302.174 163.996Z" fill="#DDDDDD"/>
<path d="M314.441 177.117C310.172 176.594 305.781 176.881 301.484 176.902C297.028 176.916 292.58 176.938 288.125 176.952C279.35 176.988 270.583 177.053 261.816 177.139C257.554 177.175 257.547 183.706 261.816 183.749C270.583 183.828 279.357 183.9 288.125 183.936C292.443 183.95 296.762 183.964 301.081 183.986C305.508 184 310.043 184.309 314.441 183.771C318.709 183.247 318.716 177.662 314.441 177.132V177.117Z" fill="#DDDDDD"/>
<path d="M318.795 190.905C311.142 190.711 303.496 190.826 295.85 190.891C291.516 190.926 291.509 197.58 295.85 197.616C303.503 197.68 311.149 197.795 318.795 197.602C323.114 197.494 323.121 191.02 318.795 190.905Z" fill="#DDDDDD"/>
<path d="M44.533 150.997C41.7017 142.781 37.3612 135.217 33.6674 127.38C30.2396 120.095 26.9771 112.452 26.8837 104.494C26.8621 102.393 26.3878 100.973 24.2966 100.722C22.3851 100.493 21.0844 101.561 20.7466 103.676C18.1668 119.586 27.1927 134.033 33.3369 147.907C36.2904 154.568 38.2738 161.444 37.7708 168.65C37.2031 176.73 33.5022 184.352 29.636 191.335C25.2811 199.2 20.416 206.758 16.4852 214.852C12.389 223.291 8.9612 232.081 6.33104 241.087C0.85514 259.829 -1.81095 279.991 1.36536 299.371C4.72852 319.884 17.0601 337.737 29.3485 354.184C31.7631 357.418 35.3275 355.676 33.3584 351.947C24.9865 336.073 15.3857 320.493 11.3398 302.812C7.17183 284.594 9.42112 265.343 14.2215 247.468C16.5714 238.706 19.6399 230.131 23.4918 221.915C27.2861 213.813 31.9787 206.256 36.4341 198.519C40.6812 191.127 44.727 183.298 46.3727 174.866C47.9465 166.807 47.2063 158.741 44.533 150.997Z" fill="#E6E6E6"/>
<path d="M482.699 139.432C476.986 122.253 465.179 104.436 448.306 96.5638C443.462 94.3053 438.396 92.6921 433.229 91.3585C427.839 89.9747 422.306 88.8204 416.736 88.5336C405.957 87.9671 395.444 91.4589 384.636 90.4192C373.317 89.3294 361.438 86.7698 351.701 81.1988C347.698 78.9044 345.32 82.4248 349.193 84.8698C357.752 90.2687 366.921 94.9219 376.824 97.2951C381.761 98.4782 386.878 99.1091 391.951 99.0016C397.398 98.8869 402.781 97.9763 408.199 97.5604C418.605 96.7574 428.845 98.9586 438.669 102.285C447.285 105.204 454.895 109.771 460.853 116.697C467.378 124.275 471.776 130.986 476.619 139.633C478.509 143.003 483.949 143.211 482.692 139.425L482.699 139.432Z" fill="#E6E6E6"/>
<path d="M485.566 147.556C479.659 147.556 479.652 156.712 485.566 156.712C491.48 156.712 491.48 147.556 485.566 147.556Z" fill="#E6E6E6"/>
<path d="M213.661 310.047C213.661 310.047 137.314 291.491 133.793 314.951C131.335 331.298 137.688 378.204 142.194 387.646L193.274 387.116L213.661 310.054V310.047Z" fill="#1A1A1A"/>
<path d="M241.464 231.63C232.503 229.135 169.02 236.9 169.02 236.9L211.706 386.937L302.389 386.062C295.124 364.968 249.707 233.917 241.472 231.623L241.464 231.63Z" fill="white"/>
<path d="M300.09 345.194C292.717 332.524 295.584 296.969 295.584 296.969C295.584 296.969 325.895 327.62 336.545 334.976C347.195 342.333 352.52 278.578 352.52 278.578C352.52 278.578 347.195 278.17 331.63 262.231C316.065 246.292 297.632 219.319 294.355 217.684C291.078 216.05 288.211 213.189 286.982 211.554C285.753 209.92 280.428 202.563 275.103 202.563C273.407 202.563 268.37 202.814 262.261 203.151C249.226 203.875 231.296 205.015 230.462 205.015C229.233 205.015 218.174 191.12 212.439 190.711C206.705 190.303 209.572 212.372 209.572 212.372L226.776 231.58C226.776 231.58 259.135 307.179 265.689 324.752C271.661 340.77 283.087 372.073 292.81 386.148L324.005 385.847C319.068 376.024 305.903 355.16 300.097 345.186L300.09 345.194Z" fill="#094792"/>
<path d="M292.307 377.48C287.988 367.313 287.6 354.608 286.321 343.738C285.013 332.632 283.374 321.576 281.348 310.577C279.271 299.314 276.813 288.129 273.968 277.037C271.172 266.139 268.262 255.14 263.972 244.722C261.967 239.847 259.983 234.577 255.276 231.687C251.654 229.472 247.386 228.891 243.419 227.522C244.842 225.894 246.279 224.252 247.558 222.524C249.01 220.567 249.053 218.43 247.565 216.466C245.92 214.293 243.448 212.544 241.306 210.888C239.057 209.145 235.759 207.295 233.315 205.833C231.662 204.843 230.52 206.413 232.086 207.467C235.636 209.862 239.689 213.705 242.83 216.616C243.477 217.219 244.533 217.95 244.921 218.767C245.46 219.893 244.519 220.631 243.85 221.413C242.255 223.27 240.638 225.12 239.043 226.977C238.346 227.787 238.259 229.328 239.416 229.859C243.412 231.702 247.867 232.261 251.834 234.132C256.577 236.369 258.366 241.173 260.213 245.755C264.331 255.972 267.22 266.669 269.958 277.316C275.57 299.156 279.695 321.354 282.411 343.731C283.813 355.274 285.157 366.947 289.928 377.68C290.898 379.86 293.205 379.623 292.293 377.472L292.307 377.48Z" fill="#062F60"/>
<path d="M294.793 271.494C294.147 267.042 293.471 262.589 292.975 258.115C292.472 253.606 292.436 249.103 292.12 244.586C291.976 242.507 289.145 242.564 288.922 244.586C288.448 248.916 288.908 253.412 289.325 257.728C289.756 262.145 290.388 266.54 291.006 270.935C291.107 271.631 291.207 272.319 291.315 273.014C288.218 272.455 284.934 272.161 281.88 272.441C280.716 272.548 279.142 272.677 278.179 273.43C277.101 274.276 277.381 275.316 277.755 276.463C278.387 278.385 278.955 280.313 279.379 282.292C279.645 283.533 279.566 285.261 280.328 286.307C281.197 287.505 282.721 287.282 284.028 287.268C286.055 287.247 288.081 287.268 290.108 287.175C292.135 287.082 292.156 284.049 290.108 284.02C288.592 283.999 287.068 284.063 285.552 284.099C284.848 284.113 283.964 283.999 283.274 284.156C283.109 284.135 282.986 284.121 282.871 284.113C282.828 283.848 282.785 283.59 282.742 283.325C282.476 281.833 282.138 280.356 281.736 278.894C281.535 278.162 281.319 277.438 281.082 276.721C281.025 276.549 280.874 276.011 280.73 275.596C282.368 275.101 284.531 275.38 286.062 275.467C287.974 275.574 289.878 275.768 291.79 275.918C292.975 283.181 294.319 290.437 293.96 297.786C293.838 300.31 296.748 300.346 296.87 297.822C297.301 288.996 296.08 280.206 294.808 271.487L294.793 271.494Z" fill="#062F60"/>
<path opacity="0.5" d="M297.495 255.341C297.402 250.243 297.682 243.969 297.186 238.886C296.288 229.744 293.895 221.714 289.447 213.59C288.814 212.436 287.118 213.483 287.701 214.637C296.389 231.823 295.081 251.598 295.296 270.283C295.311 271.659 297.079 270.878 297.172 269.544C297.531 264.597 297.596 260.302 297.503 255.348L297.495 255.341Z" fill="#062F60"/>
<path d="M215.192 386.901C216.356 381.064 217.764 371.736 217.764 360.723C217.764 341.924 213.258 313.725 204.657 288.394C196.055 263.055 175.344 227.17 175.344 227.17C175.344 227.17 197.283 200.534 179.26 200.534C161.237 200.534 158.78 214.021 158.78 214.021C158.78 214.021 151.816 216.881 149.358 218.516C146.901 220.151 145.262 223.42 144.443 224.238C143.624 225.055 123.553 230.777 116.18 234.455C108.807 238.133 103.072 248.759 102.662 254.889C102.253 261.019 106.759 266.332 107.168 266.741C107.578 267.149 105.12 270.419 103.891 272.462C102.662 274.506 104.301 278.184 104.301 279.41C104.301 291.118 101.57 302.726 101.189 314.342C101.081 317.597 99.9029 321.11 99.2777 324.308C99.0908 325.276 98.8968 326.251 98.4872 327.147C97.8333 328.595 96.6691 329.742 95.663 330.969C92.4723 334.862 90.7261 339.902 90.8267 344.928C90.8626 346.592 91.0854 348.262 90.9129 349.919C90.6973 351.94 89.8925 353.848 89.3176 355.805C86.5796 365.111 89.2529 375.4 94.6282 383.481C95.3468 384.556 96.2307 385.689 97.5099 385.926C98.2357 386.055 98.9759 385.875 99.6657 385.624C102.303 384.685 104.516 382.85 106.521 380.907C113.133 374.49 118.034 366.545 124.099 359.612C128.526 354.55 133.549 350.048 138.565 345.566C139.592 344.649 141.684 342.677 143.257 343.121C144.177 343.38 144.58 344.749 145.032 345.602C146.211 347.832 147.389 350.069 148.561 352.306C151.227 357.375 153.879 362.459 156.494 367.556C157.932 370.36 159.362 373.163 160.734 375.995C161.237 377.042 162.452 378.734 162.452 379.946C162.452 380.799 162.114 384.234 161.855 387.431L215.177 386.922L215.192 386.901Z" fill="#094792"/>
<path opacity="0.5" d="M142.733 288.587C141.31 278.951 137.868 269.472 133.024 261.034C128.447 253.061 122.403 244.65 114.009 240.384C112.996 239.868 112.112 241.345 113.111 241.911C121.138 246.507 126.894 254.925 131.285 262.84C135.863 271.1 138.759 279.948 140.39 289.226C140.663 290.774 142.956 290.093 142.733 288.58V288.587Z" fill="#062F60"/>
<path d="M195.07 314.542C189.68 304.318 183.637 294.459 177.579 284.63C171.686 275.072 165.405 265.572 160.353 255.541C158.866 252.595 158.198 249.705 159.24 246.507C160.073 243.955 161.633 241.682 163.07 239.445C164.335 237.473 166.11 234.641 163.458 232.906C162.416 232.225 160.878 232.117 159.685 231.931C158.614 231.766 157.544 231.644 156.466 231.558C156.825 226.31 157.745 220.746 159.189 215.663C159.779 213.59 157.896 213.332 157.141 215.254C154.906 220.968 152.952 227.17 152.679 233.272C152.628 234.326 153.57 235.036 154.525 235.114C156.042 235.236 157.558 235.423 159.053 235.681C159.232 235.71 160.145 235.81 160.641 235.925C160.397 236.147 160.131 236.807 160.059 236.914C158.729 238.95 157.342 240.965 156.315 243.181C154.267 247.583 154.245 251.827 156.229 256.266C158.442 261.213 161.482 265.895 164.248 270.548C167.073 275.302 169.976 280.005 172.872 284.708C184.205 303.085 195.724 321.619 202.896 342.096C206.856 353.403 210.635 365.52 211.21 377.501C211.325 379.867 213.675 379.473 213.654 377.078C213.424 355.045 205.224 333.829 195.077 314.564L195.07 314.542Z" fill="#062F60"/>
<path d="M159.405 373.264C162.56 362.982 166.354 331.506 166.354 331.506L145.931 347.294C149.962 354.93 155.848 366.158 159.405 373.264Z" fill="#062F60"/>
<path d="M215.572 203.409C202.659 200.871 179.26 202.979 179.26 202.979C179.26 202.979 169.66 203.359 169.164 212.142C169.904 215.892 171.679 219.635 173.224 222.947C175.243 227.278 177.737 231.379 179.972 235.595C182.408 240.183 184.779 244.801 187.072 249.454C189.623 247.662 191.937 246.35 193.044 246.507C196.263 246.966 205.454 255.678 205.454 255.678L215.565 251.548C215.565 251.548 224.756 239.165 226.596 240.083C228.436 241.001 235.938 255.427 238.238 254.05C240.537 252.673 230.045 206.234 215.565 203.395L215.572 203.409Z" fill="white"/>
<path d="M179.26 205.431C179.26 205.431 170.249 207.883 171.902 211.203C172.857 213.124 175.574 216.466 175.574 216.466L185.232 217.627L179.26 205.431Z" fill="#1A1A1A"/>
<path d="M222.155 107.283C218.152 97.0872 212.82 98.8582 212.82 98.8582C211.929 82.009 193.712 73.1399 173.713 87.7736C161.23 96.908 154.64 109.319 151.442 117.356C151.96 114.152 152.988 110.99 154.03 108.215C156.509 101.597 160.468 95.5385 165.413 90.4909C166.641 89.2362 165.197 88.3256 163.939 89.5445C158.284 95.0367 153.519 100.679 150.796 108.071C148.834 113.406 147.16 119.837 148.295 125.616C145.514 126.505 133.139 131.933 143.049 156.067C154.159 183.119 179.045 198.19 179.045 198.19L195.932 199.079L223.93 137.002C223.93 137.002 226.151 117.493 222.155 107.29V107.283Z" fill="#021D3E"/>
<path d="M174.654 184.144C174.654 184.144 179.253 198.82 178.333 206.614C177.414 214.408 175.574 216.466 175.574 216.466C175.574 216.466 202.199 240.986 204.656 247.934C205.627 250.673 212.748 262.238 213.668 262.238C214.588 262.238 226.776 233.221 218.792 200.656C212.087 173.303 174.661 184.144 174.661 184.144H174.654Z" fill="#F2AF97"/>
<path d="M218.785 200.656C218.512 199.387 218.167 198.204 217.757 197.093C217.62 197.007 217.477 196.92 217.333 196.82L186.08 195.608C186.08 195.608 189.68 206.965 201.265 212.816C204.29 214.343 211.886 215.326 218.397 210.938C218.634 210.665 218.849 210.4 219.043 210.156C219.388 209.704 219.697 209.181 219.963 208.6C219.712 205.825 219.331 203.165 218.785 200.656Z" fill="#EE9677"/>
<path d="M227.128 133.654C228.96 138.622 243.958 172.801 239.057 187.793C236.47 195.716 226.819 201.316 219.956 203.33C198.836 209.525 184.485 199.115 175.042 185.771C175.042 185.771 152.829 183.434 154.842 164.613C156.322 150.782 171.586 165.093 171.586 165.093C171.586 165.093 171.88 158.053 170.565 147.441C169.99 142.809 171.571 136.923 175.933 135.217C189.077 130.069 209.708 125.021 210.334 110.71C210.334 110.71 224.124 125.501 227.128 133.654Z" fill="#F2AF97"/>
<path d="M221.925 158.963C221.422 158.153 220.128 157.895 219.122 158.425C218.138 158.942 217.146 159.465 216.162 159.981C215.163 160.505 214.732 161.623 215.242 162.441C215.745 163.251 217.038 163.509 218.044 162.978C219.029 162.462 220.021 161.939 221.005 161.422C222.004 160.899 222.435 159.781 221.925 158.963Z" fill="#EE9677"/>
<path d="M194.093 129.81C192.361 131.445 190.392 132.793 188.746 134.521C187.079 136.278 185.635 138.235 184.039 140.049C182.595 141.684 185.031 144.057 186.483 142.401C188.078 140.587 189.515 138.622 191.19 136.873C192.842 135.152 194.804 133.797 196.536 132.162C198.131 130.657 195.688 128.305 194.093 129.81Z" fill="#021D3E"/>
<path d="M229.916 136.055C228.493 134.492 226.797 133.897 224.814 133.324C222.737 132.714 221.544 135.883 223.643 136.5C224.95 136.88 226.323 137.138 227.279 138.185C228.738 139.791 231.382 137.669 229.916 136.055Z" fill="#021D3E"/>
<path d="M236.836 161.172C236.836 161.172 235.385 164.656 232.309 164.871C229.226 165.093 213.589 164.298 203.277 169.403C197.089 172.471 186.612 173.317 179.145 168.22C171.672 163.122 171.025 151.55 171.025 151.55L166.958 161.465C166.958 161.465 169.94 164.333 172.117 169.266C174.295 174.199 175.092 189.141 181.258 188.697C181.258 188.697 189.271 210.149 211.706 208.063C247.005 204.772 245.956 175.217 236.844 161.164L236.836 161.172Z" fill="#021D3E"/>
<path d="M228.314 174.393C222.996 177.72 220.006 178.042 213.876 177.899C212.13 177.856 211.864 179.412 213.661 179.519C219.884 179.899 225.13 181.24 229.959 176.529C231.195 175.325 229.808 173.461 228.314 174.393Z" fill="white"/>
<path d="M189.321 150.617C189.206 153.643 193.065 155.242 195.429 153.363C196.019 152.897 196.522 152.281 196.73 151.557C196.867 151.083 196.874 150.574 196.802 150.087C196.73 149.585 196.572 149.083 196.27 148.674C194.445 146.244 189.616 147.398 189.328 150.417C189.328 150.488 189.314 150.553 189.314 150.625L189.321 150.617Z" fill="#1A1A1A"/>
<path d="M225.468 144.107C225.439 142.809 226.129 141.311 227.466 141.175C228.579 141.06 229.672 141.024 230.57 141.82C231.353 142.515 231.562 144.021 231.454 145.025C231.095 148.201 226.143 147.391 225.54 144.717C225.497 144.523 225.475 144.315 225.468 144.1V144.107Z" fill="#1A1A1A"/>
<path d="M201.904 251.77C200.862 249.634 198.376 247.719 196.414 246.407C194.625 245.21 192.735 244.966 190.794 245.977C189.364 246.723 188.006 247.69 186.691 248.701C187.072 249.469 187.445 250.236 187.812 251.003C188.286 250.666 188.761 250.336 189.242 250.006C190.054 249.461 190.902 248.766 191.8 248.372C193.396 247.669 194.344 248.178 195.609 249.175C197.247 250.465 198.555 252.251 200.323 253.333C201.365 253.971 202.371 252.745 201.89 251.77H201.904Z" fill="#E6E6E6"/>
<path d="M231.82 247.748C230.872 245.869 229.78 244.098 228.479 242.435C227.739 241.489 226.963 240.262 225.597 240.449C224.232 240.635 222.845 242.263 222.011 243.209C220.639 244.765 219.532 246.529 218.188 248.106C217.448 248.974 218.612 250.178 219.453 249.368C221.25 247.633 222.701 245.504 224.634 243.912C224.914 243.704 225.195 243.503 225.475 243.295C225.475 242.822 225.612 242.872 225.892 243.46C226.402 243.769 226.804 244.665 227.149 245.167C228.012 246.436 228.773 247.748 229.471 249.117C230.261 250.68 232.611 249.304 231.828 247.748H231.82Z" fill="#E6E6E6"/>
<path d="M167.173 333.141C167.173 333.141 147.921 361.34 137.07 375.845C126.621 389.805 108.807 400.366 96.1086 386.062C83.4105 371.758 96.9278 341.107 98.9759 337.429C101.024 333.751 115.77 319.447 116.999 317.403C118.228 315.36 116.999 314.542 119.047 312.09C121.095 309.638 143.559 283.239 143.559 283.239L167.173 333.134V333.141Z" fill="#094792"/>
<path d="M212.985 229.436C209.098 227.658 204.779 226.848 200.603 226.037C198.742 225.679 196.795 225.414 194.955 226.002C193.13 226.59 191.815 228.031 190.334 229.185C189.429 229.888 190.607 231.401 191.563 230.77C192.943 229.866 194.258 228.576 195.918 228.196C197.815 227.758 199.906 228.368 201.753 228.769C205.145 229.501 208.566 230.153 211.771 231.515C213.172 232.11 214.423 230.081 212.993 229.429L212.985 229.436Z" fill="#EE9677"/>
<path d="M159.599 317.812V326.803C159.599 326.803 162.466 334.159 166.153 333.75C169.839 333.342 172.297 317.812 169.43 310.864C166.562 303.917 159.599 317.812 159.599 317.812Z" fill="#1A1A1A"/>
<path d="M176.803 305.96L159.599 326.803C159.599 326.803 152.226 310.047 149.768 307.186C147.31 304.325 140.347 289.204 142.395 285.117C144.443 281.03 154.683 270.405 154.683 270.405L176.803 305.96Z" fill="white"/>
<path d="M166.066 301.4C166.066 301.4 174.345 306.369 176.803 305.96C179.26 305.551 171.887 293.291 171.887 293.291L166.066 301.4Z" fill="#1A1A1A"/>
<path d="M198.512 234.448H218.986L226.769 265.916L209.773 260.611L198.512 252.021V234.448Z" fill="#CE624D"/>
<path d="M203.018 245.626C202.271 244.772 201.459 243.912 201.178 242.815C200.884 241.668 201.286 240.37 202.177 239.581C202.881 238.958 203.816 238.664 204.743 238.463C206.654 238.047 208.695 237.911 210.37 236.885C212.037 235.86 213.115 233.501 211.965 231.917C211.246 230.927 209.946 230.597 208.745 230.325C205.21 229.536 201.674 228.74 198.131 227.952C196.062 227.486 194.826 227.464 193.137 228.776C191.671 229.909 190.428 231.3 189.134 232.619C185.441 236.376 181.258 239.603 176.99 242.679C174.927 244.163 172.757 245.418 171.118 247.361C169.415 249.368 167.849 251.49 166.282 253.606C161.309 260.317 156.329 267.028 151.356 273.739C149.66 279.955 152.449 286.286 156.049 291.312C159.175 295.678 163.214 300.117 168.136 302.569C168.344 302.361 168.531 302.117 168.697 301.895C172.203 297.213 176.824 293.37 182.077 290.781C184.909 289.383 187.905 288.351 190.658 286.802C193.403 285.253 195.954 283.088 197.14 280.17C197.607 279.023 198.06 278.965 199.209 278.715C200.417 278.449 201.653 278.385 202.867 278.162C204.419 277.89 206.575 277.166 207.244 275.56C208.02 273.681 208.099 271.265 207.682 269.3C208.501 268.971 209.32 268.634 210.053 268.139C211.491 267.178 211.979 265.773 212.087 264.095C212.418 259.005 209.119 254.767 206.676 250.652C205.619 248.866 204.391 247.181 203.025 245.618L203.018 245.626Z" fill="#F2AF97"/>
<path d="M198.34 236.154C198.34 236.154 200.431 232.799 205.943 232.591C211.447 232.383 214.372 233.344 214.372 233.344C214.372 233.344 215.306 241.826 214.48 241.367C213.654 240.915 210.887 237.115 205.332 237.896C199.777 238.678 198.34 236.147 198.34 236.147V236.154Z" fill="#F1E6DC"/>
<path d="M209.435 255.326C209.435 255.326 212.712 259.241 218.188 259.872C223.664 260.51 221.688 267.608 220.423 267.558C219.158 267.508 210.434 263.371 206.834 258.159C203.234 252.953 209.435 255.319 209.435 255.319V255.326Z" fill="#F1E6DC"/>
<path d="M190.011 239.087C190.025 238.692 198.419 235.487 203.119 236.068C207.818 236.642 210.851 239.51 211.138 242.27C211.196 242.858 211.268 243.424 211.103 243.991C210.944 244.529 210.693 244.995 210.635 245.575C210.513 246.801 211.627 247.454 212.425 248.192C214.013 249.669 214.466 252.136 213.79 254.194C213.108 256.294 210.894 257.076 208.745 257.736C207.287 258.187 204.922 259.134 203.42 259.37C199.375 260.008 196.349 261.105 192.275 261.557L190.011 239.087Z" fill="#F2AF97"/>
<path d="M208.264 257.628C206.942 258.03 205.598 258.367 204.24 258.661C201.329 259.148 198.39 259.385 195.494 260.073C194.797 260.238 195.049 261.242 195.746 261.141C195.817 261.134 195.882 261.127 195.954 261.113C196.04 261.17 196.141 261.206 196.256 261.206C200.524 261.249 203.823 262.453 207.926 260.998C209.342 260.496 209.759 257.169 208.264 257.621V257.628Z" fill="#EE9677"/>
<path d="M205.26 236.334C205.21 236.126 205.059 235.954 204.8 235.86C204.714 235.81 204.613 235.767 204.498 235.738C201.645 234.928 198.749 234.842 195.94 235.323C195.156 234.706 194.122 234.355 193.159 234.304C192.67 234.283 192.648 234.957 193.087 235.064C193.108 235.079 193.123 235.093 193.151 235.1C193.367 235.172 193.561 235.258 193.755 235.358C191.427 235.452 189.149 236.075 187.065 237.144C186.626 237.373 186.986 238.04 187.424 237.818C188.825 237.122 190.27 236.671 191.757 236.42C191.039 236.663 190.14 237.122 189.3 237.574C188.904 237.782 188.502 237.99 188.114 238.212C188.092 238.219 188.085 238.234 188.064 238.248C187.992 238.291 187.913 238.334 187.841 238.37C187.481 238.563 187.568 238.807 187.834 238.965C187.949 239.28 188.301 239.51 188.71 239.323C193.475 237.101 198.735 236.054 203.773 237.172C204.958 237.438 205.655 237.144 205.26 236.319V236.334Z" fill="#EE9677"/>
<path d="M209.802 225.779C209.802 225.779 217.692 272.52 221.372 275.617C225.058 278.715 248.155 283.002 252.308 274.298C256.462 265.594 260.975 226.095 260.637 223.973C260.299 221.85 254.515 218.244 233.344 218.681C212.173 219.119 209.407 224.919 209.795 225.779H209.802Z" fill="#F1E6DC"/>
<path d="M258.431 224.711C258.488 227.249 248.334 229.544 235.737 229.845C223.139 230.146 212.885 228.339 212.82 225.801C212.755 223.263 222.442 220.18 235.04 219.879C247.637 219.578 258.374 222.173 258.431 224.711Z" fill="#E5D6CA"/>
<path d="M252.546 227.945C248.342 226.819 242.578 225.966 236.326 225.808C227.782 225.586 220.517 226.718 216.701 228.253C220.818 229.393 227.818 230.038 235.737 229.845C242.406 229.687 248.392 228.963 252.546 227.945Z" fill="#3A1714"/>
<path d="M259.099 224.962C257.001 228.69 250.957 229.178 247.185 229.665C242.887 230.217 238.518 230.139 234.242 230.698C233.38 230.813 233.308 232.275 234.17 232.44C238.956 233.365 244.504 232.268 249.269 231.515C253.58 230.827 258.014 229.773 260.249 225.693C260.666 224.933 259.538 224.202 259.107 224.962H259.099Z" fill="#FFFEFD"/>
<path d="M254.752 238.068C254.816 234.899 250.059 234.72 249.829 237.875C249.463 242.98 248.399 247.927 247.609 252.975C247.156 255.843 251.662 256.438 252.531 253.835C254.206 248.816 254.644 243.331 254.752 238.068Z" fill="#FFFEFD"/>
<path d="M249.154 256.732C245.733 256.595 245.517 261.901 248.945 262.03C252.366 262.166 252.581 256.861 249.154 256.732Z" fill="#FFFEFD"/>
<path d="M218.159 261.191C216.284 252.645 214.451 244.106 212.763 235.523C212.597 234.692 211.361 235 211.491 235.817C212.863 244.435 214.559 253.075 216.665 261.543C216.902 262.496 218.368 262.159 218.159 261.191Z" fill="#E5D6CA"/>
<path d="M140.21 285.927C135.554 290.896 130.854 295.865 126.413 301.034C122.511 305.573 117.588 310.011 115.425 315.69C114.333 318.558 113.032 320.687 110.725 322.745C108.649 324.595 106.428 326.258 104.466 328.237C100.672 332.051 97.8835 336.977 95.6414 341.86C93.0975 347.395 91.6172 353.296 91.2938 359.376C91.2004 361.096 93.8018 361.053 93.9527 359.376C94.5779 352.543 96.7409 345.968 100.198 340.046C101.973 337.006 104.085 334.188 106.514 331.635C108.814 329.226 111.487 327.283 113.923 325.025C116.453 322.68 117.746 320.121 118.989 316.966C120.455 313.245 123.431 310.391 125.996 307.401C131.486 301.02 135.963 294.187 141.166 287.577C142.395 286.013 141.648 284.393 140.21 285.927Z" fill="#062F60"/>
<path d="M246.552 361.118C245.18 357.002 243.52 352.994 241.658 349.072C239.855 345.272 237.9 341.343 238.813 337.027C239.639 333.148 241.342 329.714 240.76 325.641C240.228 321.934 238.36 318.608 236.333 315.517C231.662 308.391 227.387 301.35 224.146 293.434C220.488 284.493 217.786 275.208 215.005 265.966C214.502 264.289 211.886 264.991 212.36 266.691C216.794 282.6 221.566 298.869 230.735 312.814C232.949 316.184 235.536 319.482 236.887 323.318C238.346 327.448 237.131 330.847 236.017 334.855C233.703 343.2 239.035 350.298 241.91 357.784C244.935 365.678 247.853 377.279 249.039 386.578L252.287 386.549C251.238 378.354 248.845 368.008 246.545 361.118H246.552Z" fill="#F2F2F2"/>
<path d="M433.746 147.348C433.746 147.348 434.846 142.093 433.617 141.684C432.388 141.275 413.955 155.17 398.39 160.892C382.825 166.614 376.271 166.205 375.452 168.657C374.632 171.109 371.765 200.534 365.621 219.742C359.477 238.95 341.863 276.141 339.815 279.001C337.767 281.862 358.657 277.775 358.657 277.775L402.077 232.82L433.746 147.355V147.348Z" fill="#F2F2F2"/>
<path d="M352.103 281.855C352.103 281.855 341.863 285.942 339.815 286.35C337.767 286.759 367.259 222.187 372.175 208.708C377.09 195.221 378.728 173.152 379.957 171.518C381.186 169.883 408.63 157.623 420.919 151.084C433.207 144.545 436.894 139.64 438.123 140.049C439.351 140.458 438.123 149.858 438.123 149.858L352.111 281.855H352.103Z" fill="#F2F2F2"/>
<path d="M424.196 280.22C424.196 280.22 393.884 309.645 384.053 313.732C374.223 317.819 345.55 282.672 345.55 282.672L404.125 258.969L424.196 280.22Z" fill="#094792"/>
<path d="M414.875 275.746C414.875 275.746 420.919 283.081 424.196 280.22C427.473 277.359 415.594 261.421 415.594 261.421L414.875 275.746Z" fill="#1A1A1A"/>
<path d="M426.028 266.619L416.823 277.768C416.823 277.768 404.125 265.099 402.486 258.151C400.848 251.204 409.45 246.3 409.45 246.3L426.028 266.619Z" fill="white"/>
<path d="M419.69 265.099C419.69 265.099 426.653 269.186 426.244 265.508C425.834 261.829 419.69 253.656 419.69 253.656V265.099Z" fill="#1A1A1A"/>
<path d="M447.422 226.439C447.422 226.439 450.835 232.856 444.36 239.825C437.885 246.794 430.333 252.473 428.745 253.778C427.156 255.083 419.69 265.099 419.69 265.099C419.69 265.099 403.305 254.473 403.032 244.916C402.824 237.674 423.535 225.908 423.535 225.908L447.414 226.446L447.422 226.439Z" fill="#F2AF97"/>
<path d="M428.752 214.171L423.535 225.908L437.39 227.522L443.958 213.877L428.752 214.171Z" fill="#C46049"/>
<path d="M401.559 266.325C401.559 266.325 432.582 225.901 434.256 217.613C435.931 209.324 438.41 174.328 438.963 168.557C439.517 162.785 445.33 141.791 443.879 141.655C442.427 141.519 386.303 172.844 386.303 172.844C386.303 172.844 369.846 225.729 362.631 243.095C355.416 260.46 342.524 288.351 342.991 289.563C343.458 290.774 367.417 275.294 401.552 266.325H401.559Z" fill="#F2F2F2"/>
<path d="M441.371 242.32C447.946 237.703 448.73 232.541 448.636 230.49C448.543 228.439 450.735 226.905 450.778 223.413C450.821 219.922 449.513 218.344 449.649 216.896C449.786 215.455 450.44 211.727 448.895 209.547C447.35 207.36 441.335 206.206 437.232 206.392C433.128 206.586 419.927 210.271 419.28 213.999C418.634 217.721 422.6 218.975 431.411 218.359C440.228 217.742 438.173 217.842 437.799 218.681C437.426 219.52 411.914 223.779 410.19 226.525C408.465 229.271 410.477 232.67 412.159 233.408C412.159 233.408 410.298 237.595 415.105 239.223C419.913 240.851 429.334 239.997 431.483 241.955C433.631 243.905 434.803 246.931 441.371 242.32Z" fill="#F2AF97"/>
<path d="M444.655 211.182C444.655 211.182 449.398 198.24 444.123 195.408C438.848 192.576 423.693 198.405 422.715 199.48C421.738 200.549 422.119 208.744 437.368 204.958L435.974 210.357L444.648 211.189L444.655 211.182Z" fill="#F2AF97"/>
<path d="M419.74 239.381C424.332 239.173 430.498 237.918 434.221 241.41C435.363 242.478 433.89 244.378 432.69 243.324C430.944 241.797 428.924 241.539 426.682 241.381C424.339 241.216 422.033 240.937 419.697 240.693C418.957 240.614 418.986 239.409 419.74 239.381Z" fill="#EE9677"/>
<path d="M430.462 206.535C435.457 204.076 441.292 204.069 446.308 206.449C447.522 207.023 446.71 208.866 445.46 208.356C440.738 206.413 435.334 206.342 430.75 208.543C429.327 209.224 429.061 207.231 430.462 206.535Z" fill="#EE9677"/>
<path d="M439.531 143.706C433.897 147.09 428.263 150.417 422.514 153.543C426.74 150.768 430.879 147.828 434.637 144.516C435.478 143.77 434.357 142.286 433.423 142.946C426.768 147.642 420.193 152.338 413.28 156.655C409.967 158.727 406.661 160.82 403.291 162.792C395.659 165.983 387.877 168.743 380.022 171.41C379.354 171.123 378.319 171.468 378.204 172.435C377.313 180.028 375.911 187.55 374.28 195.013C372.742 202.054 371.14 209.102 368.948 215.978C366.828 222.625 364.399 229.185 361.87 235.71C361.676 235.789 361.51 235.939 361.402 236.161C358.054 243.109 355.15 250.3 351.953 257.32C348.841 264.16 345.226 270.907 342.503 277.904C342.093 278.951 343.746 279.596 344.292 278.657C346.146 275.467 347.792 272.111 349.358 268.72C347.698 273.739 346.074 278.822 344.328 283.49C343.875 284.687 345.291 283.87 345.751 282.708C351.507 268.34 357.048 253.878 362.667 239.459C365.333 232.605 368.114 225.779 370.464 218.803C372.8 211.863 374.503 204.736 376.106 197.595C377.888 189.636 379.411 181.627 380.432 173.532C380.446 173.532 380.46 173.532 380.482 173.525C384.341 172.457 388.164 171.231 391.951 169.876C392.152 169.948 392.39 169.962 392.655 169.876C396.263 168.815 399.619 167.323 402.86 165.61C405.727 164.398 408.573 163.143 411.39 161.846C421.472 157.2 430.584 151.213 439.768 144.953C440.99 144.114 440.846 142.924 439.538 143.706H439.531Z" fill="#E6E6E6"/>
<path d="M468.434 403.227C468.434 403.227 469.663 407.313 468.434 408.131C467.205 408.948 319.751 413.444 317.703 413.444C315.655 413.444 259.947 397.914 258.719 397.505C257.49 397.096 257.899 394.644 258.309 394.236C258.719 393.827 395.113 392.192 395.113 392.192L468.427 403.227H468.434Z" fill="#F376BE"/>
<path d="M467.615 405.27C467.615 405.27 320.57 410.992 318.932 410.174C317.293 409.357 315.245 407.313 315.655 403.227C316.065 399.14 325.486 291.255 325.486 291.255C325.486 291.255 326.305 286.35 331.22 286.759C336.136 287.168 475.807 284.307 475.807 284.307C475.807 284.307 481.951 285.124 481.542 290.029C481.132 294.933 473.35 400.366 473.35 400.366C473.35 400.366 473.35 404.861 467.615 405.27Z" fill="#FBD8EC"/>
<path d="M475.807 284.307C475.807 284.307 336.136 287.168 331.22 286.759C326.305 286.35 325.486 291.255 325.486 291.255C325.486 291.255 316.065 399.14 315.655 403.227C315.245 407.313 317.293 409.357 318.932 410.174C319.018 410.217 319.521 410.246 320.376 410.253C320.369 410.253 316.884 409.758 317.293 404.044C317.703 398.322 327.124 292.889 327.124 292.889C327.124 292.889 327.124 288.394 331.63 287.985C336.136 287.576 475.807 285.533 475.807 285.533C475.807 285.533 481.132 285.533 481.542 290.029C481.951 285.124 475.807 284.307 475.807 284.307Z" fill="#F376BE"/>
<path d="M317.703 410.583C317.703 410.174 316.065 408.948 315.655 406.496C315.289 404.302 316.316 394.171 316.474 393.01C291.66 393.39 260.206 393.963 258.395 394.214L258.316 394.236C258.316 394.236 317.71 410.992 317.71 410.583H317.703Z" fill="#FBD8EC"/>
<path d="M284.934 399.548C284.575 400.273 312.378 407.313 316.726 409.149C316.295 408.496 315.842 407.629 315.655 406.496C315.483 405.456 315.928 400.473 316.065 398.731C304.279 399.14 285.142 399.14 284.934 399.548Z" fill="#D70C80"/>
<path d="M333.491 403.879C328.518 401.828 324.372 406.432 321.663 409.902C319.694 412.426 317.265 415.688 314.333 417.143C312.572 418.018 310.617 417.452 308.807 417.029C307.003 416.613 305.206 416.19 303.402 415.774C303.187 415.724 303.007 415.774 302.878 415.889C302.734 415.874 302.576 415.917 302.44 416.032C302.31 416.14 302.217 416.247 302.131 416.347C293.73 414.706 285.286 413.229 276.821 411.959C275.865 410.203 275.247 408.245 274.686 406.338C273.896 403.657 273.314 400.703 270.957 398.917C269.929 398.143 265.79 396.2 264.971 398.1C264.884 398.308 264.913 398.494 264.999 398.645C264.949 398.774 264.956 398.932 265.042 399.097C266.875 402.445 268.664 405.672 270.195 409.17C270.482 409.823 270.777 410.482 271.093 411.135C268.736 410.812 266.386 410.497 264.022 410.21C263.425 410.138 263.275 411.178 263.878 411.264C266.516 411.666 269.146 412.074 271.776 412.483C272.753 414.283 273.917 415.96 275.477 417.308C277.949 419.445 281.255 420.277 284.409 420.821C285.257 420.965 287.047 421.596 287.693 420.814C287.715 420.786 287.729 420.757 287.751 420.728C297.689 423.188 308.131 423.015 318.141 425.138C318.932 425.303 319.277 424.105 318.479 423.919C308.303 421.574 297.747 421.725 287.564 419.474C287.528 419.438 287.499 419.402 287.456 419.366C287.449 419.352 287.449 419.337 287.442 419.323C287.09 418.778 286.472 418.448 285.861 418.269C285.71 418.226 285.581 418.247 285.473 418.298C285.027 418.14 284.553 418.025 284.143 417.875C282.455 417.258 280.838 416.426 279.458 415.265C278.804 414.713 278.251 414.096 277.762 413.429C285.983 414.749 294.183 416.14 302.375 417.674C302.928 418.126 303.855 418.427 304.38 418.541C307.103 419.137 309.863 419.882 312.637 420.183C318.371 420.814 322.223 416.527 326.104 413.028C328.497 410.87 331.077 409.02 333.736 407.199C335.403 406.059 335.503 404.675 333.513 403.858L333.491 403.879Z" fill="black"/>
<path opacity="0.4" d="M309.245 405.98C309.245 405.98 298.293 405.894 295.347 414.985C292.4 424.077 299.529 428.608 305.357 429.253C311.192 429.899 317.02 427.963 320.261 420.85C323.502 413.738 317.667 405.335 309.245 405.98Z" fill="white"/>
<path opacity="0.4" d="M278.143 397.57C278.143 397.57 267.773 399.513 265.186 407.27C262.592 415.028 264.539 418.907 269.074 420.85C273.608 422.786 282.685 417.617 285.918 410.504C289.159 403.392 283.324 397.577 278.143 397.577V397.57Z" fill="white"/>
<path d="M319.916 423.883C321.972 420.556 322.367 416.333 320.815 412.77C320.225 411.056 319.183 409.507 317.574 408.217C314.117 405.442 309.353 405.005 305.156 406.023C303.46 406.439 301.829 407.134 300.356 408.059C300.205 407.751 299.852 407.543 299.472 407.765C299.249 407.894 298.911 408.124 298.523 408.41C297.409 409.092 296.482 410.045 295.634 411.035C294.944 411.845 294.448 412.935 295.332 413.716C294.829 414.691 294.448 415.716 294.211 416.778C290.783 419.81 286.493 416.935 284.84 413.401C285.214 412.863 285.559 412.311 285.868 411.744C286.134 412.038 286.695 412.067 286.917 411.658C287.629 410.361 288.16 408.984 288.434 407.529C288.599 406.618 288.965 405.356 288.247 404.61C288.074 404.438 287.851 404.41 287.643 404.474C287.198 402.675 286.134 400.954 284.79 399.706C283.36 398.251 281.434 397.283 279.235 397.147C277.144 397.017 274.988 397.727 273.062 398.702C273.019 398.717 272.983 398.731 272.94 398.753C268.24 400.803 264.762 404.919 263.648 409.679C263.037 409.751 262.34 410.102 262.139 410.69C262.024 411.027 262.089 411.379 262.312 411.651C262.549 411.938 262.879 412.024 263.167 412.239C263.21 412.268 263.253 412.282 263.289 412.296C263.289 412.44 263.267 412.583 263.267 412.734C263.081 414.992 263.497 417.208 264.891 418.914C268.298 423.087 274.888 422.055 278.818 419.366C280.672 418.097 282.541 416.412 284.064 414.476C285.818 418.219 290.359 420.614 293.981 418.534C293.953 418.986 293.945 419.445 293.981 419.911C294.276 424.313 297.208 427.432 301.16 429.088C305.271 430.809 309.446 430.888 313.528 429.074C315.303 428.285 316.826 427.217 318.055 425.898C318.091 425.934 318.127 425.977 318.177 426.005C318.925 426.45 320.017 426.185 320.419 425.403C320.743 424.786 320.434 424.22 319.938 423.883H319.916ZM269.785 420.234C262.843 418.757 264.022 411.078 266.552 406.166C267.888 403.929 269.749 402.122 271.984 400.767C272.638 400.366 273.35 399.979 274.09 399.634C276.231 398.745 278.739 398.165 280.737 398.803C282.196 399.269 283.497 400.165 284.503 401.312C285.2 402.216 285.71 403.284 285.962 404.431C286.191 405.478 286.184 406.518 286.005 407.536C285.847 407.536 285.688 407.536 285.53 407.564C285.25 407.607 285.078 407.944 285.114 408.202C285.157 408.504 285.387 408.683 285.681 408.704C285.696 408.704 285.71 408.704 285.724 408.704C285.3 410.081 284.596 411.393 283.763 412.576C280.687 416.971 275.541 421.46 269.778 420.234H269.785ZM317.775 424.249C317.732 424.299 317.696 424.356 317.653 424.406C317.588 424.492 317.516 424.578 317.444 424.664C313.434 429.095 306.457 430.063 300.952 427.174C299.206 426.263 297.51 424.987 296.59 423.209C295.627 421.359 295.526 419.058 295.771 417.021C295.986 415.186 296.719 413.523 297.79 412.103C297.991 412.175 298.192 412.239 298.401 412.268C298.695 412.318 298.983 412.218 299.105 411.924C299.206 411.673 299.134 411.307 298.861 411.185C298.789 411.149 298.71 411.128 298.638 411.099C299.802 409.866 301.247 408.869 302.813 408.167C309.741 405.069 320.491 407.564 320.204 416.692C320.11 419.509 319.385 422.134 317.789 424.241L317.775 424.249Z" fill="#333333"/>
<path d="M61.6363 358.716C61.6363 358.716 28.6156 366.796 27.3724 368.661C26.1291 370.525 41.0765 419.007 42.9449 419.631C44.8133 420.255 86.5509 423.983 89.0446 423.359C91.5382 422.736 110.848 414.655 112.098 412.791C113.348 410.927 119.572 373.013 118.328 371.765C117.085 370.518 110.855 363.685 109.604 363.061C108.354 362.437 82.8141 358.709 80.9457 358.709H61.6363V358.716Z" fill="#BDC1C1"/>
<path d="M66.9326 370.833L66.3433 372.131C65.8546 371.837 65.1719 371.865 64.7695 372.504C55.9951 386.549 48.8808 402.144 43.0168 417.602C42.6216 418.649 44.4037 419.416 44.8493 418.376C50.6701 404.668 57.3102 391.583 64.2377 378.462C67.3997 384.506 87.6145 423.066 89.0518 423.352C89.6626 423.474 118.019 371.45 118.019 371.45L66.9326 370.826V370.833Z" fill="#ADB2B1"/>
<path d="M65.0138 399.362C64.4605 398.81 63.4185 398.745 62.8939 399.384C62.7358 399.577 62.628 399.807 62.5849 400.05C62.3262 400.595 62.4052 401.262 62.8723 401.707C63.5335 402.33 64.5539 402.165 65.0929 401.477C65.5743 400.853 65.6031 399.943 65.0138 399.362Z" fill="#ADB2B1"/>
<path d="M67.7805 400.875C66.3648 400.875 66.3648 403.069 67.7805 403.069C69.1962 403.069 69.1962 400.875 67.7805 400.875Z" fill="#ADB2B1"/>
<path d="M78.4592 413.343C78.0424 413.078 77.5825 413.142 77.1657 413.358C76.6124 413.637 76.4111 414.462 76.7417 414.971C77.1082 415.537 77.7693 415.688 78.3586 415.394C78.7898 415.179 78.9766 414.77 79.0126 414.311C79.0485 413.917 78.7754 413.544 78.4592 413.343Z" fill="#ADB2B1"/>
<path d="M63.8137 413.035C63.016 413.035 63.016 414.268 63.8137 414.268C64.6114 414.268 64.6114 413.035 63.8137 413.035Z" fill="#ADB2B1"/>
<path d="M30.9727 375.25C30.8577 375.458 30.8146 375.68 30.829 375.902C30.8218 376.024 30.829 376.153 30.8793 376.275C31.0877 376.841 31.5404 377.243 32.1728 377.243C32.7621 377.243 33.3298 376.841 33.4735 376.261C33.84 374.805 31.7201 373.916 30.9727 375.25Z" fill="#ADB2B1"/>
<path d="M35.8449 374.009C34.4077 374.009 34.4077 376.232 35.8449 376.232C37.2821 376.232 37.2821 374.009 35.8449 374.009Z" fill="#ADB2B1"/>
<path d="M111.552 399.183C110.079 399.183 110.079 401.463 111.552 401.463C113.025 401.463 113.025 399.183 111.552 399.183Z" fill="#ADB2B1"/>
<path d="M109.762 394.472C108.261 394.472 108.253 396.802 109.762 396.802C111.272 396.802 111.272 394.472 109.762 394.472Z" fill="#ADB2B1"/>
<path d="M109.604 363.068C108.361 362.444 82.8141 358.716 80.9457 358.716H61.6363C61.6363 358.716 28.6156 366.796 27.3723 368.66C27.3292 368.725 27.3077 368.854 27.3005 369.033C30.369 369.8 62.0387 377.673 63.8137 377.673C65.6821 377.673 116.769 373.321 118.012 372.08C118.106 371.987 118.206 371.88 118.314 371.758C117.049 370.489 110.848 363.685 109.604 363.068Z" fill="#C8CCCC"/>
<path d="M106.608 370.396L67.3781 374.296L40.5663 368.194C40.5232 367.936 40.6238 367.728 40.8178 367.556C41.7592 366.71 43.1461 366.66 44.3678 366.309C45.8266 365.886 47.156 364.982 48.6652 364.839C49.1826 364.789 49.7072 364.839 50.2174 364.753C50.8785 364.645 51.4893 364.337 52.1505 364.237C52.7254 364.143 53.3146 364.215 53.8967 364.143C54.601 364.05 55.2621 363.749 55.9664 363.67C56.9437 363.563 57.9785 363.878 58.8911 363.513C59.2576 363.362 59.5738 363.111 59.9116 362.896C62.0172 361.548 64.7048 361.67 67.1984 361.835C73.4001 362.251 79.415 361.993 85.6311 362.064C87.054 362.079 88.484 362.007 89.8925 362.172C91.3082 362.337 92.7239 362.767 93.8234 363.67C94.154 363.943 94.4558 364.258 94.8438 364.423C95.7277 364.803 96.7769 364.308 97.704 364.552C98.2645 364.703 98.7388 365.104 99.2993 365.24C100.269 365.477 101.376 364.896 102.253 365.37C103.137 365.85 103.309 367.169 104.215 367.607C104.459 367.721 104.739 367.771 104.94 367.958C105.206 368.209 105.235 368.632 105.472 368.904C105.681 369.141 106.011 369.22 106.313 369.334C106.608 369.449 106.924 369.65 106.967 369.958C107.01 370.274 106.809 370.632 106.615 370.381L106.608 370.396Z" fill="#92503D"/>
<path d="M75.9512 340.074C75.9512 340.074 77.1298 325.154 78.9766 320.171C80.8235 315.188 81.4343 312.7 82.0595 312.7C82.6847 312.7 81.4703 320.164 82.735 324.508C83.9998 328.853 85.3077 342.519 85.3293 347.495C85.3508 352.471 79.1275 353.74 79.1275 353.74L75.9512 340.081V340.074Z" fill="#484C3B"/>
<path d="M80.3492 348.133C80.3492 348.133 82.1817 339.422 87.133 333.184C92.0915 326.946 95.196 325.068 95.8212 325.684C96.4464 326.301 93.3419 328.803 92.1203 334.403C90.8986 340.003 90.3021 345.602 90.3021 345.602L82.8644 354.335L79.7312 349.997L80.3492 348.133Z" fill="#7B8A4E"/>
<path d="M69.7711 351.912C69.7711 351.912 67.874 345.086 68.4632 337.622C69.0525 330.158 70.9065 327.047 70.2742 324.559C69.6418 322.078 69.6346 321.454 72.1426 323.928C74.6434 326.401 81.5565 340.046 80.9816 351.238C80.4067 362.43 72.9259 360.594 72.9259 360.594L69.7711 351.905V351.912Z" fill="#7B8A4E"/>
<path d="M74.7871 358.723C74.7871 358.723 76.0088 353.123 82.2177 348.126C88.4266 343.129 94.6283 337.507 95.8643 334.389C97.0932 331.277 97.7184 330.653 97.7184 331.27C97.7184 331.886 98.9975 338.103 89.7129 351.819C80.4283 365.534 79.1851 366.782 79.1851 366.782L74.7871 358.723Z" fill="#484C3B"/>
<path d="M62.9873 366.861C62.9873 366.861 63.5694 356.916 57.9138 345.753C52.2582 334.589 48.4999 330.252 49.1179 329.628C49.7359 329.004 59.7247 333.93 68.5063 346.326C77.2807 358.716 79.185 365.549 79.185 365.549C79.185 365.549 82.8788 355.59 92.8173 348.707C102.756 341.824 112.702 337.429 113.938 334.941C115.174 332.446 115.188 336.181 112.091 339.924C108.994 343.666 97.1937 352.421 94.7217 356.164C92.2496 359.906 88.5343 366.137 88.5343 366.137C88.5343 366.137 85.4155 364.911 84.7903 365.535C84.1723 366.158 82.311 368.03 82.311 368.03C82.311 368.03 80.4426 368.037 78.5742 368.668C76.7058 369.299 73.5798 365.585 71.0862 366.216C68.5997 366.847 66.7385 369.342 66.7385 369.342C66.7385 369.342 64.8557 366.861 62.9873 366.875V366.861Z" fill="#97A563"/>
<path d="M79.1347 360.272C77.7694 355.339 73.7666 351.302 70.3747 347.56C69.613 346.721 69.0237 347.423 69.7064 348.269C72.933 352.227 75.0098 356.594 77.6041 360.924C78.0927 361.734 79.3863 361.197 79.1347 360.272Z" fill="#484C3B"/>
</g>
<defs>
<clipPath id="clip0_5888_1530">
<rect width="490" height="436" fill="white"/>
</clipPath>
</defs>
</svg>
