<svg width="926" height="475" viewBox="0 0 926 475" fill="none" xmlns="http://www.w3.org/2000/svg">
<path d="M34.0904 470.215C34.0904 470.215 -54.8579 315.966 58.9113 201.049C172.68 86.1321 270.527 149.8 320.172 146.606C369.818 143.413 385.74 42.7654 532.606 12.4099C679.473 -17.9457 940.937 -6.96989 817.866 212.532C758.46 318.486 946.314 300.557 913.217 473.05L34.0904 470.215Z" fill="#F3EDE1"/>
<path d="M774.364 193.78C774.364 193.78 778.647 198.942 784.785 204.689C791.717 211.175 801.028 218.409 809.194 219.758C811.396 220.136 813.513 220.07 815.477 219.457C819.562 218.177 823.737 215.499 827.676 212.231C838.898 202.915 848.216 188.824 848.216 188.824L842.379 182.389C842.379 182.389 829.32 191.828 821.146 196.9C817.896 198.906 815.433 201.289 814.855 201.046C812.824 200.201 777.681 176.08 777.681 176.08L774.364 193.78Z" fill="#FFB27D"/>
<path d="M774.364 193.911C774.364 193.911 778.772 199.11 785.09 204.897C794.445 211.162 804.354 217.124 810.211 220.072C812.681 221.321 814.431 222.027 815.11 221.986C819.552 221.738 829.084 216.017 829.084 216.017C829.245 214.811 829.287 213.635 829.23 212.488C828.8 203.782 822.708 197.254 822.513 197.046C819.168 199.066 816.621 200.396 816.026 200.151C813.936 199.3 777.782 176.08 777.782 176.08L774.364 193.911Z" fill="#C6B597"/>
<path d="M837.527 277.904C836.334 285.215 835.519 290.532 835.519 290.532C844.493 294.445 854.756 296.045 864.761 296.36C868.099 296.468 871.415 296.431 874.646 296.286C879.678 296.064 884.506 295.586 888.904 294.989C901.869 293.244 911.129 290.532 911.129 290.532C911.129 276.985 907.516 266.006 903.399 256.954C898.76 246.724 893.48 238.932 892.032 232.603C890.216 224.674 894.081 206.196 896.874 194.669C898.294 188.829 899.438 184.775 899.438 184.775C909.183 170.484 904.507 162.107 904.507 162.107C904.507 162.107 899.965 160.213 894.284 158.483C894.259 158.475 894.225 158.464 894.199 158.457C892.25 157.864 890.168 157.29 888.097 156.819C885.944 156.33 883.787 155.952 881.801 155.778C876.251 155.292 875.958 142.691 875.958 142.691C875.958 142.691 873.698 141.679 868.27 141.839C864.887 141.939 861.537 142.691 861.537 142.691C861.537 142.691 861.537 152.658 856.872 154.733C854.471 155.8 849.91 157.753 845.438 159.646C845.438 159.646 845.438 159.646 845.438 159.65C845.289 159.713 845.138 159.776 844.989 159.839L843.515 160.461C842.866 160.736 842.229 161.006 841.603 161.269C841.291 161.402 840.988 161.532 840.684 161.658L839.205 162.281C835.867 163.689 833.444 164.704 833.444 164.704C831.365 170.088 838.646 182.182 838.646 182.182C838.394 182.971 838.223 183.882 838.138 184.901C838.127 185.05 838.116 185.202 838.105 185.353C837.842 189.285 838.598 194.695 839.72 200.59C841.706 210.994 844.841 222.921 845.586 230.943C845.849 233.756 845.816 236.094 845.334 237.713C845.319 237.787 845.293 237.857 845.271 237.928C844.963 238.858 844.619 240.118 844.252 241.633C842.199 250.051 839.398 266.429 837.527 277.904Z" fill="black"/>
<path d="M828.252 469.242L862.752 446.813C865.109 445.283 866.513 442.652 866.48 439.844L864.398 266.162C864.398 264.654 867.847 263.105 869.355 263.105C870.863 263.105 875.354 263.739 875.354 265.247L871.334 440.981C871.289 442.941 872.264 444.79 873.909 445.857L909.876 469.238C910.888 469.897 910.421 471.468 909.217 471.468L872.52 455.376C870.319 454.413 867.814 454.413 865.613 455.376L828.916 471.468C827.708 471.468 827.241 469.897 828.252 469.242Z" fill="black"/>
<path d="M753.406 168.699C753.406 168.699 764.727 180.743 777.538 175.951C777.538 175.951 779.036 168.964 779.074 164.25C779.078 163.669 779.086 163.106 779.097 162.573C779.166 157.259 779.354 154.28 779.354 154.28C779.354 154.28 779.35 154.28 779.343 154.276C778.76 154.045 759.754 146.553 759.77 147.175C760.095 161.539 753.406 168.699 753.406 168.699Z" fill="#FFB27D"/>
<path d="M761.403 150.265C763.263 153.492 769.651 159.801 779.094 162.108C779.164 156.851 779.355 153.904 779.355 153.904C779.355 153.904 779.351 153.904 779.343 153.9C778.806 153.765 760.847 149.315 761.403 150.265Z" fill="#ED975D"/>
<path d="M837.238 278.147C842.944 278.774 853.373 279.469 864.656 278.009C868.191 277.549 871.813 276.885 875.397 275.94C886.495 273.001 897.248 267.378 904.104 257.034C899.395 246.728 894.036 238.868 892.565 232.494C890.726 224.506 894.645 205.881 897.481 194.264L894.848 157.797V157.793L894.762 157.767C894.762 157.767 892.769 157.166 892.114 156.972C891.133 156.68 888.571 156.12 888.571 156.12C888.571 156.12 890.67 179.458 857.374 180.829C846.896 181.262 841.003 182.681 837.855 184.417C836.655 197.688 848.028 229.103 845.091 237.848C843.038 243.969 839.48 264.499 837.238 278.147Z" fill="#FF6146"/>
<path d="M783.008 153.229C783.008 153.229 761.58 158.085 758.65 145.178C755.719 132.271 750.979 124.206 764.534 120.56C778.088 116.914 781.875 121.278 783.942 125.357C786.008 129.432 788.505 151.634 783.008 153.229Z" fill="#FFB27D"/>
<path d="M759.983 150.031C759.698 150.214 755.191 151.586 746.661 134.737C745.321 132.092 744.409 126.37 747.531 121.314C750.654 116.258 761.721 112.285 770.919 110.555C780.117 108.825 782.323 113.955 784.489 119.112C786.763 124.525 793.327 128.982 793.327 128.982C785.397 133.372 775.846 127.092 772.536 128.126C769.226 129.16 768.059 134.328 767.812 135.987C767.564 137.643 767.181 139.023 763.019 137.542C758.857 136.061 761.139 143.387 761.803 144.789C761.807 144.782 762.37 148.513 759.983 150.031Z" fill="black"/>
<path d="M706.115 472.485H693.917C691.36 472.485 688.518 469.771 687.807 464.803C687.095 459.832 681.837 457.122 680.7 453.053C679.562 448.985 685.391 443.259 685.391 443.259L686.366 441.931L687.38 440.549L697.044 442.957C697.044 442.957 697.282 445.395 697.43 448.502C697.535 450.745 697.589 453.34 697.47 455.61C697.185 461.033 698.903 466.874 703.45 467.93C707.996 468.987 706.115 472.485 706.115 472.485Z" fill="#A69370"/>
<path d="M794.324 472.485H761.637C761.323 472.415 761.085 472.342 760.943 472.26C758.76 471.035 759.443 461.663 759.705 458.768C759.757 458.232 759.793 457.917 759.793 457.917C759.793 457.917 771.289 447.607 772.87 455.501C772.921 455.746 772.975 455.988 773.038 456.226V456.23C775.034 463.616 783.953 466.974 789.104 467.907C793.039 468.628 794.062 471.199 794.324 472.485Z" fill="#A69370"/>
<path d="M786.341 280.929C786.341 280.929 784.592 302.957 782.535 329.438C779.739 365.409 776.375 409.59 776.046 417.961C775.471 432.494 773.161 455.744 773.161 455.744C773.161 455.744 767.69 461.267 756.739 458.938C756.739 458.938 746.981 425.748 744.192 390.634C744.148 390.058 744.104 389.479 744.064 388.899C741.473 353.15 737.439 277.876 737.439 277.876L786.341 280.929Z" fill="black"/>
<path d="M786.341 280.926C786.341 280.926 784.592 302.957 782.535 329.442L744.193 390.649C744.149 390.073 744.105 389.493 744.065 388.914C741.473 353.16 737.439 277.876 737.439 277.876L786.341 280.926Z" fill="#171717"/>
<path d="M779.355 283.278C779.355 283.278 747.353 363.071 726.311 400.569C705.27 438.067 698.694 448.533 698.694 448.533C698.694 448.533 686.638 443.736 685.543 440.468C685.543 440.468 693.589 368.075 707.683 350.43C715.648 340.459 725.001 310.535 725.439 300.07C725.877 289.604 728.287 268.894 728.287 268.894L779.355 283.278Z" fill="black"/>
<path d="M729.089 281.774C737.891 286.954 746.196 290.796 755.841 292.825C767.268 295.3 781.231 294.241 785.908 294.828C786.411 294.887 786.874 294.753 787.28 294.479C787.619 294.267 789.465 280.217 791.215 262.44C791.289 261.757 791.379 261.002 791.394 260.315L791.423 260.066C791.61 258.216 791.8 256.335 791.972 254.433C792.21 251.761 792.434 249.052 792.647 246.325C792.811 244.211 792.967 242.085 793.12 239.96C793.15 239.495 793.187 239.027 793.217 238.566C793.762 230.726 794.161 223.004 794.284 216.145C794.303 215.008 794.314 213.893 794.321 212.801V212.652C794.347 208.111 794.224 204.039 793.926 200.679C793.851 199.817 793.762 199.015 793.657 198.249C792.292 187.945 787.287 180.696 782.585 175.248L778.706 170.971C774.294 171.358 769.755 170.592 765.451 167.839C760.782 164.859 755.706 161.641 754.759 162.165C747.535 166.375 741.777 177.143 737.857 191.2C735.75 198.769 734.18 207.286 733.199 216.26C732.822 219.701 732.535 223.201 732.334 226.75C731.312 245.786 728.317 262.05 726.583 271.507C726.087 274.223 725.688 276.39 725.475 277.887C725.259 279.266 727.918 281.087 729.089 281.774Z" fill="#A4916D"/>
<path d="M762.389 193.046C762.389 193.046 766.436 227.705 792.656 246.938C792.819 244.81 792.975 242.67 793.128 240.531C793.158 240.063 793.195 239.592 793.224 239.128C793.767 231.236 794.165 223.463 794.287 216.558C794.306 215.414 794.317 214.292 794.325 213.192V213.042C794.299 208.962 794.172 205.27 793.931 202.12C785.899 197.172 775.493 193.708 762.389 193.046Z" fill="#9A8865"/>
<path d="M845.86 160.112C845.86 160.112 846.586 206.906 873.784 223.961C900.982 241.017 881.665 341.732 889.576 378.872C897.487 416.012 818.574 385.71 814.577 343.793C810.579 301.876 849.04 237.271 848.706 229.253C848.372 221.235 838.657 170.003 839.688 162.749L845.86 160.112Z" fill="#C4453B"/>
<path d="M796.32 234.238C799.931 236.488 802.805 238.106 804.403 238.7C808.803 240.323 815.881 241.209 823.533 241.656C840.309 242.644 859.822 241.543 859.822 241.543C862.769 243.688 867.952 243.316 872.331 240.818C876.702 238.321 875.753 239.402 878.897 237.693C880.469 236.841 880.317 235.639 879.772 234.643C879.186 233.577 878.151 232.822 876.984 232.514C871.137 230.974 868.594 231.424 866.069 232.198C866.61 231.428 866.873 230.673 866.751 230.207C866.58 229.565 862.324 232.131 860.445 233.299C854.127 234.208 839.253 229.749 828.156 225.948C821.472 223.665 815.836 222.433 814.587 221.944C813.571 221.546 810.353 218.391 806.364 214.004C803.924 221.313 800.836 228.36 796.32 234.238Z" fill="#FFB27D"/>
<path d="M759.797 208.936C772.858 218.057 797.149 235.135 803.484 238.615C807.566 240.854 812.852 245.222 820.587 246.938C831.654 239.485 828.968 225.901 828.968 225.901C822.308 223.676 817.011 221.683 815.766 221.203C812.445 219.934 785.425 188.261 785.425 188.261C785.425 188.261 775.126 175.16 765.862 177.318C757.809 179.199 754.33 185.104 752.9 190.848C751.209 197.7 753.979 204.871 759.797 208.936Z" fill="#B7A584"/>
<path d="M674.654 221.513H316.638V228.553H674.654V221.513Z" fill="#252525"/>
<path d="M310.345 457.407H317.652V218.275C317.652 216.259 316.018 214.622 313.998 214.622C311.982 214.622 310.345 216.256 310.345 218.275V457.407Z" fill="#252525"/>
<path d="M671 457.266H678.307V218.275C678.307 216.259 676.673 214.622 674.653 214.622C672.634 214.622 671 216.256 671 218.275V457.266Z" fill="#252525"/>
<path d="M287.762 462.038H340.236C342.252 462.038 343.89 460.404 343.89 458.385C343.89 456.369 342.255 454.732 340.236 454.732H287.762C285.746 454.732 284.108 456.366 284.108 458.385C284.108 460.404 285.742 462.038 287.762 462.038Z" fill="#252525"/>
<path d="M648.411 462.038H700.885C702.901 462.038 704.539 460.404 704.539 458.385C704.539 456.369 702.905 454.732 700.885 454.732H648.411C646.396 454.732 644.758 456.366 644.758 458.385C644.762 460.404 646.396 462.038 648.411 462.038Z" fill="#252525"/>
<path d="M293.123 462.038H297.444C300.048 462.038 302.157 464.15 302.157 466.752C302.157 469.353 300.045 471.465 297.444 471.465H293.123C290.518 471.465 288.41 469.353 288.41 466.752C288.41 464.15 290.522 462.038 293.123 462.038Z" fill="#233862"/>
<path d="M293.124 470.931C295.43 470.931 297.3 469.062 297.3 466.755C297.3 464.449 295.43 462.579 293.124 462.579C290.818 462.579 288.948 464.449 288.948 466.755C288.948 469.062 290.818 470.931 293.124 470.931Z" fill="#E8B491"/>
<path d="M330.555 462.038H334.875C337.48 462.038 339.588 464.15 339.588 466.752C339.588 469.353 337.476 471.465 334.875 471.465H330.555C327.95 471.465 325.842 469.353 325.842 466.752C325.842 464.15 327.95 462.038 330.555 462.038Z" fill="#233862"/>
<path d="M330.555 470.931C332.861 470.931 334.731 469.062 334.731 466.755C334.731 464.449 332.861 462.579 330.555 462.579C328.248 462.579 326.379 464.449 326.379 466.755C326.379 469.062 328.248 470.931 330.555 470.931Z" fill="#E8B491"/>
<path d="M653.778 462.038H658.098C660.703 462.038 662.811 464.151 662.811 466.752C662.811 469.353 660.699 471.465 658.098 471.465H653.778C651.173 471.465 649.064 469.353 649.064 466.752C649.064 464.151 651.173 462.038 653.778 462.038Z" fill="#CE8D6A"/>
<path d="M653.777 470.931C656.084 470.931 657.953 469.062 657.953 466.755C657.953 464.449 656.084 462.579 653.777 462.579C651.471 462.579 649.602 464.449 649.602 466.755C649.602 469.062 651.471 470.931 653.777 470.931Z" fill="#E8B491"/>
<path d="M691.208 462.038H695.529C698.133 462.038 700.242 464.15 700.242 466.752C700.242 469.353 698.13 471.465 695.529 471.465H691.208C688.603 471.465 686.495 469.353 686.495 466.752C686.495 464.15 688.603 462.038 691.208 462.038Z" fill="#CE8D6A"/>
<path d="M691.208 470.931C693.514 470.931 695.384 469.062 695.384 466.755C695.384 464.449 693.514 462.579 691.208 462.579C688.902 462.579 687.032 464.449 687.032 466.755C687.032 469.062 688.902 470.931 691.208 470.931Z" fill="#E8B491"/>
<path d="M576.134 260.867C583.707 256.017 598.647 247.91 614.465 247.417V233.878C614.465 232.418 615.176 229.613 617.866 229.45C619.178 229.372 620.052 228.657 620.553 228.072C621.301 227.201 621.727 226.012 621.638 225.045C621.372 222.166 619.46 220.38 616.647 220.38C615.714 220.38 615.013 220.843 614.487 221.517H612.071C613.346 218.897 615.221 218.301 616.644 218.301C620.564 218.301 623.335 220.872 623.702 224.852C623.843 226.375 623.239 228.127 622.127 229.424C621.049 230.684 619.578 231.429 617.989 231.525C616.577 231.61 616.54 233.793 616.54 233.882V247.399C631.672 247.588 646.49 255.298 654.089 259.956C655.612 260.889 656.309 262.672 655.823 264.391C655.338 266.118 653.808 267.277 652.014 267.277H578.009C576.449 267.277 575.107 266.273 574.67 264.776C574.233 263.279 574.822 261.708 576.134 260.867ZM577.701 263.887C577.768 264.12 577.946 264.121 578.012 264.121H652.018C652.566 264.121 652.741 263.709 652.789 263.535C652.848 263.32 652.885 262.916 652.444 262.646C645.026 258.099 630.505 250.548 615.928 250.548C615.732 250.548 615.536 250.548 615.339 250.552C599.999 250.767 585.256 258.774 577.834 263.528C577.779 263.561 577.634 263.657 577.701 263.887Z" fill="#BABABA"/>
<path d="M390.717 260.026C398.291 255.176 413.231 247.072 429.049 246.58V233.041C429.049 231.581 429.76 228.776 432.45 228.613C433.762 228.535 434.636 227.82 435.136 227.234C435.885 226.364 436.311 225.174 436.222 224.207C435.955 221.328 434.043 219.542 431.231 219.542C429.942 219.542 429.1 220.424 428.548 221.521H426.299C427.555 218.182 429.667 217.467 431.231 217.467C435.151 217.467 437.923 220.039 438.29 224.018C438.43 225.541 437.826 227.29 436.715 228.587C435.637 229.847 434.166 230.591 432.576 230.688C431.164 230.773 431.127 232.955 431.127 233.044V246.561C446.26 246.75 461.077 254.461 468.677 259.118C470.199 260.052 470.896 261.834 470.411 263.554C469.925 265.28 468.395 266.44 466.602 266.44H392.596C391.036 266.44 389.695 265.436 389.257 263.939C388.817 262.438 389.402 260.867 390.717 260.026ZM392.281 263.046C392.348 263.279 392.526 263.279 392.592 263.279H466.598C467.146 263.279 467.32 262.868 467.369 262.694C467.428 262.479 467.465 262.075 467.024 261.805C459.606 257.258 445.085 249.707 430.508 249.707C430.312 249.707 430.116 249.707 429.919 249.711C414.579 249.926 399.836 257.933 392.414 262.687C392.362 262.72 392.214 262.816 392.281 263.046Z" fill="#BABABA"/>
<path d="M366.962 260.026C374.535 255.176 389.475 247.072 405.293 246.58V233.041C405.293 231.581 406.004 228.776 408.691 228.613C410.002 228.535 410.877 227.82 411.377 227.234C412.126 226.364 412.552 225.174 412.463 224.207C412.196 221.328 410.284 219.542 407.472 219.542C406.182 219.542 405.341 220.424 404.789 221.521H402.54C403.796 218.182 405.908 217.467 407.472 217.467C411.392 217.467 414.163 220.039 414.53 224.018C414.671 225.541 414.067 227.29 412.956 228.587C411.877 229.847 410.406 230.591 408.817 230.688C407.405 230.773 407.368 232.955 407.368 233.044V246.561C422.5 246.75 437.318 254.461 444.917 259.118C446.44 260.052 447.137 261.834 446.651 263.554C446.166 265.28 444.636 266.44 442.842 266.44H368.837C367.277 266.44 365.935 265.436 365.498 263.939C365.061 262.438 365.65 260.867 366.962 260.026ZM368.529 263.046C368.596 263.279 368.774 263.279 368.84 263.279H442.846C443.394 263.279 443.569 262.868 443.617 262.694C443.676 262.479 443.713 262.075 443.272 261.805C435.854 257.258 421.333 249.707 406.757 249.707C406.56 249.707 406.364 249.707 406.167 249.711C390.828 249.926 376.084 257.933 368.663 262.687C368.607 262.72 368.462 262.816 368.529 263.046Z" fill="#BABABA"/>
<path d="M455.479 252.045C455.479 252.045 443.952 262.327 427.33 261.705C410.712 261.082 402.819 252.771 402.819 252.771C402.819 252.771 389.732 259.418 387.031 263.157C384.33 266.896 383.085 305.119 383.085 305.119C383.085 305.119 389.525 307.613 396.172 307.406L398.873 299.302L390.688 435.186C390.688 435.186 400.811 435.601 406.906 432.107C412.779 428.739 421.624 433.222 429.516 434.286C437.408 435.349 441.943 429.336 449.699 431.829C461.793 435.716 471.163 433.493 471.163 433.493L458.71 298.909L462.085 306.783C462.085 306.783 473.657 306.779 477.396 302.833C477.396 302.833 472.964 262.186 470.47 259.696C467.977 257.206 455.479 252.045 455.479 252.045Z" fill="#FF6146"/>
<path d="M431.724 251.76C431.724 251.76 420.197 262.042 403.575 261.419C386.957 260.797 379.064 252.486 379.064 252.486C379.064 252.486 365.977 259.133 363.276 262.872C360.575 266.61 359.33 304.834 359.33 304.834C359.33 304.834 365.77 307.328 372.417 307.12L375.118 299.017L366.489 454.098C366.489 454.098 377.056 455.473 383.151 451.979C389.024 448.61 397.869 453.098 405.761 454.157C413.653 455.217 418.189 452.09 425.944 454.58C438.038 458.466 447.409 456.243 447.409 456.243L434.955 298.628L438.331 306.502C438.331 306.502 449.902 306.498 453.641 302.552C453.641 302.552 449.209 261.908 446.716 259.415C444.222 256.917 431.724 251.76 431.724 251.76Z" fill="#FCB241"/>
<path d="M640.895 252.886C640.895 252.886 629.364 263.168 612.746 262.546C596.128 261.923 588.235 253.612 588.235 253.612C588.235 253.612 575.148 260.26 572.447 263.998C569.746 267.737 568.501 305.961 568.501 305.961C568.501 305.961 574.941 308.454 581.588 308.247L580.988 300.636L576.104 436.027C576.104 436.027 586.227 436.442 592.322 432.948C598.195 429.58 607.04 434.063 614.932 435.127C622.824 436.19 627.359 430.177 635.115 432.67C647.209 436.557 656.579 434.334 656.579 434.334L644.126 299.751L647.501 307.624C647.501 307.624 659.073 307.621 662.812 303.674C662.812 303.674 658.38 263.027 655.886 260.537C653.393 258.044 640.895 252.886 640.895 252.886Z" fill="#C4453B"/>
<path d="M520.31 260.867C523.663 258.718 528.462 255.932 534.142 253.453C536.724 252.323 539.489 251.259 542.386 250.344C547.499 248.729 553.013 247.584 558.645 247.417V233.882C558.645 232.422 559.356 229.617 562.043 229.454C563.354 229.376 564.229 228.661 564.729 228.075C565.477 227.205 565.904 226.015 565.811 225.048C565.544 222.169 563.632 220.383 560.82 220.383C559.886 220.383 559.186 220.846 558.66 221.521H556.244C557.519 218.901 559.393 218.305 560.82 218.305C564.74 218.305 567.512 220.876 567.878 224.856C568.019 226.378 567.415 228.131 566.304 229.428C565.225 230.688 563.755 231.432 562.165 231.529C560.753 231.614 560.716 233.796 560.716 233.885V247.399C566.963 247.476 573.159 248.84 578.813 250.737C581.436 251.619 583.941 252.612 586.283 253.649C591.118 255.791 595.257 258.114 598.266 259.956C599.792 260.886 600.485 262.668 600.003 264.395C599.514 266.118 597.984 267.277 596.194 267.277H522.185C520.629 267.277 519.284 266.273 518.846 264.776C518.405 263.276 518.998 261.708 520.31 260.867ZM521.874 263.887C521.944 264.12 522.118 264.12 522.185 264.12H596.194C596.743 264.12 596.917 263.709 596.965 263.531C597.024 263.32 597.061 262.916 596.617 262.642C593.697 260.852 589.666 258.596 584.967 256.517C582.644 255.487 580.158 254.502 577.56 253.642C572.077 251.823 566.093 250.548 560.101 250.548C559.905 250.548 559.712 250.548 559.516 250.552C553.965 250.63 548.485 251.726 543.409 253.323C540.222 254.327 537.195 255.524 534.397 256.788C529.347 259.074 525.064 261.575 522.011 263.528C521.955 263.561 521.807 263.654 521.874 263.887Z" fill="#BABABA"/>
<path d="M478.704 260.141C481.712 258.3 485.851 255.976 490.686 253.835C493.028 252.797 495.533 251.804 498.156 250.922C503.811 249.025 510.006 247.662 516.253 247.584V234.071C516.253 233.982 516.22 231.799 514.804 231.714C513.215 231.618 511.744 230.873 510.665 229.613C509.554 228.316 508.95 226.564 509.091 225.045C509.457 221.065 512.229 218.494 516.149 218.494C517.542 218.494 519.362 219.057 520.633 221.521H518.154C517.646 220.95 516.994 220.569 516.145 220.569C513.333 220.569 511.421 222.354 511.154 225.233C511.066 226.201 511.492 227.39 512.24 228.261C512.744 228.846 513.615 229.561 514.926 229.639C517.617 229.802 518.324 232.607 518.324 234.067V247.602C523.953 247.773 529.466 248.914 534.579 250.529C537.477 251.445 540.237 252.508 542.824 253.638C548.504 256.121 553.302 258.907 556.655 261.053C557.967 261.894 558.56 263.461 558.123 264.958C557.682 266.455 556.34 267.459 554.784 267.459H480.775C478.985 267.459 477.455 266.299 476.966 264.576C476.488 262.853 477.181 261.071 478.704 260.141ZM480.004 263.717C480.052 263.894 480.23 264.306 480.775 264.306H554.784C554.851 264.306 555.025 264.306 555.095 264.072C555.162 263.839 555.014 263.743 554.958 263.709C551.905 261.757 547.622 259.255 542.572 256.969C539.774 255.706 536.747 254.509 533.56 253.505C528.484 251.908 523.004 250.811 517.453 250.733C517.257 250.73 517.064 250.73 516.868 250.73C510.877 250.73 504.896 252.004 499.409 253.824C496.811 254.683 494.325 255.669 492.002 256.699C487.304 258.777 483.272 261.034 480.352 262.824C479.908 263.102 479.945 263.505 480.004 263.717Z" fill="#BABABA"/>
<path d="M603.623 407.278C603.623 407.278 598.71 412.591 591.229 410.098C583.748 407.604 575.948 410.068 574.336 411.072C565.481 416.586 555.802 417.156 551.764 410.101C549.07 405.396 540.548 415.085 522.881 411.432C522.881 411.432 537.48 322.29 537.895 311.722C538.31 301.159 529.254 288.664 535.071 267.685C535.071 267.685 535.097 267.541 535.134 267.274C535.212 266.692 535.353 265.536 535.446 264.121C535.597 261.838 535.62 258.881 535.038 256.517C534.76 255.372 534.341 254.364 533.723 253.646C536.064 252.608 538.569 251.615 541.192 250.733C541.518 251.504 541.941 252.493 542.445 253.642C543.716 256.514 545.524 260.352 547.617 264.121C548.207 265.184 548.822 266.244 549.459 267.274C552.76 272.661 556.543 277.245 560 277.656C560 277.656 564.547 277.045 570.286 267.274C570.849 266.314 571.424 265.265 572.009 264.121C573.502 261.197 575.048 257.644 576.596 253.323C576.937 252.367 577.282 251.374 577.623 250.344C580.517 251.259 583.281 252.323 585.863 253.453C585.978 253.623 586.086 253.798 586.171 253.975C586.171 253.975 585.889 255.065 585.608 256.788C585.3 258.67 584.993 261.308 585.052 264.121C585.074 265.158 585.148 266.218 585.285 267.274C585.304 267.411 585.322 267.548 585.345 267.685C585.345 267.685 588.057 272.943 587.227 282.499C586.397 292.055 582.514 301.807 582.788 311.711C583.158 325.021 603.208 391.075 603.623 407.278ZM536.779 268.774C536.105 268.352 535.612 268.033 535.334 267.855C535.612 268.044 536.105 268.363 536.779 268.774Z" fill="#A4916D"/>
<path d="M560.586 393.068C560.586 393.068 555.673 398.382 548.192 395.888C540.714 393.394 532.911 395.858 531.303 396.862C522.447 402.376 512.769 402.947 508.73 395.892C506.037 391.186 497.514 400.875 479.848 397.222C479.848 397.222 497.796 322.468 498.211 311.896C498.626 301.333 486.221 288.85 492.038 267.87C492.038 267.87 492.064 267.726 492.101 267.459C492.179 266.877 492.32 265.721 492.412 264.306C492.568 262.023 492.586 259.066 492.005 256.703C491.727 255.558 491.308 254.55 490.689 253.831C493.031 252.793 495.536 251.8 498.159 250.919C498.485 251.689 498.908 252.679 499.415 253.827C500.686 256.699 502.494 260.537 504.588 264.306C505.177 265.369 505.792 266.429 506.429 267.459C509.731 272.846 513.514 277.43 516.971 277.841C516.971 277.841 521.517 277.23 527.257 267.459C527.824 266.499 528.394 265.451 528.98 264.306C530.473 261.382 532.018 257.829 533.567 253.509C533.908 252.553 534.252 251.56 534.593 250.529C537.491 251.445 540.251 252.508 542.838 253.638C542.952 253.809 543.056 253.983 543.145 254.161C543.145 254.161 542.863 255.25 542.582 256.973C542.274 258.855 541.967 261.493 542.026 264.306C542.048 265.343 542.122 266.403 542.26 267.459C542.278 267.596 542.297 267.733 542.319 267.87C542.319 267.87 545.031 273.128 544.201 282.684C543.371 292.24 539.488 301.992 539.762 311.896C540.122 325.21 560.171 376.865 560.586 393.068ZM493.742 268.96C493.068 268.537 492.575 268.219 492.297 268.041C492.575 268.23 493.068 268.548 493.742 268.96Z" fill="#141414"/>
<path d="M271.271 473.483C272.867 473.483 274.161 472.193 274.161 470.602V339.521H338.448V470.602C338.448 472.193 339.743 473.483 341.339 473.483C342.934 473.483 344.229 472.193 344.229 470.602V333.764H268.381V470.606C268.381 472.193 269.675 473.483 271.271 473.483Z" fill="#BA7556"/>
<path d="M141.475 299.832L156.605 371.65L150.626 371.687L136.755 305.853C136.112 302.803 138.376 299.915 141.475 299.832Z" fill="black"/>
<path d="M142.577 473.483C144.069 473.483 145.345 472.38 145.496 470.902L154.045 385.388H195.093L203.641 470.902C203.799 472.472 205.231 473.619 206.848 473.468C208.46 473.314 209.643 471.92 209.484 470.347L200.422 379.671H148.715L139.653 470.347C139.494 471.917 140.677 473.314 142.29 473.468C142.388 473.479 142.482 473.483 142.577 473.483Z" fill="#252525"/>
<path d="M203.511 433.563H146.625V439.551H203.511V433.563Z" fill="#252525"/>
<path d="M174.471 473.483C175.942 473.483 177.201 472.38 177.346 470.902L185.772 385.388H226.236L234.662 470.902C234.819 472.472 236.23 473.619 237.824 473.468C239.414 473.314 240.579 471.92 240.423 470.347L231.49 379.671H180.522L171.589 470.347C171.433 471.917 172.598 473.314 174.188 473.468C174.281 473.479 174.374 473.483 174.471 473.483Z" fill="#252525"/>
<path d="M234.449 433.563H177.563V439.551H234.449V433.563Z" fill="#252525"/>
<path d="M235.107 379.671H145.968C143.576 379.671 141.636 377.883 141.636 375.679C141.636 373.476 143.576 371.687 145.968 371.687H235.107C237.499 371.687 239.439 373.476 239.439 375.679C239.439 377.887 237.499 379.671 235.107 379.671Z" fill="black"/>
<path d="M190.907 324.782H142.261C136.955 324.782 132.652 320.465 132.652 315.141V308.474C132.652 303.15 136.955 298.834 142.261 298.834H190.907C196.214 298.834 200.516 303.15 200.516 308.474V315.141C200.516 320.465 196.214 324.782 190.907 324.782Z" fill="black"/>
<path d="M283.09 429.515C283.462 430.663 284.264 431.266 285.369 431.477C285.373 431.477 285.38 431.481 285.387 431.477C287.432 431.868 290.499 430.935 293.753 429.664C294.168 429.504 294.548 429.363 294.887 429.244C294.977 429.214 295.064 429.184 295.154 429.158C295.223 429.136 295.292 429.114 295.36 429.091C298.655 428.062 298.633 429.184 305.023 427.62C312.304 425.832 314.197 422.714 314.287 421.558C314.363 420.577 311.008 420.633 307.255 420.674C307.074 420.677 306.89 420.677 306.706 420.681C306.207 420.688 305.702 420.688 305.203 420.688C300.717 420.681 299.446 419.217 294.75 415.738C290.936 412.91 275.891 395.639 275.891 395.639L269.379 403.563C269.379 403.563 282.606 415.132 283.206 419.432C283.524 421.729 282.538 423.491 282.577 425.535C282.577 425.68 282.585 425.821 282.592 425.962C282.65 427.151 282.718 428.367 283.09 429.515Z" fill="#E49963"/>
<path d="M281.891 429.726C282.277 430.781 283.11 431.334 284.258 431.528C284.261 431.528 284.269 431.532 284.276 431.528C286.482 431.757 289.625 430.941 292.952 429.845C293.387 429.702 293.781 429.579 294.141 429.477C294.235 429.449 294.325 429.422 294.419 429.398C294.49 429.378 294.561 429.357 294.633 429.337C298.053 428.391 298.031 429.422 304.666 427.985C312.228 426.342 314.193 423.478 314.287 422.416C314.366 421.515 310.881 421.566 306.984 421.604C306.121 422.249 301.947 425.158 296.02 425.875C290.81 426.51 285.128 425.755 281.354 426.069C281.354 426.202 281.362 426.332 281.369 426.462C281.433 427.554 281.505 428.671 281.891 429.726Z" fill="#1C468A"/>
<path d="M261.255 460.821C261.685 464.063 266.242 463.822 271.371 462.903C276.499 461.981 275.205 463.387 282.444 463.047C289.682 462.707 292.032 460.141 292.32 459.075C292.578 458.13 289.046 457.563 285.264 456.871C284.789 456.784 284.31 456.694 283.835 456.603C279.571 455.779 276.597 452.771 272.837 450.216C269.276 447.797 264.315 438.553 264.315 438.553L254.409 438.704C254.409 438.704 259.078 446.977 260.859 450.556C261.906 452.661 261.674 455.341 261.397 457.404C261.248 458.531 261.102 459.676 261.255 460.821Z" fill="#E49963"/>
<path d="M271.39 463.005C276.503 462.278 275.174 463.593 282.362 463.498C289.549 463.399 291.987 459.819 292.306 458.8C292.592 457.894 290.547 457.628 286.822 456.838L285.341 456.517C285.341 456.517 280.759 460.261 274.826 459.838C269.991 459.494 265.015 457.646 261.679 457.383C261.497 458.46 261.315 459.564 261.431 460.674C261.753 463.819 266.276 463.732 271.39 463.005Z" fill="#1C468A"/>
<path d="M260.396 292.429C260.396 292.429 262.805 286.893 265.455 286.666C268.104 286.44 276.536 285.197 277.137 286.329C277.738 287.457 277.137 291.528 275.33 292.997C273.522 294.466 262.322 296.838 262.322 296.838L260.396 292.429Z" fill="#E49963"/>
<path d="M243.117 348.873L274.342 401.387C274.342 401.387 279.263 409.891 276.543 411.734C274.043 413.432 270.209 414.601 270.209 414.601C270.209 414.601 230.501 375.849 227.747 361.179C224.997 346.513 243.117 348.873 243.117 348.873Z" fill="#999999"/>
<path d="M165.327 340.437C165.327 340.437 229.371 338.267 241.074 346.418C252.776 354.569 268.381 444.439 268.381 444.439C268.381 444.439 267.152 445.348 264.482 445.528C261.999 445.692 256.619 444.001 256.619 444.001C256.619 444.001 230.559 402.992 229.022 392.868C227.485 382.745 228.332 373.808 223.895 373.382C219.458 372.955 157.074 378.932 152.073 361.717C147.302 345.284 155.786 332.766 155.786 332.766L165.327 340.437Z" fill="#BABABA"/>
<path d="M197.736 254.501C198.71 252.506 199.799 248.96 200.332 242.645C200.25 243.271 199.153 251.24 196.066 255.753C183.387 264.018 159.082 291.611 159.563 296.838C159.563 296.838 151.001 282.423 150.856 282.338C150.856 282.338 135.063 262.405 153.779 250.985C163.292 245.181 163.243 237.733 162.844 231.266C162.445 224.795 165.44 196.944 184.495 204.232C184.495 204.232 187.553 202.885 188.921 203.085C188.921 203.085 187.802 203.296 187.232 203.881C189.439 203.751 192.598 203.914 195.234 205.402C202.222 209.341 208.472 244.692 197.736 254.501Z" fill="black"/>
<path d="M195.527 255.765C195.59 255.794 189.4 258.84 184.743 257.633C180.363 256.501 177.505 251.117 177.564 251.106C179.419 250.756 179.952 248.339 179.915 237.956L180.755 238.112L194.852 240.758C194.852 240.758 194.531 244.964 194.523 248.927C194.512 252.252 194.725 255.408 195.527 255.765Z" fill="#E49963"/>
<path d="M195.527 240.642C195.527 240.642 195.186 244.912 195.178 248.934C186.801 248.718 182.371 241.795 180.557 237.956L195.527 240.642Z" fill="#D68D5D"/>
<path d="M178.865 235.96C178.865 235.96 174.695 229.431 173.694 223.853C172.978 219.867 175.026 205.098 190.011 207.227C190.011 207.227 194.362 207.652 198.454 210.389C201.706 212.566 206.404 217.264 201.153 230.154L199.79 234.509L178.865 235.96Z" fill="black"/>
<path d="M197.579 244.941C197.579 244.941 179.768 245.251 179.758 233.465C179.747 221.675 177.44 213.774 188.809 213.078C200.182 212.382 202.393 216.877 203.298 220.812C204.202 224.739 202.212 244.555 197.579 244.941Z" fill="#E49963"/>
<path d="M179.741 215.588C179.741 215.588 192.311 207.298 196.289 213.029C197.496 212.032 199.641 211.312 202.482 214.63C206.75 219.616 202.953 228.434 202.953 228.434C201.201 228.633 200.789 222.834 199.869 220.02C199.177 217.898 196.867 215.73 195.774 214.789C194.169 218.281 189.75 226.635 183.664 228.143C175.929 230.059 172.573 228.061 172.573 228.061C172.573 228.061 178.509 223.519 179.741 215.588Z" fill="black"/>
<path d="M147.03 350.581C148.04 353.352 151.134 354.065 155.282 353.585C163.19 352.671 174.94 347.419 183.406 343.791C196.315 338.258 202.181 343.458 206.289 339.937C210.396 336.416 201.594 328.586 209.221 292.236C211.81 279.908 195.425 253.459 195.425 253.459C195.425 253.459 194.292 260.627 178.315 251.928C178.232 251.884 171.589 260.642 165.641 271.782C159.087 284.076 152.81 298.923 154.654 306.575C158.178 321.155 144.097 342.529 147.03 350.581Z" fill="#A4916D"/>
<path d="M195.527 252.926L205.024 291.606C205.024 291.606 206.204 293.692 208.062 296.664C212.413 303.639 220.471 315.493 225.628 316.697C228.173 317.291 233.583 315.191 239.571 312.193C250.891 306.523 264.279 297.637 264.279 297.637C265.143 292.489 260.627 288.295 260.627 288.295C260.627 288.295 233.513 298.399 230.821 298.589C224.951 299.005 218.978 270.917 213.49 261.557C209.526 254.793 195.527 252.926 195.527 252.926Z" fill="#B7A584"/>
<path d="M193.531 237.808C193.531 237.808 193.877 239.137 197.538 238.932C197.538 238.932 200.612 238.761 200.515 237.301C200.515 237.298 197.538 236.261 193.531 237.808Z" fill="white"/>
<path d="M147.034 350.573C148.055 353.351 151.183 354.066 155.376 353.584C160.909 351.218 184.815 342.136 184.547 335.983C184.15 326.871 179.948 326.581 182.917 315.333C185.299 306.302 163.211 289.509 159.687 285.86C153.062 298.184 152.88 298.77 154.745 306.439C158.303 321.066 144.07 342.499 147.034 350.573Z" fill="#9A8865"/>
<path d="M206.505 297.331C210.915 304.075 219.082 315.537 224.309 316.7C226.888 317.275 232.372 315.244 238.441 312.346C234.012 313.428 229.71 313.397 225.528 313.016C220.998 312.6 219.683 307.347 212.518 299.467C207.873 294.359 206.732 295.642 206.505 297.331Z" fill="#9A8865"/>
<path d="M95.6244 473.479C97.2201 473.479 98.5144 472.189 98.5144 470.599V341.734H162.802V470.602C162.802 472.193 164.096 473.483 165.692 473.483C167.288 473.483 168.582 472.193 168.582 470.602V333.764H92.7344V470.602C92.7344 472.189 94.0287 473.479 95.6244 473.479Z" fill="#575757"/>
<path d="M158.601 329.771H77.7637V336.757H158.601V329.771Z" fill="#252525"/>
<path d="M353.211 329.771H158.602V336.757H353.211V329.771Z" fill="#575757"/>
<path d="M185.547 295.06V279.019C185.547 276.731 187.352 274.882 189.577 274.882H208.71C210.938 274.882 212.74 276.735 212.74 279.019H243.736V293.818H216.77C214.542 293.818 212.74 295.671 212.74 297.955H212.531C210.526 297.955 208.986 299.775 209.265 301.809L211.692 319.594H216.348H258.401V329.771H185.977V321.84C185.977 320.602 186.955 319.598 188.161 319.598L188.842 301.473C188.886 300.254 188.297 299.163 187.382 298.533C186.249 297.751 185.547 296.464 185.547 295.06Z" fill="black"/>
<path d="M192.533 295.06V279.019C192.533 276.731 194.339 274.882 196.563 274.882H215.695C217.923 274.882 219.725 276.735 219.725 279.019H250.719V293.818H223.755C221.527 293.818 219.725 295.671 219.725 297.955H219.516C217.512 297.955 215.971 299.775 216.25 301.809L218.677 319.594H261.618C263.699 319.594 265.387 321.327 265.387 323.463V329.771H192.963V321.84C192.963 320.602 193.942 319.598 195.148 319.598L195.828 301.473C195.872 300.254 195.284 299.163 194.368 298.533C193.239 297.751 192.533 296.464 192.533 295.06Z" fill="black"/>
<path d="M251.045 274.882H260.769C263.32 274.882 265.388 276.959 265.388 279.521V292.715C265.388 295.277 263.32 297.354 260.769 297.354H258.522V306.449C258.522 307.736 257.632 308.809 256.436 309.089V316.798H255.297V309.111C254.053 308.864 253.116 307.769 253.116 306.449V297.354H251.045C248.494 297.354 246.426 295.277 246.426 292.715V279.521C246.426 276.959 248.494 274.882 251.045 274.882Z" fill="black"/>
<path d="M254.409 274.209H255.143V267.977H254.452V266.9H256.405V265.9H256.633V266.9H258.401V267.977H257.628V274.209H258.359V275.282H256.633V276.878H256.405V275.282H254.409V274.209Z" fill="#1B1B1B"/>
<path d="M189.04 273.884C194.275 273.884 198.521 280.14 198.521 287.856C198.521 295.572 194.275 301.828 189.04 301.828C183.804 301.828 179.559 295.572 179.559 287.856C179.562 280.14 183.804 273.884 189.04 273.884ZM182.267 286.046H185.364C185.75 284.347 186.659 283.005 187.814 282.438V277.874C184.994 278.624 182.775 281.894 182.267 286.046ZM190.268 277.874V282.438C191.42 283.005 192.333 284.347 192.719 286.046H195.816C195.308 281.894 193.085 278.624 190.268 277.874ZM195.812 289.665H192.715C192.33 291.364 191.42 292.707 190.265 293.273V297.837C193.085 297.091 195.308 293.817 195.812 289.665ZM187.814 297.837V293.273C186.663 292.707 185.75 291.364 185.364 289.665H182.267C182.775 293.817 184.994 297.091 187.814 297.837Z" fill="#575757"/>
<path d="M187.543 273.884C192.502 273.884 196.524 280.14 196.524 287.856C196.524 295.572 192.502 301.828 187.543 301.828C182.583 301.828 178.561 295.572 178.561 287.856C178.564 280.14 182.583 273.884 187.543 273.884ZM181.126 286.046H184.061C184.426 284.347 185.287 283.005 186.382 282.438V277.874C183.71 278.624 181.608 281.894 181.126 286.046ZM188.707 277.874V282.438C189.798 283.005 190.663 284.347 191.028 286.046H193.962C193.477 281.894 191.375 278.624 188.707 277.874ZM193.959 289.665H191.024C190.659 291.364 189.798 292.707 188.703 293.273V297.837C191.375 297.091 193.477 293.817 193.959 289.665ZM186.382 297.837V293.273C185.291 292.707 184.426 291.364 184.061 289.665H181.126C181.608 293.817 183.71 297.091 186.382 297.837Z" fill="#252525"/>
<path d="M180.416 296.197C180.416 296.197 184.371 293.25 188.105 293.952C191.839 294.654 193.669 297.111 193.523 298.235C193.378 299.36 191.399 302.519 188.546 302.798C185.689 303.078 177.563 301.111 177.563 301.111L180.416 296.197Z" fill="#E49963"/>
<path d="M178.939 251.928C178.939 251.928 163.408 252.854 158.033 260.12C150.464 270.346 132.3 315.828 140.906 321.64C150.597 328.187 184.151 304.529 184.151 304.529C184.151 304.529 185.297 299.344 183.701 296.835C182.109 294.325 162.791 300.979 161.595 299.82C160.399 298.661 173.968 283.461 173.968 279.989C173.968 276.52 178.939 251.928 178.939 251.928Z" fill="#B7A584"/>
<path d="M235.701 318.649C235.701 318.649 251.521 320.231 250.756 328.661C250.756 328.661 258.571 329.778 258 336.128C257.43 342.478 248.089 395.375 255.142 417.307C262.195 439.238 211.495 452.138 211.495 473.483H393.13C393.13 473.483 355.963 472.707 352.534 455.009C349.105 437.311 365.305 412.724 355.775 396.066C346.246 379.408 356.158 324.357 316.323 326.507C285.065 326.314 264.41 313.547 253.405 317.587C243.18 315.927 235.701 318.649 235.701 318.649Z" fill="#FF6146"/>
<path d="M275.128 373.683C275.128 373.683 283.828 440.612 259.834 452.184C235.841 463.755 285.429 468.398 304.309 463.666C304.309 463.666 280.492 465.517 278.861 454.22C277.227 442.928 286.383 409.56 275.128 373.683Z" fill="#C4453B"/>
<path d="M326.866 433.563C326.866 433.563 342.943 414.06 332.999 389.205C323.056 364.35 331.096 338.728 320.941 337.772C310.785 336.816 319.458 377.926 326.016 389.777C332.575 401.633 326.866 433.563 326.866 433.563Z" fill="#C4453B"/>
<path d="M291.335 357.715C291.335 357.715 304.842 388.786 298.647 425.579C298.643 425.579 310.605 395.04 291.335 357.715Z" fill="#C4453B"/>
<path d="M254.409 319.792C254.409 319.792 260.666 320.942 262.353 328.774C262.353 328.777 263.429 321.367 254.409 319.792Z" fill="#C4453B"/>
<path d="M195.527 319.792L195.748 315.8L217.483 319.716L195.527 319.792Z" fill="#1B1B1B"/>
<path d="M220.043 280.87C220.043 280.87 220.352 293.895 219.479 295.84C219.479 295.836 221.28 294.795 220.043 280.87Z" fill="#252525"/>
<g opacity="0.5">
<path d="M65.2893 423.274C65.2893 423.274 73 414.277 65.7636 408.56C65.7636 408.56 60.4761 405.359 56.1669 405.622C56.1669 405.622 62.2732 415.863 60.2983 416.882C58.3233 417.901 54.3142 404.981 54.3142 404.981C54.3142 404.981 42.2869 403.813 38.4148 405.673C38.4148 405.673 48.697 414.088 46.5331 414.588C44.3692 415.089 33.2608 406.83 33.2608 406.83C33.2608 406.83 22.0671 408.734 22.6636 415.563C23.2602 422.392 27.1174 424.5 28.8144 424.319C30.5115 424.137 40.4268 420.35 40.6417 421.74C40.8566 423.129 34.8874 427.668 30.7078 427.879C30.7078 427.879 38.6001 436.583 43.8468 434.071C49.0935 431.559 49.5381 427.575 52.8099 426.082C56.0816 424.589 58.8717 424.593 57.5193 426.116C56.1706 427.638 50.2532 429.121 48.3821 432.426C46.5109 435.734 44.8324 437.965 50.2606 437.146C55.6889 436.331 64.5112 432.359 64.8965 427.813C65.2893 423.274 65.2893 423.274 65.2893 423.274Z" fill="#FF6146"/>
<path d="M28.167 415.748C28.167 415.748 58.5726 414.577 65.2903 423.274C65.2903 423.274 66.7761 427.72 71.3447 431.77L72.0561 433.711C72.0561 433.711 66.7872 428.157 64.9012 427.82C64.9012 427.82 67.8506 417.045 28.167 415.748Z" fill="#FF6146"/>
<path d="M71.343 431.77C71.343 431.77 77.868 436.598 78.3238 445.22L77.1381 445.327C77.1381 445.327 75.052 436.409 71.2875 432.922C67.5192 429.436 71.343 431.77 71.343 431.77Z" fill="#FF6146"/>
</g>
<g opacity="0.5">
<path d="M92.253 411.958C92.253 411.958 79.9849 405.088 85.7095 395.766C85.7095 395.766 90.2892 390.041 95.195 388.57C95.195 388.57 92.5791 402.472 95.195 402.802C97.811 403.128 96.9921 387.099 96.9921 387.099C96.9921 387.099 109.912 380.885 114.985 381.374C114.985 381.374 106.97 394.95 109.586 394.624C112.202 394.298 121.199 380.559 121.199 380.559C121.199 380.559 134.449 378.106 136.572 385.958C138.699 393.809 135.264 397.733 133.3 398.226C131.336 398.715 118.742 398.552 119.068 400.19C119.394 401.827 127.902 404.443 132.644 402.969C132.644 402.969 127.409 415.889 120.539 415.237C113.67 414.581 111.543 410.331 107.289 410.001C103.035 409.675 99.9267 410.82 102.054 411.965C104.18 413.11 111.376 412.339 114.811 415.259C118.246 418.179 121.025 419.98 114.648 421.288C108.267 422.596 96.818 421.777 94.5281 416.871C92.2531 411.958 92.253 411.958 92.253 411.958Z" fill="#FF6146"/>
<path d="M130.526 388.403C130.526 388.403 96.1779 399.526 92.2503 411.958C92.2503 411.958 92.4133 417.519 88.9785 423.9V426.353C88.9785 426.353 92.5763 418.012 94.5401 416.867C94.5438 416.864 86.8554 406.07 130.526 388.403Z" fill="#FF6146"/>
<path d="M88.9825 423.9C88.9825 423.9 83.6839 431.944 86.7037 441.737L88.0673 441.37C88.0673 441.37 86.7445 430.584 89.516 425.16C92.2876 419.735 88.9825 423.9 88.9825 423.9Z" fill="#FF6146"/>
</g>
<g opacity="0.5">
<path d="M72.734 402.483C72.734 402.483 88.9038 393.428 81.3599 381.137C81.3599 381.137 75.324 373.589 68.8545 371.652C68.8545 371.652 72.3042 389.978 68.8545 390.408C65.4049 390.841 66.4831 369.71 66.4831 369.71C66.4831 369.71 49.4499 361.518 42.7656 362.162C42.7656 362.162 53.3294 380.059 49.8798 379.625C46.4301 379.196 34.5732 361.084 34.5732 361.084C34.5732 361.084 17.1102 357.849 14.3053 368.198C11.5041 378.547 16.032 383.723 18.6182 384.368C21.2045 385.017 37.8079 384.798 37.3781 386.954C36.9483 389.111 25.7361 392.561 19.4816 390.619C19.4816 390.619 26.3808 407.652 35.4365 406.789C44.4923 405.925 47.2935 400.319 52.8996 399.89C58.5057 399.46 62.6037 400.968 59.7988 402.476C56.9939 403.984 47.5084 402.969 42.9805 406.818C38.4527 410.668 34.7881 413.04 43.1954 414.766C51.6027 416.489 66.6981 415.415 69.7142 408.945C72.7303 402.476 72.734 402.483 72.734 402.483Z" fill="#FF6146"/>
<path d="M22.2822 371.437C22.2822 371.437 67.5608 386.098 72.7334 402.483C72.7334 402.483 72.5185 409.812 77.0464 418.223V421.458C77.0464 421.458 72.3036 410.461 69.7173 408.953C69.7173 408.953 79.8513 394.721 22.2822 371.437Z" fill="#FF6146"/>
<path d="M77.0462 418.223C77.0462 418.223 84.0307 428.828 80.0475 441.733L78.2504 441.252C78.2504 441.252 79.9956 427.035 76.3422 419.883C72.6888 412.736 77.0462 418.223 77.0462 418.223Z" fill="#FF6146"/>
</g>
<path d="M73.282 469.723C55.7893 469.723 41.6055 455.543 41.6055 438.047H104.958C104.955 455.543 90.7746 469.723 73.282 469.723Z" fill="#FCB241"/>
<path d="M65.4863 469.482C66.7758 469.642 68.0874 469.727 69.4213 469.727C86.914 469.727 101.098 455.543 101.098 438.05H93.2278C93.2278 454.209 81.1226 467.544 65.4863 469.482Z" fill="#FFB973"/>
<path d="M41.168 471.335H105.395C105.395 469.175 103.647 467.426 101.486 467.426H45.0733C42.9169 467.429 41.168 469.178 41.168 471.335Z" fill="#F1A34F"/>
<path d="M105.996 438.05H40.8828V439.021H105.996V438.05Z" fill="#D86713"/>
<path d="M1.30882 474.481H924.691C925.41 474.481 926 473.985 926 473.379V472.589C926 471.983 925.41 471.487 924.691 471.487H1.30882C0.589525 471.487 0 471.983 0 472.589V473.379C0 473.985 0.589525 474.481 1.30882 474.481Z" fill="black"/>
</svg>
