<svg xmlns="http://www.w3.org/2000/svg" xmlns:xlink="http://www.w3.org/1999/xlink" width="1920" zoomAndPan="magnify" viewBox="0 0 1440 1439.999935" height="1920" preserveAspectRatio="xMidYMid meet" version="1.0"><path fill="#caddff" d="M 119.457031 471.042969 C 76.082031 610.332031 259.976562 715.382812 222.503906 970.882812 C 197.925781 1138.480469 103.175781 1188.136719 139.074219 1268.347656 C 200.324219 1405.214844 517.074219 1410.769531 726.082031 1364.585938 C 853.539062 1336.425781 1138.691406 1297.910156 1262.988281 1030.90625 C 1364.105469 813.695312 1319.140625 517.332031 1164.101562 355.53125 C 851.449219 29.25 191.328125 240.246094 119.457031 471.042969 " fill-opacity="1" fill-rule="nonzero"/><path fill="#000000" d="M 757.953125 1314.558594 C 742.441406 1314.558594 726.765625 1313.925781 710.925781 1312.65625 C 709.734375 1312.5625 708.832031 1311.511719 708.929688 1310.3125 C 709.027344 1309.113281 710.101562 1308.242188 711.273438 1308.316406 C 809.074219 1316.132812 901.371094 1299.480469 978.195312 1260.140625 C 979.265625 1259.59375 980.574219 1260.015625 981.125 1261.089844 C 981.671875 1262.160156 981.253906 1263.472656 980.179688 1264.019531 C 915.089844 1297.347656 839.015625 1314.558594 757.953125 1314.558594 " fill-opacity="1" fill-rule="nonzero"/><path fill="#000000" d="M 740.617188 1288.09375 C 739.425781 1288.09375 738.449219 1287.125 738.4375 1285.929688 C 738.429688 1284.726562 739.386719 1283.746094 740.597656 1283.734375 C 844.15625 1282.699219 939.601562 1256.933594 1016.605469 1209.214844 C 1017.632812 1208.585938 1018.972656 1208.894531 1019.613281 1209.921875 C 1020.242188 1210.949219 1019.925781 1212.289062 1018.910156 1212.921875 C 941.21875 1261.054688 844.992188 1287.046875 740.640625 1288.09375 C 740.632812 1288.09375 740.625 1288.09375 740.617188 1288.09375 " fill-opacity="1" fill-rule="nonzero"/><path fill="#000000" d="M 524.164062 235.980469 C 520.902344 236.238281 517.933594 237.75 515.8125 240.253906 C 513.6875 242.746094 512.660156 245.929688 512.917969 249.203125 C 513.453125 255.972656 519.390625 261.015625 526.113281 260.523438 C 529.375 260.269531 532.34375 258.75 534.464844 256.257812 C 536.59375 253.761719 537.621094 250.582031 537.359375 247.304688 C 536.824219 240.535156 530.90625 235.488281 524.164062 235.980469 Z M 525.152344 264.921875 C 516.570312 264.921875 509.265625 258.269531 508.574219 249.546875 C 508.222656 245.117188 509.613281 240.804688 512.492188 237.421875 C 515.375 234.039062 519.398438 231.992188 523.824219 231.644531 C 532.957031 230.941406 540.980469 237.804688 541.707031 246.964844 C 542.058594 251.398438 540.667969 255.703125 537.789062 259.082031 C 534.90625 262.472656 530.882812 264.523438 526.453125 264.871094 C 526.015625 264.90625 525.585938 264.921875 525.152344 264.921875 " fill-opacity="1" fill-rule="nonzero"/><path fill="#000000" d="M 585.457031 225.480469 C 584.582031 225.480469 583.753906 224.949219 583.417969 224.078125 L 579.414062 213.542969 C 578.988281 212.414062 579.554688 211.160156 580.679688 210.730469 C 581.808594 210.308594 583.066406 210.867188 583.492188 211.992188 L 587.496094 222.53125 C 587.925781 223.65625 587.359375 224.914062 586.234375 225.34375 C 585.976562 225.4375 585.722656 225.480469 585.457031 225.480469 " fill-opacity="1" fill-rule="nonzero"/><path fill="#000000" d="M 594.785156 250.027344 C 593.914062 250.027344 593.085938 249.488281 592.757812 248.625 L 588.746094 238.089844 C 588.316406 236.964844 588.882812 235.703125 590.007812 235.273438 C 591.136719 234.851562 592.394531 235.417969 592.820312 236.542969 L 596.828125 247.070312 C 597.253906 248.195312 596.6875 249.453125 595.5625 249.886719 C 595.308594 249.976562 595.050781 250.027344 594.785156 250.027344 " fill-opacity="1" fill-rule="nonzero"/><path fill="#000000" d="M 570.578125 239.15625 C 569.707031 239.15625 568.875 238.621094 568.542969 237.75 C 568.113281 236.632812 568.679688 235.367188 569.804688 234.945312 L 580.339844 230.933594 C 581.472656 230.511719 582.726562 231.070312 583.15625 232.199219 C 583.582031 233.328125 583.015625 234.578125 581.890625 235.011719 L 571.355469 239.011719 C 571.097656 239.117188 570.839844 239.15625 570.578125 239.15625 " fill-opacity="1" fill-rule="nonzero"/><path fill="#000000" d="M 595.125 229.832031 C 594.246094 229.832031 593.417969 229.292969 593.082031 228.421875 C 592.664062 227.296875 593.222656 226.042969 594.351562 225.617188 L 604.886719 221.613281 C 606.011719 221.183594 607.269531 221.75 607.695312 222.867188 C 608.121094 223.996094 607.558594 225.257812 606.429688 225.683594 L 595.898438 229.6875 C 595.640625 229.789062 595.386719 229.832031 595.125 229.832031 " fill-opacity="1" fill-rule="nonzero"/><path fill="#99b9ff" d="M 551.609375 315.542969 L 551.609375 1107.25 C 551.609375 1127.691406 568.246094 1144.324219 588.691406 1144.324219 L 1069.285156 1144.324219 L 1068.941406 1166.195312 L 588.691406 1166.195312 C 556.175781 1166.195312 529.726562 1139.757812 529.726562 1107.25 L 529.726562 315.542969 L 551.609375 315.542969 " fill-opacity="1" fill-rule="nonzero"/><path fill="#99b9ff" d="M 1202.914062 315.539062 L 1202.914062 1107.246094 C 1202.914062 1127.691406 1186.28125 1144.316406 1165.835938 1144.316406 L 685.234375 1144.316406 L 685.585938 1166.195312 L 1165.835938 1166.195312 C 1198.347656 1166.195312 1224.792969 1139.757812 1224.792969 1107.246094 L 1224.792969 315.539062 L 1202.914062 315.539062 " fill-opacity="1" fill-rule="nonzero"/><path fill="#99b9ff" d="M 528.820312 315.699219 L 1226.261719 315.699219 L 1226.261719 293.871094 L 528.820312 293.871094 L 528.820312 315.699219 " fill-opacity="1" fill-rule="nonzero"/><path fill="#5479f7" d="M 587.164062 1176.542969 C 587.164062 1189.003906 597.269531 1199.105469 609.722656 1199.105469 C 622.183594 1199.105469 632.289062 1189.003906 632.289062 1176.542969 C 632.289062 1164.09375 622.183594 1153.992188 609.722656 1153.992188 C 597.269531 1153.992188 587.164062 1164.09375 587.164062 1176.542969 " fill-opacity="1" fill-rule="nonzero"/><path fill="#ffffff" d="M 604.785156 1176.542969 C 604.785156 1179.277344 606.996094 1181.492188 609.722656 1181.492188 C 612.453125 1181.492188 614.667969 1179.277344 614.667969 1176.542969 C 614.667969 1173.816406 612.453125 1171.605469 609.722656 1171.605469 C 606.996094 1171.605469 604.785156 1173.816406 604.785156 1176.542969 " fill-opacity="1" fill-rule="nonzero"/><path fill="#5479f7" d="M 1112.136719 1175.300781 C 1112.136719 1187.761719 1122.246094 1197.859375 1134.695312 1197.859375 C 1147.164062 1197.859375 1157.261719 1187.761719 1157.261719 1175.300781 C 1157.261719 1162.847656 1147.164062 1152.746094 1134.695312 1152.746094 C 1122.246094 1152.746094 1112.136719 1162.847656 1112.136719 1175.300781 " fill-opacity="1" fill-rule="nonzero"/><path fill="#ffffff" d="M 1129.75 1175.304688 C 1129.75 1178.03125 1131.964844 1180.246094 1134.691406 1180.246094 C 1137.433594 1180.246094 1139.640625 1178.03125 1139.640625 1175.304688 C 1139.640625 1172.574219 1137.433594 1170.359375 1134.691406 1170.359375 C 1131.964844 1170.359375 1129.75 1172.574219 1129.75 1175.304688 " fill-opacity="1" fill-rule="nonzero"/><path fill="#5479f7" d="M 704.914062 485.390625 L 769.808594 384.210938 L 615.511719 389.199219 L 704.914062 485.390625 " fill-opacity="1" fill-rule="nonzero"/><path fill="#5479f7" d="M 706.039062 360.90625 C 704.835938 360.90625 703.855469 359.933594 703.855469 358.730469 L 703.855469 328.441406 C 703.855469 327.289062 704.757812 326.339844 705.898438 326.265625 C 706.566406 326.21875 722.238281 325.003906 722.238281 309.46875 C 722.238281 300.210938 714.703125 292.671875 705.433594 292.671875 C 704.230469 292.671875 703.257812 291.6875 703.257812 290.484375 C 703.257812 289.285156 704.230469 288.3125 705.433594 288.3125 C 717.105469 288.3125 726.59375 297.804688 726.59375 309.46875 C 726.59375 323.789062 715.527344 329.199219 708.21875 330.382812 L 708.21875 358.730469 C 708.21875 359.933594 707.242188 360.90625 706.039062 360.90625 " fill-opacity="1" fill-rule="nonzero"/><path fill="#ffffff" d="M 624.476562 412.441406 L 706.035156 383.800781 L 787.597656 412.441406 Z M 582.238281 413.453125 L 582.238281 428.851562 L 829.835938 428.851562 L 829.835938 413.453125 L 762.941406 387.660156 C 744.042969 380.8125 734.015625 363.136719 729.902344 353.570312 L 682.171875 353.570312 C 678.632812 362.757812 671.234375 379.105469 649.128906 387.660156 L 582.238281 413.453125 " fill-opacity="1" fill-rule="nonzero"/><path fill="#000000" d="M 637.269531 410.257812 L 774.8125 410.257812 L 706.042969 386.097656 Z M 787.597656 414.613281 L 624.484375 414.613281 C 623.425781 414.613281 622.515625 413.847656 622.339844 412.800781 C 622.160156 411.75 622.757812 410.730469 623.765625 410.371094 L 705.316406 381.738281 C 705.789062 381.574219 706.289062 381.574219 706.761719 381.738281 L 788.320312 410.371094 C 789.324219 410.730469 789.929688 411.75 789.742188 412.800781 C 789.566406 413.847656 788.660156 414.613281 787.597656 414.613281 Z M 584.417969 426.671875 L 827.660156 426.671875 L 827.660156 414.9375 L 762.167969 389.6875 C 743.3125 382.855469 733.128906 366.035156 728.488281 355.738281 L 683.660156 355.738281 C 679.226562 366.761719 670.808594 381.605469 649.914062 389.6875 L 584.417969 414.9375 Z M 829.835938 431.027344 L 582.242188 431.027344 C 581.039062 431.027344 580.058594 430.050781 580.058594 428.84375 L 580.058594 413.445312 C 580.058594 412.546875 580.617188 411.734375 581.453125 411.410156 L 648.339844 385.628906 C 670.859375 376.90625 677.601562 359.382812 680.132812 352.78125 C 680.457031 351.9375 681.269531 351.382812 682.167969 351.382812 L 729.910156 351.382812 C 730.789062 351.382812 731.578125 351.898438 731.914062 352.707031 C 735.1875 360.316406 744.828125 378.773438 763.691406 385.613281 L 830.625 411.410156 C 831.460938 411.734375 832.027344 412.546875 832.027344 413.445312 L 832.027344 428.84375 C 832.027344 430.050781 831.042969 431.027344 829.835938 431.027344 " fill-opacity="1" fill-rule="nonzero"/><path fill="#99b9ff" d="M 548.328125 439.9375 L 536.089844 776.695312 L 585.101562 780.78125 L 588.003906 571.828125 C 588.1875 558.777344 586.042969 545.792969 581.675781 533.492188 L 548.464844 439.917969 C 548.441406 439.84375 548.332031 439.855469 548.328125 439.9375 " fill-opacity="1" fill-rule="nonzero"/><path fill="#5479f7" d="M 548.328125 439.945312 L 548.339844 439.945312 Z M 538.339844 774.699219 L 582.957031 778.414062 L 585.824219 571.796875 C 586 558.960938 583.917969 546.320312 579.621094 534.226562 L 550.101562 451.050781 Z M 587.246094 783.144531 L 533.832031 778.695312 L 546.210938 438.066406 L 549.832031 437.441406 L 550.519531 439.1875 L 583.734375 532.769531 C 588.199219 545.355469 590.367188 558.507812 590.1875 571.863281 L 587.246094 783.144531 " fill-opacity="1" fill-rule="nonzero"/><path fill="#99b9ff" d="M 834.253906 425.164062 L 860.300781 767.164062 L 811.296875 771.25 L 808.386719 562.300781 C 807.019531 558.222656 811.105469 543.929688 814.714844 523.96875 L 832.171875 419.328125 C 832.253906 418.875 832.882812 418.816406 833.03125 419.257812 C 833.402344 420.398438 833.894531 422.292969 834.253906 425.164062 " fill-opacity="1" fill-rule="nonzero"/><path fill="#5479f7" d="M 832.480469 430.722656 L 816.863281 524.328125 C 815.652344 531.015625 814.414062 536.996094 813.304688 542.273438 C 811.390625 551.488281 809.734375 559.445312 810.449219 561.609375 L 810.566406 561.929688 L 810.566406 562.277344 L 813.4375 768.886719 L 857.96875 765.183594 Z M 809.144531 773.621094 L 806.210938 562.628906 C 805.359375 559.386719 806.5625 553.296875 809.042969 541.382812 C 810.136719 536.136719 811.375 530.1875 812.570312 523.578125 L 830.03125 418.972656 C 830.226562 417.777344 831.210938 416.871094 832.414062 416.785156 C 833.609375 416.707031 834.71875 417.425781 835.101562 418.566406 C 835.660156 420.269531 836.097656 422.398438 836.414062 424.890625 L 836.421875 425 L 862.648438 769.15625 L 809.144531 773.621094 " fill-opacity="1" fill-rule="nonzero"/><path fill="#99b9ff" d="M 760.726562 377.867188 L 704.910156 485.398438 L 632.066406 379.910156 L 615.488281 388.695312 C 615.488281 388.695312 569.207031 418.273438 550.671875 437.175781 C 549.238281 438.636719 548.773438 440.796875 549.457031 442.730469 L 580.09375 529.046875 C 585.503906 544.289062 588.136719 560.382812 587.875 576.5625 L 582.828125 884.230469 C 613.828125 888.933594 646.605469 891.707031 679.203125 892.835938 C 690.472656 893.226562 700.773438 886.492188 704.910156 875.992188 L 708.082031 867.898438 C 709.675781 867.90625 712.847656 874.941406 715.503906 881.621094 C 718.339844 888.757812 725.308594 893.398438 732.980469 893.25 C 765.785156 892.625 797.234375 890.425781 825.167969 886.960938 L 810.648438 542.117188 L 832.433594 417.796875 C 811.800781 402.4375 791.425781 389.851562 771.617188 383.3125 L 760.726562 377.867188 " fill-opacity="1" fill-rule="nonzero"/><path fill="#5479f7" d="M 706.609375 865.710938 L 708.097656 865.71875 C 710.050781 865.726562 711.976562 866.835938 717.535156 880.816406 C 719.996094 886.980469 726.039062 891.074219 732.640625 891.074219 C 732.742188 891.074219 732.839844 891.074219 732.941406 891.074219 C 764.171875 890.472656 795.234375 888.394531 822.917969 885.035156 L 808.460938 541.972656 L 808.503906 541.734375 L 830.0625 418.734375 C 807.011719 401.6875 788.199219 391.074219 770.941406 385.371094 L 770.648438 385.25 L 761.675781 380.761719 L 705.179688 489.617188 L 631.382812 382.730469 L 616.589844 390.570312 C 614.484375 391.921875 570.042969 420.53125 552.234375 438.699219 C 551.390625 439.558594 551.109375 440.847656 551.511719 441.992188 L 582.148438 528.308594 C 587.664062 543.855469 590.324219 560.097656 590.054688 576.59375 L 585.042969 882.359375 C 614.308594 886.707031 646 889.5 679.277344 890.652344 C 689.59375 891.027344 699.109375 884.804688 702.882812 875.191406 Z M 732.640625 895.429688 C 724.261719 895.429688 716.59375 890.242188 713.488281 882.417969 C 711.289062 876.878906 709.773438 873.757812 708.8125 872.023438 L 706.933594 876.789062 C 702.492188 888.113281 691.296875 895.453125 679.125 895.011719 C 644.96875 893.824219 612.453125 890.921875 582.503906 886.382812 L 580.625 886.101562 L 585.699219 576.515625 C 585.957031 560.546875 583.386719 544.816406 578.039062 529.765625 L 547.40625 443.449219 C 546.449219 440.75 547.121094 437.683594 549.121094 435.648438 C 567.621094 416.78125 612.417969 388.058594 614.320312 386.851562 L 614.472656 386.761719 L 632.769531 377.066406 L 704.652344 481.175781 L 759.785156 374.949219 L 772.457031 381.28125 C 790.398438 387.234375 809.878906 398.285156 833.734375 416.039062 L 834.8125 416.835938 L 812.839844 542.253906 L 827.433594 888.867188 L 825.445312 889.113281 C 797.117188 892.636719 765.164062 894.820312 733.023438 895.429688 C 732.902344 895.429688 732.773438 895.429688 732.640625 895.429688 " fill-opacity="1" fill-rule="nonzero"/><path fill="#5479f7" d="M 708.082031 870.074219 C 706.886719 870.074219 705.914062 869.117188 705.910156 867.914062 L 702.734375 485.414062 C 702.722656 484.207031 703.6875 483.226562 704.890625 483.21875 C 704.902344 483.21875 704.902344 483.21875 704.910156 483.21875 C 706.109375 483.21875 707.078125 484.179688 707.09375 485.378906 L 710.265625 867.875 C 710.273438 869.085938 709.3125 870.0625 708.105469 870.074219 C 708.097656 870.074219 708.089844 870.074219 708.082031 870.074219 " fill-opacity="1" fill-rule="nonzero"/><path fill="#5479f7" d="M 625.265625 686.996094 C 624.078125 686.996094 623.113281 686.050781 623.085938 684.859375 L 621.117188 583.601562 C 621.082031 581.789062 620.425781 580.007812 619.289062 578.601562 L 586.792969 537.796875 C 586.046875 536.859375 586.207031 535.488281 587.148438 534.734375 C 588.09375 533.988281 589.460938 534.144531 590.207031 535.082031 L 622.691406 575.871094 C 624.429688 578.023438 625.414062 580.742188 625.476562 583.519531 L 627.449219 684.773438 C 627.464844 685.976562 626.515625 686.96875 625.3125 686.996094 C 625.296875 686.996094 625.277344 686.996094 625.265625 686.996094 " fill-opacity="1" fill-rule="nonzero"/><path fill="#5479f7" d="M 625.691406 878.863281 C 625.683594 878.863281 625.683594 878.863281 625.679688 878.863281 C 624.472656 878.863281 623.507812 877.875 623.507812 876.675781 L 624.449219 696.371094 C 624.457031 695.171875 625.425781 694.207031 626.625 694.207031 C 626.632812 694.207031 626.632812 694.207031 626.640625 694.207031 C 627.839844 694.214844 628.816406 695.191406 628.808594 696.394531 L 627.867188 876.699219 C 627.863281 877.898438 626.886719 878.863281 625.691406 878.863281 " fill-opacity="1" fill-rule="nonzero"/><path fill="#5479f7" d="M 777.75 684.945312 C 776.566406 684.945312 775.59375 684.003906 775.574219 682.8125 L 773.589844 573.683594 C 773.539062 571.113281 774.421875 568.613281 776.082031 566.636719 L 813.050781 522.566406 C 813.824219 521.644531 815.199219 521.523438 816.121094 522.289062 C 817.039062 523.070312 817.164062 524.441406 816.390625 525.363281 L 779.421875 569.433594 C 778.4375 570.605469 777.917969 572.085938 777.949219 573.601562 L 779.929688 682.730469 C 779.953125 683.9375 778.996094 684.925781 777.792969 684.945312 C 777.777344 684.945312 777.761719 684.945312 777.75 684.945312 " fill-opacity="1" fill-rule="nonzero"/><path fill="#5479f7" d="M 785.519531 887.582031 C 784.351562 887.582031 783.386719 886.660156 783.339844 885.484375 L 776.253906 695.101562 C 776.210938 693.898438 777.144531 692.890625 778.347656 692.84375 C 779.507812 692.785156 780.566406 693.738281 780.613281 694.945312 L 787.699219 885.320312 C 787.742188 886.523438 786.804688 887.535156 785.601562 887.582031 C 785.578125 887.582031 785.542969 887.582031 785.519531 887.582031 " fill-opacity="1" fill-rule="nonzero"/><path fill="#99b9ff" d="M 610.972656 695.019531 L 668.15625 695.019531 L 668.15625 686.855469 L 610.972656 686.855469 L 610.972656 695.019531 " fill-opacity="1" fill-rule="nonzero"/><path fill="#5479f7" d="M 613.148438 692.84375 L 665.976562 692.84375 L 665.976562 689.03125 L 613.148438 689.03125 Z M 670.332031 697.199219 L 608.796875 697.199219 L 608.796875 684.671875 L 670.332031 684.671875 L 670.332031 697.199219 " fill-opacity="1" fill-rule="nonzero"/><path fill="#99b9ff" d="M 738.265625 694.34375 L 795.449219 694.34375 L 795.449219 686.171875 L 738.265625 686.171875 L 738.265625 694.34375 " fill-opacity="1" fill-rule="nonzero"/><path fill="#5479f7" d="M 740.449219 692.164062 L 793.273438 692.164062 L 793.273438 688.355469 L 740.449219 688.355469 Z M 797.632812 696.519531 L 736.089844 696.519531 L 736.089844 683.996094 L 797.632812 683.996094 L 797.632812 696.519531 " fill-opacity="1" fill-rule="nonzero"/><path fill="#000000" d="M 1042.214844 504.792969 C 1046.445312 486.835938 1032.910156 390.726562 1032.910156 390.726562 L 1052.449219 383.992188 C 1074.035156 397.769531 1178.78125 387.625 1164.429688 382.53125 L 1188.195312 392.152344 C 1188.195312 392.152344 1172.195312 486.226562 1175.894531 505.761719 C 1176.398438 508.449219 1041.875 506.226562 1042.214844 504.792969 " fill-opacity="1" fill-rule="nonzero"/><path fill="#5479f7" d="M 1114.050781 365.488281 C 1112.851562 365.488281 1111.867188 364.511719 1111.867188 363.3125 L 1111.867188 330.980469 C 1111.867188 329.828125 1112.769531 328.878906 1113.925781 328.808594 C 1114.628906 328.757812 1131.496094 327.457031 1131.496094 310.734375 C 1131.496094 300.769531 1123.378906 292.660156 1113.414062 292.660156 C 1112.207031 292.660156 1111.234375 291.679688 1111.234375 290.476562 C 1111.234375 289.273438 1112.207031 288.296875 1113.414062 288.296875 C 1125.785156 288.296875 1135.851562 298.363281 1135.851562 310.734375 C 1135.851562 327.710938 1121.625 331.902344 1116.230469 332.875 L 1116.230469 363.3125 C 1116.230469 364.511719 1115.253906 365.488281 1114.050781 365.488281 " fill-opacity="1" fill-rule="nonzero"/><path fill="#ffffff" d="M 1027.007812 420.628906 L 1114.050781 390.0625 L 1201.085938 420.628906 Z M 981.933594 421.714844 L 981.933594 438.148438 L 1246.167969 438.148438 L 1246.167969 421.714844 L 1174.785156 394.191406 C 1154.609375 386.882812 1143.917969 368.011719 1139.523438 357.800781 L 1088.570312 357.800781 C 1084.808594 367.605469 1076.910156 385.058594 1053.308594 394.191406 L 981.933594 421.714844 " fill-opacity="1" fill-rule="nonzero"/><path fill="#000000" d="M 1039.800781 418.449219 L 1188.304688 418.449219 L 1114.046875 392.371094 Z M 1201.089844 422.808594 L 1027.011719 422.808594 C 1025.953125 422.808594 1025.042969 422.039062 1024.871094 420.988281 C 1024.679688 419.945312 1025.285156 418.925781 1026.289062 418.566406 L 1113.324219 388.003906 C 1113.796875 387.835938 1114.304688 387.835938 1114.78125 388.003906 L 1201.804688 418.566406 C 1202.816406 418.925781 1203.414062 419.945312 1203.230469 420.988281 C 1203.058594 422.039062 1202.152344 422.808594 1201.089844 422.808594 Z M 984.105469 435.964844 L 1243.996094 435.964844 L 1243.996094 423.199219 L 1174 396.21875 C 1153.882812 388.925781 1143.03125 370.929688 1138.101562 359.980469 L 1090.0625 359.980469 C 1085.355469 371.726562 1076.40625 387.585938 1054.105469 396.21875 L 984.105469 423.199219 Z M 1246.171875 440.320312 L 981.929688 440.320312 C 980.726562 440.320312 979.746094 439.34375 979.746094 438.148438 L 979.746094 421.703125 C 979.746094 420.808594 980.304688 419.996094 981.140625 419.667969 L 1052.527344 392.152344 C 1076.621094 382.832031 1083.828125 364.082031 1086.542969 357.015625 C 1086.867188 356.179688 1087.667969 355.621094 1088.578125 355.621094 L 1139.527344 355.621094 C 1140.398438 355.621094 1141.1875 356.136719 1141.53125 356.941406 C 1145.023438 365.085938 1155.351562 384.824219 1175.527344 392.136719 L 1246.953125 419.667969 C 1247.800781 419.996094 1248.355469 420.808594 1248.355469 421.703125 L 1248.355469 438.148438 C 1248.355469 439.34375 1247.375 440.320312 1246.171875 440.320312 " fill-opacity="1" fill-rule="nonzero"/><path fill="#ffffff" d="M 1188.195312 395.375 L 1164.433594 382.9375 C 1164.433594 382.9375 1164.382812 391.644531 1162.96875 402.328125 C 1153.171875 476.410156 1072.589844 482.148438 1056.449219 409.964844 C 1054.785156 402.496094 1053.421875 392.691406 1052.449219 384.308594 L 1032.910156 393.050781 C 1032.910156 393.050781 1040.507812 523.859375 1036.285156 547.167969 C 1032.050781 570.472656 975.863281 890.042969 975.863281 890.042969 C 975.863281 890.042969 1034.492188 915.410156 1075.167969 904.441406 C 1075.167969 904.441406 1087.316406 899.640625 1084.675781 882.5 C 1082.039062 865.367188 1104.738281 878.390625 1104.738281 886.617188 C 1104.738281 894.460938 1102.578125 920.714844 1156.492188 912.402344 C 1161.253906 911.667969 1164.953125 906.675781 1165.339844 900.476562 L 1166.273438 885.242188 L 1184.5 887.300781 C 1184.5 887.300781 1179.746094 922.949219 1219.367188 916.773438 C 1258.976562 910.609375 1244.1875 857.140625 1244.1875 857.140625 C 1244.1875 857.140625 1185.277344 571.078125 1181.578125 545.710938 C 1177.886719 520.347656 1188.195312 395.375 1188.195312 395.375 " fill-opacity="1" fill-rule="nonzero"/><path fill="#000000" d="M 1166.285156 883.0625 C 1166.367188 883.0625 1166.441406 883.070312 1166.523438 883.078125 L 1184.742188 885.132812 C 1185.328125 885.203125 1185.859375 885.496094 1186.222656 885.957031 C 1186.578125 886.417969 1186.738281 887.007812 1186.671875 887.585938 C 1186.644531 887.722656 1184.976562 901.347656 1193.175781 909.34375 C 1198.625 914.671875 1207.332031 916.445312 1219.03125 914.625 C 1227.925781 913.238281 1234.597656 909.179688 1238.867188 902.570312 C 1249.691406 885.824219 1242.160156 857.996094 1242.09375 857.71875 C 1242.070312 857.671875 1242.0625 857.625 1242.054688 857.578125 C 1241.46875 854.710938 1183.085938 571.160156 1179.421875 546.023438 C 1175.902344 521.878906 1184.71875 411.300781 1185.910156 396.628906 L 1166.515625 386.484375 C 1166.375 390.035156 1166.023438 395.910156 1165.132812 402.617188 C 1159.777344 443.082031 1134.070312 462.222656 1110.96875 463.238281 C 1110.230469 463.273438 1109.488281 463.289062 1108.765625 463.289062 C 1082.792969 463.289062 1061.5625 442.796875 1054.332031 410.4375 C 1052.761719 403.433594 1051.503906 394.554688 1050.636719 387.5 L 1035.171875 394.417969 C 1036.042969 409.734375 1042.457031 525.339844 1038.429688 547.550781 C 1034.410156 569.699219 982.78125 863.304688 978.3125 888.691406 C 987.882812 892.566406 1038.671875 911.929688 1074.460938 902.367188 C 1075.550781 901.886719 1084.757812 897.34375 1082.523438 882.835938 C 1081.808594 878.199219 1082.691406 874.941406 1085.140625 873.167969 C 1087.742188 871.296875 1091.820312 871.539062 1096.332031 873.847656 C 1101.59375 876.535156 1106.929688 881.789062 1106.929688 886.617188 L 1106.921875 887.507812 C 1106.878906 891.769531 1106.804688 899.699219 1113.210938 905.230469 C 1120.78125 911.785156 1135.230469 913.472656 1156.160156 910.246094 C 1159.90625 909.671875 1162.847656 905.503906 1163.171875 900.34375 L 1164.105469 885.109375 C 1164.136719 884.511719 1164.421875 883.957031 1164.882812 883.578125 C 1165.273438 883.242188 1165.773438 883.0625 1166.285156 883.0625 Z M 1210.710938 919.675781 C 1201.9375 919.675781 1195.023438 917.253906 1190.105469 912.441406 C 1182.433594 904.941406 1181.972656 893.914062 1182.167969 889.230469 L 1168.316406 887.667969 L 1167.515625 900.613281 C 1167.074219 907.804688 1162.578125 913.664062 1156.820312 914.554688 C 1134.582031 917.984375 1118.945312 915.960938 1110.359375 908.53125 C 1102.4375 901.675781 1102.519531 892.085938 1102.5625 887.476562 L 1102.570312 886.617188 C 1102.570312 884.070312 1098.800781 880 1094.347656 877.726562 C 1091.480469 876.257812 1088.871094 875.859375 1087.691406 876.703125 C 1086.699219 877.425781 1086.394531 879.363281 1086.828125 882.171875 C 1089.703125 900.808594 1076.105469 906.410156 1075.960938 906.464844 C 1075.894531 906.5 1075.8125 906.515625 1075.738281 906.542969 C 1034.792969 917.574219 977.425781 893.082031 975 892.039062 C 974.074219 891.636719 973.539062 890.660156 973.726562 889.664062 C 974.28125 886.46875 1029.964844 569.828125 1034.136719 546.773438 C 1038.273438 523.992188 1030.808594 394.480469 1030.734375 393.167969 C 1030.683594 392.269531 1031.191406 391.425781 1032.019531 391.050781 L 1051.5625 382.316406 C 1052.199219 382.03125 1052.929688 382.066406 1053.53125 382.40625 C 1054.140625 382.757812 1054.539062 383.363281 1054.617188 384.058594 C 1055.457031 391.328125 1056.824219 401.648438 1058.585938 409.484375 C 1065.539062 440.589844 1086.027344 460.007812 1110.773438 458.890625 C 1132.0625 457.945312 1155.792969 440.007812 1160.8125 402.039062 C 1162.1875 391.628906 1162.253906 383.007812 1162.253906 382.921875 C 1162.253906 382.164062 1162.65625 381.457031 1163.304688 381.0625 C 1163.957031 380.671875 1164.765625 380.648438 1165.441406 380.996094 L 1189.214844 393.445312 C 1189.988281 393.84375 1190.445312 394.679688 1190.371094 395.554688 C 1190.273438 396.796875 1180.125 520.5625 1183.746094 545.398438 C 1187.363281 570.277344 1245.121094 850.867188 1246.304688 856.625 C 1246.859375 858.632812 1254.21875 886.835938 1242.527344 904.933594 C 1237.558594 912.640625 1229.878906 917.347656 1219.699219 918.933594 C 1216.511719 919.425781 1213.519531 919.675781 1210.710938 919.675781 " fill-opacity="1" fill-rule="nonzero"/><path fill="#000000" d="M 1104.488281 889.824219 C 1104.425781 889.824219 1104.375 889.820312 1104.320312 889.820312 C 1103.121094 889.730469 1102.214844 888.6875 1102.304688 887.484375 L 1102.527344 884.441406 C 1103.644531 868.792969 1105.519531 842.597656 1109.460938 820.425781 C 1121.179688 754.566406 1118.042969 611.359375 1118.015625 609.925781 C 1117.984375 608.71875 1118.9375 607.722656 1120.144531 607.699219 C 1121.335938 607.714844 1122.339844 608.621094 1122.371094 609.828125 C 1122.402344 611.269531 1125.539062 754.90625 1113.757812 821.1875 C 1109.847656 843.128906 1107.988281 869.1875 1106.871094 884.753906 L 1106.652344 887.800781 C 1106.570312 888.945312 1105.613281 889.824219 1104.488281 889.824219 " fill-opacity="1" fill-rule="nonzero"/><path fill="#000000" d="M 1166.285156 887.421875 C 1165.089844 887.421875 1164.125 886.453125 1164.105469 885.265625 C 1164.097656 884.710938 1163.503906 829.851562 1157.777344 772.691406 C 1154.316406 738.199219 1158.519531 646.816406 1158.558594 645.898438 C 1158.617188 644.691406 1159.644531 643.777344 1160.839844 643.824219 C 1162.042969 643.875 1162.964844 644.902344 1162.917969 646.09375 C 1162.871094 647.015625 1158.683594 738.082031 1162.113281 772.253906 C 1167.871094 829.617188 1168.457031 884.671875 1168.464844 885.214844 C 1168.472656 886.421875 1167.503906 887.40625 1166.308594 887.421875 C 1166.292969 887.421875 1166.292969 887.421875 1166.285156 887.421875 " fill-opacity="1" fill-rule="nonzero"/><path fill="#000000" d="M 1184.515625 889.480469 C 1184.449219 889.480469 1184.394531 889.472656 1184.339844 889.472656 C 1183.136719 889.371094 1182.242188 888.328125 1182.335938 887.128906 C 1186.5 833.71875 1176.097656 591.628906 1175.992188 589.191406 C 1175.9375 587.988281 1176.875 586.972656 1178.074219 586.925781 C 1179.277344 586.84375 1180.292969 587.796875 1180.347656 589.007812 C 1180.453125 591.449219 1190.867188 833.800781 1186.679688 887.464844 C 1186.589844 888.613281 1185.636719 889.480469 1184.515625 889.480469 " fill-opacity="1" fill-rule="nonzero"/><path fill="#000000" d="M 1084.675781 884.679688 C 1083.675781 884.679688 1082.785156 883.988281 1082.550781 882.976562 C 1071.527344 833.921875 1074.441406 671.359375 1074.570312 664.464844 C 1074.601562 663.265625 1075.558594 662.351562 1076.796875 662.332031 C 1078 662.351562 1078.949219 663.339844 1078.9375 664.542969 C 1078.898438 666.234375 1075.894531 833.484375 1086.804688 882.023438 C 1087.070312 883.195312 1086.332031 884.363281 1085.152344 884.628906 C 1084.992188 884.660156 1084.832031 884.679688 1084.675781 884.679688 " fill-opacity="1" fill-rule="nonzero"/><path fill="#000000" d="M 1183.25 537.234375 C 1137.433594 548.613281 1088.28125 549.46875 1034.699219 536.3125 L 1031.5625 562.414062 C 1095.382812 571.085938 1146.011719 569.789062 1186.0625 560.476562 L 1183.25 537.234375 " fill-opacity="1" fill-rule="nonzero"/><path fill="#5479f7" d="M 857.296875 342.25 L 850.21875 366.871094 C 847.789062 377.351562 840.207031 385.890625 830.097656 389.558594 L 753.765625 422.074219 L 707.171875 757.847656 L 760.765625 757.847656 C 760.765625 757.847656 797.648438 536.609375 801.957031 549.597656 C 813.171875 583.347656 810.933594 620.710938 803.148438 644.070312 C 795.359375 667.4375 763.414062 813.472656 763.414062 813.472656 L 1028.601562 813.472656 C 1028.601562 813.472656 994.726562 667.4375 986.941406 644.070312 C 979.148438 620.710938 977.417969 583.511719 988.125 549.597656 C 989.347656 545.710938 1033.898438 758.984375 1033.898438 758.984375 L 1088.507812 758.984375 L 1036.316406 422.074219 L 959.984375 389.558594 C 949.867188 385.890625 942.300781 377.351562 939.863281 366.871094 L 932.792969 342.25 L 857.296875 342.25 " fill-opacity="1" fill-rule="nonzero"/><path fill="#000000" d="M 892.664062 367.84375 C 891.464844 367.84375 890.480469 366.863281 890.480469 365.664062 L 890.480469 333.335938 C 890.480469 332.1875 891.382812 331.230469 892.527344 331.164062 C 893.25 331.117188 910.097656 329.8125 910.097656 313.089844 C 910.097656 303.128906 901.992188 295.011719 892.023438 295.011719 C 890.824219 295.011719 889.851562 294.039062 889.851562 292.839844 C 889.851562 291.628906 890.824219 290.660156 892.023438 290.660156 C 904.390625 290.660156 914.460938 300.71875 914.460938 313.089844 C 914.460938 330.070312 900.246094 334.253906 894.847656 335.234375 L 894.847656 365.664062 C 894.847656 366.863281 893.871094 367.84375 892.664062 367.84375 " fill-opacity="1" fill-rule="nonzero"/><path fill="#ffffff" d="M 805.625 422.988281 L 892.660156 392.421875 L 979.695312 422.988281 Z M 760.535156 424.070312 L 760.535156 440.507812 L 1024.789062 440.507812 L 1024.789062 424.070312 L 953.394531 396.546875 C 933.21875 389.234375 922.515625 370.367188 918.140625 360.160156 L 867.183594 360.160156 C 863.410156 369.96875 855.523438 387.414062 831.925781 396.546875 L 760.535156 424.070312 " fill-opacity="1" fill-rule="nonzero"/><path fill="#000000" d="M 818.40625 420.800781 L 966.929688 420.800781 L 892.671875 394.726562 Z M 979.703125 425.160156 L 805.628906 425.160156 C 804.570312 425.160156 803.660156 424.398438 803.484375 423.34375 C 803.304688 422.296875 803.90625 421.273438 804.90625 420.925781 L 891.945312 390.363281 C 892.417969 390.191406 892.917969 390.191406 893.386719 390.363281 L 980.425781 420.925781 C 981.425781 421.273438 982.027344 422.296875 981.851562 423.34375 C 981.671875 424.398438 980.765625 425.160156 979.703125 425.160156 Z M 762.722656 438.316406 L 1022.613281 438.316406 L 1022.613281 425.558594 L 952.617188 398.574219 C 932.492188 391.277344 921.648438 373.285156 916.722656 362.328125 L 868.679688 362.328125 C 863.964844 374.082031 855.019531 389.9375 832.722656 398.574219 L 762.722656 425.558594 Z M 1024.789062 442.679688 L 760.542969 442.679688 C 759.335938 442.679688 758.363281 441.703125 758.363281 440.5 L 758.363281 424.058594 C 758.363281 423.15625 758.921875 422.351562 759.761719 422.027344 L 831.144531 394.507812 C 855.226562 385.191406 862.449219 366.429688 865.15625 359.375 C 865.488281 358.527344 866.296875 357.972656 867.195312 357.972656 L 918.140625 357.972656 C 919.015625 357.972656 919.800781 358.488281 920.148438 359.289062 C 923.640625 367.4375 933.964844 387.175781 954.140625 394.492188 L 1025.574219 422.027344 C 1026.414062 422.351562 1026.96875 423.15625 1026.96875 424.058594 L 1026.96875 440.5 C 1026.96875 441.703125 1025.996094 442.679688 1024.789062 442.679688 " fill-opacity="1" fill-rule="nonzero"/><path fill="#5479f7" d="M 857.296875 342.25 L 850.21875 366.871094 C 847.789062 377.351562 840.207031 385.890625 830.097656 389.558594 L 753.765625 422.074219 L 707.171875 757.847656 L 760.765625 757.847656 C 760.765625 757.847656 797.648438 536.609375 801.957031 549.597656 C 813.171875 583.347656 810.933594 620.710938 803.148438 644.070312 C 795.359375 667.4375 763.414062 813.472656 763.414062 813.472656 L 1028.601562 813.472656 C 1028.601562 813.472656 994.726562 667.4375 986.941406 644.070312 C 979.148438 620.710938 977.417969 583.511719 988.125 549.597656 C 989.347656 545.710938 1033.898438 758.984375 1033.898438 758.984375 L 1088.507812 758.984375 L 1036.316406 422.074219 L 959.984375 389.558594 C 949.867188 385.890625 942.300781 377.351562 939.863281 366.871094 L 932.792969 342.25 L 892.660156 494.128906 L 857.296875 342.25 " fill-opacity="1" fill-rule="nonzero"/><path fill="#5479f7" d="M 897.832031 501.226562 L 947.054688 427.289062 L 933.265625 408.914062 L 958.550781 393.054688 C 959.46875 364.628906 930.496094 342.035156 930.496094 342.035156 C 930.496094 342.035156 898.574219 388.148438 875.984375 452.257812 C 869.742188 470.003906 897.832031 501.226562 897.832031 501.226562 " fill-opacity="1" fill-rule="nonzero"/><path fill="#000000" d="M 930.941406 345.277344 C 924.671875 354.785156 897.648438 397.296875 878.035156 452.992188 C 873.183594 466.769531 891.589844 490.417969 897.609375 497.628906 L 944.378906 427.371094 L 931.519531 410.226562 C 931.152344 409.742188 931.011719 409.117188 931.121094 408.523438 C 931.230469 407.925781 931.589844 407.398438 932.105469 407.074219 L 956.378906 391.84375 C 956.445312 369.429688 937.027344 350.617188 930.941406 345.277344 Z M 897.828125 503.414062 C 897.210938 503.414062 896.625 503.15625 896.214844 502.695312 C 895.027344 501.375 867.324219 470.289062 873.929688 451.546875 C 896.34375 387.894531 928.382812 341.265625 928.703125 340.804688 C 929.042969 340.3125 929.566406 339.984375 930.160156 339.890625 C 930.753906 339.796875 931.355469 339.960938 931.832031 340.328125 C 933.050781 341.277344 961.667969 363.925781 960.714844 393.128906 C 960.699219 393.855469 960.308594 394.519531 959.699219 394.902344 L 936.433594 409.507812 L 948.792969 425.988281 C 949.347656 426.730469 949.371094 427.738281 948.863281 428.503906 L 899.640625 502.445312 C 899.265625 503 898.65625 503.359375 897.984375 503.40625 C 897.929688 503.414062 897.882812 503.414062 897.828125 503.414062 " fill-opacity="1" fill-rule="nonzero"/><path fill="#5479f7" d="M 921.015625 694.195312 C 902.425781 529.628906 834.152344 427.441406 834.152344 427.441406 L 848.957031 409.867188 L 824.613281 392.609375 C 825.289062 364.167969 855.496094 343.257812 855.496094 343.257812 C 855.496094 343.257812 900.3125 421.242188 913.285156 513.949219 C 926.238281 606.65625 921.015625 694.195312 921.015625 694.195312 " fill-opacity="1" fill-rule="nonzero"/><path fill="#000000" d="M 836.863281 427.601562 C 844.507812 439.675781 898.925781 529.429688 919.707031 667.507812 C 920.269531 634.574219 919.664062 575.273438 911.128906 514.246094 C 899.558594 431.511719 862.019531 359.695312 854.8125 346.492188 C 848.378906 351.539062 828.042969 369.1875 826.847656 391.5 L 850.21875 408.082031 C 850.71875 408.441406 851.046875 408.980469 851.125 409.589844 C 851.199219 410.191406 851.023438 410.796875 850.625 411.265625 Z M 921.019531 696.363281 C 919.917969 696.363281 918.980469 695.539062 918.859375 694.429688 C 900.550781 532.347656 833.027344 429.664062 832.347656 428.640625 C 831.808594 427.839844 831.871094 426.769531 832.488281 426.027344 L 845.765625 410.265625 L 823.359375 394.382812 C 822.769531 393.960938 822.421875 393.269531 822.441406 392.546875 C 823.144531 363.339844 852.996094 342.335938 854.269531 341.453125 C 854.765625 341.113281 855.390625 340.988281 855.992188 341.128906 C 856.578125 341.257812 857.089844 341.632812 857.398438 342.164062 C 857.847656 342.945312 902.570312 421.574219 915.449219 513.636719 C 928.289062 605.503906 923.25 693.441406 923.203125 694.324219 C 923.132812 695.445312 922.214844 696.339844 921.082031 696.363281 C 921.066406 696.363281 921.042969 696.363281 921.019531 696.363281 " fill-opacity="1" fill-rule="nonzero"/><path fill="#000000" d="M 848.671875 814.210938 C 848.21875 814.210938 847.753906 814.203125 847.289062 814.195312 C 846.085938 814.175781 845.132812 813.179688 845.152344 811.972656 C 845.179688 810.785156 846.144531 809.835938 847.328125 809.835938 C 847.351562 809.835938 847.363281 809.835938 847.375 809.835938 C 863.132812 810.125 876.554688 804.871094 887.378906 794.167969 C 919.050781 762.84375 918.847656 694.890625 918.839844 694.214844 C 918.828125 693.011719 919.800781 692.023438 921.007812 692.011719 C 921.007812 692.011719 921.011719 692.011719 921.019531 692.011719 C 922.214844 692.011719 923.191406 692.976562 923.203125 694.171875 C 923.226562 697.035156 923.429688 764.632812 890.449219 797.257812 C 879.074219 808.507812 865.027344 814.210938 848.671875 814.210938 " fill-opacity="1" fill-rule="nonzero"/><path fill="#000000" d="M 952.960938 814.195312 C 927.941406 814.195312 909.304688 791.941406 904.472656 770.996094 C 904.203125 769.828125 904.933594 768.65625 906.109375 768.378906 C 907.289062 768.125 908.453125 768.84375 908.722656 770.019531 C 913.179688 789.324219 930.191406 809.835938 952.960938 809.835938 C 954.164062 809.835938 955.136719 810.816406 955.136719 812.019531 C 955.136719 813.222656 954.164062 814.195312 952.960938 814.195312 " fill-opacity="1" fill-rule="nonzero"/><path fill="#99b9ff" d="M 888.070312 728.359375 C 888.070312 733.75 892.445312 738.121094 897.835938 738.121094 C 903.230469 738.121094 907.601562 733.75 907.601562 728.359375 C 907.601562 722.964844 903.230469 718.601562 897.835938 718.601562 C 892.445312 718.601562 888.070312 722.964844 888.070312 728.359375 " fill-opacity="1" fill-rule="nonzero"/><path fill="#99b9ff" d="M 481.972656 544.488281 L 218.929688 544.488281 L 218.929688 513.976562 L 481.972656 513.976562 L 481.972656 544.488281 " fill-opacity="1" fill-rule="nonzero"/><path fill="#99b9ff" d="M 507.890625 398.507812 L 218.101562 398.507812 L 218.101562 367.992188 L 507.890625 367.992188 L 507.890625 398.507812 " fill-opacity="1" fill-rule="nonzero"/><path fill="#000000" d="M 282.597656 289.089844 C 290.679688 313.976562 301.140625 347.253906 299.71875 369.207031 L 308.140625 368.507812 C 306.382812 344.523438 306.257812 310.300781 310.25 299.710938 C 296.464844 290.375 287.085938 286.628906 282.597656 289.089844 " fill-opacity="1" fill-rule="nonzero"/><path fill="#000000" d="M 294.101562 250.921875 C 285.089844 265.933594 284.105469 280.21875 287.429688 288.480469 C 330.5625 299.351562 337.328125 337.59375 344.816406 356.667969 C 345.84375 359.28125 348.230469 361.089844 351.023438 361.371094 C 371.050781 363.335938 441.195312 364.992188 441.195312 364.992188 C 449.03125 361.703125 438.324219 352.941406 405.464844 330.863281 C 354.132812 355.160156 317.273438 241.441406 294.101562 250.921875 " fill-opacity="1" fill-rule="nonzero"/><path fill="#5479f7" d="M 294.101562 250.917969 C 285.089844 265.925781 279.273438 280.832031 282.597656 289.082031 C 325.726562 299.964844 336.273438 342.511719 343.765625 361.578125 C 344.789062 364.191406 347.179688 365.996094 349.972656 366.273438 C 370 368.25 447.167969 367.097656 447.167969 367.097656 C 455 363.808594 438.324219 352.933594 405.464844 330.859375 C 350.273438 373.765625 319.304688 255.726562 294.101562 250.917969 " fill-opacity="1" fill-rule="nonzero"/><path fill="#000000" d="M 447.164062 369.28125 C 447.160156 369.28125 447.152344 369.28125 447.148438 369.28125 L 349.199219 368.582031 C 348 368.570312 347.03125 367.585938 347.039062 366.386719 C 347.046875 365.183594 347.988281 364.160156 349.230469 364.21875 L 447.179688 364.925781 C 448.382812 364.929688 449.351562 365.917969 449.34375 367.121094 C 449.335938 368.3125 448.359375 369.28125 447.164062 369.28125 " fill-opacity="1" fill-rule="nonzero"/><path fill="#99b9ff" d="M 250.644531 511.605469 L 250.78125 438.363281 C 250.785156 436.496094 253.117188 434.988281 255.988281 434.996094 L 403.421875 435.269531 C 406.289062 435.269531 408.617188 436.789062 408.613281 438.648438 L 408.476562 511.902344 C 408.472656 513.765625 406.144531 515.273438 403.269531 515.269531 L 255.839844 514.992188 C 252.964844 514.984375 250.640625 513.46875 250.644531 511.605469 " fill-opacity="1" fill-rule="nonzero"/><path fill="#5479f7" d="M 252.824219 511.605469 C 252.824219 511.84375 253.796875 512.804688 255.84375 512.8125 L 403.277344 513.085938 C 403.28125 513.085938 403.285156 513.085938 403.289062 513.085938 C 405.199219 513.085938 406.296875 512.183594 406.296875 511.894531 L 406.4375 438.644531 C 406.4375 438.355469 405.332031 437.449219 403.417969 437.445312 L 255.984375 437.171875 C 255.980469 437.171875 255.976562 437.171875 255.972656 437.171875 C 255.019531 437.171875 254.113281 437.402344 253.492188 437.804688 C 253.085938 438.066406 252.960938 438.304688 252.960938 438.363281 Z M 403.289062 517.445312 C 403.28125 517.445312 403.273438 517.445312 403.265625 517.445312 L 255.835938 517.167969 C 251.699219 517.160156 248.460938 514.714844 248.464844 511.597656 L 248.601562 438.355469 C 248.605469 436.714844 249.523438 435.179688 251.125 434.144531 C 252.453125 433.285156 254.175781 432.816406 255.972656 432.816406 C 255.980469 432.816406 255.984375 432.816406 255.992188 432.816406 L 403.425781 433.089844 C 407.5625 433.09375 410.796875 435.542969 410.792969 438.652344 L 410.65625 511.902344 C 410.652344 515.015625 407.414062 517.445312 403.289062 517.445312 " fill-opacity="1" fill-rule="nonzero"/><path fill="#99b9ff" d="M 411.523438 466.773438 L 331.257812 487.007812 L 253.8125 464.453125 C 251.726562 463.847656 250.304688 461.917969 250.335938 459.753906 L 250.824219 425.859375 C 250.84375 424.347656 252.085938 423.148438 253.59375 423.167969 L 410.496094 425.414062 C 413.53125 425.457031 415.957031 427.953125 415.914062 430.988281 L 415.472656 461.78125 C 415.433594 464.144531 413.820312 466.195312 411.523438 466.773438 " fill-opacity="1" fill-rule="nonzero"/><path fill="#5479f7" d="M 411.527344 466.769531 L 411.539062 466.769531 Z M 253.554688 425.339844 C 253.253906 425.339844 253.007812 425.578125 253.003906 425.886719 L 252.519531 459.773438 C 252.5 460.960938 253.285156 462.015625 254.421875 462.355469 L 331.300781 484.746094 L 410.996094 464.65625 C 412.328125 464.3125 413.273438 463.121094 413.296875 461.746094 L 413.738281 430.949219 C 413.75 430.066406 413.414062 429.230469 412.800781 428.597656 C 412.183594 427.960938 411.351562 427.601562 410.46875 427.589844 L 253.5625 425.339844 C 253.558594 425.339844 253.558594 425.339844 253.554688 425.339844 Z M 331.214844 489.257812 L 330.648438 489.097656 L 253.203125 466.535156 C 250.1875 465.65625 248.113281 462.851562 248.160156 459.714844 L 248.644531 425.816406 C 248.6875 423.136719 250.878906 420.980469 253.554688 420.980469 C 253.582031 420.980469 253.601562 420.980469 253.625 420.980469 L 410.53125 423.230469 C 412.582031 423.261719 414.496094 424.085938 415.925781 425.554688 C 417.355469 427.03125 418.125 428.96875 418.097656 431.015625 L 417.65625 461.808594 C 417.605469 465.152344 415.308594 468.0625 412.0625 468.878906 L 331.214844 489.257812 " fill-opacity="1" fill-rule="nonzero"/><path fill="#000000" d="M 453.6875 778.269531 C 467.886719 815.734375 482.082031 934.890625 427.417969 1008.769531 C 372.820312 1082.554688 227.628906 1138.6875 154.722656 1063.828125 C 99.1875 1006.804688 115.328125 840.320312 160.207031 758.402344 C 186.289062 710.804688 215.507812 727.671875 264.820312 669.066406 C 314.003906 610.617188 287.484375 559.503906 330.523438 535.890625 C 382.277344 507.492188 457.820312 529.878906 471.226562 560.589844 C 483.21875 588.058594 444.925781 610.4375 437.609375 674.628906 C 436.234375 686.679688 436.367188 696.570312 437.382812 705.292969 C 441.871094 743.796875 451.125 771.496094 453.6875 778.269531 " fill-opacity="1" fill-rule="nonzero"/><path fill="#000000" d="M 306.90625 506.765625 C 314.992188 518.683594 321.441406 557.199219 303.511719 569.355469 C 285.582031 581.5 250.058594 562.6875 241.972656 550.761719 C 233.890625 538.839844 241.871094 519.324219 259.800781 507.167969 C 277.734375 495.023438 298.820312 494.835938 306.90625 506.765625 " fill-opacity="1" fill-rule="nonzero"/><path fill="#99b9ff" d="M 261.632812 905.753906 C 261.632812 905.753906 222.824219 808.238281 245.6875 787.667969 C 246.882812 786.585938 262.332031 785.011719 278.148438 799.480469 C 293.082031 813.136719 308.464844 842.863281 308.464844 842.863281 L 313.539062 910.179688 L 261.632812 905.753906 " fill-opacity="1" fill-rule="nonzero"/><path fill="#ffffff" d="M 556.800781 728.75 C 556.800781 728.75 571.929688 732.015625 583.816406 750.363281 C 607.539062 786.988281 644.203125 853.601562 702.863281 863.550781 C 790.921875 878.488281 844.277344 771.367188 836.710938 747.367188 C 836.710938 747.367188 824.066406 730.574219 803.289062 725.503906 C 803.289062 725.503906 803.0625 708.765625 821.128906 716.691406 C 839.195312 724.625 846.425781 719.78125 854.503906 717.890625 C 868.703125 714.554688 898.871094 680.464844 910.109375 676.125 C 921.347656 671.792969 917.835938 681.160156 917.835938 681.160156 C 917.835938 681.160156 928.851562 668.773438 936.433594 674.980469 L 920.253906 696.355469 C 920.253906 696.355469 933.34375 679.0625 940.925781 687.757812 L 907.078125 727.359375 L 931.882812 707.882812 C 931.882812 707.882812 935.335938 711.683594 928.851562 718.429688 C 922.367188 725.167969 895.988281 761.9375 870.726562 761.9375 C 870.726562 761.9375 884.335938 964.800781 732.40625 973.039062 C 601.875 980.113281 548.722656 874.835938 548.722656 874.835938 L 556.800781 728.75 " fill-opacity="1" fill-rule="nonzero"/><path fill="#000000" d="M 550.933594 874.359375 C 552.941406 878.101562 566.402344 902.097656 593.175781 925.058594 C 619.863281 947.949219 665.65625 974.472656 732.289062 970.863281 C 769.117188 968.863281 799.191406 954.984375 821.667969 929.609375 C 875.082031 869.316406 868.625 763.152344 868.550781 762.085938 C 868.511719 761.484375 868.722656 760.894531 869.136719 760.449219 C 869.550781 760.007812 870.125 759.761719 870.726562 759.761719 C 891.121094 759.761719 913.398438 733.269531 922.90625 721.960938 C 924.765625 719.746094 926.238281 717.996094 927.277344 716.917969 C 929.417969 714.695312 930.25 712.964844 930.511719 711.722656 L 908.417969 729.074219 C 907.535156 729.765625 906.28125 729.675781 905.503906 728.863281 C 904.730469 728.054688 904.6875 726.792969 905.417969 725.945312 L 937.851562 687.992188 C 937.191406 687.632812 936.472656 687.46875 935.664062 687.492188 C 930.632812 687.671875 924.089844 694.902344 921.992188 697.671875 C 921.269531 698.632812 919.902344 698.820312 918.941406 698.09375 C 917.980469 697.367188 917.789062 696.003906 918.519531 695.042969 L 933.175781 675.671875 C 927.40625 673.980469 919.550781 682.515625 919.460938 682.609375 C 918.761719 683.390625 917.613281 683.570312 916.710938 683.027344 C 915.808594 682.484375 915.429688 681.378906 915.796875 680.398438 C 916.21875 679.234375 916.300781 677.703125 915.960938 677.367188 C 915.722656 677.136719 914.359375 676.820312 910.890625 678.15625 C 906.332031 679.917969 897.816406 687.492188 888.808594 695.507812 C 876.371094 706.574219 863.511719 718.007812 855.003906 720.007812 C 853.722656 720.308594 852.453125 720.691406 851.117188 721.09375 C 844.054688 723.21875 836.042969 725.625 820.253906 718.6875 C 816.734375 717.148438 811.894531 715.734375 808.835938 717.75 C 806.640625 719.210938 805.871094 722.058594 805.601562 723.863281 C 825.816406 729.523438 837.933594 745.367188 838.449219 746.058594 C 838.601562 746.253906 838.714844 746.480469 838.789062 746.714844 C 843.027344 760.148438 830.308594 795.121094 805.292969 823.828125 C 788.476562 843.125 752.765625 874.226562 702.496094 865.699219 C 648.414062 856.519531 612.683594 800.015625 589.039062 762.613281 C 586.566406 758.710938 584.222656 755 581.992188 751.550781 C 573.535156 738.503906 563.414062 733.414062 558.820312 731.675781 Z M 720.101562 975.554688 C 658.636719 975.554688 615.820312 950.261719 590.199219 928.246094 C 560.605469 902.824219 547.328125 876.910156 546.777344 875.820312 C 546.605469 875.484375 546.527344 875.101562 546.546875 874.71875 L 554.625 728.628906 C 554.65625 727.996094 554.972656 727.402344 555.480469 727.015625 C 555.984375 726.628906 556.628906 726.484375 557.261719 726.621094 C 557.914062 726.761719 573.40625 730.289062 585.644531 749.179688 C 587.890625 752.640625 590.242188 756.367188 592.722656 760.285156 C 615.953125 797.027344 651.054688 852.550781 703.226562 861.398438 C 751.40625 869.574219 785.792969 839.574219 802.003906 820.96875 C 827.039062 792.242188 837.832031 759.628906 834.742188 748.386719 C 832.957031 746.171875 821.03125 732.074219 802.765625 727.621094 C 801.800781 727.386719 801.117188 726.53125 801.105469 725.535156 C 801.097656 725.214844 801.0625 717.675781 806.429688 714.121094 C 810.207031 711.625 815.445312 711.816406 822.003906 714.703125 C 836.335938 720.988281 843.207031 718.914062 849.863281 716.917969 C 851.203125 716.515625 852.597656 716.09375 854.003906 715.765625 C 861.441406 714.023438 874.4375 702.460938 885.90625 692.253906 C 895.632812 683.605469 904.023438 676.136719 909.320312 674.09375 C 911.015625 673.445312 916.183594 671.449219 919.03125 674.269531 C 919.558594 674.796875 919.917969 675.394531 920.152344 676.027344 C 924.542969 672.496094 931.8125 668.378906 937.8125 673.296875 C 938.722656 674.039062 938.878906 675.363281 938.167969 676.296875 L 932.597656 683.660156 C 933.566406 683.359375 934.539062 683.171875 935.511719 683.140625 C 938.25 683.035156 940.667969 684.144531 942.570312 686.324219 C 943.277344 687.136719 943.285156 688.347656 942.582031 689.171875 L 922.992188 712.097656 L 930.535156 706.167969 C 931.4375 705.464844 932.730469 705.570312 933.492188 706.417969 C 933.691406 706.632812 938.226562 711.820312 930.421875 719.933594 C 929.484375 720.914062 928.054688 722.609375 926.238281 724.769531 C 915.863281 737.101562 894.652344 762.332031 873.011719 764.027344 C 873.636719 779.859375 875.167969 875.785156 824.929688 932.496094 C 801.648438 958.785156 770.5625 973.148438 732.523438 975.214844 C 728.304688 975.445312 724.160156 975.554688 720.101562 975.554688 " fill-opacity="1" fill-rule="nonzero"/><path fill="#000000" d="M 889.453125 712.269531 C 888.898438 712.269531 888.347656 712.058594 887.925781 711.644531 C 887.066406 710.800781 887.050781 709.421875 887.890625 708.558594 L 916.277344 679.636719 C 917.117188 678.78125 918.5 678.761719 919.363281 679.609375 C 920.222656 680.449219 920.234375 681.828125 919.386719 682.6875 L 891.003906 711.617188 C 890.582031 712.050781 890.015625 712.269531 889.453125 712.269531 " fill-opacity="1" fill-rule="nonzero"/><path fill="#000000" d="M 901.007812 718.121094 C 900.453125 718.121094 899.902344 717.910156 899.472656 717.496094 C 898.617188 716.65625 898.605469 715.273438 899.449219 714.414062 L 918.695312 694.832031 C 919.542969 693.96875 920.917969 693.960938 921.78125 694.804688 C 922.640625 695.648438 922.65625 697.027344 921.808594 697.882812 L 902.558594 717.46875 C 902.128906 717.902344 901.5625 718.121094 901.007812 718.121094 " fill-opacity="1" fill-rule="nonzero"/><path fill="#000000" d="M 850.367188 749.613281 C 850.074219 749.613281 849.761719 749.550781 849.472656 749.417969 C 848.375 748.925781 847.890625 747.636719 848.382812 746.539062 C 848.75 745.738281 857.4375 726.910156 871.789062 729.84375 C 883.839844 732.316406 892.328125 729.238281 892.410156 729.207031 C 893.535156 728.785156 894.792969 729.359375 895.210938 730.488281 C 895.632812 731.613281 895.058594 732.867188 893.929688 733.289062 C 893.542969 733.441406 884.183594 736.839844 870.910156 734.117188 C 859.9375 731.863281 852.433594 748.167969 852.359375 748.332031 C 851.992188 749.132812 851.203125 749.613281 850.367188 749.613281 " fill-opacity="1" fill-rule="nonzero"/><path fill="#5479f7" d="M 245.6875 787.667969 C 245.6875 787.667969 513.011719 712.75 567.035156 721.753906 L 585.9375 847.683594 L 621.6875 944.023438 C 631.957031 971.714844 626.144531 1002.957031 606.210938 1024.757812 C 583.929688 1049.121094 546.894531 1074.867188 488.875 1077.484375 C 376.234375 1082.550781 321.4375 1110.316406 315.464844 1060.546875 C 309.492188 1010.773438 302.394531 891.394531 302.394531 891.394531 C 284.386719 843.902344 262.472656 789.03125 245.6875 787.667969 " fill-opacity="1" fill-rule="nonzero"/><path fill="#ffffff" d="M 426.960938 701.917969 C 436.609375 703.464844 445.964844 701.875 450.707031 697.601562 C 456.5625 692.332031 456.070312 684.777344 456.734375 675.445312 C 457.011719 671.546875 457.039062 667.0625 459.960938 662.472656 C 461.511719 660.035156 463.472656 658.207031 465.433594 656.824219 C 467.847656 655.125 468.570312 651.867188 467.1875 649.265625 L 466.09375 647.78125 C 457.515625 636.082031 453.496094 615.238281 454.878906 593.546875 L 448.878906 582.476562 C 432.242188 580.023438 418.996094 580.820312 417.488281 583.71875 C 416.9375 584.789062 415.949219 585.636719 417.011719 589.917969 C 422.148438 610.5625 403.03125 612.828125 386.546875 612.6875 C 370.0625 612.558594 382.351562 640.152344 382.351562 640.152344 C 382.351562 640.152344 369.730469 629.941406 361.535156 643.320312 C 355.664062 652.914062 373.660156 662.105469 384.335938 666.546875 C 384.335938 666.546875 384.464844 733.644531 370.878906 742.605469 L 333.148438 766.617188 C 333.148438 766.617188 415.710938 786.730469 472.582031 738.503906 C 472.582031 738.503906 447.300781 739.851562 436.179688 731.242188 C 425.054688 722.644531 428.09375 704.09375 426.960938 701.917969 " fill-opacity="1" fill-rule="nonzero"/><path fill="#000000" d="M 424.957031 702.761719 Z M 425.027344 702.917969 C 425.027344 702.925781 425.027344 702.925781 425.027344 702.925781 C 425.027344 702.925781 425.027344 702.925781 425.027344 702.917969 Z M 338.898438 765.539062 C 357.175781 768.761719 419.539062 776.34375 466.320312 740.738281 C 457.835938 740.5625 443.007812 739.285156 434.847656 732.972656 C 425.5625 725.792969 425.28125 712.914062 425.128906 705.992188 C 425.105469 704.765625 425.070312 703.253906 424.964844 702.800781 C 424.65625 702.097656 424.738281 701.273438 425.195312 700.644531 C 425.675781 699.972656 426.488281 699.644531 427.304688 699.769531 C 436.457031 701.230469 445.070312 699.75 449.253906 695.980469 C 453.613281 692.058594 453.929688 686.363281 454.324219 679.15625 C 454.394531 677.898438 454.464844 676.617188 454.558594 675.289062 L 454.628906 674.230469 C 454.867188 670.542969 455.164062 665.953125 458.121094 661.304688 C 459.648438 658.902344 461.6875 656.800781 464.179688 655.046875 C 465.640625 654.015625 466.117188 652.046875 465.324219 650.414062 L 464.335938 649.070312 C 455.667969 637.253906 451.324219 616.710938 452.667969 594.035156 L 447.484375 584.472656 C 430.414062 582.082031 420.613281 583.527344 419.355469 584.828125 C 419.34375 584.882812 419.25 585.039062 419.15625 585.203125 C 418.789062 585.835938 418.40625 586.492188 419.125 589.390625 C 420.886719 596.449219 420.097656 602.164062 416.785156 606.363281 C 410.703125 614.070312 397.429688 614.964844 386.53125 614.871094 C 386.492188 614.871094 386.460938 614.871094 386.425781 614.871094 C 383.972656 614.871094 382.304688 615.585938 381.332031 617.074219 C 377.980469 622.183594 382.367188 634.828125 384.339844 639.265625 C 384.75 640.183594 384.472656 641.269531 383.675781 641.882812 C 382.871094 642.496094 381.757812 642.480469 380.976562 641.84375 C 380.933594 641.808594 375.894531 637.839844 370.714844 638.738281 C 367.878906 639.234375 365.417969 641.160156 363.398438 644.460938 C 362.519531 645.890625 362.34375 647.261719 362.832031 648.773438 C 364.375 653.527344 372.515625 659.273438 385.171875 664.535156 C 385.984375 664.867188 386.511719 665.664062 386.515625 666.539062 C 386.53125 673.527344 386.238281 735.085938 372.074219 744.421875 Z M 373.917969 772.832031 C 350.0625 772.839844 333.007812 768.820312 332.632812 768.730469 C 331.785156 768.527344 331.140625 767.835938 330.996094 766.976562 C 330.851562 766.105469 331.242188 765.242188 331.976562 764.777344 L 369.707031 740.765625 C 379.757812 734.136719 382.074219 687.328125 382.15625 667.992188 C 372.484375 663.84375 361.09375 657.53125 358.683594 650.113281 C 357.800781 647.378906 358.132812 644.707031 359.675781 642.183594 C 362.390625 637.757812 365.863281 635.148438 370 634.441406 C 373.011719 633.925781 375.882812 634.515625 378.210938 635.398438 C 376.230469 629.375 374.140625 620.09375 377.683594 614.6875 C 378.949219 612.761719 381.492188 610.5 386.566406 610.511719 C 395.644531 610.558594 408.398438 609.960938 413.363281 603.660156 C 415.832031 600.53125 416.332031 596.210938 414.898438 590.445312 C 413.835938 586.175781 414.527344 584.496094 415.390625 583.007812 C 415.449219 582.910156 415.507812 582.816406 415.558594 582.710938 C 418.996094 576.078125 446.117188 579.867188 449.199219 580.320312 C 449.875 580.417969 450.46875 580.832031 450.796875 581.4375 L 456.796875 592.507812 C 456.992188 592.871094 457.082031 593.277344 457.058594 593.6875 C 455.675781 615.296875 459.8125 635.53125 467.855469 646.492188 L 468.941406 647.976562 C 469.003906 648.0625 469.0625 648.148438 469.109375 648.238281 C 471.019531 651.835938 469.976562 656.285156 466.6875 658.609375 C 464.664062 660.027344 463.019531 661.726562 461.800781 663.640625 C 459.441406 667.347656 459.207031 670.992188 458.976562 674.515625 L 458.90625 675.597656 C 458.8125 676.902344 458.746094 678.164062 458.675781 679.390625 C 458.242188 687.28125 457.867188 694.089844 452.167969 699.222656 C 447.4375 703.484375 438.898438 705.40625 429.453125 704.445312 C 429.464844 704.878906 429.476562 705.359375 429.488281 705.890625 C 429.625 712.085938 429.875 723.617188 437.511719 729.523438 C 447.859375 737.53125 472.222656 736.347656 472.46875 736.324219 C 473.390625 736.28125 474.261719 736.832031 474.609375 737.699219 C 474.953125 738.566406 474.707031 739.5625 473.992188 740.164062 C 442.574219 766.8125 403.144531 772.832031 373.917969 772.832031 " fill-opacity="1" fill-rule="nonzero"/><path fill="#000000" d="M 426.964844 704.09375 C 426.890625 704.09375 426.816406 704.09375 426.742188 704.089844 C 407.675781 702.144531 394.722656 679.703125 394.183594 678.742188 C 393.589844 677.695312 393.957031 676.371094 395 675.777344 C 396.042969 675.183594 397.375 675.546875 397.972656 676.59375 C 398.09375 676.808594 410.367188 698.039062 427.183594 699.75 C 428.378906 699.875 429.25 700.945312 429.128906 702.144531 C 429.015625 703.261719 428.070312 704.09375 426.964844 704.09375 " fill-opacity="1" fill-rule="nonzero"/><path fill="#ffffff" d="M 554.019531 910.503906 C 542.085938 901.558594 503.089844 875.535156 489.296875 883.648438 C 480.117188 889.046875 471.074219 897.398438 463.734375 921.0625 L 307.652344 976.101562 L 308.085938 928.617188 C 308.296875 905.933594 303.191406 883.511719 293.179688 863.152344 L 264.03125 803.871094 C 245.832031 815.878906 231.597656 833.121094 223.679688 853.429688 C 191.613281 935.710938 200.660156 1083.828125 231.484375 1091.601562 C 314.308594 1112.480469 474.421875 946.382812 474.421875 946.382812 C 474.421875 946.382812 517.984375 946.179688 526.523438 945.316406 C 561.898438 941.753906 562.023438 916.492188 554.019531 910.503906 " fill-opacity="1" fill-rule="nonzero"/><path fill="#000000" d="M 263.179688 807.074219 C 246.054688 818.949219 233.125 835.203125 225.710938 854.226562 C 213.375 885.878906 206.105469 930.890625 205.773438 977.710938 C 205.464844 1020.863281 211.246094 1059.253906 220.855469 1077.886719 C 224.3125 1084.59375 228.070312 1088.5 232.015625 1089.488281 C 312.664062 1109.847656 471.261719 946.519531 472.851562 944.871094 C 473.257812 944.449219 473.820312 944.207031 474.410156 944.207031 C 474.84375 944.207031 517.96875 943.988281 526.304688 943.148438 C 548.820312 940.886719 554.234375 929.890625 555.527344 925.277344 C 557.15625 919.40625 555.296875 914.179688 552.714844 912.242188 C 534.390625 898.515625 501.277344 879.132812 490.402344 885.523438 C 481.910156 890.519531 473.058594 898.355469 465.8125 921.707031 C 465.609375 922.363281 465.109375 922.890625 464.457031 923.117188 L 308.378906 978.15625 C 307.710938 978.390625 306.960938 978.285156 306.382812 977.871094 C 305.804688 977.457031 305.464844 976.792969 305.472656 976.078125 L 305.910156 928.597656 C 306.113281 906.367188 301.035156 884.0625 291.226562 864.113281 Z M 247.105469 1095.617188 C 241.375 1095.617188 235.988281 1094.988281 230.949219 1093.71875 C 225.738281 1092.402344 221.039062 1087.75 216.980469 1079.882812 C 196.117188 1039.425781 194.632812 921.964844 221.648438 852.640625 C 229.683594 832.023438 243.925781 814.523438 262.832031 802.050781 C 263.351562 801.710938 263.996094 801.605469 264.601562 801.769531 C 265.203125 801.933594 265.710938 802.347656 265.984375 802.90625 L 295.136719 862.1875 C 305.246094 882.75 310.476562 905.726562 310.265625 928.636719 L 309.859375 973.011719 L 461.980469 919.371094 C 469.605469 895.414062 479.078125 887.128906 488.1875 881.769531 C 505.414062 871.636719 553.296875 907.234375 555.328125 908.753906 C 559.796875 912.101562 561.640625 919.542969 559.722656 926.441406 C 558.199219 931.921875 551.933594 944.949219 526.742188 947.488281 C 518.789062 948.285156 481.832031 948.519531 475.34375 948.558594 C 469.96875 954.054688 431.820312 992.644531 385.34375 1028.550781 C 327.621094 1073.136719 281.238281 1095.617188 247.105469 1095.617188 " fill-opacity="1" fill-rule="nonzero"/><path fill="#000000" d="M 558.308594 923.183594 C 558.070312 923.183594 557.835938 923.148438 557.597656 923.066406 L 503.214844 904.421875 C 502.074219 904.03125 501.46875 902.789062 501.859375 901.652344 C 502.25 900.515625 503.488281 899.902344 504.628906 900.296875 L 559.011719 918.945312 C 560.148438 919.332031 560.761719 920.574219 560.367188 921.714844 C 560.058594 922.621094 559.210938 923.183594 558.308594 923.183594 " fill-opacity="1" fill-rule="nonzero"/><path fill="#000000" d="M 555.230469 933.382812 C 555.019531 933.382812 554.808594 933.355469 554.605469 933.296875 L 501.539062 917.515625 C 500.382812 917.175781 499.730469 915.964844 500.070312 914.808594 C 500.414062 913.660156 501.628906 912.992188 502.78125 913.34375 L 555.847656 929.117188 C 557 929.457031 557.65625 930.675781 557.316406 931.832031 C 557.03125 932.769531 556.171875 933.382812 555.230469 933.382812 " fill-opacity="1" fill-rule="nonzero"/><path fill="#000000" d="M 545.113281 942.390625 C 544.917969 942.390625 544.722656 942.367188 544.527344 942.304688 C 528.089844 937.734375 501.277344 930.390625 498.957031 930.070312 C 497.808594 930.003906 496.898438 929.050781 496.898438 927.894531 C 496.898438 926.6875 497.875 925.710938 499.078125 925.710938 C 500.871094 925.710938 529.054688 933.480469 545.695312 938.109375 C 546.855469 938.433594 547.535156 939.636719 547.210938 940.792969 C 546.941406 941.761719 546.066406 942.390625 545.113281 942.390625 " fill-opacity="1" fill-rule="nonzero"/><path fill="#000000" d="M 264.71875 1002.332031 C 263.957031 1002.332031 263.214844 1001.929688 262.816406 1001.21875 C 262.226562 1000.164062 262.601562 998.839844 263.652344 998.253906 L 306.585938 974.195312 C 307.636719 973.609375 308.964844 973.976562 309.554688 975.03125 C 310.144531 976.082031 309.769531 977.410156 308.71875 978.003906 L 265.78125 1002.054688 C 265.445312 1002.242188 265.082031 1002.332031 264.71875 1002.332031 " fill-opacity="1" fill-rule="nonzero"/><path fill="#000000" d="M 586.726562 1022.34375 C 584.246094 1016.355469 578.414062 1012.398438 571.929688 1012.398438 C 511.375 1012.417969 449.890625 1027.546875 387.425781 1058.652344 C 382.089844 1061.308594 377.6875 1065.523438 374.800781 1070.738281 C 363.351562 1091.429688 332.796875 1148.996094 317.164062 1201.054688 C 311.585938 1219.617188 278.367188 1342.957031 273.539062 1363.421875 C 277.324219 1365.410156 421.738281 1409.179688 688.257812 1375.210938 C 667.300781 1266.222656 602.191406 1059.671875 586.726562 1022.34375 " fill-opacity="1" fill-rule="nonzero"/></svg>