<?xml version="1.0" encoding="UTF-8"?>
<svg width="571px" height="563px" viewBox="0 0 571 563" version="1.1" xmlns="http://www.w3.org/2000/svg" xmlns:xlink="http://www.w3.org/1999/xlink">
    <!-- Generator: Sketch 52.4 (67378) - http://www.bohemiancoding.com/sketch -->
    <title>gadgetbuddy gadget insurance for phones, tablets and more</title>
    <desc>Created with Sketch.</desc>
    <g id="Page-1" stroke="none" stroke-width="1" fill="none" fill-rule="evenodd">
        <g id="Homepage-Copy-2" transform="translate(-776.000000, -174.000000)">
            <g id="gadgetbuddy-gadget-insurance-for-phones,-tablets-and-more" transform="translate(776.000000, 174.000000)">
                <circle id="Oval" fill-opacity="0.1" fill="#FFFFFF" fill-rule="nonzero" cx="289.5" cy="281.5" r="281.5"></circle>
                <g id="Gadgetpack" transform="translate(0.000000, 92.000000)">
                    <g id="Group-18">
                        <g id="500x750">
                            <path d="M186.39,347.26 L219.12,366.16 C224.78,369.43 234.67,369.02 241.21,365.24 L263.06,352.63 C269.6,348.85 270.31,343.14 264.65,339.87 L231.92,321 C226.25,317.73 216.37,318.14 209.83,321.91 L188,334.51 C181.44,338.28 180.73,344 186.39,347.26 Z" id="Path" fill="#A7A9AC"></path>
                            <path d="M182.59,341.46 C182.48,343.63 183.72,345.72 186.39,347.26 L219.12,366.16 C224.78,369.43 234.67,369.02 241.21,365.24 L263.06,352.63 C266.65,350.55 268.47,347.9 268.46,345.39 L268.46,358.94 C268.29,361.34 266.46,363.83 263.08,365.79 L241.23,378.41 C234.69,382.19 224.8,382.6 219.14,379.33 L186.41,360.43 C183.89,358.98 182.64,357.04 182.6,355.01 L182.6,341.46 L182.59,341.46 Z" id="Path" fill="#7B7979"></path>
                            <polygon id="Path" fill="#4F4C4D" points="186.82 347.51 188.67 348.57 190.5 347.51 188.66 346.45"></polygon>
                            <polygon id="Path" fill="#4F4C4D" points="186.82 349.64 188.67 350.71 188.67 348.57 186.82 347.51"></polygon>
                            <polygon id="Path" fill="#4F4C4D" points="189.2 348.9 191.05 349.97 192.88 348.9 191.04 347.84"></polygon>
                            <polygon id="Path" fill="#4F4C4D" points="189.2 351.03 191.05 352.1 191.05 349.97 189.2 348.9"></polygon>
                            <polygon id="Path" fill="#4F4C4D" points="191.58 350.29 193.43 351.36 195.27 350.3 193.42 349.23"></polygon>
                            <polygon id="Path" fill="#4F4C4D" points="191.58 352.42 193.43 353.49 193.43 351.36 191.58 350.29"></polygon>
                            <path d="M182.59,341.46 C182.71,339.03 184.52,336.46 187.97,334.51 L209.83,321.89 C216.37,318.12 226.25,317.71 231.92,320.98 L264.65,339.87 C267.2,341.35 268.45,343.32 268.46,345.39 L268.46,358.94 C268.46,358.94 268.46,359.02 268.46,359.06 C268.75,361.73 266.94,364.61 263.1,366.83 L241.25,379.45 C234.71,383.22 224.82,383.63 219.16,380.36 L186.43,361.47 C183.61,359.84 182.38,357.61 182.65,355.32 C182.65,355.22 182.65,355.11 182.65,355.01 L182.65,341.46 L182.59,341.46 Z" id="Path" fill="#D7E7F6" style="mix-blend-mode: overlay;"></path>
                            <path d="M192.28,271.69 L219.86,287.61 C221.113425,288.268644 222.51451,288.595678 223.93,288.56 C225.759428,288.574201 227.562481,288.123438 229.17,287.25 L288.38,253.07 C289.91,252.18 290.79,250.97 290.79,249.75 L290.79,253.47 C290.605074,254.89516 289.697666,256.123941 288.39,256.72 L229.17,290.9 C227.564264,291.778006 225.760005,292.229071 223.93,292.21 C222.515383,292.248757 221.114348,291.925177 219.86,291.27 L192.28,275.35 C191.27441,274.864515 190.601001,273.882935 190.51,272.77 L190.51,269 C190.551501,270.156803 191.234047,271.194119 192.28,271.69 Z" id="Path" fill="#A7A9AC"></path>
                            <path d="M223.93,288.56 C225.759428,288.574201 227.562481,288.123438 229.17,287.25 L288.38,253.07 C289.91,252.18 290.79,250.97 290.79,249.75 C290.724884,248.605497 290.043148,247.586722 289.01,247.09 L261.43,231.17 C260.172055,230.514834 258.767805,230.191306 257.35,230.23 C255.523322,230.212197 253.722609,230.663236 252.12,231.54 L192.91,265.72 C191.583685,266.310875 190.667558,267.557721 190.5,269 C190.557955,270.144424 191.242493,271.163539 192.28,271.65 L219.86,287.57 C221.109717,288.24253 222.511006,288.583384 223.93,288.56 Z" id="Path" fill="#A7A9AC"></path>
                            <polygon id="Path" fill="#A7A9AC" points="229.17 287.25 229.17 290.9 288.38 256.72 288.38 253.06"></polygon>
                            <polygon id="Path" fill="#A7A9AC" points="219.86 291.26 219.86 287.61 192.28 271.69 192.28 275.35"></polygon>
                            <path d="M192.54,271.25 L220.11,287.17 C222.37,288.47 226.31,288.3 228.91,286.8 L288.12,252.62 C290.72,251.12 291,248.84 288.75,247.54 L261.17,231.62 C258.92,230.32 254.98,230.48 252.38,231.98 L193.17,266.17 C190.57,267.67 190.28,269.94 192.54,271.25 Z" id="Path" fill="#141313"></path>
                            <polygon id="Path" fill="#4F4C4D" points="196.7 265.45 230.15 284.76 284.59 253.34 251.13 234.02"></polygon>
                            <path d="M212.56,278.62 C213.99,277.79 213.98,276.45 212.56,275.62 C210.929556,274.789983 209.000444,274.789983 207.37,275.62 L212.56,278.62 Z" id="Path" fill="#4F4C4D"></path>
                            <path d="M207.35,275.61 C205.92,276.43 205.93,277.78 207.35,278.61 C208.98509,279.435321 210.91491,279.435321 212.55,278.61 L207.35,275.61 Z" id="Path" fill="#7B7979"></path>
                            <path d="M207.68,275.8 C206.43,276.52 206.44,277.69 207.68,278.42 C209.106104,279.146655 210.793896,279.146655 212.22,278.42 C213.46,277.7 213.46,276.52 212.22,275.8 C210.793896,275.073345 209.106104,275.073345 207.68,275.8 Z" id="Path" fill="#141313"></path>
                            <path d="M268.15,240.49 L273.64,243.67 C273.722946,243.720394 273.827054,243.720394 273.91,243.67 C273.995341,243.625013 274.048756,243.536472 274.048756,243.44 C274.048756,243.343528 273.995341,243.254987 273.91,243.21 L268.41,240.03 C268.330839,239.97899 268.229161,239.97899 268.15,240.03 C268.064659,240.074987 268.011244,240.163528 268.011244,240.26 C268.011244,240.356472 268.064659,240.445013 268.15,240.49 Z" id="Path" fill="#4F4C4D"></path>
                            <path d="M192.91,265.72 L252.12,231.54 C253.722609,230.663236 255.523322,230.212197 257.35,230.23 C258.767805,230.191306 260.172055,230.514834 261.43,231.17 L289,247.09 C290.033148,247.586722 290.714884,248.605497 290.78,249.75 L290.78,253.47 C290.595074,254.89516 289.687666,256.123941 288.38,256.72 L229.17,290.9 C227.564264,291.778006 225.760005,292.229071 223.93,292.21 C222.515383,292.248757 221.114348,291.925177 219.86,291.27 L192.28,275.35 C191.27441,274.864515 190.601001,273.882935 190.51,272.77 L190.51,269 C190.675614,267.559939 191.587565,266.313607 192.91,265.72 Z" id="Path" fill="#D7E7F6" style="mix-blend-mode: overlay;"></path>
                            <path d="M300.08,334 L385.81,383.5 C387.581835,384.426562 389.561261,384.884411 391.56,384.83 C394.146987,384.852276 396.697062,384.215617 398.97,382.98 L522.05,311.91 C524.2,310.67 525.43,308.99 525.43,307.28 L525.43,311.73 C525.43,313.43 524.2,315.12 522.05,316.36 L399,387.38 C396.727062,388.615617 394.176987,389.252276 391.59,389.23 C389.591261,389.284411 387.611835,388.826562 385.84,387.9 L300.11,338.4 C298.669806,337.722372 297.717478,336.309241 297.63,334.72 L297.63,330.28 C297.697351,331.87719 298.639247,333.307335 300.08,334 Z" id="Path" fill="#A7A9AC"></path>
                            <path d="M391.56,384.79 C394.146987,384.812276 396.697062,384.175617 398.97,382.94 L522.05,311.87 C524.2,310.63 525.43,308.95 525.43,307.24 C525.338944,305.654426 524.387163,304.245943 522.95,303.57 L437.22,254.07 C435.445487,253.139984 433.462797,252.678733 431.46,252.73 C428.875362,252.711171 426.328559,253.351313 424.06,254.59 L301,325.65 C298.85,326.89 297.62,328.58 297.62,330.28 C297.707478,331.869241 298.659806,333.282372 300.1,333.96 L385.83,383.46 C387.595878,384.383238 389.567993,384.840989 391.56,384.79 Z" id="Path" fill="#A7A9AC"></path>
                            <path d="M300.38,333.43 L386.12,382.92 C389.33,384.78 394.95,384.55 398.66,382.4 L521.74,311.34 C525.45,309.2 525.86,305.96 522.64,304.1 L436.91,254.6 C433.7,252.75 428.08,252.98 424.37,255.12 L301.28,326.18 C297.57,328.33 297.17,331.57 300.38,333.43 Z" id="Path" fill="#141313"></path>
                            <polygon id="Path" fill="#4F4C4D" points="311.85 326.62 397.91 376.31 511.18 310.91 425.12 261.22"></polygon>
                            <path d="M473.48,282.18 C473.1,282.4 473.1,282.76 473.48,282.98 C473.914949,283.209358 474.435051,283.209358 474.87,282.98 C475.043927,282.924316 475.161938,282.762623 475.161938,282.58 C475.161938,282.397377 475.043927,282.235684 474.87,282.18 C474.434209,281.954067 473.915791,281.954067 473.48,282.18 Z" id="Path" fill="#4F4C4D"></path>
                            <path d="M351.66,357.05 C353.44,356.05 353.43,354.36 351.66,353.33 C349.633285,352.300317 347.236715,352.300317 345.21,353.33 L351.66,357.05 Z" id="Path" fill="#4F4C4D"></path>
                            <path d="M345.19,353.32 C343.42,354.32 343.43,356.01 345.19,357.04 C347.216715,358.069683 349.613285,358.069683 351.64,357.04 L345.19,353.32 Z" id="Path" fill="#A7A9AC"></path>
                            <path d="M345.66,353.59 C344.15,354.47 344.15,355.89 345.66,356.77 C347.391258,357.650003 349.438742,357.650003 351.17,356.77 C352.69,355.9 352.68,354.47 351.17,353.59 C349.438742,352.709997 347.391258,352.709997 345.66,353.59 Z" id="Path" fill="#141313"></path>
                            <polygon id="Path" fill="#A7A9AC" points="398.97 382.94 398.97 387.38 522.1 316.29 522.1 311.85"></polygon>
                            <path d="M301,325.65 L424.08,254.59 C426.348559,253.351313 428.895362,252.711171 431.48,252.73 C433.482797,252.678733 435.465487,253.139984 437.24,254.07 L523,303.57 C524.437163,304.245943 525.388944,305.654426 525.48,307.24 L525.48,311.69 C525.48,313.38 524.26,315.05 522.15,316.29 L399,387.38 C396.727062,388.615617 394.176987,389.252276 391.59,389.23 C389.591261,389.284411 387.611835,388.826562 385.84,387.9 L300.11,338.4 C298.669806,337.722372 297.717478,336.309241 297.63,334.72 L297.63,330.28 C297.6,328.58 298.83,326.89 301,325.65 Z" id="Path" fill="#D7E7F6" style="mix-blend-mode: overlay;"></path>
                            <path d="M271.09,191.88 L271.09,90.37 C271.09,84.66 269.23,81.89 265.52,79.71 L131.27,2.21 C130.236116,1.45612776 128.919686,1.20310919 127.68,1.52 C127.68,1.52 129.94,0.21 130.15,0.14 C131.378629,-0.162936237 132.678333,0.0933434803 133.7,0.84 L267.94,78.34 C271.65,80.52 273.52,83.29 273.52,89 L273.52,190.51 C273.52,193.24 272.77,194.78 271.58,195.32 L269.58,196.45 C270.51,195.77 271.09,194.29 271.09,191.88 Z" id="Path" fill="#A7A9AC"></path>
                            <path d="M30.48,176.79 L164.72,254.29 C167.8,256.07 173.18,255.85 176.72,253.8 L264.65,203 C266.46,202 267.44,200.64 267.58,199.37 L267.58,204.5 C267.589997,204.669853 267.589997,204.840147 267.58,205.01 C267.44,206.28 266.45,207.59 264.65,208.63 L176.74,259.38 C173.18,261.44 167.8,261.66 164.74,259.88 L30.5,182.38 C29.311587,181.835833 28.5169459,180.684179 28.43,179.38 L28.43,174 C28.6007339,175.215539 29.3710076,176.263863 30.48,176.79 Z" id="Path" fill="#7B7979"></path>
                            <polygon id="Path" fill="#7B7979" points="30.48 182.36 165.46 260.29 165.46 254.72 30.48 176.79"></polygon>
                            <polygon id="Path" fill="#7B7979" points="264.65 203.04 176.74 253.8 176.74 259.37 264.65 208.61"></polygon>
                            <path d="M30.48,176.79 L164.72,254.29 C167.8,256.07 173.18,255.85 176.72,253.8 L264.65,203 C268.21,200.94 268.65,197.84 265.52,196.06 L131.27,118.6 C128.19,116.82 122.81,117.04 119.27,119.09 L31.35,169.85 C27.79,171.9 27.4,175 30.48,176.79 Z" id="Path" fill="#A7A9AC"></path>
                            <path d="M75.53,153.93 L204.36,228.31 C205.643408,228.893263 207.127278,228.833908 208.36,228.15 L256.21,200.52 C257.4,199.83 257.53,198.8 256.5,198.21 L127.68,123.83 C126.396592,123.246737 124.912722,123.306092 123.68,123.99 L75.83,151.62 C74.63,152.3 74.51,153.34 75.53,153.93 Z" id="Path" fill="#7B7979"></path>
                            <path d="M234.88,203 L241.6,206.88 C242.113348,207.116396 242.709259,207.090324 243.2,206.81 L249.64,203.1 C250.11,202.82 250.17,202.41 249.75,202.17 L243,198.32 C242.487265,198.085464 241.89373,198.107722 241.4,198.38 L235,202.1 C234.52,202.37 234.47,202.79 234.88,203 Z" id="Path" fill="#141313"></path>
                            <path d="M225.79,197.77 L232.51,201.65 C233.022735,201.884536 233.61627,201.862278 234.11,201.59 L240.55,197.87 C241.02,197.6 241.08,197.18 240.67,196.95 L234,193.07 C233.487265,192.835464 232.89373,192.857722 232.4,193.13 L225.96,196.85 C225.44,197.12 225.38,197.54 225.79,197.77 Z" id="Path" fill="#141313"></path>
                            <path d="M216.71,192.53 L223.42,196.41 C223.938607,196.636939 224.533046,196.611094 225.03,196.34 L231.46,192.62 C231.94,192.35 231.99,191.94 231.58,191.7 L224.86,187.82 C224.346652,187.583604 223.750741,187.609676 223.26,187.89 L216.82,191.6 C216.35,191.88 216.3,192.29 216.71,192.53 Z" id="Path" fill="#141313"></path>
                            <path d="M207.62,187.28 L214.33,191.16 C214.846782,191.396496 215.445694,191.370456 215.94,191.09 L222.37,187.38 C222.85,187.1 222.9,186.69 222.49,186.45 L215.77,182.57 C215.254796,182.343275 214.663435,182.369147 214.17,182.64 L207.73,186.35 C207.26,186.63 207.21,187 207.62,187.28 Z" id="Path" fill="#141313"></path>
                            <path d="M198.53,182 L205.25,185.88 C205.763348,186.116396 206.359259,186.090324 206.85,185.81 L213.28,182.1 C213.76,181.82 213.81,181.41 213.4,181.17 L206.68,177.3 C206.167265,177.065464 205.57373,177.087722 205.08,177.36 L198.64,181.08 C198.17,181.38 198.12,181.8 198.53,182 Z" id="Path" fill="#141313"></path>
                            <path d="M189.44,176.79 L196.16,180.66 C196.672735,180.894536 197.26627,180.872278 197.76,180.6 L204.19,176.88 C204.67,176.61 204.72,176.19 204.31,175.96 L197.59,172.08 C197.077265,171.845464 196.48373,171.867722 195.99,172.14 L189.55,175.86 C189.08,176.13 189,176.55 189.44,176.79 Z" id="Path" fill="#141313"></path>
                            <path d="M180.35,171.54 L187.07,175.42 C187.585204,175.646725 188.176565,175.620853 188.67,175.35 L195.11,171.63 C195.58,171.36 195.63,170.95 195.22,170.71 L188.5,166.83 C187.986652,166.593604 187.390741,166.619676 186.9,166.9 L180.47,170.61 C180,170.89 179.94,171.3 180.35,171.54 Z" id="Path" fill="#141313"></path>
                            <path d="M171.26,166.29 L177.98,170.17 C178.493348,170.406396 179.089259,170.380324 179.58,170.1 L186.02,166.39 C186.49,166.11 186.54,165.7 186.13,165.46 L179.41,161.58 C178.894796,161.353275 178.303435,161.379147 177.81,161.65 L171.38,165.37 C170.9,165.64 170.85,166.05 171.26,166.29 Z" id="Path" fill="#141313"></path>
                            <path d="M162.17,161 L168.89,164.88 C169.403348,165.116396 169.999259,165.090324 170.49,164.81 L176.93,161.1 C177.4,160.82 177.45,160.41 177.04,160.17 L170.33,156.3 C169.813838,156.065302 169.217261,156.087535 168.72,156.36 L162.29,160.08 C161.81,160.39 161.76,160.81 162.17,161 Z" id="Path" fill="#141313"></path>
                            <path d="M153.08,155.8 L159.8,159.67 C160.312735,159.904536 160.90627,159.882278 161.4,159.61 L167.84,155.89 C168.31,155.62 168.36,155.2 167.95,154.97 L161.24,151.09 C160.723838,150.855302 160.127261,150.877535 159.63,151.15 L153.2,154.87 C152.72,155.14 152.67,155.56 153.08,155.8 Z" id="Path" fill="#141313"></path>
                            <path d="M144,150.55 L150.72,154.43 C151.235204,154.656725 151.826565,154.630853 152.32,154.36 L158.76,150.64 C159.23,150.37 159.29,149.96 158.88,149.72 L152.16,145.84 C151.646652,145.603604 151.050741,145.629676 150.56,145.91 L144.12,149.62 C143.64,149.9 143.58,150.31 144,150.55 Z" id="Path" fill="#141313"></path>
                            <path d="M134.91,145.3 L141.62,149.18 C142.136782,149.416496 142.735694,149.390456 143.23,149.11 L149.66,145.4 C150.14,145.12 150.19,144.71 149.78,144.47 L143.06,140.59 C142.544796,140.363275 141.953435,140.389147 141.46,140.66 L135,144.38 C134.55,144.65 134.49,145.06 134.91,145.3 Z" id="Path" fill="#141313"></path>
                            <path d="M125.82,140.05 L132.53,143.93 C133.046782,144.166496 133.645694,144.140456 134.14,143.86 L140.57,140.15 C141.05,139.87 141.1,139.46 140.69,139.22 L134,135.35 C133.487265,135.115464 132.89373,135.137722 132.4,135.41 L125.96,139.13 C125.46,139.4 125.41,139.82 125.82,140.05 Z" id="Path" fill="#141313"></path>
                            <path d="M112.62,132.43 L123.45,138.68 C123.962735,138.914536 124.55627,138.892278 125.05,138.62 L131.48,134.9 C131.96,134.63 132.01,134.21 131.6,133.98 L120.77,127.73 C120.257265,127.495464 119.66373,127.517722 119.17,127.79 L112.74,131.51 C112.26,131.78 112.21,132.2 112.62,132.43 Z" id="Path" fill="#141313"></path>
                            <path d="M118.46,136.82 L111.74,132.94 C111.226652,132.703604 110.630741,132.729676 110.14,133.01 L103.7,136.72 C103.23,137 103.18,137.41 103.59,137.65 L110.31,141.53 C110.825204,141.756725 111.416565,141.730853 111.91,141.46 L118.34,137.74 C118.82,137.47 118.87,137.06 118.46,136.82 Z" id="Path" fill="#141313"></path>
                            <path d="M127.55,142.07 L120.83,138.19 C120.316652,137.953604 119.720741,137.979676 119.23,138.26 L112.79,142 C112.32,142.27 112.27,142.69 112.68,142.93 L119.39,146.8 C119.906162,147.034698 120.502739,147.012465 121,146.74 L127.43,143.02 C127.91,142.72 128,142.3 127.55,142.07 Z" id="Path" fill="#141313"></path>
                            <path d="M136.64,147.31 L129.92,143.44 C129.407265,143.205464 128.81373,143.227722 128.32,143.5 L121.88,147.22 C121.41,147.49 121.36,147.91 121.77,148.14 L128.48,152.02 C128.996162,152.254698 129.592739,152.232465 130.09,151.96 L136.52,148.24 C137,148 137.05,147.55 136.64,147.31 Z" id="Path" fill="#141313"></path>
                            <path d="M145.73,152.56 L139,148.68 C138.484796,148.453275 137.893435,148.479147 137.4,148.75 L131,152.47 C130.53,152.74 130.47,153.15 130.89,153.39 L137.6,157.27 C138.113348,157.506396 138.709259,157.480324 139.2,157.2 L145.64,153.49 C146.09,153.21 146.14,152.8 145.73,152.56 Z" id="Path" fill="#141313"></path>
                            <path d="M154.82,157.81 L148.1,153.93 C147.586652,153.693604 146.990741,153.719676 146.5,154 L140.06,157.71 C139.59,157.99 139.53,158.4 139.94,158.64 L146.66,162.52 C147.175204,162.746725 147.766565,162.720853 148.26,162.45 L154.7,158.73 C155.17,158.46 155.23,158.05 154.82,157.81 Z" id="Path" fill="#141313"></path>
                            <path d="M163.9,163.06 L157.19,159.18 C156.673218,158.943504 156.074306,158.969544 155.58,159.25 L149.15,163 C148.67,163.27 148.62,163.69 149.03,163.93 L155.75,167.8 C156.262735,168.034536 156.85627,168.012278 157.35,167.74 L163.79,164.02 C164.26,163.71 164.31,163.29 163.9,163.06 Z" id="Path" fill="#141313"></path>
                            <path d="M173,168.3 L166.29,164.43 C165.773838,164.195302 165.177261,164.217535 164.68,164.49 L158.25,168.21 C157.77,168.48 157.72,168.9 158.13,169.13 L164.85,173.01 C165.362735,173.244536 165.95627,173.222278 166.45,172.95 L172.89,169.23 C173.35,169 173.4,168.54 173,168.3 Z" id="Path" fill="#141313"></path>
                            <path d="M182.08,173.55 L175.36,169.67 C174.844796,169.443275 174.253435,169.469147 173.76,169.74 L167.33,173.46 C166.85,173.73 166.8,174.14 167.21,174.38 L173.93,178.26 C174.443348,178.496396 175.039259,178.470324 175.53,178.19 L181.97,174.48 C182.44,174.2 182.49,173.79 182.08,173.55 Z" id="Path" fill="#141313"></path>
                            <path d="M191.17,178.8 L184.45,174.92 C183.936652,174.683604 183.340741,174.709676 182.85,174.99 L176.42,178.7 C175.94,178.98 175.89,179.39 176.3,179.63 L183.02,183.51 C183.535204,183.736725 184.126565,183.710853 184.62,183.44 L191.06,179.72 C191.53,179.45 191.58,179 191.17,178.8 Z" id="Path" fill="#141313"></path>
                            <path d="M200.26,184.05 L193.54,180.17 C193.026652,179.933604 192.430741,179.959676 191.94,180.24 L185.5,184 C185.03,184.27 184.98,184.69 185.39,184.93 L192.11,188.8 C192.622735,189.034536 193.21627,189.012278 193.71,188.74 L200.14,185.02 C200.62,184.7 200.67,184.28 200.26,184.05 Z" id="Path" fill="#141313"></path>
                            <path d="M209.35,189.29 L202.63,185.42 C202.117265,185.185464 201.52373,185.207722 201.03,185.48 L194.59,189.2 C194.12,189.47 194.07,189.89 194.48,190.12 L201.2,194 C201.712735,194.234536 202.30627,194.212278 202.8,193.94 L209.23,190.22 C209.71,190 209.76,189.53 209.35,189.29 Z" id="Path" fill="#141313"></path>
                            <path d="M218.44,194.54 L211.72,190.66 C211.204796,190.433275 210.613435,190.459147 210.12,190.73 L203.68,194.45 C203.21,194.72 203.16,195.13 203.57,195.37 L210.28,199.25 C210.796782,199.486496 211.395694,199.460456 211.89,199.18 L218.32,195.47 C218.8,195.19 218.85,194.78 218.44,194.54 Z" id="Path" fill="#141313"></path>
                            <path d="M227.53,199.79 L220.81,195.91 C220.296652,195.673604 219.700741,195.699676 219.21,195.98 L212.77,199.69 C212.3,199.97 212.25,200.38 212.66,200.62 L219.37,204.5 C219.888607,204.726939 220.483046,204.701094 220.98,204.43 L227.41,200.71 C227.89,200.44 227.94,200 227.53,199.79 Z" id="Path" fill="#141313"></path>
                            <path d="M240.72,207.41 L229.9,201.16 C229.386652,200.923604 228.790741,200.949676 228.3,201.23 L221.86,204.94 C221.39,205.21 221.33,205.63 221.74,205.87 L232.57,212.12 C233.085204,212.346725 233.676565,212.320853 234.17,212.05 L240.61,208.33 C241.08,208.06 241.13,207.65 240.72,207.41 Z" id="Path" fill="#141313"></path>
                            <path d="M116,145.82 L102.72,138.16 C102.207265,137.925464 101.61373,137.947722 101.12,138.22 L94.68,141.94 C94.21,142.21 94.16,142.63 94.57,142.86 L107.84,150.53 C108.356782,150.766496 108.955694,150.740456 109.45,150.46 L115.88,146.75 C116.35,146.47 116.4,146.06 116,145.82 Z" id="Path" fill="#141313"></path>
                            <path d="M231.62,212.58 L218.34,204.91 C217.824796,204.683275 217.233435,204.709147 216.74,204.98 L210.3,208.7 C209.83,208.97 209.77,209.38 210.18,209.62 L223.46,217.29 C223.975204,217.516725 224.566565,217.490853 225.06,217.22 L231.5,213.5 C232,213.23 232,212.82 231.62,212.58 Z" id="Path" fill="#141313"></path>
                            <path d="M125.08,151.07 L118.36,147.19 C117.846652,146.953604 117.250741,146.979676 116.76,147.26 L110.32,151 C109.85,151.28 109.8,151.69 110.21,151.93 L116.92,155.81 C117.438607,156.036939 118.033046,156.011094 118.53,155.74 L125,152 C125.44,151.72 125.49,151.31 125.08,151.07 Z" id="Path" fill="#141313"></path>
                            <path d="M134.17,156.32 L127.45,152.44 C126.936652,152.203604 126.340741,152.229676 125.85,152.51 L119.41,156.22 C118.94,156.49 118.88,156.91 119.29,157.15 L126,161 C126.512735,161.234536 127.10627,161.212278 127.6,160.94 L134.04,157.22 C134.52,157 134.58,156.55 134.17,156.32 Z" id="Path" fill="#141313"></path>
                            <path d="M143.25,161.56 L136.54,157.69 C136.023838,157.455302 135.427261,157.477535 134.93,157.75 L128.5,161.47 C128.02,161.74 127.97,162.16 128.38,162.39 L135.1,166.27 C135.612735,166.504536 136.20627,166.482278 136.7,166.21 L143.14,162.49 C143.61,162.22 143.67,161.8 143.25,161.56 Z" id="Path" fill="#141313"></path>
                            <path d="M152.34,166.81 L145.63,162.93 C145.10575,162.696443 144.502296,162.722358 144,163 L137.57,166.72 C137.09,166.99 137.04,167.4 137.45,167.64 L144.17,171.52 C144.683348,171.756396 145.279259,171.730324 145.77,171.45 L152.21,167.74 C152.7,167.46 152.75,167.05 152.34,166.81 Z" id="Path" fill="#141313"></path>
                            <path d="M161.43,172.06 L154.71,168.18 C154.196652,167.943604 153.600741,167.969676 153.11,168.25 L146.68,172 C146.2,172.28 146.15,172.69 146.56,172.93 L153.28,176.81 C153.795204,177.036725 154.386565,177.010853 154.88,176.74 L161.32,173.02 C161.79,172.71 161.84,172.3 161.43,172.06 Z" id="Path" fill="#141313"></path>
                            <path d="M170.52,177.31 L163.8,173.43 C163.286652,173.193604 162.690741,173.219676 162.2,173.5 L155.77,177.21 C155.29,177.48 155.24,177.9 155.65,178.14 L162.37,182.01 C162.883028,182.270257 163.490204,182.266532 164,182 L170.44,178.28 C170.88,178 170.93,177.54 170.52,177.31 Z" id="Path" fill="#141313"></path>
                            <path d="M179.61,182.55 L172.89,178.68 C172.377265,178.445464 171.78373,178.467722 171.29,178.74 L164.85,182.46 C164.38,182.73 164.33,183.15 164.74,183.38 L171.46,187.26 C171.972735,187.494536 172.56627,187.472278 173.06,187.2 L179.5,183.48 C180,183.21 180,182.79 179.61,182.55 Z" id="Path" fill="#141313"></path>
                            <path d="M188.7,187.8 L182,183.92 C181.484796,183.693275 180.893435,183.719147 180.4,183.99 L173.96,187.71 C173.49,187.98 173.44,188.39 173.85,188.63 L180.57,192.51 C181.083348,192.746396 181.679259,192.720324 182.17,192.44 L188.6,188.73 C189.06,188.45 189.11,188 188.7,187.8 Z" id="Path" fill="#141313"></path>
                            <path d="M197.79,193.05 L191.07,189.17 C190.556652,188.933604 189.960741,188.959676 189.47,189.24 L183,193 C182.53,193.28 182.48,193.69 182.89,193.93 L189.6,197.81 C190.118607,198.036939 190.713046,198.011094 191.21,197.74 L197.64,194.02 C198.15,193.7 198.2,193.29 197.79,193.05 Z" id="Path" fill="#141313"></path>
                            <path d="M206.88,198.3 L200.16,194.42 C199.646652,194.183604 199.050741,194.209676 198.56,194.49 L192.12,198.2 C191.65,198.47 191.6,198.89 192.01,199.13 L198.72,203 C199.236162,203.234698 199.832739,203.212465 200.33,202.94 L206.76,199.22 C207.24,199 207.29,198.53 206.88,198.3 Z" id="Path" fill="#141313"></path>
                            <path d="M216,203.54 L209.28,199.67 C208.767265,199.435464 208.17373,199.457722 207.68,199.73 L201.24,203.45 C200.77,203.72 200.71,204.14 201.13,204.37 L207.84,208.25 C208.352735,208.484536 208.94627,208.462278 209.44,208.19 L215.88,204.47 C216.33,204.2 216.38,203.78 216,203.54 Z" id="Path" fill="#141313"></path>
                            <path d="M111.47,153.64 L93.68,143.37 C93.1666524,143.133604 92.5707411,143.159676 92.08,143.44 L85.64,147.15 C85.16,147.43 85.11,147.84 85.52,148.08 L103.31,158.35 C103.826782,158.586496 104.425694,158.560456 104.92,158.28 L111.35,154.57 C111.83,154.29 111.88,153.88 111.47,153.64 Z" id="Path" fill="#141313"></path>
                            <path d="M120.56,158.89 L113.84,155 C113.326652,154.763604 112.730741,154.789676 112.24,155.07 L105.8,158.78 C105.33,159.06 105.28,159.47 105.69,159.71 L112.4,163.59 C112.918607,163.816939 113.513046,163.791094 114.01,163.52 L120.44,159.8 C120.92,159.54 121,159.13 120.56,158.89 Z" id="Path" fill="#141313"></path>
                            <path d="M129.65,164.14 L122.93,160.26 C122.417265,160.025464 121.82373,160.047722 121.33,160.32 L114.89,164 C114.42,164.27 114.36,164.69 114.77,164.93 L121.49,168.8 C122.002735,169.034536 122.59627,169.012278 123.09,168.74 L129.53,165.02 C130,164.79 130.06,164.37 129.65,164.14 Z" id="Path" fill="#141313"></path>
                            <path d="M138.73,169.38 L132,165.51 C131.483838,165.275302 130.887261,165.297535 130.39,165.57 L124,169.29 C123.52,169.56 123.47,169.98 123.88,170.21 L130.6,174.09 C131.112735,174.324536 131.70627,174.302278 132.2,174.03 L138.64,170.31 C139.09,170 139.15,169.62 138.73,169.38 Z" id="Path" fill="#141313"></path>
                            <path d="M147.82,174.63 L141.11,170.75 C140.591393,170.523061 139.996954,170.548906 139.5,170.82 L133.07,174.54 C132.59,174.81 132.54,175.22 132.95,175.46 L139.67,179.34 C140.183348,179.576396 140.779259,179.550324 141.27,179.27 L147.71,175.56 C148.18,175.28 148.23,174.87 147.82,174.63 Z" id="Path" fill="#141313"></path>
                            <path d="M156.91,179.88 L150.19,176 C149.676652,175.763604 149.080741,175.789676 148.59,176.07 L142.16,179.78 C141.68,180.06 141.63,180.47 142.04,180.71 L148.76,184.59 C149.275204,184.816725 149.866565,184.790853 150.36,184.52 L156.8,180.8 C157.27,180.53 157.32,180.12 156.91,179.88 Z" id="Path" fill="#141313"></path>
                            <path d="M166,185.13 L159.28,181.25 C158.767265,181.015464 158.17373,181.037722 157.68,181.31 L151.25,185 C150.77,185.27 150.72,185.69 151.13,185.93 L157.85,189.8 C158.362735,190.034536 158.95627,190.012278 159.45,189.74 L165.89,186.02 C166.36,185.78 166.41,185.36 166,185.13 Z" id="Path" fill="#141313"></path>
                            <path d="M175.09,190.37 L168.37,186.5 C167.857265,186.265464 167.26373,186.287722 166.77,186.56 L160.33,190.28 C159.86,190.55 159.81,190.97 160.22,191.2 L166.94,195.08 C167.452735,195.314536 168.04627,195.292278 168.54,195.02 L175,191.3 C175.45,191 175.5,190.61 175.09,190.37 Z" id="Path" fill="#141313"></path>
                            <path d="M184.18,195.62 L177.46,191.74 C176.944796,191.513275 176.353435,191.539147 175.86,191.81 L169.42,195.53 C168.95,195.8 168.9,196.21 169.31,196.45 L176.03,200.33 C176.543348,200.566396 177.139259,200.540324 177.63,200.26 L184.06,196.55 C184.54,196.27 184.59,195.86 184.18,195.62 Z" id="Path" fill="#141313"></path>
                            <path d="M193.27,200.87 L186.55,197 C186.036652,196.763604 185.440741,196.789676 184.95,197.07 L178.51,200.78 C178.04,201.06 177.99,201.47 178.4,201.71 L185.11,205.59 C185.628607,205.816939 186.223046,205.791094 186.72,205.52 L193.15,201.8 C193.63,201.52 193.68,201.11 193.27,200.87 Z" id="Path" fill="#141313"></path>
                            <path d="M202.36,206.12 L195.64,202.24 C195.127265,202.005464 194.53373,202.027722 194.04,202.3 L187.6,206 C187.13,206.27 187.08,206.69 187.49,206.93 L194.2,210.8 C194.716162,211.034698 195.312739,211.012465 195.81,210.74 L202.24,207.02 C202.72,206.77 202.77,206.35 202.36,206.12 Z" id="Path" fill="#141313"></path>
                            <path d="M222.58,217.79 L204.73,207.49 C204.217265,207.255464 203.62373,207.277722 203.13,207.55 L196.69,211.27 C196.22,211.54 196.16,211.96 196.58,212.19 L214.43,222.5 C214.942735,222.734536 215.53627,222.712278 216.03,222.44 L222.47,218.72 C222.94,218.45 223,218 222.58,217.79 Z" id="Path" fill="#141313"></path>
                            <path d="M175.15,200.84 L132.07,176 C131.557265,175.765464 130.96373,175.787722 130.47,176.06 L124,179.75 C123.52,180.02 123.47,180.44 123.88,180.68 L167,205.54 C167.516162,205.774698 168.112739,205.752465 168.61,205.48 L175.04,201.76 C175.51,201.49 175.56,201.07 175.15,200.84 Z" id="Path" fill="#141313"></path>
                            <path d="M118.63,168.21 L111.91,164.33 C111.397265,164.095464 110.80373,164.117722 110.31,164.39 L103.87,168.11 C103.4,168.38 103.35,168.8 103.76,169.04 L110.48,172.91 C110.992735,173.144536 111.58627,173.122278 112.08,172.85 L118.51,169.13 C119,168.86 119,168.44 118.63,168.21 Z" id="Path" fill="#141313"></path>
                            <path d="M129.7,174.6 L121,169.6 C120.487265,169.365464 119.89373,169.387722 119.4,169.66 L113,173.36 C112.53,173.63 112.48,174.05 112.89,174.28 L121.59,179.28 C122.105204,179.506725 122.696565,179.480853 123.19,179.21 L129.63,175.49 C130.06,175.25 130.11,174.84 129.7,174.6 Z" id="Path" fill="#141313"></path>
                            <path d="M188.59,208.6 L195.31,212.48 C195.72,212.71 195.67,213.13 195.19,213.4 L188.76,217.12 C188.26627,217.392278 187.672735,217.414536 187.16,217.18 L180.44,213.31 C180.03,213.07 180.08,212.65 180.55,212.38 L186.99,208.66 C187.48373,208.387722 188.077265,208.365464 188.59,208.6 Z" id="Path" fill="#141313"></path>
                            <path d="M177.52,202.21 L186.22,207.21 C186.63,207.45 186.58,207.86 186.1,208.13 L179.67,211.85 C179.176565,212.120853 178.585204,212.146725 178.07,211.92 L169.37,206.92 C168.95,206.69 169.01,206.27 169.48,206 L175.92,202.28 C176.412126,202.004506 177.005695,201.978537 177.52,202.21 Z" id="Path" fill="#141313"></path>
                            <path d="M91.36,152.46 L84.65,148.59 C84.1338382,148.355302 83.5372613,148.377535 83.04,148.65 L76.61,152.37 C76.13,152.64 76.08,153.06 76.49,153.29 L83.21,157.17 C83.7233476,157.406396 84.3192589,157.380324 84.81,157.1 L91.25,153.39 C91.72,153.11 91.77,152.7 91.36,152.46 Z" id="Path" fill="#141313"></path>
                            <path d="M100.45,157.71 L93.73,153.83 C93.2147959,153.603275 92.6234351,153.629147 92.13,153.9 L85.7,157.62 C85.22,157.89 85.17,158.3 85.58,158.54 L92.3,162.42 C92.8133476,162.656396 93.4092589,162.630324 93.9,162.35 L100.34,158.64 C100.81,158.36 100.86,158 100.45,157.71 Z" id="Path" fill="#141313"></path>
                            <path d="M109.54,163 L102.82,159.12 C102.306652,158.883604 101.710741,158.909676 101.22,159.19 L94.78,162.9 C94.31,163.18 94.26,163.59 94.67,163.83 L101.39,167.71 C101.905204,167.936725 102.496565,167.910853 102.99,167.64 L109.43,163.92 C109.9,163.61 110,163.2 109.54,163 Z" id="Path" fill="#141313"></path>
                            <path d="M213.55,223 L197.68,213.84 C197.167265,213.605464 196.57373,213.627722 196.08,213.9 L189.64,217.62 C189.17,217.89 189.12,218.31 189.53,218.54 L205.4,227.71 C205.915204,227.936725 206.506565,227.910853 207,227.64 L213.44,223.92 C213.91,223.66 214,223.25 213.55,223 Z" id="Path" fill="#141313"></path>
                            <path d="M243.92,197.81 L250.63,201.69 C251.148607,201.916939 251.743046,201.891094 252.24,201.62 L255.44,199.77 C255.91,199.5 255.96,199.08 255.55,198.85 L248.83,195 C248.316652,194.763604 247.720741,194.789676 247.23,195.07 L244.03,196.91 C243.56,197.16 243.51,197.57 243.92,197.81 Z" id="Path" fill="#141313"></path>
                            <path d="M234.83,192.56 L241.54,196.44 C242.056782,196.676496 242.655694,196.650456 243.15,196.37 L246.35,194.52 C246.82,194.25 246.87,193.84 246.46,193.6 L239.74,189.72 C239.226652,189.483604 238.630741,189.509676 238.14,189.79 L234.94,191.64 C234.47,191.91 234.42,192.32 234.83,192.56 Z" id="Path" fill="#141313"></path>
                            <path d="M225.74,187.31 L232.46,191.19 C232.973348,191.426396 233.569259,191.400324 234.06,191.12 L237.26,189.28 C237.73,189 237.78,188.59 237.37,188.35 L230.66,184.47 C230.141393,184.243061 229.546954,184.268906 229.05,184.54 L225.85,186.39 C225.38,186.66 225.33,187.08 225.74,187.31 Z" id="Path" fill="#141313"></path>
                            <path d="M216.65,182.07 L223.37,185.94 C223.882735,186.174536 224.47627,186.152278 224.97,185.88 L228.17,184.03 C228.64,183.76 228.69,183.34 228.28,183.1 L221.57,179.23 C221.053838,178.995302 220.457261,179.017535 219.96,179.29 L216.76,181.14 C216.29,181.41 216.24,181.83 216.65,182.07 Z" id="Path" fill="#141313"></path>
                            <path d="M207.56,176.82 L214.28,180.7 C214.795204,180.926725 215.386565,180.900853 215.88,180.63 L219.08,178.78 C219.55,178.51 219.61,178.09 219.2,177.86 L212.48,174 C211.966652,173.763604 211.370741,173.789676 210.88,174.07 L207.68,175.91 C207.2,176.17 207.15,176.58 207.56,176.82 Z" id="Path" fill="#141313"></path>
                            <path d="M198.47,171.57 L205.19,175.45 C205.703348,175.686396 206.299259,175.660324 206.79,175.38 L209.99,173.53 C210.47,173.26 210.52,172.85 210.11,172.61 L203.39,168.73 C202.876652,168.493604 202.280741,168.519676 201.79,168.8 L198.59,170.65 C198.11,170.92 198.06,171.33 198.47,171.57 Z" id="Path" fill="#141313"></path>
                            <path d="M189.38,166.32 L196.1,170.2 C196.613348,170.436396 197.209259,170.410324 197.7,170.13 L200.9,168.29 C201.38,168.01 201.43,167.6 201.02,167.36 L194.3,163.48 C193.784796,163.253275 193.193435,163.279147 192.7,163.55 L189.5,165.4 C189,165.67 189,166.09 189.38,166.32 Z" id="Path" fill="#141313"></path>
                            <path d="M180.29,161.08 L187,165 C187.512735,165.234536 188.10627,165.212278 188.6,164.94 L191.8,163.09 C192.28,162.82 192.33,162.4 191.92,162.16 L185.2,158.29 C184.687265,158.055464 184.09373,158.077722 183.6,158.35 L180.4,160.2 C179.93,160.42 179.88,160.84 180.29,161.08 Z" id="Path" fill="#141313"></path>
                            <path d="M171.2,155.83 L177.92,159.71 C178.435204,159.936725 179.026565,159.910853 179.52,159.64 L182.72,157.79 C183.2,157.52 183.25,157.1 182.84,156.87 L176.12,153 C175.606652,152.763604 175.010741,152.789676 174.52,153.07 L171.32,154.91 C170.85,155.18 170.79,155.59 171.2,155.83 Z" id="Path" fill="#141313"></path>
                            <path d="M162.12,150.58 L168.83,154.46 C169.346782,154.696496 169.945694,154.670456 170.44,154.39 L173.64,152.54 C174.11,152.27 174.16,151.86 173.75,151.62 L167,147.74 C166.486652,147.503604 165.890741,147.529676 165.4,147.81 L162.2,149.66 C161.76,149.93 161.7,150.34 162.12,150.58 Z" id="Path" fill="#141313"></path>
                            <path d="M153,145.33 L159.71,149.21 C160.226782,149.446496 160.825694,149.420456 161.32,149.14 L164.52,147.3 C164.99,147.02 165.04,146.61 164.63,146.37 L157.91,142.49 C157.394796,142.263275 156.803435,142.289147 156.31,142.56 L153.11,144.41 C152.67,144.68 152.62,145.1 153,145.33 Z" id="Path" fill="#141313"></path>
                            <path d="M143.94,140.09 L150.66,143.96 C151.172735,144.194536 151.76627,144.172278 152.26,143.9 L155.46,142.05 C155.93,141.78 155.98,141.36 155.57,141.12 L148.86,137.25 C148.343838,137.015302 147.747261,137.037535 147.25,137.31 L144.05,139.16 C143.58,139.43 143.53,139.85 143.94,140.09 Z" id="Path" fill="#141313"></path>
                            <path d="M134.85,134.84 L141.57,138.72 C142.085204,138.946725 142.676565,138.920853 143.17,138.65 L146.37,136.8 C146.84,136.53 146.89,136.11 146.48,135.88 L139.77,132 C139.253218,131.763504 138.654306,131.789544 138.16,132.07 L134.96,133.91 C134.49,134.19 134.44,134.6 134.85,134.84 Z" id="Path" fill="#141313"></path>
                            <path d="M121.65,127.22 L132.48,133.47 C132.993348,133.706396 133.589259,133.680324 134.08,133.4 L137.28,131.55 C137.75,131.28 137.81,130.87 137.39,130.63 L126.57,124.38 C126.056652,124.143604 125.460741,124.169676 124.97,124.45 L121.77,126.29 C121.29,126.57 121.24,127 121.65,127.22 Z" id="Path" fill="#141313"></path>
                            <polygon id="Path" fill="#141313" points="115.4 156.22 114.51 155.71 113.63 156.21 114.52 156.72"></polygon>
                            <path d="M160.08,204.34 L117,179.47 C116.483218,179.233504 115.884306,179.259544 115.39,179.54 L78.52,200.82 C78.05,201.1 78,201.51 78.41,201.75 L121.48,226.62 C121.994305,226.851463 122.587874,226.825494 123.08,226.55 L160,205.26 C160.44,205 160.49,204.58 160.08,204.34 Z" id="Path" fill="#7B7979"></path>
                            <path d="M87.71,208.61 L109.61,221.25 C109.872926,221.339958 110.049584,221.58711 110.049584,221.865 C110.049584,222.14289 109.872926,222.390042 109.61,222.48 L85.61,208.61 C86.2703175,208.276667 87.0496825,208.276667 87.71,208.61 Z" id="Path" fill="#7B7979"></path>
                            <polygon id="Path" fill="#7B7979" points="140.09 125.48 253.6 191.01 255.15 190.12 141.64 124.58"></polygon>
                            <polygon id="Path" fill="#A7A9AC" points="271.09 90.37 271.09 191.88 273.52 190.48 273.52 88.97"></polygon>
                            <path d="M131.27,118.6 L265.52,196.1 C268.6,197.88 271.09,196.86 271.09,191.88 L271.09,90.37 C271.09,84.66 269.23,81.89 265.52,79.71 L131.27,2.21 C128.19,0.43 125.7,1.21 125.7,6.42 L125.7,107.94 C125.7,114.57 127.91,116.66 131.27,118.6 Z" id="Path" fill="#7B7979"></path>
                            <path d="M126.39,109.8 C126.573618,112.964732 128.246909,115.854962 130.9,117.59 L265.9,195.52 C268.38,196.95 270.41,195.8 270.41,192.95 L126.39,109.8 Z" id="Path" fill="#4F4C4D"></path>
                            <path d="M270.4,193 L270.4,88.51 C270.216382,85.3452678 268.543091,82.4550376 265.89,80.72 L130.89,2.79 C128.41,1.36 126.38,2.51 126.38,5.36 L126.38,109.8 L270.4,193 Z" id="Path" fill="#141313"></path>
                            <polygon id="Path" fill="#4F4C4D" points="265.19 183.97 265.19 86.3 131.6 9.17 131.6 106.84"></polygon>
                            <path d="M28.41,174 C28.31,172.58 29.31,171.06 31.34,169.88 L119.26,119.12 C122.81,117.07 128.19,116.85 131.26,118.63 C127.9,116.69 125.69,114.63 125.69,107.97 L125.69,6.42 C125.69,3.52 126.46,2 127.69,1.52 C127.69,1.52 129.95,0.21 130.16,0.14 C131.388629,-0.162936237 132.688333,0.0933434803 133.71,0.84 L267.95,78.34 C271.66,80.51 273.52,83.28 273.53,88.97 L273.53,190.51 C273.53,193.24 272.78,194.78 271.59,195.32 L269.59,196.45 L269.68,196.37 C268.68,197.19 267.19,197.05 265.55,196.1 C266.850167,196.676845 267.666634,197.988741 267.61,199.41 L267.61,204.54 C267.619997,204.709853 267.619997,204.880147 267.61,205.05 C267.47,206.32 266.48,207.63 264.68,208.67 L176.77,259.42 C173.21,261.48 167.83,261.7 164.77,259.92 L30.53,182.42 C29.341587,181.875833 28.5469459,180.724179 28.46,179.42 L28.46,174 L28.41,174 Z" id="Path" fill="#D7E7F6" style="mix-blend-mode: overlay;"></path>
                            <path d="M186.05,317.16 L161.81,331.16 L149.81,324.23 L149.81,328.23 L161.81,335.17 L186.05,321.17 C187.409446,320.556958 188.357759,319.287502 188.56,317.81 L188.56,317.75 C188.569966,317.700497 188.569966,317.649503 188.56,317.6 L188.56,313.87 C188.335423,315.321369 187.390473,316.559968 186.05,317.16 Z" id="Path" fill="#4F4C4D"></path>
                            <path d="M161.81,331.16 L186.05,317.16 C189.39,315.24 189.41,312.16 186.05,310.16 C182.276539,308.256153 177.823461,308.256153 174.05,310.16 L149.8,324.16 L161.81,331.16 Z" id="Path" fill="#7B7979"></path>
                            <polygon id="Path" fill="#4F4C4D" points="186.06 321.13 186.06 317.16 161.81 331.16 161.81 335.13"></polygon>
                            <polygon id="Path" fill="#7B7979" points="150.93 336.37 142.78 331.67 142.78 333.65 150.93 338.36"></polygon>
                            <polygon id="Path" fill="#4F4C4D" points="150.68 336.51 150.68 337.94 143.03 333.51 143.03 332.09"></polygon>
                            <polygon id="Path" fill="#7B7979" points="143.19 332.9 150.51 337.13 150.51 337.68 143.19 333.45"></polygon>
                            <polygon id="Path" fill="#A7A9AC" points="151.87 326.49 159.96 331.16 150.93 336.37 142.83 331.7"></polygon>
                            <polygon id="Path" fill="#4F4C4D" points="150.27 329.9 151.08 330.37 149.56 331.25 148.75 330.78"></polygon>
                            <polygon id="Path" fill="#4F4C4D" points="154.04 332.08 153.23 331.61 151.72 332.49 152.52 332.96"></polygon>
                            <polygon id="Path" fill="#7B7979" points="150.93 336.37 159.96 331.16 159.96 333.14 150.93 338.36"></polygon>
                            <path d="M167.44,306 L143.19,320 L131.19,313.06 L131.19,317.06 L143.19,323.99 L167.44,309.99 C168.794065,309.377665 169.738338,308.112338 169.94,306.64 L169.94,302.7 C169.718836,304.152199 168.778103,305.393967 167.44,306 Z" id="Path" fill="#4F4C4D"></path>
                            <path d="M143.19,320 L167.44,306 C170.78,304.07 170.79,301 167.44,299 C163.647924,297.085577 159.172076,297.085577 155.38,299 L131.13,313 L143.19,320 Z" id="Path" fill="#7B7979"></path>
                            <polygon id="Path" fill="#4F4C4D" points="167.44 309.93 167.44 305.97 143.19 319.97 143.19 323.93"></polygon>
                            <polygon id="Path" fill="#7B7979" points="132.31 327.16 132.31 325.18 124.17 320.48 124.17 322.46"></polygon>
                            <polygon id="Path" fill="#4F4C4D" points="132.07 325.32 132.07 326.74 124.41 322.32 124.41 320.9"></polygon>
                            <polygon id="Path" fill="#7B7979" points="124.58 321.71 131.9 325.94 131.9 326.48 124.58 322.26"></polygon>
                            <polygon id="Path" fill="#A7A9AC" points="133.25 315.29 141.34 319.97 132.31 325.18 124.22 320.51"></polygon>
                            <polygon id="Path" fill="#4F4C4D" points="131.66 318.71 132.46 319.18 130.94 320.06 130.14 319.59"></polygon>
                            <polygon id="Path" fill="#4F4C4D" points="135.42 320.89 134.62 320.42 133.1 321.3 133.91 321.76"></polygon>
                            <polygon id="Path" fill="#7B7979" points="132.31 325.18 141.34 319.97 141.34 321.95 132.31 327.16"></polygon>
                            <path d="M188.56,313.83 C188.63,312.52 187.82,311.2 186.09,310.2 C182.316539,308.296153 177.863461,308.296153 174.09,310.2 L149.84,324.2 L149.84,327.65 L142.84,331.65 L142.79,331.65 L142.79,333.65 L150.94,338.36 L159.17,333.6 L161.82,335.13 L173.94,328.13 L186.06,321.13 C187.419446,320.516958 188.367759,319.247502 188.57,317.77 L188.57,317.71 C188.579966,317.660497 188.579966,317.609503 188.57,317.56 L188.57,313.83 L188.56,313.83 Z" id="Path" fill="#D7E7F6" style="mix-blend-mode: overlay;"></path>
                            <path d="M169.94,302.64 C170.02,301.33 169.2,300.01 167.48,299.01 C163.687924,297.095577 159.212076,297.095577 155.42,299.01 L131.17,313.01 L131.17,316.47 L124.22,320.47 L124.17,320.47 L124.17,322.47 L132.31,327.17 L140.55,322.42 L143.19,323.94 L155.31,316.94 L167.44,309.94 C168.794065,309.327665 169.738338,308.062338 169.94,306.59 L169.94,302.65 L169.94,302.64 Z" id="Path" fill="#D7E7F6" style="mix-blend-mode: overlay;"></path>
                            <path d="M254.84,292.74 C254.899462,291.624394 255.490912,290.605166 256.43,290 C256.749875,289.759161 257.176044,289.713088 257.54,289.88 L258.39,290.37 L257.99,291.09 C257.880052,292.02839 257.40159,292.884586 256.66,293.47 L256.21,294.29 L255.34,293.79 C254.981073,293.569029 254.785312,293.15793 254.84,292.74 Z" id="Path" fill="#A7A9AC"></path>
                            <path d="M257.35,290.52 C256.413339,291.127479 255.822674,292.145354 255.76,293.26 C255.76,294.26 256.47,294.68 257.35,294.17 C258.285459,293.561378 258.875737,292.54417 258.94,291.43 C258.94,290.42 258.23,290 257.35,290.52 Z" id="Path" fill="#4F4C4D"></path>
                            <path d="M271.79,321.61 C274.02,322.85 276.99,322.67 280.27,320.78 C287.17,316.78 292.76,306.71 292.76,298.24 C292.76,293.8 291.22,290.69 288.76,289.31 L274.24,280.92 C276.7,282.3 278.24,285.41 278.24,289.85 C278.24,298.32 272.65,308.42 265.74,312.4 C262.47,314.29 259.49,314.47 257.27,313.23 L271.79,321.61 Z" id="Path" fill="#A7A9AC"></path>
                            <path d="M253.25,304.29 C253.25,308.74 254.8,311.85 257.25,313.23 L271.82,321.64 C274.04,322.84 276.99,322.64 280.24,320.77 C287.14,316.77 292.73,306.7 292.73,298.23 C292.73,293.83 291.22,290.73 288.8,289.33 L274.23,280.92 C272,279.67 269.02,279.85 265.73,281.74 C258.84,285.72 253.25,295.82 253.25,304.29 Z M269.32,311.77 C269.32,304.36 274.22,295.52 280.27,292.03 C286.32,288.54 291.21,291.72 291.21,299.14 C291.21,306.56 286.31,315.39 280.27,318.88 C274.23,322.37 269.32,319.18 269.32,311.77 Z" id="Shape" fill="#A7A9AC" fill-rule="nonzero"></path>
                            <path d="M267.77,312.67 C267.77,321.14 273.36,324.77 280.27,320.78 C287.18,316.79 292.76,306.71 292.76,298.24 C292.76,289.77 287.17,286.14 280.27,290.12 C273.37,294.1 267.77,304.2 267.77,312.67 Z M269.32,311.77 C269.32,304.36 274.22,295.52 280.27,292.03 C286.32,288.54 291.21,291.72 291.21,299.14 C291.21,306.56 286.31,315.39 280.27,318.88 C274.23,322.37 269.32,319.18 269.32,311.77 Z" id="Shape" fill="#7B7979" fill-rule="nonzero"></path>
                            <path d="M282.05,308 C281.078429,308.531008 280.417525,309.492659 280.27,310.59 C280.19,311.59 280.86,312.06 281.76,311.59 C282.731571,311.058992 283.392475,310.097341 283.54,309 C283.62,308.07 283,307.61 282.05,308 Z" id="Path" fill="#7B7979"></path>
                            <path d="M277.29,305 C276.313936,305.526017 275.651255,306.490253 275.51,307.59 C275.43,308.59 276.09,309.05 276.99,308.59 C277.96643,308.059462 278.628617,307.092223 278.77,305.99 C278.85,305.05 278.19,304.59 277.29,305 Z" id="Path" fill="#7B7979"></path>
                            <path d="M267.77,312.67 C267.77,304.2 273.36,294.11 280.27,290.12 L265.74,281.74 C258.84,285.74 253.25,295.82 253.25,304.29 L267.77,312.67 Z" id="Path" fill="#7B7979"></path>
                            <path d="M280.27,290.12 C273.36,294.12 267.77,304.2 267.77,312.67 L269.32,311.77 C269.32,304.36 274.22,295.52 280.27,292.03 L280.27,290.12 Z" id="Path" fill="#4F4C4D"></path>
                            <path d="M267.42,312.05 C267.67,303.83 272.98,294.26 279.56,290.13 L265.75,282.13 C259.09,286.13 253.7,295.83 253.61,304.05 L267.42,312.05 Z" id="Path" fill="#141313"></path>
                            <path d="M266.92,311.14 C267.3073,306.97438 268.575299,302.938598 270.64,299.3 C272.553995,295.702047 275.250076,292.578831 278.53,290.16 L265.75,282.79 C259.5,286.68 254.38,295.95 254.16,303.79 L266.92,311.14 Z" id="Path" fill="#4A94FF"></path>
                            <path d="M253.25,304.29 C253.25,308.74 254.8,311.85 257.25,313.23 L271.77,321.61 L272.02,321.72 L272.4,321.89 L272.61,321.98 L272.94,322.07 L273.35,322.19 L273.54,322.19 C273.668552,322.216487 273.798924,322.233201 273.93,322.24 L274.36,322.3 L274.53,322.3 C274.679833,322.309996 274.830167,322.309996 274.98,322.3 L275.58,322.3 L276.09,322.22 L276.56,322.15 L276.67,322.15 C276.87,322.15 277.07,322.04 277.27,321.98 L277.73,321.85 L277.81,321.85 C278.05,321.77 278.29,321.66 278.54,321.56 L278.94,321.4 C279.35427,321.211709 279.75818,321.001409 280.15,320.77 C282.92756,319.073573 285.313456,316.806971 287.15,314.12 C287.825788,313.178471 288.443599,312.196653 289,311.18 C289.569908,310.160169 290.080749,309.108436 290.53,308.03 C290.979954,306.964586 291.364012,305.872528 291.68,304.76 C292.314126,302.640146 292.650676,300.442473 292.68,298.23 C292.68,297.69 292.66,297.17 292.62,296.67 C292.62,296.51 292.62,296.37 292.56,296.22 C292.56,295.9 292.48,295.57 292.43,295.27 C292.425321,295.250274 292.425321,295.229726 292.43,295.21 L292.31,294.73 C292.25,294.47 292.19,294.21 292.12,293.96 L292.12,293.87 C292.12,293.72 292.01,293.58 291.96,293.43 C291.91,293.28 291.8,292.99 291.71,292.78 C291.69145,292.744219 291.674761,292.707503 291.66,292.67 C291.6,292.54 291.53,292.42 291.46,292.29 C291.39,292.16 291.27,291.91 291.16,291.74 C291.14043,291.69792 291.116996,291.657748 291.09,291.62 C291.02,291.5 290.93,291.41 290.86,291.3 C290.79,291.19 290.63,290.98 290.51,290.83 L290.41,290.71 C290.33,290.62 290.24,290.54 290.15,290.45 C290.06,290.36 289.9,290.19 289.76,290.07 L289.64,289.96 C289.547334,289.88771 289.450501,289.820929 289.35,289.76 C289.21,289.66 289.07,289.55 288.93,289.46 C288.882886,289.435866 288.839173,289.405603 288.8,289.37 L274.23,280.96 C272,279.71 269.02,279.89 265.74,281.78 C262.452449,283.842736 259.708749,286.665318 257.74,290.01 L257.59,289.92 C257.226044,289.753088 256.799875,289.799161 256.48,290.04 C255.540912,290.645166 254.949462,291.664394 254.89,292.78 C254.839269,293.202238 255.043406,293.614438 255.41,293.83 L255.67,293.98 C254.175764,297.218115 253.352562,300.725226 253.25,304.29 Z M269.48,309.55 C270.324554,303.460505 273.292374,297.864853 277.86,293.75 C276.718855,299.739453 273.798442,305.245721 269.48,309.55 Z" id="Shape" fill="#D7E7F6" fill-rule="nonzero" style="mix-blend-mode: overlay;"></path>
                            <path d="M299.3,267.13 C299.364263,266.01583 299.954541,264.998622 300.89,264.39 C301.21227,264.15529 301.635014,264.109588 302,264.27 L302.85,264.76 L302.45,265.48 C302.33584,266.417021 301.858216,267.271716 301.12,267.86 L300.67,268.67 L299.8,268.18 C299.439072,267.960832 299.242651,267.548348 299.3,267.13 Z" id="Path" fill="#A7A9AC"></path>
                            <path d="M301.81,264.91 C300.871797,265.520671 300.281149,266.542232 300.22,267.66 C300.22,268.66 300.93,269.07 301.81,268.56 C302.749088,267.954834 303.340538,266.935606 303.4,265.82 C303.4,264.81 302.69,264.41 301.81,264.91 Z" id="Path" fill="#4F4C4D"></path>
                            <path d="M316.25,296 C318.47,297.24 321.45,297.06 324.73,295.17 C331.63,291.17 337.22,281.09 337.22,272.62 C337.22,268.18 335.68,265.07 333.22,263.69 L318.7,255.31 C321.16,256.69 322.7,259.8 322.7,264.24 C322.7,272.71 317.11,282.8 310.2,286.79 C306.93,288.67 303.95,288.85 301.73,287.61 L316.25,296 Z" id="Path" fill="#A7A9AC"></path>
                            <path d="M297.71,278.68 C297.71,283.13 299.25,286.25 301.71,287.62 L316.3,296 C318.52,297.2 321.47,297 324.72,295.14 C331.62,291.14 337.21,281.06 337.21,272.59 C337.21,268.19 335.7,265.09 333.28,263.7 L318.71,255.29 C316.48,254.04 313.5,254.21 310.21,256.1 C303.3,260.12 297.71,270.21 297.71,278.68 Z M313.78,286.17 C313.78,278.75 318.68,269.92 324.78,266.43 C330.88,262.94 335.72,266.12 335.72,273.53 C335.72,280.94 330.82,289.78 324.78,293.27 C318.74,296.76 313.78,293.58 313.78,286.17 Z" id="Shape" fill="#A7A9AC" fill-rule="nonzero"></path>
                            <path d="M312.23,287.06 C312.23,295.53 317.82,299.16 324.73,295.18 C331.64,291.2 337.22,281.1 337.22,272.63 C337.22,264.16 331.63,260.53 324.73,264.52 C317.83,268.51 312.23,278.6 312.23,287.06 Z M313.78,286.17 C313.78,278.75 318.68,269.92 324.78,266.43 C330.88,262.94 335.72,266.12 335.72,273.53 C335.72,280.94 330.82,289.78 324.78,293.27 C318.74,296.76 313.78,293.58 313.78,286.17 Z" id="Shape" fill="#7B7979" fill-rule="nonzero"></path>
                            <path d="M326.51,282.43 C325.538429,282.961008 324.877525,283.922659 324.73,285.02 C324.65,286.02 325.32,286.49 326.22,286.02 C327.191571,285.488992 327.852475,284.527341 328,283.43 C328.08,282.47 327.41,282 326.51,282.43 Z" id="Path" fill="#7B7979"></path>
                            <path d="M321.75,279.41 C320.787714,279.945622 320.137894,280.907356 320,282 C319.92,283 320.58,283.47 321.48,283 C322.453804,282.471469 323.115587,281.508537 323.26,280.41 C323.31,279.45 322.65,279 321.75,279.41 Z" id="Path" fill="#7B7979"></path>
                            <path d="M312.23,287.06 C312.23,278.6 317.82,268.5 324.73,264.52 L310.2,256.13 C303.3,260.13 297.71,270.21 297.71,278.68 L312.23,287.06 Z" id="Path" fill="#7B7979"></path>
                            <path d="M324.73,264.52 C317.82,268.52 312.23,278.6 312.23,287.06 L313.78,286.17 C313.78,278.75 318.68,269.92 324.78,266.43 L324.73,264.52 Z" id="Path" fill="#4F4C4D"></path>
                            <path d="M311.88,286.44 C312.13,278.23 317.44,268.66 324.02,264.52 L310.21,256.52 C303.55,260.52 298.21,270.22 298.07,278.44 L311.88,286.44 Z" id="Path" fill="#141313"></path>
                            <path d="M311.38,285.53 C311.7673,281.36438 313.035299,277.328598 315.1,273.69 C317.016906,270.096822 319.712605,266.977465 322.99,264.56 L310.21,257.18 C303.96,261.08 298.84,270.35 298.62,278.18 L311.38,285.53 Z" id="Path" fill="#4A94FF"></path>
                            <path d="M297.71,278.68 C297.71,283.13 299.25,286.25 301.71,287.62 L316.25,296 L316.3,296 L316.55,296.11 L316.93,296.28 L317.14,296.37 L317.47,296.47 L317.88,296.58 L318.07,296.63 L318.46,296.68 L318.89,296.68 L319.06,296.68 L320.11,296.68 C320.281292,296.66235 320.451531,296.635646 320.62,296.6 L321.09,296.53 L321.2,296.53 C321.4,296.53 321.6,296.42 321.8,296.37 L322.26,296.24 L322.34,296.24 C322.58,296.16 322.82,296.05 323.07,295.95 L323.47,295.79 C323.87,295.61 324.27,295.4 324.68,295.17 C327.453874,293.468769 329.838848,291.203044 331.68,288.52 C332.353573,287.576983 332.971298,286.5953 333.53,285.58 C334.097979,284.559164 334.608767,283.507541 335.06,282.43 C335.508415,281.363991 335.892439,280.272028 336.21,279.16 C336.843653,277.036618 337.180183,274.835711 337.21,272.62 C337.21,272.08 337.21,271.56 337.14,271.06 C337.14,270.9 337.14,270.76 337.08,270.6 C337.08,270.28 337,269.96 336.95,269.66 C336.945885,269.636848 336.945885,269.613152 336.95,269.59 C336.95,269.42 336.86,269.28 336.83,269.11 C336.8,268.94 336.71,268.59 336.64,268.35 L336.64,268.26 C336.59,268.1 336.53,267.97 336.47,267.82 C336.41,267.67 336.32,267.37 336.23,267.17 C336.215239,267.132497 336.19855,267.095781 336.18,267.06 C336.12,266.92 336.05,266.81 335.98,266.68 C335.91,266.55 335.79,266.3 335.68,266.12 C335.66043,266.07792 335.636996,266.037748 335.61,266 C335.54,265.89 335.45,265.79 335.38,265.68 C335.31,265.57 335.15,265.36 335.03,265.22 L334.93,265.1 C334.848404,265.008406 334.761594,264.921596 334.67,264.84 C334.54,264.71 334.42,264.58 334.28,264.46 L334.15,264.34 C334.060112,264.268636 333.966659,264.201884 333.87,264.14 L333.45,263.85 L333.32,263.76 L318.75,255.35 C316.52,254.1 313.54,254.27 310.25,256.16 C306.961521,258.225864 304.217787,261.05191 302.25,264.4 L302.1,264.31 C301.735014,264.149588 301.31227,264.19529 300.99,264.43 C300.054541,265.038622 299.464263,266.05583 299.4,267.17 C299.346559,267.592699 299.551397,268.006314 299.92,268.22 L300.18,268.37 C298.667461,271.604109 297.827161,275.111596 297.71,278.68 Z M313.94,284 C314.784554,277.910505 317.752374,272.314853 322.32,268.2 C321.178855,274.189453 318.258442,279.695721 313.94,284 Z" id="Shape" fill="#D7E7F6" fill-rule="nonzero" style="mix-blend-mode: overlay;"></path>
                            <path d="M10.44,245.63 C10.44,231.63 20.34,214.52 32.56,207.47 C38.7,203.93 44.25,203.59 48.25,205.9 L125.7,250.49 L94.63,304.58 L16.93,259.85 L16.79,259.77 C12.85,257.42 10.44,252.54 10.44,245.63 Z" id="Path" fill="#7B7979"></path>
                            <ellipse id="Oval" fill="#7B7979" transform="translate(110.142134, 277.514901) rotate(-59.690000) translate(-110.142134, -277.514901) " cx="110.142134" cy="277.514901" rx="31.19" ry="18.01"></ellipse>
                            <ellipse id="Oval" fill="#4F4C4D" transform="translate(112.344377, 278.642231) rotate(-59.690000) translate(-112.344377, -278.642231) " cx="112.344377" cy="278.642231" rx="27.13" ry="15.66"></ellipse>
                            <path d="M113.47,257.41 C114.76573,256.650976 116.136321,256.027675 117.56,255.55 C123.07,255.68 126.83,260.12 126.83,267.74 C126.83,278.66 119.11,291.98 109.59,297.47 C103.54,300.96 98.23,300.47 95.15,296.83 C94.5086765,294.816696 94.1979797,292.712738 94.23,290.6 C94.23,278.41 102.84,263.54 113.47,257.41 Z" id="Path" fill="#141313"></path>
                            <path d="M112.35,256.56 C113.648769,255.806852 115.018753,255.183828 116.44,254.7 C121.95,254.83 125.71,259.27 125.71,266.89 C125.71,277.82 117.99,291.13 108.47,296.63 C102.47,300.12 97.11,299.63 94.03,295.99 C93.3952114,293.971755 93.084684,291.865568 93.11,289.75 C93.11,277.56 101.73,262.7 112.35,256.56 Z" id="Path" fill="#4F4C4D"></path>
                            <path d="M121.57,248.11 C117.57,245.79 112.01,246.11 105.88,249.67 C93.66,256.73 83.75,273.81 83.75,287.83 C83.75,294.75 86.17,299.62 90.08,301.94 L20.89,262.13 C16.98,259.8 14.57,254.93 14.57,248.01 C14.57,234.01 24.47,216.91 36.69,209.85 C42.83,206.31 48.38,205.97 52.38,208.29 L121.57,248.11 Z" id="Path" fill="#141313"></path>
                            <polygon id="Path" fill="#4F4C4D" points="43.84 270.6 53.94 276.43 53.94 270.23 43.84 264.4"></polygon>
                            <path d="M10.44,245.63 C10.44,231.63 20.34,214.52 32.56,207.47 C38.7,203.93 44.25,203.59 48.25,205.9 L102.12,236.9 L121.56,248.09 L121.47,248.04 L125.7,250.47 C129.7,252.73 132.25,257.66 132.25,264.71 C132.191229,268.852513 131.465255,272.958485 130.1,276.87 C128.241506,282.949626 125.142993,288.578023 121,293.4 C117.990815,297.188568 114.326042,300.406253 110.18,302.9 C104.18,306.39 98.67,306.77 94.68,304.58 L94.58,304.52 L94.48,304.52 L34.2,269.81 L20.93,262.18 L17.01,259.92 L16.87,259.84 C12.85,257.42 10.44,252.54 10.44,245.63 Z" id="Path" fill="#D7E7F6" style="mix-blend-mode: overlay;"></path>
                            <path d="M101.38,369.26 C101.440283,368.44591 101.876573,367.706435 102.56,367.26 L103.23,366.87 L128.23,352.42 L128.33,352.37 C128.570347,352.192913 128.887281,352.158547 129.16,352.28 L103.25,337.28 C102.97671,337.149504 102.653744,337.180262 102.41,337.36 L76.6,352.26 C75.9119205,352.701973 75.4741275,353.443995 75.42,354.26 C75.3894981,354.563301 75.5277074,354.858915 75.78,355.03 L101.71,370 C101.477305,369.828703 101.351939,369.54758 101.38,369.26 Z" id="Path" fill="#404040"></path>
                            <polygon id="Path" fill="#4F4C4D" points="128.36 352.33 102.56 367.22 76.63 352.26 102.44 337.36"></polygon>
                            <path d="M91.47,345.92 C85.34,349.46 85.31,355.18 91.4,358.7 C97.49,362.22 107.4,362.2 113.53,358.7 C119.66,355.2 119.69,349.44 113.6,345.92 C107.51,342.4 97.6,342.38 91.47,345.92 Z M109.08,356.09 C104.928085,358.194355 100.021915,358.194355 95.87,356.09 C92.24,353.99 92.26,350.57 95.87,348.46 C100.021915,346.355645 104.928085,346.355645 109.08,348.46 C112.76,350.57 112.74,354 109.08,356.09 Z" id="Shape" fill="#A7A9AC" fill-rule="nonzero"></path>
                            <polygon id="Path" fill="#A7A9AC" points="102.45 352.4 101.65 353.98 99.72 352.86"></polygon>
                            <polygon id="Path" fill="#A7A9AC" points="104.68 352.23 104.18 352.51 102.25 351.4 102.75 351.11"></polygon>
                            <polygon id="Path" fill="#A7A9AC" points="105.6 351.69 105.1 351.98 103.17 350.87 103.67 350.58"></polygon>
                            <path d="M128.36,352.33 L102.56,367.22 C101.876573,367.666435 101.440283,368.40591 101.38,369.22 C101.38,369.97 101.91,370.27 102.56,369.89 L128.36,355 C129.043427,354.553565 129.479717,353.81409 129.54,353 C129.54,352.25 129,352 128.36,352.33 Z" id="Path" fill="#A7A9AC"></path>
                            <path d="M102,369.88 C101.61,369.88 101.56,369.44 101.56,369.26 C101.608009,368.507492 102.008322,367.821771 102.64,367.41 L128.44,352.51 C128.567436,352.43336 128.711551,352.388753 128.86,352.38 C129.26,352.38 129.29,352.86 129.29,353 C129.241205,353.749742 128.845541,354.433835 128.22,354.85 L102.42,369.74 C102.294415,369.822103 102.14973,369.870331 102,369.88 Z" id="Path" fill="#404040"></path>
                            <path d="M129.13,352.22 L129.19,352.22 L103.28,337.22 C103.00671,337.089504 102.683744,337.120262 102.44,337.3 L76.63,352.2 C75.9419205,352.641973 75.5041275,353.383995 75.45,354.2 C75.4194981,354.503301 75.5577074,354.798915 75.81,354.97 L101.71,370 C101.978443,370.183008 102.331557,370.183008 102.6,370 L128.36,355 C129.043427,354.553565 129.479717,353.81409 129.54,353 C129.577356,352.68031 129.414509,352.370504 129.13,352.22 Z" id="Path" fill="#D7E7F6" style="mix-blend-mode: overlay;"></path>
                            <path d="M59.26,342.28 C59.3125834,341.295796 59.8330109,340.3962 60.66,339.86 L88.21,324 C88.5030249,323.792707 88.884671,323.758359 89.21,323.91 L30.72,290.14 C30.3929094,289.99125 30.011158,290.029425 29.72,290.24 L2.17,306.14 C1.34542351,306.67849 0.825770763,307.576747 0.77,308.56 C0.739113755,308.918615 0.903338431,309.26616 1.2,309.47 L59.65,343.22 C59.3583601,343.001192 59.208919,342.641001 59.26,342.28 Z" id="Path" fill="#404040"></path>
                            <polygon id="Path" fill="#4F4C4D" points="29.72 290.19 2.17 306.09 60.66 339.86 88.21 323.95"></polygon>
                            <path d="M84.54,324.08 L61,337.66 C59.6471942,338.269297 58.0858626,338.202541 56.79,337.48 L6.18,308.25 C4.93,307.53 4.79,306.44 5.87,305.82 L29.39,292.24 C30.7428058,291.630703 32.3041374,291.697459 33.6,292.42 L84.23,321.65 C85.48,322.37 85.62,323.46 84.54,324.08 Z" id="Path" fill="#A7A9AC"></path>
                            <polygon id="Path" fill="#4F4C4D" points="73.94 318.12 50.37 331.73 7.9 307.21 31.47 293.6"></polygon>
                            <path d="M70.92,326.07 C72.8,327.16 72.79,328.93 70.92,330.02 C68.7703712,331.110406 66.2296288,331.110406 64.08,330.02 C62.19,328.93 62.2,327.16 64.08,326.02 C66.2383384,324.948505 68.7775565,324.967067 70.92,326.07 Z" id="Path" fill="#4F4C4D"></path>
                            <path d="M88.21,324 L60.66,339.91 C59.8330109,340.4462 59.3125834,341.345796 59.26,342.33 C59.26,343.22 59.88,343.58 60.66,343.13 L88.21,327.22 C89.0420224,326.687211 89.5667843,325.786556 89.62,324.8 C89.62,323.86 89,323.51 88.21,324 Z" id="Path" fill="#4F4C4D"></path>
                            <path d="M60,343 C59.56,343 59.51,342.5 59.51,342.29 C59.5673176,341.409358 60.0335917,340.606331 60.77,340.12 L88.33,324.21 C88.4746102,324.119928 88.6398347,324.068295 88.81,324.06 C89.25,324.06 89.3,324.55 89.3,324.76 C89.2426834,325.643318 88.7767822,326.449401 88.04,326.94 L60.49,342.84 C60.3419747,342.932101 60.1738532,342.986997 60,343 Z" id="Path" fill="#A7A9AC"></path>
                            <path d="M89.21,323.86 L30.72,290.09 C30.3929094,289.94125 30.011158,289.979425 29.72,290.19 L2.17,306.09 C1.34542351,306.62849 0.825770763,307.526747 0.77,308.51 C0.739113755,308.868615 0.903338431,309.21616 1.2,309.42 L59.65,343.17 C59.975329,343.321641 60.3569751,343.287293 60.65,343.08 L88.2,327.17 C89.0320224,326.637211 89.5567843,325.736556 89.61,324.75 C89.6402726,324.403999 89.4888443,324.067072 89.21,323.86 Z" id="Path" fill="#D7E7F6" style="mix-blend-mode: overlay;"></path>
                        </g>
                        <polygon id="Path-2" fill="#4A94FF" fill-rule="nonzero" points="131.479076 9.43030776 265.411267 86.3930452 265.411267 184.316509 131.479076 107.454514"></polygon>
                        <polygon id="Path-3" fill="#4A94FF" fill-rule="nonzero" points="425.328 261.22 511.084406 311.14 398.109528 376.31 312.39368 326.74"></polygon>
                        <polygon id="Path-4" fill="#4A94FF" fill-rule="nonzero" points="196.885588 265.492831 251.407192 234.02 284.371014 253.350551 229.896866 284.76"></polygon>
                        <polygon id="Path-5" fill="#4A94FF" fill-rule="nonzero" points="7.862061 307.28 31.4867865 293.6 73.7104343 318.119476 50.5033539 331.61"></polygon>
                    </g>
                </g>
            </g>
        </g>
    </g>
</svg>