<svg width="440" height="369" viewBox="0 0 440 369" fill="none" xmlns="http://www.w3.org/2000/svg">
<path d="M396.403 369H52.8983C51.6374 369 50.6145 367.979 50.6145 366.72V364.332C50.6145 363.073 51.6374 362.051 52.8983 362.051H396.403C397.664 362.051 398.687 363.073 398.687 364.332V366.72C398.687 367.979 397.664 369 396.403 369Z" fill="#C4DFE8"/>
<path d="M431.234 115.819C439.346 122.033 427.741 130.953 424.515 133.214C425.58 136.892 426.276 140.346 426.701 143.51C429.227 139.276 428.408 134.274 430.785 132.202C433.452 129.878 437.781 129.439 437.168 136.324C436.682 141.779 429.723 144.042 426.85 144.747C427.483 150.238 427.324 154.809 426.961 158.14C430.567 153.763 430.228 147.912 433.191 145.886C436.432 143.67 441.264 143.75 439.692 151.257C438.392 157.464 429.779 158.926 426.831 159.249C426.433 162.282 425.908 164.057 425.852 164.246C424.81 167.834 423.625 171.214 422.327 174.398C425.592 170.626 426.254 165.644 429.186 164.192C432.706 162.451 437.477 163.205 434.869 170.418C432.804 176.125 424.716 176.595 421.424 176.544C418.569 183.117 415.25 188.802 411.794 193.689C415.868 191.526 420.083 185.425 424.505 184.788C427.405 184.369 428.852 185.91 429.554 187.286C430.155 188.462 430.179 189.826 429.647 191.034C426.637 197.867 414.706 195.486 411.141 194.602C406.821 200.559 402.325 205.274 398.282 208.899C400.399 207.799 403.588 206.124 405.205 205.178C407.754 203.686 411.973 203.02 414.441 204.416C414.544 204.475 414.642 204.534 414.735 204.598C416.535 205.778 417.097 208.142 416.231 210.111C412.853 217.821 399.561 211.669 396.732 210.253C396.703 210.277 396.673 210.302 396.646 210.326C386.241 219.188 377.562 222.485 377.196 222.622L376.693 221.277C376.777 221.245 385.039 218.1 394.87 209.942C390.649 197.088 396.126 190.519 399.497 190.997C402.978 191.492 406.13 195.805 402.05 200.275C399.686 202.868 397.802 206.141 396.636 208.436C400.743 204.835 405.382 200.057 409.841 193.941C398.852 179.63 408.323 173.658 412.164 175.853C416.055 178.072 415.8 181.388 413.155 185.726C411.399 188.609 410.695 191.511 410.42 193.137C413.825 188.359 417.102 182.787 419.933 176.348C416.859 175.4 409.159 172.417 408.992 166.281C408.786 158.615 413.553 159.394 416.347 162.154C418.915 164.689 417.507 170.44 420.338 175.41C421.873 171.819 423.269 167.966 424.469 163.832C424.488 163.766 425.541 160.205 425.766 154.255C422.565 153.692 414.622 151.693 413.687 145.658C412.512 138.078 417.34 138.252 420.46 140.635C423.244 142.761 422.695 148.365 425.803 152.874C425.874 147.821 425.32 141.281 423.188 133.821C419.872 133.211 412.218 131.173 411.301 125.258C410.126 117.678 414.953 117.852 418.074 120.235C420.897 122.393 420.289 128.124 423.549 132.662L423.693 132.618C423.652 130.546 423.546 126.152 423.387 124.051C423.176 121.246 424.429 117.428 426.755 116.01C429.09 114.597 431.234 115.819 431.234 115.819Z" fill="#FF9900"/>
<path d="M292.714 60.3725C308.526 59.0646 304.508 81.3995 303.161 87.3537C308.227 90.4716 312.632 93.7145 316.43 96.9108C314.911 89.4135 308.744 84.5199 309.311 79.663C309.946 74.2158 314.465 69.2022 320.951 77.7501C326.09 84.5223 320.458 94.3709 317.897 98.1721C324.36 103.823 328.948 109.24 332.014 113.446C331.585 104.66 325.084 98.2897 326.372 92.8768C327.782 86.9545 333.415 82.0167 339.451 92.2816C344.441 100.766 336.074 111.415 333.02 114.857C335.73 118.756 336.981 121.34 337.114 121.617C339.665 126.824 341.833 131.945 343.668 136.954C343.479 129.222 339.037 122.804 340.889 118.085C343.114 112.417 349.386 108.317 353.922 119.322C357.511 128.029 348.707 136.993 344.87 140.358C348.454 150.885 350.581 160.876 351.714 170.085C354.138 163.357 352.607 151.958 357.022 146.621C359.919 143.121 363.187 143.383 365.434 144.233C367.355 144.958 368.804 146.501 369.454 148.443C373.134 159.428 356.937 169.118 351.918 171.814C353.176 183.157 352.933 193.258 352.072 201.632C353.358 198.164 355.271 192.917 356.142 190.147C357.513 185.78 361.666 180.617 365.959 179.655C366.138 179.615 366.315 179.581 366.486 179.554C369.788 179.037 372.901 181.166 373.966 184.33C378.136 196.706 356.436 203.481 351.709 204.799C351.702 204.855 351.694 204.916 351.687 204.973C348.986 225.992 342.456 238.819 342.182 239.353L340.197 238.332C340.261 238.207 346.467 225.992 349.244 206.379C330.966 196.003 330.4 182.753 334.771 179.794C339.285 176.737 347.414 178.413 347.397 187.796C347.387 193.238 348.643 198.962 349.7 202.81C350.657 194.397 350.998 184.075 349.732 172.405C322.158 167.403 326.801 150.682 333.508 149.2C340.295 147.701 343.465 151.774 344.961 159.514C345.954 164.655 348.177 168.721 349.56 170.881C348.481 161.846 346.428 152.032 342.954 141.681C338.433 143.792 326.468 148.385 319.869 141.507C311.624 132.913 317.916 128.844 324.007 129.104C329.607 129.344 333.993 137.419 342.439 140.18C340.45 134.456 338.031 128.575 335.092 122.574C335.046 122.476 332.536 117.291 326.583 110.22C322.317 112.905 311.104 118.881 303.723 112.919C294.456 105.434 300.186 100.604 306.26 100.095C311.681 99.6393 316.901 106.649 325.182 108.594C319.987 102.713 312.517 95.7768 302.276 89.4233C297.826 92.1763 286.905 97.8047 279.674 91.9632C270.406 84.4783 276.136 79.6483 282.21 79.1388C287.707 78.6784 292.996 85.8964 301.481 87.7186L301.601 87.5178C299.389 85.1812 294.679 80.241 292.302 77.9926C289.13 74.9922 286.581 69.2952 287.773 65.2466C288.973 61.2028 292.714 60.3725 292.714 60.3725Z" fill="black"/>
<path d="M72.846 280.002L161.572 247.483L122.061 140.008L33.3351 172.527L72.846 280.002Z" fill="#FFBB54"/>
<path d="M117.207 263.746L161.57 247.486L122.06 140.013L77.6972 156.273L117.207 263.746Z" fill="#FF9900"/>
<path d="M108.95 155.33C109.907 154.914 110.324 153.785 109.86 152.852C108.329 149.766 104.692 143.079 99.1551 136.9C89.1713 125.753 77.8604 121.775 66.4415 125.393C60.1078 127.401 55.4029 131.325 52.447 137.056C45.7674 150.018 49.9817 168.409 51.5958 174.248C51.873 175.25 52.9302 175.814 53.9188 175.495L53.9237 175.493C54.8509 175.194 55.3808 174.221 55.1257 173.281C53.6539 167.856 49.6726 150.393 55.6972 138.714C58.192 133.88 62.1757 130.566 67.5454 128.863C77.6322 125.667 87.3512 129.187 96.4323 139.327C101.65 145.151 105.145 151.578 106.585 154.471C107.02 155.34 108.06 155.717 108.95 155.33Z" fill="#212121"/>
<path d="M377.402 257.847C370.345 260.377 365.088 264.09 361.195 268.428C362.596 271.284 364.198 274.715 364.198 274.715L358.698 271.546C345.883 289.511 352.374 315.057 352.374 315.057C367.983 309.755 376.203 302.054 380.155 294.016C378.553 292.394 376.141 290.011 376.141 290.011L381.303 291.373C382.843 287.297 383.385 283.195 383.329 279.322C380.643 278.632 377.611 277.777 377.611 277.777L383.096 275.602C381.992 265.54 377.402 257.847 377.402 257.847Z" fill="#55769F"/>
<path d="M429.914 268.825C414.274 266.643 400.831 268.426 389.319 272.71C389.133 279.403 388.753 287.368 388.753 287.368L381.609 276.082C340.097 297.048 327.145 351.025 327.145 351.025C361.45 356.399 384.327 350.082 399.58 338.957C398.182 334.37 396.023 327.566 396.023 327.566L404.312 335.151C411.181 329.06 416.217 321.937 419.908 314.663C415.576 310.747 410.764 306.191 410.764 306.191L423.122 307.497C430.925 287.653 429.914 268.825 429.914 268.825Z" fill="#646464"/>
<path d="M399.58 338.955C398.182 334.368 396.023 327.564 396.023 327.564L404.312 335.149C411.181 329.058 416.217 321.935 419.908 314.661C415.576 310.745 410.764 306.189 410.764 306.189L423.122 307.494C430.925 287.65 429.914 268.823 429.914 268.823C379.075 289.034 327.145 351.023 327.145 351.023C361.448 356.397 384.327 350.082 399.58 338.955Z" fill="#454545"/>
<path d="M432.421 338.965C425.222 331.36 417.514 326.721 409.77 324.176C406.893 327.568 403.39 331.538 403.39 331.538L404.373 322.733C374.152 316.417 345.03 339.033 345.03 339.033C360.58 356.016 375.06 362.213 387.585 362.759C388.765 359.803 390.47 355.384 390.47 355.384L391.618 362.747C397.706 362.431 403.274 360.824 408.208 358.583C407.589 354.76 406.983 350.408 406.983 350.408L412.849 356.2C425.131 349.141 432.421 338.965 432.421 338.965Z" fill="#646464"/>
<path d="M387.582 362.757C388.762 359.801 390.467 355.382 390.467 355.382L391.615 362.745C397.704 362.429 403.272 360.822 408.205 358.581C407.587 354.758 406.981 350.405 406.981 350.405L412.846 356.198C425.129 349.144 432.421 338.965 432.421 338.965C397.682 328.399 345.03 339.034 345.03 339.034C360.58 356.014 375.06 362.211 387.582 362.757Z" fill="#454545"/>
<path d="M380.157 294.016C378.555 292.394 376.144 290.011 376.144 290.011L381.305 291.373C382.846 287.297 383.388 283.195 383.331 279.322C380.645 278.632 377.613 277.777 377.613 277.777L383.098 275.602C381.992 265.54 377.402 257.85 377.402 257.85C360.501 277.552 352.376 315.06 352.376 315.06C367.985 309.755 376.205 302.054 380.157 294.016Z" fill="#07085B"/>
<path d="M100.524 256.086L49.8222 186.465C47.931 183.869 44.2931 183.296 41.6929 185.182L2.39781 213.714C-0.2024 215.602 -0.776409 219.234 1.11242 221.83L51.8141 291.451C53.7054 294.047 57.3432 294.62 59.9434 292.732L99.2385 264.203C101.841 262.317 102.415 258.682 100.524 256.086Z" fill="#EF8F00"/>
<path d="M78.3894 279.338L20.843 200.317L8.43899 209.323L65.9854 288.344L78.3894 279.338Z" fill="#333333"/>
<path d="M56.4406 221.534L36.7428 194.487C36.4926 194.142 36.0093 194.066 35.6634 194.318L35.4795 194.453C35.1336 194.702 35.0575 195.185 35.3102 195.53L55.008 222.578C55.2582 222.923 55.7415 222.999 56.0874 222.747L56.2713 222.612C56.6148 222.36 56.6908 221.877 56.4406 221.534Z" fill="#333333"/>
<path d="M56.5215 214.238L40.2727 191.925C40.0225 191.58 39.5392 191.504 39.1933 191.753L39.0094 191.888C38.6635 192.138 38.5874 192.621 38.8401 192.966L55.089 215.279C55.3392 215.624 55.8224 215.7 56.1683 215.45L56.3523 215.315C56.6957 215.066 56.7717 214.583 56.5215 214.238Z" fill="#333333"/>
<path d="M63.498 216.41L43.8001 189.363C43.5499 189.018 43.0667 188.942 42.7208 189.191L42.5368 189.326C42.1909 189.576 42.1149 190.059 42.3676 190.404L62.063 217.451C62.3132 217.797 62.7964 217.872 63.1423 217.62L63.3263 217.485C63.6721 217.236 63.7482 216.756 63.498 216.41Z" fill="#333333"/>
<path d="M90.805 253.909L84.6111 245.405C83.5097 243.891 81.3878 243.558 79.8743 244.658L76.8693 246.84C75.3533 247.94 75.0197 250.059 76.1211 251.57L82.315 260.074C83.4164 261.587 85.5383 261.92 87.0518 260.821L90.0568 258.641C91.5728 257.541 91.9088 255.422 90.805 253.909Z" fill="#333333"/>
<path d="M372.634 196.601L316.015 261.516C313.906 263.936 314.158 267.607 316.582 269.714L353.223 301.571C355.646 303.678 359.323 303.426 361.433 301.006L418.051 236.09C420.161 233.67 419.908 229.999 417.485 227.892L380.844 196.035C378.42 193.926 374.746 194.181 372.634 196.601Z" fill="black"/>
<path d="M400.267 212.944L336.008 286.621L347.573 296.677L411.832 223L400.267 212.944Z" fill="#FF9900"/>
<path d="M348.768 247.232L326.772 272.452C326.492 272.773 326.526 273.26 326.848 273.539L327.02 273.689C327.341 273.968 327.829 273.934 328.109 273.613L350.105 248.393C350.385 248.072 350.35 247.584 350.029 247.305L349.857 247.156C349.536 246.877 349.048 246.911 348.768 247.232Z" fill="#FF9900"/>
<path d="M341.627 248.787L323.482 269.591C323.203 269.912 323.237 270.399 323.558 270.678L323.73 270.828C324.051 271.107 324.539 271.075 324.819 270.752L342.964 249.948C343.244 249.627 343.21 249.14 342.888 248.86L342.716 248.711C342.395 248.432 341.907 248.466 341.627 248.787Z" fill="#FF9900"/>
<path d="M342.187 241.511L320.19 266.731C319.911 267.052 319.945 267.539 320.266 267.818L320.438 267.968C320.759 268.247 321.247 268.213 321.527 267.892L343.523 242.674C343.803 242.353 343.769 241.866 343.447 241.586L343.276 241.437C342.954 241.158 342.466 241.19 342.187 241.511Z" fill="#FF9900"/>
<path d="M372.683 206.545L365.768 214.473C364.539 215.884 364.686 218.022 366.099 219.251L368.9 221.686C370.313 222.913 372.455 222.766 373.686 221.355L380.601 213.425C381.833 212.014 381.683 209.876 380.27 208.646L377.469 206.211C376.056 204.987 373.914 205.136 372.683 206.545Z" fill="#FF9900"/>
<path d="M72.7801 226.987C80.9291 230.232 86.9267 234.788 91.3005 240.019C89.5441 243.301 87.5326 247.25 87.5326 247.25L94.092 243.767C108.347 265.296 99.7144 294.908 99.7144 294.908C81.6772 288.072 72.3754 278.733 68.0826 269.171C70.0229 267.341 72.9396 264.652 72.9396 264.652L66.8487 266.033C65.215 261.206 64.7464 256.383 64.9697 251.857C68.139 251.159 71.7204 250.282 71.7204 250.282L65.3965 247.514C67.1013 235.794 72.7801 226.987 72.7801 226.987Z" fill="#646464"/>
<path d="M68.0826 269.17C70.0229 267.341 72.9396 264.651 72.9396 264.651L66.8487 266.033C65.215 261.205 64.7464 256.382 64.9697 251.856C68.139 251.158 71.7204 250.281 71.7204 250.281L65.3965 247.514C67.1013 235.791 72.7801 226.984 72.7801 226.984C91.7445 250.712 99.7144 294.905 99.7144 294.905C81.6773 288.071 72.3778 278.735 68.0826 269.17Z" fill="#454545"/>
<path d="M2.81736 245.757C21.0875 242.992 36.8433 244.898 50.3693 249.755C50.6784 257.585 51.2304 266.9 51.2304 266.9L59.4357 253.598C108.293 277.571 124.179 340.554 124.179 340.554C84.1108 347.304 57.255 340.221 39.2571 327.409C40.832 322.021 43.2654 314.033 43.2654 314.033L33.6691 323.02C25.552 315.983 19.5617 307.717 15.1438 299.257C20.1603 294.616 25.7311 289.22 25.7311 289.22L11.2852 290.915C1.88766 267.801 2.81736 245.757 2.81736 245.757Z" fill="#646464"/>
<path d="M39.257 327.409C40.8318 322.02 43.2652 314.033 43.2652 314.033L33.669 323.02C25.5519 315.983 19.5616 307.717 15.1437 299.257C20.1602 294.615 25.731 289.22 25.731 289.22L11.2851 290.915C1.88508 267.801 2.81478 245.757 2.81478 245.757C62.573 268.722 124.178 340.554 124.178 340.554C84.1106 347.304 57.2573 340.221 39.257 327.409Z" fill="#454545"/>
<path d="M15.9091 329.917C25.5666 322.371 35.2954 318.342 44.7003 316.742C47.4379 321.168 50.7985 326.37 50.7985 326.37L51.1984 316.01C87.2702 313.957 117.023 345.193 117.023 345.193C96.0667 362.142 78.2308 366.791 63.6426 365.245C62.7938 361.618 61.5919 356.207 61.5919 356.207L58.9794 364.528C51.9882 363.105 45.8262 360.276 40.5081 356.825C41.8916 352.509 43.3511 347.576 43.3511 347.576L35.5554 353.259C22.569 342.962 15.9091 329.917 15.9091 329.917Z" fill="#646464"/>
<path d="M63.6426 365.248C62.7938 361.62 61.5919 356.21 61.5919 356.21L58.9794 364.53C51.9882 363.107 45.8262 360.278 40.5081 356.827C41.8916 352.512 43.3511 347.579 43.3511 347.579L35.5554 353.261C22.569 342.962 15.9091 329.917 15.9091 329.917C57.9516 323.733 117.023 345.196 117.023 345.196C96.0667 362.145 78.2283 366.793 63.6426 365.248Z" fill="#454545"/>
<path d="M123.681 27.0474C123.681 27.0474 124.034 30.5327 126.789 30.7727C124.036 31.0127 123.681 34.498 123.681 34.498C123.681 34.498 123.327 31.0152 120.573 30.7727C123.327 30.5327 123.681 27.0474 123.681 27.0474Z" fill="#FEB546"/>
<path d="M183.147 140.03C183.147 140.03 183.743 145.903 188.387 146.31C183.743 146.716 183.147 152.59 183.147 152.59C183.147 152.59 182.551 146.716 177.907 146.31C182.548 145.903 183.147 140.03 183.147 140.03Z" fill="#FEB546"/>
<path d="M333.935 28.8647C333.935 28.8647 334.239 31.848 336.594 32.0537C334.236 32.2594 333.935 35.2426 333.935 35.2426C333.935 35.2426 333.633 32.2594 331.275 32.0537C333.633 31.848 333.935 28.8647 333.935 28.8647Z" fill="#FEB546"/>
<path d="M23.9182 73.1377C23.9182 73.1377 24.5192 79.06 29.2021 79.4715C24.5217 79.8805 23.9182 85.8053 23.9182 85.8053C23.9182 85.8053 23.3172 79.883 18.6344 79.4715C23.3172 79.06 23.9182 73.1377 23.9182 73.1377Z" fill="black"/>
<path d="M92.2596 94.8237C92.2596 94.8237 92.9096 101.221 97.9678 101.665C92.9121 102.108 92.2596 108.505 92.2596 108.505C92.2596 108.505 91.6095 102.108 86.5538 101.665C91.6095 101.221 92.2596 94.8237 92.2596 94.8237Z" fill="#FF9900"/>
<path d="M237.469 27.6572C237.469 27.6572 238.119 34.0547 243.175 34.498C238.119 34.9414 237.469 41.3389 237.469 41.3389C237.469 41.3389 236.819 34.9414 231.763 34.498C236.819 34.0547 237.469 27.6572 237.469 27.6572Z" fill="#FF9900"/>
<path d="M170.56 0C170.56 0 171.21 6.3975 176.266 6.84082C171.21 7.28414 170.56 13.6816 170.56 13.6816C170.56 13.6816 169.91 7.28414 164.852 6.84082C169.91 6.3975 170.56 0 170.56 0Z" fill="black"/>
<path d="M62.7497 8.03613C62.7497 8.03613 63.3997 14.4336 68.4579 14.8769C63.3997 15.3203 62.7497 21.7178 62.7497 21.7178C62.7497 21.7178 62.0996 15.3203 57.0439 14.8769C62.0996 14.4336 62.7497 8.03613 62.7497 8.03613Z" fill="black"/>
<path d="M366.028 62.3291C366.028 62.3291 366.678 68.7266 371.736 69.1699C366.678 69.6132 366.028 76.0107 366.028 76.0107C366.028 76.0107 365.378 69.6132 360.322 69.1699C365.378 68.7266 366.028 62.3291 366.028 62.3291Z" fill="black"/>
<path d="M243.538 96.6631C243.538 96.6631 243.908 100.315 246.795 100.567C243.908 100.819 243.538 104.471 243.538 104.471C243.538 104.471 243.167 100.819 240.28 100.567C243.167 100.315 243.538 96.6631 243.538 96.6631Z" fill="black"/>
<path d="M350.662 362.615H108.609C103.62 362.615 99.5746 358.576 99.5746 353.594V181.748C99.5746 176.766 103.62 172.728 108.609 172.728H350.662C355.651 172.728 359.696 176.766 359.696 181.748V353.597C359.696 358.576 355.651 362.615 350.662 362.615Z" fill="#333333"/>
<path d="M341.173 355.203H109.203C107.613 355.203 106.325 353.917 106.325 352.33V183.1C106.325 181.513 107.613 180.227 109.203 180.227H341.176V355.203H341.173Z" fill="#DAEEF7"/>
<path d="M330.137 203.427H115.828V352.203H330.137V203.427Z" fill="white"/>
<path d="M330.137 207.507V196.488C330.137 192.711 327.071 189.652 323.291 189.652H122.675C118.892 189.652 115.828 192.713 115.828 196.488V207.507H330.137Z" fill="#FF9900"/>
<path d="M317.153 202.917H232.475C230.385 202.917 228.69 201.225 228.69 199.138V198.023C228.69 195.937 230.385 194.244 232.475 194.244H317.156C319.246 194.244 320.941 195.937 320.941 198.023V199.138C320.938 201.225 319.246 202.917 317.153 202.917Z" fill="white"/>
<path d="M133.502 198.09C133.814 200.554 131.739 202.626 129.268 202.315C127.588 202.104 126.229 200.747 126.018 199.07C125.707 196.606 127.782 194.533 130.25 194.845C131.935 195.055 133.291 196.412 133.502 198.09Z" fill="white"/>
<path d="M149.992 198.09C150.303 200.554 148.228 202.626 145.76 202.315C144.08 202.104 142.721 200.747 142.507 199.07C142.196 196.606 144.271 194.533 146.739 194.845C148.422 195.055 149.778 196.412 149.992 198.09Z" fill="white"/>
<path d="M166.478 198.09C166.79 200.554 164.715 202.626 162.247 202.315C160.567 202.104 159.208 200.747 158.997 199.07C158.685 196.606 160.76 194.533 163.231 194.845C164.908 195.055 166.267 196.412 166.478 198.09Z" fill="white"/>
<path d="M259.811 288.997H186.154C185.028 288.997 184.113 288.086 184.113 286.959V232.139C184.113 231.015 185.026 230.102 186.154 230.102H259.811C260.937 230.102 261.852 231.013 261.852 232.139V286.959C261.852 288.086 260.94 288.997 259.811 288.997Z" fill="#FFF2DE"/>
<path d="M213.721 279.55C211.798 279.55 210.233 277.987 210.233 276.067C210.233 274.147 211.798 272.584 213.721 272.584C215.645 272.584 217.207 274.147 217.207 276.067C217.207 277.987 215.645 279.55 213.721 279.55ZM213.721 273.649C212.384 273.649 211.298 274.734 211.298 276.069C211.298 277.404 212.384 278.489 213.721 278.489C215.058 278.489 216.145 277.404 216.145 276.069C216.145 274.734 215.058 273.649 213.721 273.649Z" fill="black"/>
<path d="M227.767 279.55C225.844 279.55 224.282 277.987 224.282 276.067C224.282 274.147 225.847 272.584 227.767 272.584C229.691 272.584 231.256 274.147 231.256 276.067C231.256 277.987 229.691 279.55 227.767 279.55ZM227.767 273.649C226.431 273.649 225.344 274.734 225.344 276.069C225.344 277.404 226.431 278.489 227.767 278.489C229.104 278.489 230.191 277.404 230.191 276.069C230.191 274.734 229.104 273.649 227.767 273.649Z" fill="black"/>
<path d="M248.444 239.901C248.373 239.654 248.086 239.502 247.801 239.563L238.119 241.669C237.913 241.713 237.759 241.858 237.722 242.039L236.733 246.967C236.689 247.187 236.468 247.349 236.208 247.349H198.039C197.671 247.349 197.414 247.665 197.539 247.966L205.685 267.791C205.761 267.974 205.963 268.097 206.186 268.097H231.862C232.193 268.097 232.443 268.357 232.387 268.638L231.852 271.225C231.808 271.445 231.587 271.607 231.327 271.607H209.691C209.397 271.607 209.159 271.812 209.159 272.07C209.159 272.324 209.397 272.533 209.691 272.533H232.222C232.48 272.533 232.703 272.371 232.747 272.15L237.624 247.922L237.742 247.349H237.739L238.654 242.793C238.691 242.612 238.848 242.468 239.051 242.424L248.057 240.459C248.339 240.401 248.513 240.151 248.444 239.901ZM202.295 254.959H208.727C208.98 254.959 209.198 255.113 209.247 255.329L210.437 260.406C210.503 260.693 210.253 260.96 209.917 260.96H204.383C204.157 260.96 203.958 260.837 203.882 260.654L201.795 255.576C201.67 255.275 201.927 254.959 202.295 254.959ZM210.898 254.959H217.467C217.762 254.959 218 255.165 218 255.422V260.499C218 260.754 217.762 260.962 217.467 260.962H212.085C211.833 260.962 211.614 260.808 211.565 260.592L210.376 255.515C210.309 255.226 210.562 254.959 210.898 254.959ZM219.064 253.57V248.735C219.064 248.481 219.302 248.272 219.596 248.272H226.168C226.485 248.272 226.73 248.51 226.698 248.784L226.097 253.619C226.068 253.854 225.839 254.031 225.567 254.031H219.596C219.302 254.033 219.064 253.827 219.064 253.57ZM225.866 255.471L225.236 260.548C225.207 260.783 224.978 260.96 224.706 260.96H219.596C219.302 260.96 219.064 260.754 219.064 260.497V255.419C219.064 255.165 219.302 254.957 219.596 254.957H225.337C225.653 254.959 225.901 255.197 225.866 255.471ZM217.47 254.033H210.466C210.214 254.033 209.995 253.879 209.946 253.663L208.815 248.828C208.749 248.542 208.999 248.275 209.335 248.275H217.47C217.764 248.275 218.002 248.481 218.002 248.738V253.573C218.002 253.827 217.762 254.033 217.47 254.033ZM218.002 262.348V266.711C218.002 266.965 217.764 267.174 217.47 267.174H213.542C213.29 267.174 213.071 267.019 213.022 266.804L212.002 262.442C211.936 262.155 212.186 261.888 212.522 261.888H217.47C217.762 261.886 218.002 262.094 218.002 262.348ZM219.596 261.886H224.478C224.794 261.886 225.04 262.123 225.008 262.397L224.466 266.76C224.436 266.995 224.208 267.171 223.936 267.171H219.596C219.302 267.171 219.064 266.965 219.064 266.708V262.346C219.064 262.094 219.302 261.886 219.596 261.886ZM226.617 261.886H233.059C233.39 261.886 233.64 262.145 233.584 262.429L232.693 266.791C232.649 267.012 232.428 267.174 232.171 267.174H226.075C225.758 267.174 225.513 266.936 225.545 266.662L226.087 262.299C226.117 262.064 226.345 261.886 226.617 261.886ZM226.318 260.45L226.948 255.373C226.978 255.138 227.206 254.961 227.478 254.961H234.472C234.803 254.961 235.053 255.221 234.994 255.505L233.959 260.583C233.915 260.803 233.694 260.965 233.434 260.965H226.845C226.531 260.96 226.283 260.722 226.318 260.45ZM234.847 254.033H227.706C227.39 254.033 227.144 253.796 227.176 253.521L227.777 248.686C227.807 248.451 228.035 248.275 228.307 248.275H235.833C236.164 248.275 236.414 248.535 236.358 248.819L235.372 253.654C235.328 253.874 235.107 254.033 234.847 254.033ZM207.685 248.645L208.815 253.48C208.882 253.766 208.631 254.033 208.295 254.033H201.537C201.312 254.033 201.113 253.911 201.037 253.727L199.05 248.892C198.927 248.591 199.182 248.275 199.55 248.275H207.165C207.415 248.275 207.633 248.429 207.685 248.645ZM205.141 261.886H210.349C210.601 261.886 210.82 262.04 210.869 262.255L211.889 266.618C211.955 266.904 211.705 267.171 211.369 267.171H206.931C206.706 267.171 206.507 267.049 206.431 266.865L204.638 262.503C204.518 262.201 204.773 261.886 205.141 261.886Z" fill="black"/>
<path d="M247.823 342.805H198.142C195.436 342.805 193.243 340.615 193.243 337.913V336.471C193.243 333.769 195.436 331.58 198.142 331.58H247.826C250.531 331.58 252.724 333.769 252.724 336.471V337.913C252.722 340.615 250.529 342.805 247.823 342.805Z" fill="#FFA412"/>
<path d="M211.678 338.067C211.678 338.219 211.658 338.359 211.619 338.486C211.58 338.613 211.526 338.729 211.457 338.831C211.388 338.934 211.303 339.022 211.205 339.101C211.106 339.179 210.996 339.243 210.871 339.294C210.748 339.346 210.616 339.385 210.476 339.412C210.336 339.439 210.174 339.451 209.993 339.451H208.729C208.673 339.451 208.619 339.431 208.567 339.392C208.516 339.353 208.491 339.287 208.491 339.189V334.883C208.491 334.785 208.516 334.719 208.567 334.68C208.619 334.641 208.673 334.621 208.729 334.621H209.828C210.118 334.621 210.353 334.648 210.537 334.704C210.721 334.758 210.876 334.839 210.998 334.942C211.121 335.047 211.214 335.175 211.276 335.326C211.337 335.478 211.369 335.65 211.369 335.841C211.369 335.956 211.354 336.064 211.327 336.169C211.3 336.274 211.258 336.37 211.205 336.458C211.151 336.546 211.084 336.625 211.003 336.696C210.922 336.764 210.829 336.823 210.726 336.867C210.859 336.892 210.981 336.938 211.097 337.004C211.212 337.07 211.312 337.154 211.398 337.257C211.484 337.359 211.553 337.477 211.602 337.614C211.651 337.754 211.678 337.903 211.678 338.067ZM210.709 335.907C210.709 335.789 210.692 335.684 210.66 335.591C210.628 335.496 210.577 335.417 210.508 335.351C210.439 335.285 210.348 335.236 210.236 335.199C210.123 335.165 209.976 335.148 209.792 335.148H209.127V336.71H209.858C210.025 336.71 210.16 336.688 210.26 336.644C210.363 336.6 210.447 336.541 210.513 336.468C210.579 336.394 210.628 336.309 210.66 336.211C210.694 336.113 210.709 336.012 210.709 335.907ZM211.001 338.104C211.001 337.959 210.979 337.832 210.932 337.724C210.886 337.614 210.819 337.523 210.731 337.448C210.643 337.372 210.532 337.315 210.4 337.279C210.267 337.239 210.101 337.22 209.899 337.22H209.132V338.922H210.064C210.211 338.922 210.339 338.905 210.449 338.871C210.559 338.836 210.655 338.785 210.738 338.716C210.822 338.648 210.888 338.562 210.935 338.462C210.976 338.359 211.001 338.239 211.001 338.104Z" fill="white"/>
<path d="M216.29 337.669C216.29 337.962 216.248 338.225 216.16 338.455C216.074 338.685 215.951 338.878 215.792 339.038C215.632 339.197 215.439 339.317 215.208 339.4C214.98 339.483 214.717 339.523 214.428 339.523C214.161 339.523 213.918 339.483 213.699 339.408C213.481 339.329 213.292 339.216 213.135 339.067C212.978 338.915 212.858 338.729 212.772 338.501C212.686 338.274 212.645 338.014 212.645 337.718V334.722C212.645 334.702 212.649 334.685 212.659 334.671C212.669 334.656 212.686 334.644 212.711 334.634C212.735 334.627 212.767 334.619 212.809 334.612C212.848 334.607 212.902 334.602 212.966 334.602C213.025 334.602 213.076 334.605 213.118 334.612C213.16 334.619 213.194 334.627 213.216 334.634C213.241 334.644 213.258 334.654 213.268 334.671C213.277 334.685 213.282 334.702 213.282 334.722V337.639C213.282 337.862 213.309 338.058 213.366 338.225C213.42 338.391 213.501 338.531 213.604 338.641C213.707 338.751 213.832 338.834 213.977 338.891C214.121 338.947 214.286 338.974 214.467 338.974C214.654 338.974 214.82 338.947 214.965 338.893C215.11 338.839 215.235 338.756 215.336 338.646C215.436 338.536 215.515 338.401 215.566 338.239C215.62 338.078 215.647 337.889 215.647 337.671V334.72C215.647 334.7 215.652 334.683 215.662 334.668C215.672 334.654 215.689 334.641 215.713 334.631C215.738 334.624 215.772 334.617 215.811 334.609C215.853 334.605 215.905 334.6 215.966 334.6C216.025 334.6 216.076 334.602 216.118 334.609C216.16 334.617 216.192 334.624 216.216 334.631C216.241 334.641 216.258 334.651 216.268 334.668C216.28 334.683 216.285 334.7 216.285 334.72V337.669H216.29Z" fill="white"/>
<path d="M220.254 339.187C220.254 339.231 220.251 339.27 220.246 339.305C220.241 339.339 220.232 339.366 220.219 339.388C220.207 339.41 220.192 339.427 220.175 339.437C220.158 339.447 220.141 339.452 220.121 339.452H217.801C217.744 339.452 217.69 339.432 217.639 339.393C217.587 339.354 217.563 339.287 217.563 339.189V334.884C217.563 334.786 217.587 334.72 217.639 334.68C217.69 334.641 217.744 334.622 217.801 334.622H220.094C220.114 334.622 220.131 334.626 220.148 334.636C220.165 334.646 220.178 334.663 220.187 334.685C220.197 334.707 220.205 334.737 220.212 334.769C220.219 334.803 220.222 334.844 220.222 334.893C220.222 334.938 220.219 334.977 220.212 335.011C220.207 335.045 220.197 335.072 220.187 335.094C220.178 335.116 220.165 335.131 220.148 335.141C220.131 335.151 220.114 335.156 220.094 335.156H218.203V336.672H219.824C219.844 336.672 219.861 336.677 219.878 336.689C219.896 336.701 219.908 336.716 219.92 336.735C219.932 336.755 219.94 336.782 219.945 336.816C219.95 336.85 219.952 336.892 219.952 336.939C219.952 336.983 219.95 337.022 219.945 337.054C219.94 337.086 219.932 337.112 219.92 337.132C219.908 337.152 219.896 337.166 219.878 337.174C219.861 337.184 219.844 337.186 219.824 337.186H218.203V338.913H220.121C220.141 338.913 220.161 338.918 220.175 338.927C220.192 338.937 220.205 338.954 220.219 338.974C220.232 338.996 220.241 339.023 220.246 339.055C220.251 339.096 220.254 339.138 220.254 339.187Z" fill="white"/>
<path d="M226.685 339.188C226.685 339.237 226.678 339.281 226.661 339.315C226.644 339.349 226.622 339.379 226.595 339.401C226.568 339.423 226.538 339.44 226.504 339.45C226.47 339.459 226.438 339.464 226.403 339.464H226.19C226.124 339.464 226.065 339.457 226.013 339.445C225.962 339.43 225.915 339.405 225.871 339.371C225.827 339.334 225.78 339.285 225.736 339.224C225.692 339.163 225.643 339.082 225.594 338.987L224.12 336.241C224.044 336.099 223.965 335.95 223.887 335.795C223.808 335.641 223.735 335.489 223.668 335.342H223.661C223.666 335.521 223.671 335.705 223.673 335.891C223.676 336.077 223.676 336.263 223.676 336.447V339.361C223.676 339.379 223.671 339.396 223.661 339.413C223.651 339.43 223.631 339.442 223.607 339.45C223.582 339.459 223.548 339.467 223.509 339.472C223.47 339.479 223.416 339.481 223.354 339.481C223.291 339.481 223.239 339.479 223.2 339.472C223.161 339.464 223.126 339.457 223.104 339.45C223.08 339.44 223.062 339.428 223.053 339.413C223.043 339.396 223.038 339.379 223.038 339.361V334.906C223.038 334.806 223.067 334.735 223.124 334.693C223.18 334.651 223.241 334.629 223.308 334.629H223.624C223.698 334.629 223.761 334.637 223.811 334.649C223.862 334.661 223.906 334.681 223.945 334.71C223.985 334.74 224.024 334.779 224.061 334.83C224.098 334.882 224.137 334.945 224.179 335.021L225.312 337.14C225.383 337.27 225.449 337.395 225.513 337.517C225.577 337.64 225.641 337.762 225.702 337.882C225.763 338.002 225.822 338.12 225.881 338.235C225.94 338.35 225.999 338.467 226.055 338.583H226.058C226.053 338.387 226.05 338.181 226.048 337.968C226.048 337.755 226.045 337.551 226.045 337.355V334.735C226.045 334.718 226.05 334.7 226.06 334.686C226.07 334.671 226.089 334.656 226.114 334.647C226.138 334.634 226.173 334.627 226.212 334.622C226.254 334.617 226.305 334.615 226.372 334.615C226.43 334.615 226.479 334.617 226.521 334.622C226.563 334.627 226.597 334.634 226.619 334.647C226.644 334.656 226.661 334.671 226.671 334.686C226.681 334.7 226.685 334.718 226.685 334.735V339.188Z" fill="white"/>
<path d="M232.021 336.983C232.021 337.372 231.974 337.725 231.883 338.039C231.79 338.352 231.653 338.619 231.471 338.839C231.287 339.06 231.059 339.229 230.782 339.346C230.505 339.464 230.183 339.523 229.813 339.523C229.45 339.523 229.134 339.469 228.869 339.361C228.604 339.253 228.383 339.097 228.211 338.888C228.037 338.683 227.909 338.426 227.824 338.119C227.738 337.813 227.696 337.463 227.696 337.064C227.696 336.684 227.743 336.339 227.833 336.025C227.927 335.714 228.064 335.45 228.248 335.232C228.432 335.014 228.663 334.847 228.94 334.727C229.217 334.61 229.538 334.551 229.909 334.551C230.264 334.551 230.576 334.605 230.838 334.712C231.103 334.82 231.322 334.974 231.498 335.18C231.675 335.386 231.805 335.638 231.891 335.942C231.977 336.246 232.021 336.593 232.021 336.983ZM231.341 337.027C231.341 336.753 231.317 336.498 231.268 336.263C231.219 336.028 231.138 335.824 231.025 335.65C230.912 335.479 230.76 335.342 230.571 335.246C230.382 335.148 230.149 335.102 229.869 335.102C229.59 335.102 229.357 335.153 229.168 335.259C228.979 335.364 228.824 335.504 228.707 335.677C228.589 335.851 228.503 336.055 228.452 336.287C228.4 336.52 228.376 336.765 228.376 337.02C228.376 337.304 228.4 337.563 228.447 337.803C228.493 338.043 228.574 338.249 228.685 338.421C228.797 338.594 228.947 338.727 229.134 338.822C229.322 338.918 229.558 338.967 229.84 338.967C230.122 338.967 230.358 338.915 230.549 338.81C230.74 338.705 230.895 338.565 231.013 338.386C231.13 338.208 231.214 338.002 231.263 337.769C231.317 337.536 231.341 337.289 231.341 337.027Z" fill="white"/>
<path d="M237.584 339.312C237.574 339.346 237.56 339.376 237.54 339.395C237.52 339.417 237.493 339.432 237.457 339.444C237.422 339.454 237.378 339.464 237.327 339.469C237.275 339.474 237.214 339.476 237.138 339.476C237.059 339.476 236.995 339.474 236.942 339.469C236.888 339.464 236.843 339.456 236.809 339.444C236.775 339.432 236.748 339.417 236.731 339.395C236.713 339.373 236.699 339.346 236.689 339.312L235.676 335.667H235.668L234.734 339.312C234.726 339.346 234.714 339.376 234.697 339.395C234.68 339.417 234.655 339.432 234.623 339.444C234.592 339.454 234.55 339.464 234.498 339.469C234.447 339.474 234.383 339.476 234.302 339.476C234.221 339.476 234.152 339.474 234.096 339.469C234.042 339.464 233.995 339.456 233.961 339.444C233.927 339.432 233.9 339.417 233.88 339.395C233.861 339.373 233.848 339.346 233.841 339.312L232.563 334.852C232.548 334.796 232.541 334.749 232.538 334.717C232.536 334.685 232.548 334.661 232.568 334.641C232.59 334.624 232.624 334.612 232.671 334.607C232.717 334.602 232.781 334.6 232.862 334.6C232.938 334.6 233 334.602 233.046 334.605C233.093 334.607 233.125 334.614 233.149 334.624C233.174 334.634 233.188 334.649 233.198 334.666C233.208 334.683 233.213 334.705 233.218 334.732L234.305 338.776H234.309L235.342 334.739C235.35 334.712 235.359 334.688 235.369 334.671C235.381 334.651 235.399 334.639 235.423 334.629C235.448 334.619 235.484 334.612 235.529 334.607C235.575 334.602 235.634 334.6 235.71 334.6C235.779 334.6 235.835 334.602 235.877 334.607C235.919 334.612 235.951 334.619 235.975 334.629C236 334.639 236.019 334.654 236.029 334.671C236.041 334.69 236.051 334.712 236.056 334.739L237.165 338.776H237.172L238.237 334.734C238.244 334.71 238.251 334.688 238.259 334.668C238.266 334.649 238.281 334.636 238.305 334.627C238.33 334.617 238.362 334.609 238.406 334.605C238.45 334.6 238.507 334.597 238.58 334.597C238.654 334.597 238.715 334.6 238.757 334.607C238.801 334.614 238.833 334.624 238.852 334.644C238.872 334.661 238.882 334.685 238.879 334.717C238.879 334.749 238.872 334.793 238.86 334.852L237.584 339.312Z" fill="white"/>
<path d="M262.026 315.953H183.939V318.405H262.026V315.953Z" fill="#DBDBDB"/>
<path d="M262.026 321.635H183.939V324.089H262.026V321.635Z" fill="#DBDBDB"/>
<path d="M262.026 310.271H183.939V312.723H262.026V310.271Z" fill="#DBDBDB"/>
<path d="M262.026 304.586H183.939V307.038H262.026V304.586Z" fill="#DBDBDB"/>
<path d="M262.026 298.904H183.939V301.356H262.026V298.904Z" fill="#DBDBDB"/>
<path opacity="0.3" d="M357.307 267.137C357.628 271.196 354.26 274.556 350.196 274.238C346.999 273.985 344.409 271.399 344.156 268.208C343.835 264.149 347.203 260.786 351.268 261.107C354.466 261.359 357.054 263.946 357.307 267.137Z" fill="#DAEEF7"/>
<path d="M352.7 270.415H348.766C348.334 270.415 347.986 270.064 347.986 269.636V265.707C347.986 265.276 348.336 264.928 348.766 264.928H352.7C353.132 264.928 353.48 265.278 353.48 265.707V269.636C353.48 270.064 353.13 270.415 352.7 270.415ZM348.766 265.139C348.452 265.139 348.197 265.394 348.197 265.707V269.636C348.197 269.949 348.452 270.204 348.766 270.204H352.7C353.014 270.204 353.269 269.949 353.269 269.636V265.707C353.269 265.394 353.014 265.139 352.7 265.139H348.766Z" fill="#DAEEF7"/>
<path opacity="0.5" d="M113.449 126.436C114.673 121.114 119.444 117.144 125.147 117.144C126.195 117.144 127.21 117.278 128.177 117.531C130.991 111.52 137.099 107.356 144.181 107.356C146.01 107.356 147.777 107.636 149.437 108.152C153.249 101.848 160.177 97.6328 168.09 97.6328C177.505 97.6328 185.524 103.599 188.563 111.951C190.715 110.754 193.19 110.07 195.827 110.07C204.079 110.07 210.77 116.749 210.77 124.991C210.77 125.481 210.746 125.964 210.699 126.439H113.449V126.436Z" fill="#D7D7D7"/>
<path opacity="0.5" d="M52.6801 84.4362C53.3865 81.3624 56.1437 79.0675 59.4357 79.0675C60.0391 79.0675 60.6279 79.1458 61.1872 79.2903C62.8135 75.8197 66.341 73.4145 70.4326 73.4145C71.4899 73.4145 72.5103 73.5762 73.4695 73.8725C75.6723 70.2305 79.6732 67.7959 84.2456 67.7959C89.684 67.7959 94.3153 71.242 96.0717 76.0671C97.3154 75.3764 98.7455 74.9796 100.269 74.9796C105.035 74.9796 108.901 78.8372 108.901 83.5986C108.901 83.8803 108.886 84.1595 108.859 84.4338H52.6801V84.4362Z" fill="#D7D7D7"/>
<path opacity="0.5" d="M186.993 50.3937C187.312 49.005 188.556 47.9714 190.042 47.9714C190.315 47.9714 190.58 48.0057 190.832 48.0718C191.566 46.5043 193.158 45.4193 195.005 45.4193C195.483 45.4193 195.942 45.4928 196.376 45.6275C197.369 43.984 199.177 42.8843 201.24 42.8843C203.696 42.8843 205.786 44.4396 206.578 46.617C207.14 46.3059 207.785 46.1271 208.472 46.1271C210.623 46.1271 212.367 47.8686 212.367 50.0166C212.367 50.1439 212.36 50.2688 212.348 50.3937H186.993Z" fill="#D7D7D7"/>
<path opacity="0.5" d="M261.221 72.6403C260.515 69.5665 257.757 67.2715 254.465 67.2715C253.862 67.2715 253.273 67.3499 252.714 67.4944C251.088 64.0238 247.56 61.6186 243.468 61.6186C242.411 61.6186 241.391 61.7803 240.432 62.0766C238.229 58.4346 234.228 56 229.655 56C224.217 56 219.583 59.4461 217.829 64.2712C216.586 63.5805 215.156 63.1837 213.632 63.1837C208.866 63.1837 205 67.0413 205 71.8027C205 72.0844 205.015 72.3636 205.042 72.6379H261.221V72.6403Z" fill="#D7D7D7"/>
<path d="M316.888 265.834C318.164 270.378 322.162 274.794 327.858 277.951C333.174 280.897 339.427 282.489 345.623 282.494C346.165 282.494 346.707 282.482 347.249 282.46L349.138 282.377L349.999 282.416C350.541 282.44 351.084 282.452 351.626 282.455C357.825 282.46 364.077 280.88 369.4 277.943C375.101 274.796 379.109 270.387 380.392 265.844C382.024 260.076 379.311 254.758 372.95 251.256C369.464 249.336 365.875 249.128 362.574 250.656C357.974 252.784 353.976 258.271 350.689 266.961C349.845 269.195 349.16 271.343 348.626 273.187C348.098 271.352 347.421 269.219 346.587 267.002C343.317 258.307 339.329 252.816 334.732 250.678C331.432 249.145 327.844 249.346 324.353 251.261C317.99 254.749 315.269 260.061 316.888 265.834ZM353.961 276.381C354.501 274.37 355.291 271.73 356.328 268.996C358.958 262.067 362.073 257.482 365.1 256.081C365.598 255.851 366.248 255.621 367.082 255.623C367.894 255.623 368.878 255.844 370.058 256.493C373.934 258.628 375.472 261.227 374.625 264.215C373.053 269.78 364.251 275.607 353.961 276.381ZM327.243 256.502C328.425 255.853 329.409 255.635 330.221 255.638C331.055 255.638 331.705 255.868 332.203 256.101C335.227 257.507 338.335 262.097 340.953 269.03C341.985 271.766 342.77 274.409 343.305 276.42C333.015 275.626 324.225 269.785 322.66 264.22C321.821 261.227 323.362 258.631 327.243 256.502Z" fill="#373737"/>
<path d="M308.597 363.389L385.61 363.455C389.756 363.457 393.119 360.107 393.124 355.967L393.182 288.14C393.187 284 389.829 280.642 385.684 280.637L308.671 280.571C304.525 280.569 301.162 283.919 301.157 288.059L301.098 355.886C301.093 360.026 304.451 363.384 308.597 363.389Z" fill="#FF9900"/>
<path d="M301.128 321.974L393.153 322.055L393.18 290.283C393.185 284.96 388.868 280.642 383.537 280.637L310.817 280.574C305.487 280.569 301.162 284.88 301.157 290.202L301.128 321.974Z" fill="#D88304"/>
<path d="M299.538 311.506L394.76 311.589C397.497 311.591 399.717 309.377 399.72 306.646L399.737 285.597C399.74 282.864 397.522 280.647 394.787 280.645L299.565 280.562C296.827 280.559 294.608 282.773 294.605 285.504L294.588 306.553C294.583 309.287 296.801 311.503 299.538 311.506Z" fill="#FF9900"/>
<path d="M336.055 363.412L357.033 363.431L357.106 280.613L336.127 280.595L336.055 363.412Z" fill="#373737"/>
<path d="M336.09 322.003L357.069 322.021L357.078 311.555L336.1 311.537L336.09 322.003Z" fill="black"/>
<path d="M339.37 306.549L340.889 309.934C341.014 310.213 340.889 310.541 340.609 310.666L332.674 314.218C332.1 314.475 331.545 313.823 331.891 313.299L334.962 308.521C334.962 308.523 337.388 308.966 339.37 306.549Z" fill="#CA7900"/>
<path d="M349.656 306.146L351.174 309.531C351.299 309.811 351.174 310.139 350.895 310.264L342.959 313.815C342.385 314.072 341.831 313.421 342.177 312.897L345.248 308.118C345.245 308.121 347.674 308.564 349.656 306.146Z" fill="#CA7900"/>
<path d="M358.931 196.556C358.931 196.556 350.282 195.099 347.38 204.749L350.961 210.103C350.961 210.103 358.472 207.221 358.504 206.939C358.534 206.655 358.931 196.556 358.931 196.556Z" fill="black"/>
<path d="M372.852 200.904C372.852 200.904 375.373 204.693 376.661 206.195C379.899 209.974 380.316 208.788 382.328 212.039C384.499 215.546 382.303 217.743 381.055 218.755C379.806 219.766 381.896 223.506 379.568 225.603C376.521 228.346 373.703 225.76 371.608 227.298C369.513 228.836 369.054 231.114 364.087 230.683C359.12 230.251 359.169 214.035 359.169 214.035C359.169 214.035 363.236 205.438 363.395 205.367C363.557 205.293 372.852 200.904 372.852 200.904Z" fill="black"/>
<path d="M347.38 204.75C347.38 204.75 347.083 207.725 346.097 209.44C343.617 213.753 342.282 212.34 340.909 215.906C339.427 219.756 341.993 221.507 343.408 222.269C344.824 223.031 343.465 227.094 346.141 228.723C349.644 230.856 351.932 227.79 354.278 228.914C356.623 230.036 357.496 232.191 362.296 230.849C367.097 229.507 364.038 213.579 364.038 213.579C364.038 213.579 358.445 205.884 358.273 205.844C358.102 205.803 347.38 204.75 347.38 204.75Z" fill="black"/>
<path d="M359.93 223.952C359.93 223.952 368.218 222.428 372.033 222.558C375.845 222.686 369.722 232.583 369.722 232.583L363.496 232.72C363.496 232.72 359.679 228.463 359.93 227.969C360.18 227.474 359.917 224.226 359.917 224.226L359.93 223.952Z" fill="#FFC0BB"/>
<path d="M367.32 216.055L369.506 222.683C369.506 222.683 367.602 226.614 361.772 224.917C361.772 224.917 362.436 223.545 361.546 220.719C360.636 217.828 367.32 216.055 367.32 216.055Z" fill="#FFC0BB"/>
<path opacity="0.6" d="M367.32 216.055L368.346 219.151C367.735 221.414 365.75 222.955 362.009 223.432C362.012 222.759 361.906 221.86 361.546 220.719C360.636 217.828 367.32 216.055 367.32 216.055Z" fill="#FC8D84"/>
<path d="M353.983 211.203C354.457 212.278 354.14 213.459 353.279 213.836C352.416 214.213 351.334 213.648 350.861 212.572C350.387 211.497 350.704 210.317 351.565 209.939C352.428 209.56 353.51 210.126 353.983 211.203Z" fill="#F99893"/>
<path d="M353.74 216.09C353.181 214.703 352.879 213.224 352.717 211.933C352.683 211.656 352.632 211.382 352.578 211.108C352.352 210.001 352.325 208.823 352.556 207.605C353.294 203.684 356.586 200.657 360.56 200.257C365.915 199.716 370.465 203.828 370.605 209.058C371.167 208.727 371.804 208.636 372.374 208.874C373.468 209.327 373.892 210.799 373.325 212.163C372.759 213.528 371.412 214.267 370.32 213.814C370.168 213.75 370.031 213.667 369.906 213.567C369.57 218.029 366.01 221.561 361.629 221.605C358.337 221.635 355.099 219.641 353.74 216.09Z" fill="#FFC0BB"/>
<path d="M359.458 209.261C359.63 209.754 359.721 210.268 359.75 210.792C359.765 211.057 359.758 211.321 359.723 211.59C359.682 211.86 359.62 212.139 359.449 212.406C359.25 212.661 359.144 212.746 359.115 212.95C359.078 213.126 359.162 213.317 359.289 213.486C359.566 213.829 360.05 214.02 360.555 214.121C360.052 214.218 359.453 214.157 359.007 213.751C358.789 213.555 358.622 213.244 358.646 212.903C358.671 212.551 358.83 212.394 359.034 212.127C359.142 211.965 359.208 211.737 359.26 211.507C359.316 211.274 359.333 211.027 359.363 210.78C359.409 210.29 359.429 209.78 359.458 209.261Z" fill="#F99893"/>
<path d="M362.466 209.905C362.365 210.466 362.853 210.941 363.413 210.828C363.722 210.765 363.975 210.51 364.029 210.199C364.129 209.638 363.641 209.163 363.082 209.275C362.773 209.337 362.52 209.594 362.466 209.905Z" fill="#333333"/>
<path d="M355.644 210.422C355.544 210.98 356.029 211.458 356.589 211.345C356.898 211.284 357.15 211.027 357.207 210.716C357.307 210.155 356.819 209.677 356.26 209.79C355.951 209.854 355.701 210.111 355.644 210.422Z" fill="#333333"/>
<path opacity="0.3" d="M362.591 216.094C362.591 216.094 361.455 215.688 360.383 216.388C360.383 216.388 359.228 215.666 358.315 216.356C358.315 216.356 358.737 218.076 360.638 217.961C362.539 217.843 362.591 216.094 362.591 216.094Z" fill="#F99893"/>
<path d="M363.587 215.477C363.371 215.651 363.148 215.81 362.912 215.95C362.679 216.094 362.439 216.224 362.189 216.332C361.691 216.55 361.166 216.704 360.631 216.748C360.094 216.797 359.552 216.729 359.034 216.572C358.519 216.408 358.031 216.148 357.57 215.842C357.776 216.028 357.994 216.197 358.229 216.347C358.465 216.498 358.72 216.616 358.98 216.721C359.245 216.819 359.517 216.89 359.799 216.932C360.079 216.969 360.364 216.976 360.648 216.954C361.212 216.902 361.762 216.734 362.257 216.474C362.755 216.219 363.214 215.889 363.587 215.477Z" fill="#F99893"/>
<path d="M361.521 208.232C361.931 208.122 362.314 208.041 362.694 207.997C363.072 207.953 363.44 207.955 363.798 208.014C364.154 208.075 364.509 208.163 364.848 208.335C365.108 208.425 365.738 208.827 365.903 208.905C365.721 208.538 365.449 208.141 365.105 207.914C364.767 207.637 364.333 207.468 363.891 207.397C363.447 207.328 362.991 207.375 362.579 207.522C362.172 207.671 361.794 207.901 361.521 208.232Z" fill="black"/>
<path d="M358.009 208.497C357.697 208.203 357.295 208.019 356.873 207.919C356.449 207.823 355.987 207.831 355.556 207.953C355.126 208.078 354.717 208.298 354.415 208.614C354.101 208.881 353.88 209.308 353.743 209.695C353.897 209.594 354.471 209.121 354.719 208.999C355.036 208.791 355.379 208.659 355.723 208.553C356.071 208.453 356.436 208.406 356.817 208.404C357.197 208.404 357.589 208.438 358.009 208.497Z" fill="black"/>
<path d="M374.348 264.443C374.348 264.443 376.794 275.93 365.699 278.659C354.606 281.387 340.607 281.664 340.607 281.664L340.347 308.422L334.509 309.088C334.509 309.088 317.085 273.03 337.597 265.927L356.365 264.837L364.055 263.799C364.055 263.799 371.75 261.377 371.866 261.739C371.986 262.102 374.177 264.637 374.348 264.443Z" fill="#121212"/>
<path d="M384.666 263.853C384.666 263.853 387.112 275.34 376.016 278.068C364.924 280.797 350.924 281.074 350.924 281.074L350.667 307.832L344.829 308.501C344.829 308.501 327.405 272.442 347.917 265.339L366.685 264.25L374.375 263.211C374.375 263.211 382.071 260.789 382.186 261.151C382.301 261.514 384.494 264.049 384.666 263.853Z" fill="#323232"/>
<path d="M347.569 281.84C347.887 281.781 348.209 281.728 348.523 281.654C348.839 281.581 349.151 281.495 349.46 281.404C349.614 281.355 349.771 281.304 349.923 281.248C349.764 281.216 349.607 281.169 349.452 281.113C349.148 281.005 348.864 280.851 348.596 280.674C348.339 280.483 348.094 280.28 347.88 280.045C347.664 279.812 347.48 279.555 347.318 279.286L347.637 279.631C347.753 279.736 347.858 279.851 347.976 279.949C348.201 280.16 348.454 280.336 348.714 280.496C348.974 280.652 349.251 280.78 349.536 280.88C349.818 280.976 350.125 281.047 350.409 281.056L350.927 281.076L350.466 281.289C350.154 281.434 349.843 281.529 349.524 281.617C349.207 281.706 348.883 281.769 348.56 281.823C348.236 281.875 347.91 281.921 347.583 281.946C347.257 281.97 346.931 281.985 346.604 281.985C346.926 281.938 347.25 281.899 347.569 281.84Z" fill="white"/>
<path d="M350.507 240.08C350.507 240.08 349.752 258.849 347.637 261.79L359.265 259.153V238.726L350.507 240.08Z" fill="#FFC0BB"/>
<path d="M355.462 242.642C355.462 242.642 357.081 247.367 357.376 249.875C358.107 256.106 357.312 260.502 356.022 264.049C354.209 269.023 369.006 267.216 369.31 267.064C369.611 266.912 382.296 262.014 382.296 262.014L384.712 255.004V242.642L384.033 236.989L355.462 242.642Z" fill="#FF9900"/>
<path d="M390.899 236.989L381.587 240.156C381.587 240.156 383.199 255.031 382.694 257.142C382.264 258.947 375.511 262.533 371.233 264.541C370.544 264.865 369.786 265.002 369.028 264.94C366.589 264.74 362.27 264.362 361.593 264.316C360.528 264.242 357.599 264.318 357.506 264.691C357.418 265.036 359.795 264.656 361.333 264.972C361.548 265.016 361.433 265.305 361.384 265.308C360.567 265.337 358.463 265.428 357.771 265.658C356.922 265.94 359.922 265.717 361.544 266.013C361.656 266.035 361.747 266.356 361.666 266.437C361.472 266.628 360.768 266.795 358.83 266.99C355.6 267.321 358.759 267.72 358.759 267.72C358.759 267.72 359.049 267.637 361.826 267.257C361.926 267.243 362.042 267.532 361.887 267.666C361.62 267.902 360.999 268.365 360.162 268.609C359.122 268.916 359.88 269.188 359.88 269.188C359.88 269.188 361.848 268.602 362.952 268.519C363.778 268.458 367.674 268.774 369.271 268.864L369.393 268.59C371.559 268.526 388.833 268.08 390.497 257.389C392.206 246.387 390.899 236.989 390.899 236.989Z" fill="#FFC0BB"/>
<path d="M323.217 247.641H352.889L361.303 268.144H375.597C375.997 268.144 376.32 268.467 376.32 268.866C376.32 269.266 375.997 269.589 375.597 269.589H333.078L323.217 247.641Z" fill="#CE7C00"/>
<path d="M337.931 259.341C338.105 260.215 338.868 260.798 339.635 260.647C340.401 260.495 340.879 259.662 340.705 258.788C340.531 257.913 339.768 257.33 339 257.482C338.235 257.636 337.756 258.469 337.931 259.341Z" fill="#DAEEF7"/>
<path d="M359.929 223.952C359.929 223.952 365.564 230.521 372.033 222.558C372.033 222.558 379.097 221.983 384.308 225.676C389.518 229.37 392.636 237.665 392.636 237.665C392.636 237.665 383.199 242.415 380.859 242.64H354.66C354.66 242.64 350.659 242.339 346.808 240.379C346.808 240.382 347.473 227.195 359.929 223.952Z" fill="#FF9900"/>
<path d="M377.412 235.157C377.655 235.972 377.873 236.793 378.092 237.613C378.499 239.227 378.872 240.763 379.147 242.416C379.657 242.438 380.233 242.365 380.739 242.294C383.459 241.811 385.247 241.05 387.668 240.06C391.299 238.409 390.808 238.569 392.636 237.667C390.511 239.009 389.366 239.614 387.818 240.386C385.696 241.368 383.667 242.277 380.812 242.779C379.564 242.948 379.205 242.911 378.732 242.857C378.548 241.647 378.337 240.408 377.758 237.692L377.218 235.206L376.664 232.72C376.931 233.528 377.172 234.344 377.412 235.157Z" fill="#07085B"/>
<path d="M356.745 230.814C356.375 231.779 356.041 232.747 355.74 233.724C355.445 234.701 355.185 235.686 355.011 236.685C354.847 237.533 354.734 238.652 354.773 239.698C354.81 240.705 356.306 245.444 356.745 246.38C356.125 245.547 354.498 240.771 354.388 239.727C354.263 238.682 354.349 237.623 354.525 236.597C354.724 235.561 354.984 234.596 355.376 233.597C355.749 232.632 356.191 231.689 356.745 230.814Z" fill="#07085B"/>
<path d="M370.605 209.055C370.605 209.055 360.925 206.724 356.301 200.157C356.301 200.157 356.22 194.176 365.105 195.533C373.74 196.851 375.761 205.239 370.605 209.055Z" fill="black"/>
<path d="M210.314 201.445L208.688 205.068C208.553 205.367 208.688 205.719 208.987 205.852L217.482 209.655C218.098 209.93 218.691 209.234 218.321 208.673L215.034 203.559C215.031 203.557 212.434 204.032 210.314 201.445Z" fill="#CA7900"/>
<path d="M199.518 201.445L197.892 205.068C197.757 205.367 197.892 205.719 198.191 205.852L206.686 209.655C207.302 209.93 207.895 209.234 207.525 208.673L204.238 203.559C204.238 203.557 201.64 204.032 199.518 201.445Z" fill="#CA7900"/>
<path d="M181.167 101.566L180.264 107.224L178.356 99.6802C178.356 99.6802 181.032 98.3845 181.15 98.8548C181.268 99.3275 181.167 101.566 181.167 101.566Z" fill="#07085B"/>
<path d="M165.985 113.742L165.159 123.522L173.801 123.11L172.805 114.45L165.985 113.742Z" fill="#FFC0BB"/>
<path d="M173.278 118.569L172.805 114.45L165.983 113.742L165.696 117.129C167.055 118.479 169.493 119.877 173.278 118.569Z" fill="#F99893"/>
<path d="M178.579 107.153C178.059 108.226 178.337 109.434 179.195 109.847C180.056 110.264 181.175 109.73 181.692 108.655C182.212 107.582 181.935 106.374 181.077 105.96C180.218 105.547 179.099 106.08 178.579 107.153Z" fill="#F99893"/>
<path d="M179.833 107.939C179.877 107.66 179.938 107.383 180.007 107.107C180.277 105.995 180.348 104.799 180.161 103.558C179.56 99.5556 176.337 96.3642 172.322 95.8106C166.913 95.0636 162.149 99.0633 161.813 104.359C161.256 104.001 160.613 103.888 160.027 104.106C158.901 104.525 158.415 106.002 158.94 107.405C159.465 108.809 160.802 109.607 161.926 109.189C162.083 109.13 162.225 109.049 162.355 108.953C162.529 113.487 166.005 117.2 170.445 117.408C172.616 117.509 174.637 116.754 176.205 115.432C178.334 113.867 179.411 110.545 179.833 107.939Z" fill="#FFC0BB"/>
<path d="M173.102 104.981C173.119 105.51 173.124 106.024 173.151 106.531C173.183 107.026 173.236 107.553 173.435 107.9C173.636 108.182 173.796 108.363 173.801 108.709C173.813 109.059 173.629 109.37 173.398 109.561C172.927 109.958 172.314 109.995 171.809 109.87C172.326 109.779 172.819 109.6 173.109 109.265C173.241 109.098 173.33 108.91 173.3 108.736C173.278 108.542 173.219 108.503 172.984 108.177C172.819 107.896 172.765 107.609 172.734 107.335C172.709 107.058 172.712 106.789 172.736 106.522C172.788 105.993 172.903 105.473 173.102 104.981Z" fill="#F99893"/>
<path d="M170.028 105.52C170.111 106.093 169.599 106.558 169.035 106.423C168.723 106.347 168.478 106.078 168.434 105.762C168.353 105.191 168.863 104.728 169.425 104.861C169.739 104.934 169.984 105.204 170.028 105.52Z" fill="#333333"/>
<path d="M176.923 106.299C177.004 106.869 176.494 107.332 175.932 107.2C175.621 107.126 175.376 106.857 175.329 106.541C175.246 105.968 175.758 105.502 176.322 105.637C176.634 105.713 176.879 105.983 176.923 106.299Z" fill="#333333"/>
<path d="M168.684 111.131C168.895 111.315 169.116 111.486 169.351 111.635C169.582 111.79 169.82 111.932 170.07 112.052C170.565 112.292 171.093 112.466 171.635 112.532C172.177 112.6 172.729 112.554 173.259 112.412C173.789 112.262 174.291 112.02 174.77 111.726C174.252 112.162 173.823 112.378 173.305 112.566C172.761 112.747 172.219 112.809 171.608 112.74C171.039 112.667 170.487 112.476 169.994 112.194C169.501 111.912 169.047 111.559 168.684 111.131Z" fill="#F99893"/>
<path d="M171.048 103.861C170.639 103.734 170.251 103.638 169.869 103.58C169.486 103.521 169.113 103.511 168.748 103.555C168.385 103.604 168.021 103.68 167.671 103.839C167.403 103.923 166.751 104.305 166.582 104.381C166.78 104.016 167.07 103.624 167.428 103.406C167.781 103.136 168.228 102.982 168.676 102.926C169.128 102.872 169.591 102.938 170.001 103.102C170.411 103.269 170.786 103.516 171.048 103.861Z" fill="black"/>
<path d="M174.6 104.261C174.927 103.974 175.341 103.803 175.773 103.717C176.207 103.636 176.673 103.661 177.107 103.8C177.537 103.942 177.944 104.18 178.241 104.513C178.55 104.795 178.756 105.235 178.881 105.635C178.726 105.527 178.165 105.027 177.917 104.895C177.605 104.672 177.262 104.525 176.916 104.405C176.568 104.292 176.2 104.229 175.812 104.212C175.425 104.197 175.027 104.217 174.6 104.261Z" fill="black"/>
<path d="M170.744 159.619C170.744 159.619 168.941 171.829 180.755 173.955C192.569 176.083 207.27 175.446 207.27 175.446L209.316 203.491L215.483 203.804C215.483 203.804 231.364 164.839 209.382 158.747L189.628 158.843L181.494 158.262C181.494 158.262 173.261 156.232 173.165 156.619C173.067 157.011 170.938 159.813 170.744 159.619Z" fill="black"/>
<path d="M159.887 159.686C159.887 159.686 158.084 171.895 169.898 174.021C181.712 176.15 196.413 175.513 196.413 175.513L198.459 203.557L204.626 203.871C204.626 203.871 220.506 164.905 198.525 158.814L178.771 158.909L170.636 158.329C170.636 158.329 162.404 156.298 162.308 156.685C162.21 157.075 160.081 159.879 159.887 159.686Z" fill="#343434"/>
<path d="M174.767 119.622C174.767 119.622 182.902 120.654 184.967 122.329C187.032 124.004 196.975 148.629 196.975 148.629L188.71 158.299L171.149 158.429C171.149 158.429 157.979 165.519 149.715 158.816C141.45 152.112 145.711 128.778 150.49 123.749C155.268 118.721 163.79 118.851 163.79 118.851C163.79 118.851 171.539 124.264 174.767 119.622Z" fill="#FF9900"/>
<path d="M159.014 131.869C159.306 133.211 159.482 134.573 159.61 135.94C159.681 136.623 159.711 137.309 159.75 137.995C159.769 138.681 159.787 139.369 159.777 140.057C159.75 141.431 159.674 142.81 159.438 144.172C159.208 145.529 158.872 146.888 158.241 148.113C158.666 146.805 158.877 145.463 159.029 144.115C159.178 142.768 159.23 141.409 159.247 140.05C159.274 138.69 159.242 137.329 159.198 135.967C159.151 134.605 159.088 133.241 159.014 131.869Z" fill="white"/>
<path d="M183.353 130.968C183.726 132.964 184.118 134.955 184.518 136.942C184.928 138.925 185.35 140.907 185.831 142.871C186.306 144.838 186.834 146.79 187.474 148.705C187.795 149.663 188.151 150.606 188.571 151.525C188.985 152.443 189.473 153.332 190.131 154.111C189.383 153.415 188.833 152.531 188.338 151.642C187.857 150.741 187.44 149.803 187.084 148.847C186.719 147.895 186.405 146.922 186.108 145.948C185.821 144.97 185.558 143.986 185.315 142.999C185.082 142.009 184.859 141.015 184.658 140.018C184.464 139.019 184.273 138.022 184.113 137.017C183.78 135.012 183.522 132.993 183.353 130.968Z" fill="white"/>
<path d="M187.442 152.727C187.391 152.318 184.288 151.863 183.147 151.804C182.283 151.76 176.553 151.569 174.605 151.48L174.748 151.98L174.718 154.189L174.399 155.654C176.109 155.762 180.289 155.926 181.157 156.097C182.32 156.328 184.337 157.202 184.337 157.202C184.337 157.202 185.176 157.011 184.108 156.553C183.252 156.183 182.651 155.612 182.399 155.328C182.252 155.164 182.411 154.875 182.516 154.902C185.418 155.661 185.715 155.786 185.715 155.786C185.715 155.786 189.125 155.767 185.735 155.003C183.701 154.545 182.973 154.278 182.794 154.05C182.718 153.954 182.855 153.624 182.978 153.616C184.739 153.508 187.898 154.131 187.032 153.722C186.326 153.388 184.104 153.024 183.238 152.886C183.184 152.879 183.098 152.556 183.336 152.536C185.016 152.397 187.489 153.104 187.442 152.727Z" fill="#FFC0BB"/>
<path d="M157.03 147.774C157.743 147.948 158.447 148.147 159.166 148.296C159.878 148.465 160.601 148.59 161.315 148.739C162.755 149.002 164.197 149.229 165.647 149.433C167.097 149.624 168.549 149.798 170.004 149.937C171.453 150.082 172.928 150.204 174.363 150.285L174.556 150.295L174.598 150.461C174.721 150.946 174.802 151.421 174.863 151.906C174.924 152.391 174.949 152.879 174.949 153.366C174.944 153.854 174.902 154.343 174.821 154.828C174.733 155.311 174.588 155.784 174.397 156.239L174.38 156.278L174.348 156.298L172.753 157.366C172.221 157.721 171.689 158.076 171.149 158.421C171.65 158.022 172.155 157.628 172.66 157.238L174.181 156.068L174.132 156.126C174.292 155.688 174.404 155.235 174.466 154.772C174.522 154.309 174.549 153.839 174.534 153.369C174.52 152.898 174.473 152.43 174.407 151.965C174.338 151.502 174.247 151.032 174.125 150.591L174.36 150.77C173.602 150.75 172.883 150.701 172.145 150.647C171.412 150.594 170.678 150.535 169.947 150.459C168.485 150.307 167.026 150.126 165.573 149.893C164.121 149.66 162.676 149.376 161.246 149.038C160.532 148.857 159.819 148.681 159.117 148.46C158.413 148.269 157.721 148.022 157.03 147.774Z" fill="white"/>
<path d="M224.176 136.317H192.412L183.407 158.265H168.107C167.681 158.265 167.332 158.61 167.332 159.039C167.332 159.465 167.678 159.813 168.107 159.813H213.621L224.176 136.317Z" fill="#CE7C00"/>
<path d="M208.425 148.842C208.239 149.778 207.422 150.403 206.6 150.241C205.781 150.077 205.268 149.185 205.455 148.25C205.641 147.314 206.458 146.69 207.277 146.851C208.102 147.015 208.614 147.907 208.425 148.842Z" fill="#DAEEF7"/>
<path d="M181.341 96.2148C181.341 96.2148 184.054 96.303 181.206 94.0129C178.361 91.7228 170.72 89.0384 165.824 91.62C165.824 91.62 164.845 89.5405 163.429 90.0377C162.014 90.5349 164.349 91.9653 164.349 91.9653C164.349 91.9653 162.541 91.9065 161.989 92.7932C161.582 93.4471 162.689 93.4765 163.294 93.4471C162.267 93.621 158.32 96.1095 160.299 104.053C161.003 103.898 165.014 98.091 165.014 98.091C165.014 98.091 174.186 103.178 173.278 99.1319C173.278 99.1319 182.781 105.052 181.432 100.163C181.435 100.161 185.109 100.43 181.341 96.2148Z" fill="black"/>
<path d="M160.292 104.099C160.292 104.099 161.052 103.832 161.869 104.479C162.686 105.125 162.595 107.401 162.595 107.401C162.595 107.401 166.493 109.911 166.084 99.2887C165.647 87.9878 162.831 100.195 162.831 100.195L160.292 104.099Z" fill="black"/>
<path d="M152.777 362.747L146.738 344.034L154.418 342.273L154.038 344.696L156.677 361.103L153.989 363.57L152.777 362.747Z" fill="#FFC0BB"/>
<path d="M131.875 341.372L134.306 361.993L137.242 363.57L138.635 361.047L140.392 340.718L131.875 341.372Z" fill="#FFC0BB"/>
<path d="M131.132 345.227C133.344 345.874 136.558 346.322 140.735 345.663L141.37 339.871L144.236 338.622L146.387 345.507C148.119 345.732 151.401 345.776 155.792 344.098L153.81 332.744H130.923C130.903 334.647 130.911 336.513 130.957 338.274C131.019 340.616 131.078 342.962 131.132 345.227Z" fill="#FFBC56"/>
<path d="M133.521 355.323L134.308 361.993L137.244 363.57L138.635 361.05L139.114 355.527C136.668 355.632 134.607 355.451 133.521 355.323Z" fill="#FF9900"/>
<path d="M138.635 361.047V364.54C138.635 364.829 138.4 365.061 138.11 365.061H129.91C129.316 365.061 129.091 364.29 129.591 363.971L134.193 361.047C134.19 361.047 135.996 362.362 138.635 361.047Z" fill="black"/>
<path d="M155.61 354.476C152.765 355.908 150.38 355.321 150.38 355.321L152.777 362.744L153.989 363.567L156.675 361.101L155.61 354.476Z" fill="#FF9900"/>
<path d="M152.225 361.047V364.54C152.225 364.829 152.461 365.061 152.75 365.061H160.951C161.544 365.061 161.77 364.29 161.269 363.971L156.668 361.047C156.668 361.047 154.865 362.362 152.225 361.047Z" fill="black"/>
<path d="M144.738 304.616H139.879V309.46H144.738V304.616Z" fill="#FFC0BB"/>
<path d="M144.738 307.521V304.616H139.879V307.087C140.924 307.648 142.474 307.971 144.738 307.521Z" fill="#F99893"/>
<path d="M151.803 296.585C151.325 296.35 150.77 296.391 150.27 296.646C150.442 292.144 146.76 288.358 142.121 288.517C137.482 288.358 133.8 292.144 133.972 296.646C133.469 296.394 132.917 296.35 132.439 296.585C131.524 297.036 131.237 298.326 131.804 299.468C132.368 300.609 133.57 301.17 134.485 300.719C134.612 300.658 134.725 300.577 134.828 300.484C135.353 304.207 138.469 306.997 142.121 306.945C145.776 306.997 148.889 304.207 149.414 300.484C149.517 300.577 149.63 300.656 149.757 300.719C150.672 301.17 151.874 300.609 152.439 299.468C153.003 298.326 152.718 297.036 151.803 296.585Z" fill="#FFC0BB"/>
<path d="M136.724 308.283C136.724 308.283 142.457 313.544 147.692 308.351L136.724 308.283Z" fill="#FFC0BB"/>
<path d="M171.641 297.19C171.614 297.016 173.434 295.426 173.226 295.37C173.019 295.314 171.16 296.575 171.104 296.45C171.047 296.323 172.823 294.814 172.607 294.589C172.392 294.363 170.5 296.08 170.402 295.831C170.304 295.581 172.286 293.871 172.058 293.695C171.864 293.548 169.6 295.407 168.884 296.002C168.79 296.078 168.651 296.022 168.636 295.902C168.425 294.067 168.3 293.937 168.104 294.006C167.974 294.052 167.402 296.134 167.002 297.648C160.144 304.903 148.389 309.951 148.389 309.951C148.389 309.951 144.157 320.238 150.116 318.053C155.338 316.137 166.065 303.952 168.633 300.976L169.664 299.994H169.666C169.666 299.994 169.669 299.992 169.669 299.989C170 299.767 170.304 299.595 170.304 299.595C173.513 297.021 173.441 296.945 173.365 296.813C173.287 296.683 171.665 297.364 171.641 297.19Z" fill="#FFC0BB"/>
<path d="M112.018 297.19C112.045 297.016 110.224 295.426 110.433 295.37C110.639 295.314 112.498 296.575 112.555 296.45C112.611 296.323 110.835 294.814 111.051 294.589C111.267 294.363 113.158 296.08 113.256 295.831C113.354 295.581 111.372 293.871 111.601 293.695C111.794 293.548 114.058 295.407 114.775 296.002C114.868 296.078 115.008 296.022 115.023 295.902C115.233 294.067 115.359 293.937 115.555 294.006C115.685 294.052 116.256 296.134 116.656 297.648C123.515 304.903 135.27 309.951 135.27 309.951C135.27 309.951 139.501 320.238 133.543 318.053C128.32 316.137 117.593 303.952 115.025 300.976L113.995 299.994H113.992C113.992 299.994 113.99 299.992 113.99 299.989C113.659 299.767 113.357 299.595 113.357 299.595C110.148 297.021 110.219 296.945 110.296 296.813C110.372 296.683 111.991 297.364 112.018 297.19Z" fill="#FFC0BB"/>
<path d="M157.124 304.868L151.018 307.386C149.787 307.893 148.492 308.219 147.174 308.356C142.435 313.059 137.242 308.295 137.242 308.295C135.782 308.187 134.347 307.844 132.991 307.286L127.128 304.868C127.128 304.868 126.652 309.123 124.457 312.642L131.499 317.004L130.921 332.912C130.921 332.912 149.657 334.157 153.807 332.743L152.89 316.919L159.795 312.642C157.112 309.505 157.124 304.868 157.124 304.868Z" fill="black"/>
<path d="M134.705 316.495C134.705 316.495 143.747 316.874 149.36 316.495C149.36 316.495 149.77 326.632 150.903 330.732C151.173 331.705 151.982 332.434 152.981 332.603L153.805 332.743C153.805 332.743 151.504 334.759 151.433 334.759C151.362 334.759 144.778 334.688 144.682 334.639C144.586 334.592 130.918 332.743 130.918 332.743C130.918 332.743 132.324 332.809 133.278 331.668C134.237 330.527 134.705 316.495 134.705 316.495Z" fill="#FFBC56"/>
<path d="M136.862 318.846H135.606C135.419 318.846 135.267 318.694 135.267 318.508V308.005C135.267 307.819 135.419 307.667 135.606 307.667H136.862C137.048 307.667 137.2 307.819 137.2 308.005V318.508C137.2 318.697 137.048 318.846 136.862 318.846Z" fill="#FF9900"/>
<path d="M148.526 318.846H147.27C147.083 318.846 146.931 318.694 146.931 318.508V308.005C146.931 307.819 147.083 307.667 147.27 307.667H148.526C148.712 307.667 148.864 307.819 148.864 308.005V318.508C148.867 318.697 148.715 318.846 148.526 318.846Z" fill="#FF9900"/>
<path d="M133.219 315.618C133.175 315.716 133.141 315.814 133.096 315.907C133.003 316.093 132.898 316.274 132.765 316.428C132.63 316.58 132.476 316.715 132.297 316.81C132.123 316.908 131.919 316.972 131.728 316.987L131.502 317.004L131.683 317.119C131.789 317.185 131.89 317.227 132 317.259C132.11 317.288 132.221 317.31 132.334 317.315C132.559 317.327 132.782 317.281 132.984 317.195C132.876 317.215 132.77 317.234 132.662 317.237C132.554 317.241 132.449 317.232 132.343 317.219C132.238 317.205 132.137 317.178 132.039 317.141C132.012 317.131 131.985 317.119 131.958 317.107C132.103 317.075 132.24 317.024 132.37 316.955C132.567 316.847 132.738 316.698 132.873 316.524L132.969 316.389C133.001 316.343 133.023 316.294 133.05 316.247C133.106 316.154 133.141 316.049 133.182 315.948C133.219 315.845 133.241 315.74 133.268 315.637C133.285 315.532 133.302 315.424 133.315 315.319C133.283 315.414 133.251 315.517 133.219 315.618Z" fill="#DAEEF7"/>
<path d="M151.17 315.532C151.214 315.63 151.249 315.728 151.293 315.821C151.386 316.007 151.491 316.189 151.624 316.343C151.759 316.495 151.913 316.629 152.092 316.725C152.267 316.823 152.47 316.887 152.662 316.901L152.887 316.918L152.706 317.034C152.6 317.1 152.5 317.141 152.389 317.173C152.279 317.203 152.169 317.225 152.056 317.23C151.83 317.242 151.607 317.195 151.406 317.109C151.514 317.129 151.619 317.149 151.727 317.151C151.835 317.156 151.94 317.146 152.046 317.134C152.149 317.119 152.252 317.092 152.35 317.056C152.377 317.046 152.404 317.034 152.431 317.021C152.286 316.992 152.149 316.938 152.019 316.869C151.823 316.762 151.651 316.612 151.516 316.438L151.42 316.304C151.388 316.257 151.366 316.208 151.339 316.162C151.283 316.069 151.249 315.963 151.207 315.863C151.17 315.76 151.148 315.655 151.121 315.552C151.104 315.446 151.087 315.339 151.074 315.233C151.106 315.331 151.138 315.432 151.17 315.532Z" fill="#DAEEF7"/>
<path d="M144.343 326.125H139.84C138.603 326.125 137.6 325.124 137.6 323.889V321.416H146.581V323.889C146.583 325.126 145.58 326.125 144.343 326.125Z" fill="#F4A640"/>
<path d="M136.791 317.803C136.791 318.109 136.54 318.356 136.234 318.356C135.927 318.356 135.677 318.109 135.677 317.803C135.677 317.496 135.925 317.249 136.234 317.249C136.54 317.249 136.791 317.496 136.791 317.803Z" fill="#DAEEF7"/>
<path d="M148.455 317.803C148.455 318.109 148.207 318.356 147.898 318.356C147.591 318.356 147.341 318.109 147.341 317.803C147.341 317.496 147.591 317.249 147.898 317.249C148.207 317.249 148.455 317.496 148.455 317.803Z" fill="#DAEEF7"/>
<path d="M144.182 298.485C144.069 298.941 144.444 299.36 144.913 299.296C145.17 299.262 145.391 299.063 145.455 298.811C145.568 298.355 145.192 297.939 144.726 298C144.464 298.034 144.243 298.23 144.182 298.485Z" fill="#333333"/>
<path d="M138.537 298.547C138.424 299.002 138.8 299.419 139.266 299.357C139.523 299.323 139.746 299.125 139.808 298.872C139.921 298.417 139.545 297.998 139.079 298.062C138.819 298.096 138.598 298.292 138.537 298.547Z" fill="#333333"/>
<path d="M143.443 297.273C143.772 297.161 144.083 297.07 144.395 297.016C144.706 296.96 145.013 296.947 145.312 296.979C145.609 297.016 145.911 297.077 146.198 297.205C146.581 297.347 146.885 297.555 147.083 297.643C146.917 297.364 146.671 297.041 146.377 296.874C146.085 296.663 145.724 296.546 145.361 296.504C144.996 296.465 144.623 296.524 144.292 296.656C143.958 296.798 143.657 296.996 143.443 297.273Z" fill="#07085B"/>
<path d="M140.799 297.263C140.585 296.984 140.286 296.783 139.957 296.641C139.626 296.504 139.256 296.442 138.888 296.479C138.525 296.516 138.162 296.631 137.87 296.842C137.575 297.006 137.325 297.329 137.158 297.606C137.379 297.51 137.649 297.317 138.046 297.172C138.333 297.045 138.635 296.986 138.932 296.954C139.231 296.925 139.538 296.942 139.849 296.998C140.161 297.057 140.472 297.148 140.799 297.263Z" fill="#07085B"/>
<path d="M136.548 286.734C136.548 286.734 138.844 284.794 144.066 285.107C149.287 285.421 150.28 288.142 150.577 292.024L150.27 296.646C150.27 296.646 148.914 295.255 147.15 291.397C147.15 291.397 144.226 294.672 142.953 294.285C141.68 293.895 143.434 291.539 143.434 291.539C143.434 291.539 137.478 296.656 133.97 296.648C133.97 296.648 132.113 290.66 134.72 288.463C134.72 288.463 132.758 288.556 132.655 288.171C132.552 287.787 133.592 287.209 135.478 287.427C135.478 287.427 134.134 284.801 134.885 284.529C135.633 284.253 136.548 286.734 136.548 286.734Z" fill="black"/>
<path d="M139.33 302.11C139.521 302.972 140.512 303.651 141.724 303.688C142.936 303.724 143.966 303.107 144.211 302.26L139.33 302.11Z" fill="white"/>
<path d="M141.868 297.719C141.9 298.062 141.876 298.405 141.812 298.745C141.78 298.916 141.734 299.085 141.667 299.252C141.599 299.419 141.513 299.588 141.361 299.732C141.191 299.864 141.113 299.901 141.061 300.028C141.01 300.136 141.032 300.271 141.088 300.401C141.211 300.665 141.491 300.861 141.8 301.008C141.461 300.991 141.088 300.856 140.865 300.528C140.757 300.369 140.698 300.141 140.767 299.928C140.838 299.712 140.956 299.637 141.14 299.492C141.236 299.406 141.314 299.269 141.383 299.13C141.456 298.99 141.505 298.833 141.564 298.681C141.675 298.368 141.768 298.045 141.868 297.719Z" fill="#F99893"/>
<path d="M171.356 321.308L186.889 315.615L179.972 296.799L164.439 302.492L171.356 321.308Z" fill="#FEB546"/>
<path d="M179.122 318.462L186.89 315.615L179.972 296.799L172.205 299.646L179.122 318.462Z" fill="#F4A640"/>
<path d="M177.69 299.487C177.857 299.414 177.93 299.218 177.849 299.053C177.582 298.512 176.944 297.341 175.975 296.261C174.229 294.309 172.247 293.614 170.248 294.248C169.139 294.598 168.315 295.286 167.797 296.291C166.627 298.559 167.365 301.78 167.647 302.801C167.696 302.975 167.88 303.075 168.055 303.019C168.216 302.967 168.31 302.796 168.266 302.632C168.008 301.682 167.311 298.625 168.366 296.58C168.803 295.732 169.499 295.154 170.441 294.855C172.208 294.294 173.91 294.912 175.499 296.687C176.412 297.706 177.025 298.833 177.278 299.34C177.354 299.489 177.535 299.556 177.69 299.487Z" fill="#DAEEF7"/>
<path d="M120.45 303.132L104.917 297.439L98 316.255L113.533 321.948L120.45 303.132Z" fill="#FEB546"/>
<path d="M112.686 300.283L104.918 297.437L98.0008 316.252L105.768 319.099L112.686 300.283Z" fill="#F4A640"/>
<path d="M107.219 300.102C107.053 300.029 106.979 299.833 107.06 299.669C107.327 299.127 107.965 297.957 108.934 296.876C110.681 294.924 112.663 294.229 114.662 294.863C115.771 295.213 116.595 295.902 117.112 296.906C118.282 299.176 117.544 302.395 117.262 303.419C117.213 303.592 117.029 303.693 116.855 303.637C116.693 303.585 116.6 303.414 116.644 303.25C116.901 302.299 117.598 299.243 116.543 297.197C116.107 296.35 115.41 295.772 114.468 295.473C112.702 294.915 110.999 295.529 109.41 297.305C108.497 298.324 107.884 299.451 107.631 299.958C107.558 300.105 107.374 300.171 107.219 300.102Z" fill="#DAEEF7"/>
</svg>
