<svg width="556" height="415" viewBox="0 0 556 415" fill="none" xmlns="http://www.w3.org/2000/svg">
<g clip-path="url(#clip0_306_14)">
<path d="M556 364.702H0V364.981H556V364.702Z" fill="#EBEBEB"/>
<path d="M351.025 372.287H322.713V372.566H351.025V372.287Z" fill="#EBEBEB"/>
<path d="M506.449 378.313H439.362V378.591H506.449V378.313Z" fill="#EBEBEB"/>
<path d="M316.686 372.421H247.375V372.699H316.686V372.421Z" fill="#EBEBEB"/>
<path d="M202.429 380.752H187.928V381.03H202.429V380.752Z" fill="#EBEBEB"/>
<path d="M282.548 380.752H216.518V381.03H282.548V380.752Z" fill="#EBEBEB"/>
<path d="M101.092 376.052H58.3354V376.33H101.092V376.052Z" fill="#EBEBEB"/>
<path d="M263.555 315.028H48.828C45.3252 315.028 42.4785 312.177 42.4785 308.669V6.3596C42.4785 2.85124 45.3252 0 48.828 0H263.555C267.058 0 269.905 2.85124 269.905 6.3596V308.669C269.905 312.177 267.058 315.028 263.555 315.028ZM48.828 0.278441C45.4809 0.278441 42.7565 3.00717 42.7565 6.3596V308.669C42.7565 312.021 45.4809 314.75 48.828 314.75H263.555C266.902 314.75 269.627 312.021 269.627 308.669V6.3596C269.627 3.00717 266.902 0.278441 263.555 0.278441H48.828Z" fill="#EBEBEB"/>
<path d="M504.081 315.028H289.353C285.851 315.028 283.004 312.177 283.004 308.669V6.3596C283.004 2.85124 285.851 0 289.353 0H504.081C507.583 0 510.43 2.85124 510.43 6.3596V308.669C510.43 312.177 507.583 315.028 504.081 315.028ZM289.353 0.278441C286.006 0.278441 283.282 3.00717 283.282 6.3596V308.669C283.282 312.021 286.006 314.75 289.353 314.75H504.081C507.428 314.75 510.152 312.021 510.152 308.669V6.3596C510.152 3.00717 507.428 0.278441 504.081 0.278441H289.353Z" fill="#EBEBEB"/>
<path d="M217.908 268.094H144.071L139.589 216.304H213.426L217.908 268.094Z" fill="#E6E6E6"/>
<path d="M221.733 268.094H147.896L143.415 216.304H217.251L221.733 268.094Z" fill="#F0F0F0"/>
<path d="M157.993 256.979L155.524 227.431H207.155L209.623 256.979H157.993Z" fill="white"/>
<path d="M234.51 268.094H225.847V364.691H234.51V268.094Z" fill="#E6E6E6"/>
<path d="M237.245 268.094H231.229V364.691H237.245V268.094Z" fill="#F0F0F0"/>
<path d="M153.389 278.764H237.245V268.106H153.389V278.764Z" fill="#F0F0F0"/>
<path d="M156.347 278.764H147.685V364.702H156.347V278.764Z" fill="#E6E6E6"/>
<path d="M159.083 278.764H153.067V364.702H159.083V278.764Z" fill="#F0F0F0"/>
<path d="M94.6869 278.764H86.0244V364.702H94.6869V278.764Z" fill="#E6E6E6"/>
<path d="M97.4222 278.764H91.4062V364.702H97.4222V278.764Z" fill="#F0F0F0"/>
<path d="M179.688 278.764H171.025V364.702H179.688V278.764Z" fill="#E6E6E6"/>
<path d="M182.412 278.764H176.396V364.702H182.412V278.764Z" fill="#F0F0F0"/>
<path d="M153.389 268.094H86.0244V278.753H153.389V268.094Z" fill="#E6E6E6"/>
<path d="M404.59 27.2427H144.015V172.544H404.59V27.2427Z" fill="#E0E0E0"/>
<path d="M418.901 27.2427H145.327V172.544H418.901V27.2427Z" fill="#F5F5F5"/>
<path d="M414.431 168.067V31.7201L149.797 31.7201V168.067L414.431 168.067Z" fill="white"/>
<path d="M256.95 168.067L306.912 31.72H224.457L174.495 168.067H256.95Z" fill="#F5F5F5"/>
<path d="M336.313 168.067L386.275 31.72H324.07L274.108 168.067H336.313Z" fill="#F5F5F5"/>
<path d="M487.178 225.927H465.027V364.702H487.178V225.927Z" fill="#E6E6E6"/>
<path d="M481.351 364.702H487.178V354.01H475.247L481.351 364.702Z" fill="#FAFAFA"/>
<path d="M282.948 225.927H260.797V364.702H282.948V225.927Z" fill="#E6E6E6"/>
<path d="M487.178 225.927H277.867V361.818H487.178V225.927Z" fill="#FAFAFA"/>
<path d="M483.22 269.776H281.836V231.396H483.22V269.776ZM282.948 268.662H482.108V232.51H282.948V268.662Z" fill="#E6E6E6"/>
<path d="M447.769 250.029H321.201C315.319 250.029 309.659 245.284 305.678 236.998L305.289 236.196H463.671L463.282 236.998C459.301 245.273 453.64 250.029 447.758 250.029H447.769ZM307.068 237.321C310.826 244.705 315.942 248.915 321.19 248.915H447.758C453.007 248.915 458.122 244.705 461.892 237.321H307.068Z" fill="#E6E6E6"/>
<path d="M283.694 364.702H277.867V354.01H289.798L283.694 364.702Z" fill="#FAFAFA"/>
<path d="M483.22 313.057H281.836V274.677H483.22V313.057ZM282.948 311.943H482.108V275.791H282.948V311.943Z" fill="#E6E6E6"/>
<path d="M447.769 293.31H321.201C315.319 293.31 309.659 288.565 305.678 280.279L305.289 279.477H463.671L463.282 280.279C459.301 288.554 453.64 293.31 447.758 293.31H447.769ZM307.068 280.602C310.826 287.986 315.942 292.196 321.19 292.196H447.758C453.007 292.196 458.122 287.986 461.892 280.602H307.068Z" fill="#E6E6E6"/>
<path d="M483.22 356.349H281.836V317.969H483.22V356.349ZM282.948 355.235H482.108V319.083H282.948V355.235Z" fill="#E6E6E6"/>
<path d="M447.769 336.602H321.201C315.319 336.602 309.659 331.857 305.678 323.571L305.289 322.769H463.671L463.282 323.571C459.301 331.846 453.64 336.602 447.758 336.602H447.769ZM307.068 323.894C310.826 331.278 315.942 335.488 321.19 335.488H447.758C453.007 335.488 458.122 331.278 461.892 323.894H307.068Z" fill="#E6E6E6"/>
<path d="M134.53 244.282V246.977H132.806L131.394 268.094H110.444L109.032 246.977H107.308V244.282H134.53Z" fill="#E6E6E6"/>
<path d="M127.635 191.857C125.912 179.272 108.965 175.685 87.4478 175.217C66.9758 174.783 60.415 167.521 60.415 167.521C60.415 167.521 60.4818 196.902 89.9831 207.539C117.994 217.641 129.359 204.454 127.635 191.857Z" fill="#E6E6E6"/>
<path d="M117.183 220.381C117.539 215.202 125.79 205.69 145.639 210.023C159.984 213.152 165.321 205.701 165.321 205.701C165.321 205.701 163.998 226.729 142.414 233.055C121.92 239.059 116.549 229.491 117.183 220.392V220.381Z" fill="#E6E6E6"/>
<path d="M121.708 252.212C121.931 252.212 122.142 252.123 122.298 251.945C123.732 250.241 122.565 246.164 120.93 240.518C118.839 233.278 116.237 224.257 118.439 217.719C119.685 214.021 121.219 210.769 122.709 207.617C125.823 201.023 128.514 195.321 126.268 189.373C126.123 188.972 125.678 188.772 125.278 188.928C124.878 189.073 124.689 189.518 124.833 189.919C126.846 195.265 124.411 200.422 121.319 206.971C119.885 210.011 118.25 213.464 116.982 217.24C114.625 224.245 117.305 233.512 119.451 240.963C120.719 245.351 122.031 249.895 121.119 250.976C120.841 251.299 120.885 251.778 121.208 252.056C121.353 252.179 121.53 252.234 121.697 252.234L121.708 252.212Z" fill="#E6E6E6"/>
<path d="M278 415C397.076 415 493.606 409.355 493.606 402.392C493.606 395.429 397.076 389.784 278 389.784C158.924 389.784 62.3945 395.429 62.3945 402.392C62.3945 409.355 158.924 415 278 415Z" fill="#F5F5F5"/>
<path d="M277.955 340.924H120.051L111.411 86.573H269.315L277.955 340.924Z" fill="#03A0FF"/>
<path d="M285.84 333.027H127.936L119.284 78.6764H277.188L285.84 333.027Z" fill="#03A0FF"/>
<path opacity="0.3" d="M285.84 333.027H127.936L119.284 78.6764H277.188L285.84 333.027Z" fill="white"/>
<path d="M232.937 183.339C249.844 166.113 249.125 137.946 231.331 120.425C213.536 102.905 185.405 102.666 168.498 119.893C151.591 137.119 152.31 165.286 170.105 182.806C187.899 200.327 216.03 200.565 232.937 183.339Z" fill="#03A0FF"/>
<path d="M237.378 151.628C237.59 157.965 236.188 163.924 233.542 169.114C227.748 180.553 215.906 188.338 201.972 188.338C188.039 188.338 175.662 180.553 169.09 169.114C166.088 163.924 164.287 157.965 164.064 151.628C163.375 131.346 179.221 114.907 199.47 114.907C219.72 114.907 236.689 131.346 237.378 151.628Z" fill="white"/>
<path opacity="0.6" d="M233.542 169.114C227.748 180.552 215.906 188.338 201.972 188.338C188.039 188.338 175.662 180.552 169.09 169.114C178.109 162.944 189.062 159.335 200.983 159.335C212.903 159.335 224.101 162.944 233.542 169.114Z" fill="#03A0FF"/>
<path opacity="0.6" d="M212.142 150.71C218.359 144.376 218.095 134.018 211.552 127.576C205.009 121.134 194.665 121.046 188.448 127.38C182.231 133.714 182.495 144.072 189.038 150.514C195.581 156.957 205.926 157.044 212.142 150.71Z" fill="#03A0FF"/>
<path d="M254.114 240.919H153.389L152.711 220.871H253.436L254.114 240.919Z" fill="white"/>
<path d="M255.337 276.748H154.601L153.923 256.701H254.659L255.337 276.748Z" fill="white"/>
<path d="M216.462 259.463L192.187 262.771C191.186 262.904 190.53 263.818 190.719 264.787L193.91 281.081C194.099 282.05 195.067 282.74 196.068 282.596L220.343 279.288C221.343 279.154 222 278.252 221.811 277.272L218.619 260.978C218.43 260.009 217.463 259.318 216.462 259.463ZM209.49 275.969L205.097 276.57L204.652 271.313C203.718 270.901 203.04 270.066 202.851 269.086C202.54 267.493 203.618 266.012 205.242 265.8C206.865 265.577 208.444 266.691 208.756 268.284C208.945 269.264 208.622 270.233 207.888 270.868L209.478 275.969H209.49Z" fill="#03A0FF"/>
<path d="M214.06 258.583C213.17 258.705 212.314 258.104 212.147 257.235L211.836 255.643C210.98 251.254 206.787 247.935 202.25 248.336C197.402 248.759 194.155 253.047 195.056 257.681L195.412 259.507C195.578 260.376 195 261.167 194.111 261.289C193.221 261.412 192.365 260.81 192.198 259.942L191.898 258.382C190.697 252.268 194.544 246.387 200.76 245.296C207.299 244.16 213.749 248.57 214.994 254.941L215.35 256.767C215.517 257.636 214.938 258.427 214.049 258.549L214.06 258.583Z" fill="#03A0FF"/>
<path d="M238.713 304.826H173.138L172.693 291.773H238.268L238.713 304.826Z" fill="#03A0FF"/>
<path d="M207.076 230.895C207.143 232.922 205.564 234.559 203.54 234.559C201.516 234.559 199.826 232.922 199.759 230.895C199.693 228.868 201.272 227.23 203.296 227.23C205.319 227.23 207.01 228.868 207.076 230.895Z" fill="#263238"/>
<path d="M191.308 230.895C191.375 232.922 189.796 234.559 187.772 234.559C185.748 234.559 184.058 232.922 183.991 230.895C183.925 228.868 185.504 227.23 187.527 227.23C189.551 227.23 191.242 228.868 191.308 230.895Z" fill="#263238"/>
<path d="M175.551 230.895C175.618 232.922 174.039 234.559 172.015 234.559C169.991 234.559 168.301 232.922 168.234 230.895C168.168 228.868 169.747 227.23 171.771 227.23C173.794 227.23 175.485 228.868 175.551 230.895Z" fill="#263238"/>
<path d="M222.834 230.895C222.9 232.922 221.321 234.559 219.297 234.559C217.274 234.559 215.583 232.922 215.517 230.895C215.45 228.868 217.029 227.23 219.053 227.23C221.077 227.23 222.767 228.868 222.834 230.895Z" fill="#263238"/>
<path d="M238.59 230.895C238.657 232.922 237.078 234.559 235.054 234.559C233.03 234.559 231.34 232.922 231.274 230.895C231.207 228.868 232.786 227.23 234.81 227.23C236.834 227.23 238.524 228.868 238.59 230.895Z" fill="#263238"/>
<path d="M371.308 132.906C372.787 135.278 374.021 137.561 375.289 139.933C376.557 142.284 377.702 144.689 378.825 147.128C381.038 152.007 383.017 157.041 384.496 162.42C384.696 163.078 384.841 163.779 385.008 164.47L385.252 165.506L385.375 166.018L385.519 166.864C385.842 169.125 385.553 170.974 385.175 172.6C384.374 175.841 383.095 178.436 381.716 180.909C378.903 185.798 375.622 189.964 371.831 193.907L367.149 190.354C369.462 185.965 371.742 181.366 373.421 176.944C374.232 174.75 374.922 172.511 375.122 170.673C375.222 169.771 375.155 168.992 375.033 168.702L374.588 167.343C374.41 166.786 374.244 166.229 374.021 165.661C372.42 161.162 370.385 156.651 368.161 152.207C365.97 147.774 363.546 143.264 361.167 139.042L371.319 132.906H371.308Z" fill="#FF8B7B"/>
<path d="M368.339 188.75L363.235 191.467L369.106 198.35C369.106 198.35 372.776 195.867 372.932 192.08L368.339 188.761V188.75Z" fill="#FF8B7B"/>
<path d="M356.363 195.711L362.646 200.712L369.095 198.35L363.224 191.467L356.363 195.711Z" fill="#FF8B7B"/>
<path d="M334.879 96.4632C334.757 97.0869 334.323 97.5212 333.923 97.4321C333.523 97.3542 333.289 96.7862 333.422 96.1624C333.545 95.5387 333.978 95.1044 334.379 95.1935C334.779 95.2714 335.013 95.8395 334.879 96.4632Z" fill="#263238"/>
<path d="M334.378 97.5325C334.378 97.5325 332.243 100.818 330.353 102.233C331.243 103.48 333.189 103.391 333.189 103.391L334.378 97.5436V97.5325Z" fill="#FF5652"/>
<path d="M332.377 119.385L332.421 112.089L342.073 113.259C342.073 113.259 341.907 119.54 336.513 121.378L332.366 119.385H332.377Z" fill="#FF8B7B"/>
<path d="M335.157 106.821L341.951 108.782L342.074 113.248L332.421 112.078L335.157 106.821Z" fill="#FF8B7B"/>
<path opacity="0.2" d="M341.952 108.782L335.157 106.821L333.834 109.361C334.001 113.671 336.625 117.213 340.106 118.805C341.996 116.322 342.074 113.248 342.074 113.248L341.952 108.782Z" fill="black"/>
<path d="M337.837 93.4895C337.926 93.4895 338.015 93.4561 338.093 93.3892C338.248 93.2556 338.248 93.0106 338.115 92.8658C336.725 91.3622 335.035 91.6295 334.968 91.6406C334.768 91.674 334.634 91.8634 334.668 92.0639C334.701 92.2643 334.901 92.398 335.09 92.3646C335.146 92.3646 336.469 92.1641 337.581 93.367C337.659 93.4449 337.748 93.4895 337.848 93.4895H337.837Z" fill="#263238"/>
<path d="M352.048 107.734C350.925 113.47 350.247 121.412 354.25 125.232C354.25 125.232 352.682 131.046 342.052 131.046C330.364 131.046 336.425 125.945 336.425 125.945C341.284 124.43 341.24 118.894 340.128 114.439L352.037 107.734H352.048Z" fill="#FF8B7B"/>
<path d="M356.441 129.063C357.486 127.582 357.442 122.915 356.33 122.102C354.539 120.777 346.855 120.465 336.514 122.848C337.626 127.37 335.246 129.731 335.246 129.731L356.441 129.063Z" fill="#03A0FF"/>
<path d="M391.202 393.471C390.412 393.638 389.634 393.682 389.256 393.359C389.1 393.226 388.933 392.97 389.078 392.502C389.156 392.257 389.311 392.068 389.556 391.956C390.612 391.455 393.037 392.446 393.148 392.48C393.214 392.502 393.259 392.569 393.259 392.647C393.259 392.725 393.226 392.791 393.159 392.814C392.792 392.992 392.002 393.293 391.213 393.46L391.202 393.471ZM389.934 392.223C389.856 392.246 389.778 392.268 389.712 392.29C389.567 392.357 389.478 392.468 389.434 392.602C389.334 392.936 389.456 393.036 389.5 393.081C389.923 393.437 391.48 393.114 392.581 392.669C391.836 392.402 390.623 392.068 389.934 392.223Z" fill="#03A0FF"/>
<path d="M393.104 392.847C393.104 392.847 393.048 392.847 393.015 392.847C392.125 392.591 390.235 391.243 390.212 390.352C390.212 390.196 390.268 389.896 390.691 389.751C390.969 389.651 391.235 389.673 391.513 389.818C392.559 390.352 393.215 392.524 393.248 392.613C393.27 392.68 393.248 392.747 393.204 392.803C393.181 392.825 393.148 392.847 393.115 392.858L393.104 392.847ZM390.891 390.074C390.891 390.074 390.835 390.085 390.813 390.096C390.579 390.174 390.59 390.286 390.59 390.341C390.602 390.865 391.847 391.923 392.77 392.346C392.536 391.722 392.014 390.486 391.347 390.141C391.191 390.063 391.046 390.041 390.902 390.074H390.891Z" fill="#03A0FF"/>
<path d="M333.445 394.785C332.444 394.785 331.477 394.651 331.143 394.195C331.032 394.039 330.943 393.772 331.154 393.382C331.276 393.17 331.477 393.025 331.743 392.947C333.044 392.591 335.78 394.15 335.891 394.217C335.958 394.251 335.991 394.328 335.98 394.406C335.969 394.484 335.913 394.54 335.836 394.562C335.335 394.663 334.368 394.785 333.434 394.785H333.445ZM332.199 393.27C332.066 393.27 331.944 393.282 331.844 393.315C331.677 393.36 331.554 393.449 331.477 393.571C331.343 393.805 331.399 393.916 331.443 393.983C331.81 394.484 333.79 394.507 335.235 394.295C334.512 393.928 333.111 393.27 332.199 393.27Z" fill="#03A0FF"/>
<path d="M335.813 394.574C335.813 394.574 335.758 394.574 335.735 394.563C334.79 394.139 332.922 392.446 333.067 391.555C333.1 391.344 333.244 391.088 333.756 391.032C334.134 390.998 334.479 391.099 334.779 391.355C335.769 392.168 335.98 394.284 335.991 394.373C335.991 394.44 335.969 394.507 335.913 394.54C335.88 394.562 335.847 394.574 335.802 394.574H335.813ZM333.901 391.399C333.901 391.399 333.823 391.399 333.789 391.399C333.456 391.433 333.434 391.566 333.434 391.611C333.345 392.146 334.623 393.471 335.58 394.05C335.48 393.438 335.202 392.168 334.546 391.633C334.345 391.466 334.134 391.388 333.901 391.388V391.399Z" fill="#03A0FF"/>
<path d="M344.409 394.384H336.591L335.813 376.241H343.63L344.409 394.384Z" fill="#FF8B7B"/>
<path d="M401.821 390.764L394.171 392.424L386.498 375.517L394.149 373.869L401.821 390.764Z" fill="#FF8B7B"/>
<path d="M393.437 391.655L402.021 389.796C402.333 389.729 402.655 389.885 402.789 390.174L405.769 396.656C406.08 397.325 405.669 398.115 404.946 398.26C401.932 398.862 400.442 398.995 396.662 399.819C394.338 400.321 389.089 401.601 385.886 402.303C382.75 402.982 381.572 399.908 382.828 399.34C388.444 396.768 390.779 394.507 392.303 392.402C392.581 392.023 392.981 391.756 393.437 391.667V391.655Z" fill="#263238"/>
<path d="M336.647 393.482H345.187C345.51 393.482 345.788 393.705 345.854 394.017L347.4 400.978C347.556 401.702 347.011 402.381 346.277 402.37C343.197 402.314 338.749 402.136 334.868 402.136C330.342 402.136 326.428 402.381 321.124 402.381C317.91 402.381 317.02 399.129 318.366 398.839C324.482 397.503 329.486 397.358 334.768 394.095C335.346 393.738 335.98 393.482 336.647 393.482Z" fill="#263238"/>
<path d="M368.261 127.003C375.59 128.684 381.639 147.429 381.639 147.429L366.916 158.667C366.916 158.667 361.512 153.566 359.11 144.188C356.585 134.365 360.767 125.276 368.261 127.003Z" fill="#03A0FF"/>
<path opacity="0.4" d="M368.261 127.003C375.59 128.684 381.639 147.429 381.639 147.429L366.916 158.667C366.916 158.667 361.512 153.566 359.11 144.188C356.585 134.365 360.767 125.276 368.261 127.003Z" fill="black"/>
<path d="M329.708 149.367C327.873 151.35 326.05 153.098 324.17 154.914C323.236 155.816 322.269 156.696 321.29 157.564L319.811 158.856L319.444 159.179C319.267 159.335 319.044 159.513 318.811 159.703C318.321 160.07 317.788 160.482 316.664 160.972C316.075 161.206 315.308 161.507 313.962 161.529C313.328 161.529 312.461 161.429 311.627 161.117C310.782 160.805 309.959 160.26 309.403 159.703C308.236 158.533 307.891 157.509 307.657 156.818C307.446 156.105 307.379 155.604 307.335 155.159C307.268 154.29 307.313 153.711 307.357 153.165C307.413 152.63 307.479 152.163 307.568 151.728C307.891 150.013 308.358 148.621 308.858 147.24C309.37 145.87 309.926 144.544 310.582 143.219C311.282 141.805 311.972 140.769 312.65 139.588C315.397 134.988 318.622 130.789 322.047 126.824C325.549 122.893 329.219 119.295 333.445 115.999L337.537 120.22C334.657 124.073 331.832 128.206 329.219 132.271C326.606 136.369 324.193 140.546 322.102 144.801C321.624 145.848 321.035 146.995 320.701 147.875C320.312 148.832 319.956 149.868 319.656 150.882C319.367 151.884 319.133 152.931 319.022 153.7C319 153.889 318.989 154.045 318.989 154.145C318.989 154.234 319.011 154.279 318.989 154.045C318.977 153.911 318.966 153.722 318.844 153.321C318.711 152.931 318.499 152.196 317.565 151.249C317.109 150.804 316.431 150.336 315.73 150.091C315.052 149.824 314.34 149.746 313.862 149.746C312.828 149.768 312.372 149.98 312.072 150.091C311.527 150.325 311.516 150.392 311.516 150.369L311.938 149.98L313.273 148.754L315.931 146.26C317.688 144.6 319.456 142.829 321.135 141.181L329.697 149.4L329.708 149.367Z" fill="#FF8B7B"/>
<path opacity="0.2" d="M361.978 140.791C365.959 144.734 367.26 151.929 367.572 158.177L366.927 158.678C366.927 158.678 361.523 153.566 359.11 144.199C358.965 143.609 358.832 143.03 358.731 142.451L361.99 140.802L361.978 140.791Z" fill="black"/>
<path d="M321.935 134.855C320.334 143.319 319.333 160.694 323.982 195.121H365.815C366.104 188.683 362.068 157.308 368.261 127.003C368.261 127.003 361.089 125.566 354.261 125.232C348.913 124.976 341.173 124.809 336.48 125.232C334.523 125.41 332.588 125.7 330.876 126C326.35 126.802 322.792 130.333 321.947 134.855H321.935Z" fill="#03A0FF"/>
<path opacity="0.4" d="M321.935 134.855C320.334 143.319 319.333 160.694 323.982 195.121H365.815C366.104 188.683 362.068 157.308 368.261 127.003C368.261 127.003 361.089 125.566 354.261 125.232C348.913 124.976 341.173 124.809 336.48 125.232C334.523 125.41 332.588 125.7 330.876 126C326.35 126.802 322.792 130.333 321.947 134.855H321.935Z" fill="black"/>
<path opacity="0.2" d="M328.341 147.362L320.779 145.547C320.546 150.136 320.523 155.816 320.868 162.844C324.349 158.879 328.785 152.697 328.341 147.362Z" fill="black"/>
<path opacity="0.2" d="M335.813 376.252L336.213 385.608H344.042L343.641 376.252H335.813Z" fill="black"/>
<path opacity="0.2" d="M394.149 373.869L386.498 375.528L390.457 384.238L398.107 382.578L394.149 373.869Z" fill="black"/>
<path d="M355.762 99.3479C353.749 106.855 352.96 111.354 348.334 114.473C341.373 119.173 332.71 113.782 332.432 105.819C332.188 98.6574 335.513 87.5754 343.564 86.0607C351.492 84.5683 357.775 91.83 355.762 99.3368V99.3479Z" fill="#FF8B7B"/>
<path d="M338.215 99.6375C337.848 98.6351 336.113 90.8722 337.737 88.8562C339.36 86.8403 357.875 88.2882 360.611 90.9835C365.148 95.4609 362.001 99.4593 357.03 104.605C353.294 108.481 353.149 112.847 351.259 113.493C347.956 114.618 342.83 113.56 341.795 110.029C340.772 106.498 338.204 99.6375 338.204 99.6375H338.215Z" fill="#263238"/>
<path d="M358.364 82.1625C351.815 79.3669 339.549 82.4632 332.933 80.8594C332.699 84.3009 334.768 89.8029 341.395 91.2842C341.395 91.2842 350.803 93.1219 358.075 92.8212C365.348 92.5205 363.936 84.5237 358.376 82.1625H358.364Z" fill="#263238"/>
<path d="M359.388 91.2286C359.388 91.2286 363.435 91.6852 366.304 89.9032C367.528 92.8658 360.811 93.6789 359.388 91.2286Z" fill="#263238"/>
<path d="M341.774 99.9493C341.651 101.988 340.706 103.892 339.572 105.151C337.871 107.033 336.091 105.863 335.78 103.569C335.513 101.509 336.069 98.0448 338.149 97.009C340.206 95.9843 341.896 97.6327 341.763 99.9605L341.774 99.9493Z" fill="#FF8B7B"/>
<path d="M338.815 195.121C338.815 195.121 347.689 254.985 352.56 277.417C357.897 301.975 386.509 383.235 386.509 383.235L400.509 380.195C400.509 380.195 380.504 313.97 376.023 279.633C372.587 253.259 365.804 195.109 365.804 195.109H338.804L338.815 195.121Z" fill="#03A0FF"/>
<path d="M383.162 378.558C383.106 378.569 385.775 383.625 385.775 383.625L401.532 380.206L400.209 375.461L383.173 378.546L383.162 378.558Z" fill="#263238"/>
<path opacity="0.3" d="M344.431 216.449C354.695 218.465 353.605 256.801 352.371 276.514C349.413 262.581 345.076 235.762 342.118 216.728C342.796 216.382 343.564 216.282 344.431 216.449Z" fill="black"/>
<path d="M323.97 195.121C323.97 195.121 322.892 253.694 323.748 277.584C324.637 302.432 333.3 383.792 333.3 383.792H346.555C346.555 383.792 347.044 303.88 347.634 279.477C348.279 252.869 351.481 195.121 351.481 195.121H323.981H323.97Z" fill="#03A0FF"/>
<path d="M330.753 378.502C330.698 378.502 331.498 384.015 331.498 384.015H347.611L348.045 379.103L330.742 378.513L330.753 378.502Z" fill="#263238"/>
<path d="M338.326 137.427C342.074 147.552 320.045 159.48 320.045 159.48L310.504 147.195C310.504 147.195 316.865 134.509 324.682 128.796C334.334 121.735 335.479 129.731 338.326 137.439V137.427Z" fill="#03A0FF"/>
<path opacity="0.4" d="M338.326 137.427C342.074 147.552 320.045 159.48 320.045 159.48L310.504 147.195C310.504 147.195 316.865 134.509 324.682 128.796C334.334 121.735 335.479 129.731 338.326 137.439V137.427Z" fill="black"/>
<path d="M424.639 60.5666C446.804 60.5666 464.771 49.0976 464.771 34.95C464.771 20.8023 446.804 9.33337 424.639 9.33337C402.475 9.33337 384.507 20.8023 384.507 34.95C384.507 49.0976 402.475 60.5666 424.639 60.5666Z" fill="#03A0FF"/>
<path d="M410.161 47.8474C407.937 47.8474 405.757 47.1791 403.867 45.8872C401.332 44.1608 399.653 41.5323 399.119 38.5029C398.118 32.7002 401.966 26.9309 407.692 25.6166C412.407 24.5474 417.2 26.5633 419.724 30.6508L445.489 25.327C447.58 24.8927 449.693 26.1401 450.215 28.1115C450.493 29.1584 450.326 30.2388 449.759 31.152C449.192 32.0653 448.303 32.689 447.246 32.9118L446.568 33.0566C446.368 33.1011 446.201 33.2236 446.101 33.4018C446.001 33.58 445.99 33.7917 446.056 33.981L446.512 35.1616C446.824 35.9635 446.534 36.8657 445.823 37.3C445.278 37.6453 444.9 38.2356 444.822 38.8704C444.733 39.6612 444.21 40.2626 443.488 40.4186L442.954 40.5299C442.231 40.6747 441.508 40.3295 441.119 39.6389C440.652 38.837 439.729 38.4249 438.817 38.6143C437.905 38.8036 437.216 39.5498 437.105 40.4743C437.005 41.265 436.482 41.8665 435.759 42.0224L435.237 42.1338C434.525 42.2786 433.791 41.9333 433.402 41.2428C433.079 40.6859 432.501 40.2849 431.856 40.1958C431.033 40.0733 430.41 39.3605 430.377 38.5029L430.322 37.2332C430.322 37.0327 430.221 36.8434 430.055 36.7209C429.899 36.5984 429.699 36.5427 429.488 36.5872L421.281 38.2801C420.58 42.9357 417.078 46.6668 412.441 47.6246C411.673 47.7806 410.906 47.8585 410.139 47.8585L410.161 47.8474ZM407.937 26.7081C402.777 27.8776 399.319 33.09 400.22 38.3136C400.687 41.0423 402.21 43.4146 404.49 44.9739C406.769 46.5331 409.527 47.09 412.229 46.522C416.533 45.631 419.746 42.1004 420.247 37.7344L420.291 37.3334L429.287 35.4735C429.81 35.3621 430.344 35.4957 430.766 35.8187C431.189 36.1417 431.434 36.6318 431.456 37.1664L431.511 38.4361C431.522 38.7591 431.756 39.0264 432.045 39.0709C433.035 39.2157 433.891 39.7949 434.391 40.6636C434.514 40.8752 434.747 41.0757 435.048 41.02L435.57 40.9086C435.859 40.8529 436.004 40.5634 436.026 40.3183C436.193 38.915 437.238 37.7901 438.617 37.5005C439.996 37.2109 441.397 37.8458 442.098 39.0598C442.22 39.2714 442.453 39.483 442.754 39.4162L443.287 39.3048C443.577 39.2491 443.721 38.9595 443.743 38.7256C443.855 37.7344 444.411 36.8657 445.256 36.331C445.5 36.1751 445.6 35.8299 445.489 35.5403L445.033 34.3597C444.844 33.8696 444.878 33.3127 445.133 32.845C445.389 32.3772 445.834 32.0542 446.345 31.9428L447.024 31.798C447.78 31.6421 448.414 31.1966 448.814 30.5506C449.214 29.8935 449.337 29.125 449.137 28.3788C448.77 26.9754 447.235 26.0955 445.712 26.4074L419.168 31.8983L418.968 31.553C416.744 27.666 412.318 25.7057 407.937 26.7081ZM410.172 43.7376C408.793 43.7376 407.448 43.3366 406.269 42.557C404.679 41.5101 403.589 39.9062 403.211 38.0351C402.822 36.164 403.189 34.2594 404.234 32.6668C405.279 31.0741 406.881 29.9937 408.749 29.6039C410.617 29.2141 412.518 29.5816 414.109 30.6286C415.699 31.6755 416.777 33.2793 417.167 35.1505C417.556 37.0216 417.189 38.915 416.144 40.5077C415.098 42.1004 413.497 43.1918 411.629 43.5705C411.151 43.6708 410.661 43.7153 410.172 43.7153V43.7376ZM410.205 30.584C409.794 30.584 409.383 30.6286 408.971 30.7065C407.403 31.0295 406.047 31.954 405.168 33.2905C404.29 34.6381 403.978 36.2419 404.301 37.8124C404.623 39.3828 405.546 40.7416 406.881 41.6214C408.226 42.5013 409.827 42.8132 411.395 42.4902C412.974 42.1672 414.32 41.2428 415.198 39.9062C416.077 38.5586 416.388 36.9548 416.066 35.3843C415.743 33.8028 414.82 32.4551 413.486 31.5641C412.496 30.907 411.362 30.5729 410.205 30.5729V30.584Z" fill="white"/>
<path opacity="0.6" d="M391.98 75.5912C399.264 75.5912 405.168 71.8214 405.168 67.1712C405.168 62.5209 399.264 58.7511 391.98 58.7511C384.696 58.7511 378.792 62.5209 378.792 67.1712C378.792 71.8214 384.696 75.5912 391.98 75.5912Z" fill="#03A0FF"/>
<path opacity="0.3" d="M370.996 79.0328C373.987 79.0328 376.412 77.487 376.412 75.5801C376.412 73.6733 373.987 72.1274 370.996 72.1274C368.006 72.1274 365.581 73.6733 365.581 75.5801C365.581 77.487 368.006 79.0328 370.996 79.0328Z" fill="#03A0FF"/>
</g>
<defs>
<clipPath id="clip0_306_14">
<rect width="556" height="415" fill="white"/>
</clipPath>
</defs>
</svg>
